solid CATIA STL
  facet normal -1.000000e+000  0.000000e+000  0.000000e+000
    outer loop
      vertex -1.950000e+001  3.033150e+000  4.100000e+000
      vertex -1.950000e+001 -3.033150e+000  4.100000e+000
      vertex -1.950000e+001 -5.575273e+000  5.016606e+000
    endloop
  endfacet
  facet normal -1.000000e+000  0.000000e+000  0.000000e+000
    outer loop
      vertex -1.950000e+001  3.033150e+000  4.100000e+000
      vertex -1.950000e+001 -5.575273e+000  5.016606e+000
      vertex -1.950000e+001  5.209333e+000  5.395632e+000
    endloop
  endfacet
  facet normal -9.999999e-001  0.000000e+000  -0.000000e+000
    outer loop
      vertex -1.950000e+001  3.033150e+000  4.100000e+000
      vertex -1.950000e+001  5.209333e+000  5.395632e+000
      vertex -1.950000e+001  6.646293e+000  3.475167e+000
    endloop
  endfacet
  facet normal -1.000000e+000  -0.000000e+000  -0.000000e+000
    outer loop
      vertex -1.950000e+001  3.033150e+000  4.100000e+000
      vertex -1.950000e+001  6.646293e+000  3.475167e+000
      vertex -1.950000e+001  7.403495e+000  1.199275e+000
    endloop
  endfacet
  facet normal -1.000000e+000  0.000000e+000  0.000000e+000
    outer loop
      vertex -1.950000e+001  3.033150e+000  4.100000e+000
      vertex -1.950000e+001  7.403495e+000  1.199275e+000
      vertex -1.950000e+001  4.320145e+000  2.710415e+000
    endloop
  endfacet
  facet normal -1.000000e+000  -0.000000e+000  0.000000e+000
    outer loop
      vertex -1.950000e+001 -6.873864e+000 -3.000000e+000
      vertex -1.950000e+001 -4.124318e+000 -3.000000e+000
      vertex -1.950000e+001 -5.575273e+000 -5.016606e+000
    endloop
  endfacet
  facet normal -9.999999e-001  0.000000e+000  0.000000e+000
    outer loop
      vertex -1.950000e+001 -5.575273e+000 -5.016606e+000
      vertex -1.950000e+001 -4.124318e+000 -3.000000e+000
      vertex -1.950000e+001 -3.033150e+000 -4.100000e+000
    endloop
  endfacet
  facet normal -1.000000e+000  0.000000e+000  -0.000000e+000
    outer loop
      vertex -1.950000e+001 -5.575273e+000 -5.016606e+000
      vertex -1.950000e+001 -3.033150e+000 -4.100000e+000
      vertex -1.950000e+001  5.209333e+000 -5.395632e+000
    endloop
  endfacet
  facet normal -9.999999e-001  0.000000e+000  0.000000e+000
    outer loop
      vertex -1.950000e+001  5.209333e+000 -5.395632e+000
      vertex -1.950000e+001 -3.033150e+000 -4.100000e+000
      vertex -1.950000e+001  3.033150e+000 -4.100000e+000
    endloop
  endfacet
  facet normal -9.999999e-001  0.000000e+000  0.000000e+000
    outer loop
      vertex -1.950000e+001  5.209333e+000 -5.395632e+000
      vertex -1.950000e+001  3.033150e+000 -4.100000e+000
      vertex -1.950000e+001  6.646293e+000 -3.475167e+000
    endloop
  endfacet
  facet normal -1.000000e+000  -0.000000e+000  0.000000e+000
    outer loop
      vertex -1.950000e+001  6.646293e+000 -3.475167e+000
      vertex -1.950000e+001  3.033150e+000 -4.100000e+000
      vertex -1.950000e+001  4.320145e+000 -2.710415e+000
    endloop
  endfacet
  facet normal -1.000000e+000  0.000000e+000  0.000000e+000
    outer loop
      vertex -1.950000e+001  6.646293e+000 -3.475167e+000
      vertex -1.950000e+001  4.320145e+000 -2.710415e+000
      vertex -1.950000e+001  7.403495e+000 -1.199275e+000
    endloop
  endfacet
  facet normal -1.000000e+000  -0.000000e+000  0.000000e+000
    outer loop
      vertex -1.950000e+001  7.403495e+000 -1.199275e+000
      vertex -1.950000e+001  4.320145e+000 -2.710415e+000
      vertex -1.950000e+001  5.011305e+000 -9.470088e-001
    endloop
  endfacet
  facet normal -1.000000e+000  0.000000e+000  0.000000e+000
    outer loop
      vertex -1.950000e+001  7.403495e+000 -1.199275e+000
      vertex -1.950000e+001  5.011305e+000 -9.470088e-001
      vertex -1.950000e+001  7.403495e+000  1.199275e+000
    endloop
  endfacet
  facet normal -1.000000e+000  0.000000e+000  0.000000e+000
    outer loop
      vertex -1.950000e+001  7.403495e+000  1.199275e+000
      vertex -1.950000e+001  5.011305e+000 -9.470088e-001
      vertex -1.950000e+001  5.011305e+000  9.470088e-001
    endloop
  endfacet
  facet normal -1.000000e+000  0.000000e+000  0.000000e+000
    outer loop
      vertex -1.950000e+001  7.403495e+000  1.199275e+000
      vertex -1.950000e+001  5.011305e+000  9.470088e-001
      vertex -1.950000e+001  4.320145e+000  2.710415e+000
    endloop
  endfacet
  facet normal -1.000000e+000  -0.000000e+000  0.000000e+000
    outer loop
      vertex -1.950000e+001 -5.575273e+000 -5.016606e+000
      vertex -1.950000e+001  5.209333e+000 -5.395632e+000
      vertex -1.950000e+001 -3.706463e+000 -6.520133e+000
    endloop
  endfacet
  facet normal -1.000000e+000  0.000000e+000  0.000000e+000
    outer loop
      vertex -1.950000e+001 -3.706463e+000 -6.520133e+000
      vertex -1.950000e+001  5.209333e+000 -5.395632e+000
      vertex -1.950000e+001  3.239582e+000 -6.764252e+000
    endloop
  endfacet
  facet normal -1.000000e+000  -0.000000e+000  0.000000e+000
    outer loop
      vertex -1.950000e+001 -3.706463e+000 -6.520133e+000
      vertex -1.950000e+001  3.239582e+000 -6.764252e+000
      vertex -1.950000e+001 -1.458571e+000 -7.356804e+000
    endloop
  endfacet
  facet normal -9.999999e-001  0.000000e+000  0.000000e+000
    outer loop
      vertex -1.950000e+001 -1.458571e+000 -7.356804e+000
      vertex -1.950000e+001  3.239582e+000 -6.764252e+000
      vertex -1.950000e+001  9.384989e-001 -7.441050e+000
    endloop
  endfacet
  facet normal -1.000000e+000  0.000000e+000  0.000000e+000
    outer loop
      vertex -1.950000e+001 -1.458571e+000  7.356804e+000
      vertex -1.950000e+001  9.384989e-001  7.441050e+000
      vertex -1.950000e+001 -3.706463e+000  6.520133e+000
    endloop
  endfacet
  facet normal -1.000000e+000  0.000000e+000  0.000000e+000
    outer loop
      vertex -1.950000e+001 -3.706463e+000  6.520133e+000
      vertex -1.950000e+001  9.384989e-001  7.441050e+000
      vertex -1.950000e+001  3.239582e+000  6.764252e+000
    endloop
  endfacet
  facet normal -1.000000e+000  0.000000e+000  0.000000e+000
    outer loop
      vertex -1.950000e+001 -3.706463e+000  6.520133e+000
      vertex -1.950000e+001  3.239582e+000  6.764252e+000
      vertex -1.950000e+001 -5.575273e+000  5.016606e+000
    endloop
  endfacet
  facet normal -1.000000e+000  0.000000e+000  0.000000e+000
    outer loop
      vertex -1.950000e+001 -5.575273e+000  5.016606e+000
      vertex -1.950000e+001  3.239582e+000  6.764252e+000
      vertex -1.950000e+001  5.209333e+000  5.395632e+000
    endloop
  endfacet
  facet normal -9.999999e-001  0.000000e+000  0.000000e+000
    outer loop
      vertex -1.950000e+001 -3.033150e+000  4.100000e+000
      vertex -1.950000e+001 -4.124318e+000  3.000000e+000
      vertex -1.950000e+001 -5.575273e+000  5.016606e+000
    endloop
  endfacet
  facet normal -1.000000e+000  0.000000e+000  -0.000000e+000
    outer loop
      vertex -1.950000e+001 -5.575273e+000  5.016606e+000
      vertex -1.950000e+001 -4.124318e+000  3.000000e+000
      vertex -1.950000e+001 -6.873864e+000  3.000000e+000
    endloop
  endfacet
  facet normal  1.000000e+000  -0.000000e+000  -0.000000e+000
    outer loop
      vertex -1.750000e+001  3.033150e+000  4.100000e+000
      vertex -1.750000e+001  4.320145e+000  2.710415e+000
      vertex -1.750000e+001  7.403495e+000  1.199275e+000
    endloop
  endfacet
  facet normal  1.000000e+000  0.000000e+000  0.000000e+000
    outer loop
      vertex -1.750000e+001  3.033150e+000  4.100000e+000
      vertex -1.750000e+001  7.403495e+000  1.199275e+000
      vertex -1.750000e+001  6.646293e+000  3.475167e+000
    endloop
  endfacet
  facet normal  9.999999e-001  0.000000e+000  0.000000e+000
    outer loop
      vertex -1.750000e+001  3.033150e+000  4.100000e+000
      vertex -1.750000e+001  6.646293e+000  3.475167e+000
      vertex -1.750000e+001  5.209333e+000  5.395632e+000
    endloop
  endfacet
  facet normal  1.000000e+000  0.000000e+000  0.000000e+000
    outer loop
      vertex -1.750000e+001  3.033150e+000  4.100000e+000
      vertex -1.750000e+001  5.209333e+000  5.395632e+000
      vertex -1.750000e+001 -5.575273e+000  5.016606e+000
    endloop
  endfacet
  facet normal  1.000000e+000  0.000000e+000  0.000000e+000
    outer loop
      vertex -1.750000e+001  3.033150e+000  4.100000e+000
      vertex -1.750000e+001 -5.575273e+000  5.016606e+000
      vertex -1.750000e+001 -3.033150e+000  4.100000e+000
    endloop
  endfacet
  facet normal  1.000000e+000  0.000000e+000  -0.000000e+000
    outer loop
      vertex -1.750000e+001  4.320145e+000  2.710415e+000
      vertex -1.750000e+001  5.011305e+000  9.470088e-001
      vertex -1.750000e+001  7.403495e+000  1.199275e+000
    endloop
  endfacet
  facet normal  1.000000e+000  0.000000e+000  0.000000e+000
    outer loop
      vertex -1.750000e+001  7.403495e+000  1.199275e+000
      vertex -1.750000e+001  5.011305e+000  9.470088e-001
      vertex -1.750000e+001  5.011305e+000 -9.470088e-001
    endloop
  endfacet
  facet normal  1.000000e+000  -0.000000e+000  0.000000e+000
    outer loop
      vertex -1.750000e+001  7.403495e+000  1.199275e+000
      vertex -1.750000e+001  5.011305e+000 -9.470088e-001
      vertex -1.750000e+001  7.403495e+000 -1.199275e+000
    endloop
  endfacet
  facet normal  1.000000e+000  0.000000e+000  0.000000e+000
    outer loop
      vertex -1.750000e+001  7.403495e+000 -1.199275e+000
      vertex -1.750000e+001  5.011305e+000 -9.470088e-001
      vertex -1.750000e+001  4.320145e+000 -2.710415e+000
    endloop
  endfacet
  facet normal  1.000000e+000  -0.000000e+000  0.000000e+000
    outer loop
      vertex -1.750000e+001  7.403495e+000 -1.199275e+000
      vertex -1.750000e+001  4.320145e+000 -2.710415e+000
      vertex -1.750000e+001  6.646293e+000 -3.475167e+000
    endloop
  endfacet
  facet normal  1.000000e+000  0.000000e+000  0.000000e+000
    outer loop
      vertex -1.750000e+001  6.646293e+000 -3.475167e+000
      vertex -1.750000e+001  4.320145e+000 -2.710415e+000
      vertex -1.750000e+001  3.033150e+000 -4.100000e+000
    endloop
  endfacet
  facet normal  9.999999e-001  -0.000000e+000  0.000000e+000
    outer loop
      vertex -1.750000e+001  6.646293e+000 -3.475167e+000
      vertex -1.750000e+001  3.033150e+000 -4.100000e+000
      vertex -1.750000e+001  5.209333e+000 -5.395632e+000
    endloop
  endfacet
  facet normal  9.999999e-001  0.000000e+000  0.000000e+000
    outer loop
      vertex -1.750000e+001  5.209333e+000 -5.395632e+000
      vertex -1.750000e+001  3.033150e+000 -4.100000e+000
      vertex -1.750000e+001 -3.033150e+000 -4.100000e+000
    endloop
  endfacet
  facet normal  1.000000e+000  0.000000e+000  0.000000e+000
    outer loop
      vertex -1.750000e+001  5.209333e+000 -5.395632e+000
      vertex -1.750000e+001 -3.033150e+000 -4.100000e+000
      vertex -1.750000e+001 -5.575273e+000 -5.016606e+000
    endloop
  endfacet
  facet normal  9.999999e-001  0.000000e+000  0.000000e+000
    outer loop
      vertex -1.750000e+001 -5.575273e+000 -5.016606e+000
      vertex -1.750000e+001 -3.033150e+000 -4.100000e+000
      vertex -1.750000e+001 -4.124318e+000 -3.000000e+000
    endloop
  endfacet
  facet normal  1.000000e+000  0.000000e+000  0.000000e+000
    outer loop
      vertex -1.750000e+001 -5.575273e+000 -5.016606e+000
      vertex -1.750000e+001 -4.124318e+000 -3.000000e+000
      vertex -1.750000e+001 -6.873864e+000 -3.000000e+000
    endloop
  endfacet
  facet normal  1.000000e+000  0.000000e+000  -0.000000e+000
    outer loop
      vertex -1.750000e+001 -5.575273e+000 -5.016606e+000
      vertex -1.750000e+001 -3.706463e+000 -6.520133e+000
      vertex -1.750000e+001  5.209333e+000 -5.395632e+000
    endloop
  endfacet
  facet normal  1.000000e+000  0.000000e+000  0.000000e+000
    outer loop
      vertex -1.750000e+001  5.209333e+000 -5.395632e+000
      vertex -1.750000e+001 -3.706463e+000 -6.520133e+000
      vertex -1.750000e+001  3.239582e+000 -6.764252e+000
    endloop
  endfacet
  facet normal  1.000000e+000  0.000000e+000  -0.000000e+000
    outer loop
      vertex -1.750000e+001 -3.706463e+000 -6.520133e+000
      vertex -1.750000e+001 -1.458571e+000 -7.356804e+000
      vertex -1.750000e+001  3.239582e+000 -6.764252e+000
    endloop
  endfacet
  facet normal  9.999999e-001  0.000000e+000  0.000000e+000
    outer loop
      vertex -1.750000e+001  3.239582e+000 -6.764252e+000
      vertex -1.750000e+001 -1.458571e+000 -7.356804e+000
      vertex -1.750000e+001  9.384989e-001 -7.441050e+000
    endloop
  endfacet
  facet normal  9.999999e-001  0.000000e+000  0.000000e+000
    outer loop
      vertex -1.750000e+001 -1.458571e+000  7.356804e+000
      vertex -1.750000e+001 -3.706463e+000  6.520133e+000
      vertex -1.750000e+001  9.384989e-001  7.441050e+000
    endloop
  endfacet
  facet normal  1.000000e+000  0.000000e+000  0.000000e+000
    outer loop
      vertex -1.750000e+001  9.384989e-001  7.441050e+000
      vertex -1.750000e+001 -3.706463e+000  6.520133e+000
      vertex -1.750000e+001  3.239582e+000  6.764252e+000
    endloop
  endfacet
  facet normal  1.000000e+000  0.000000e+000  0.000000e+000
    outer loop
      vertex -1.750000e+001 -3.706463e+000  6.520133e+000
      vertex -1.750000e+001 -5.575273e+000  5.016606e+000
      vertex -1.750000e+001  3.239582e+000  6.764252e+000
    endloop
  endfacet
  facet normal  1.000000e+000  0.000000e+000  0.000000e+000
    outer loop
      vertex -1.750000e+001  3.239582e+000  6.764252e+000
      vertex -1.750000e+001 -5.575273e+000  5.016606e+000
      vertex -1.750000e+001  5.209333e+000  5.395632e+000
    endloop
  endfacet
  facet normal  9.999999e-001  0.000000e+000  0.000000e+000
    outer loop
      vertex -1.750000e+001 -3.033150e+000  4.100000e+000
      vertex -1.750000e+001 -5.575273e+000  5.016606e+000
      vertex -1.750000e+001 -4.124318e+000  3.000000e+000
    endloop
  endfacet
  facet normal  1.000000e+000  0.000000e+000  0.000000e+000
    outer loop
      vertex -1.750000e+001 -4.124318e+000  3.000000e+000
      vertex -1.750000e+001 -5.575273e+000  5.016606e+000
      vertex -1.750000e+001 -6.873864e+000  3.000000e+000
    endloop
  endfacet
  facet normal  -0.000000e+000  0.000000e+000 -1.000000e+000
    outer loop
      vertex -1.950000e+001 -4.124318e+000  3.000000e+000
      vertex -1.750000e+001 -4.124318e+000  3.000000e+000
      vertex -1.950000e+001 -6.873864e+000  3.000000e+000
    endloop
  endfacet
  facet normal  0.000000e+000  0.000000e+000 -1.000000e+000
    outer loop
      vertex -1.950000e+001 -6.873864e+000  3.000000e+000
      vertex -1.750000e+001 -4.124318e+000  3.000000e+000
      vertex -1.750000e+001 -6.873864e+000  3.000000e+000
    endloop
  endfacet
  facet normal  0.000000e+000  7.099512e-001 -7.042509e-001
    outer loop
      vertex -1.950000e+001 -4.124318e+000  3.000000e+000
      vertex -1.950000e+001 -3.033150e+000  4.100000e+000
      vertex -1.750000e+001 -4.124318e+000  3.000000e+000
    endloop
  endfacet
  facet normal  0.000000e+000  7.099512e-001 -7.042509e-001
    outer loop
      vertex -1.750000e+001 -4.124318e+000  3.000000e+000
      vertex -1.950000e+001 -3.033150e+000  4.100000e+000
      vertex -1.750000e+001 -3.033150e+000  4.100000e+000
    endloop
  endfacet
  facet normal  -0.000000e+000  0.000000e+000 -1.000000e+000
    outer loop
      vertex -1.950000e+001  3.033150e+000  4.100000e+000
      vertex -1.750000e+001  3.033150e+000  4.100000e+000
      vertex -1.950000e+001 -3.033150e+000  4.100000e+000
    endloop
  endfacet
  facet normal  0.000000e+000  0.000000e+000 -1.000000e+000
    outer loop
      vertex -1.950000e+001 -3.033150e+000  4.100000e+000
      vertex -1.750000e+001  3.033150e+000  4.100000e+000
      vertex -1.750000e+001 -3.033150e+000  4.100000e+000
    endloop
  endfacet
  facet normal  0.000000e+000 -9.310398e-001  3.649175e-001
    outer loop
      vertex -1.750000e+001  5.011305e+000 -9.470088e-001
      vertex -1.950000e+001  4.320145e+000 -2.710415e+000
      vertex -1.750000e+001  4.320145e+000 -2.710415e+000
    endloop
  endfacet
  facet normal  0.000000e+000 -7.336708e-001  6.795051e-001
    outer loop
      vertex -1.750000e+001  4.320145e+000 -2.710415e+000
      vertex -1.950000e+001  4.320145e+000 -2.710415e+000
      vertex -1.950000e+001  3.033150e+000 -4.100000e+000
    endloop
  endfacet
  facet normal  0.000000e+000 -7.336708e-001  6.795051e-001
    outer loop
      vertex -1.750000e+001  4.320145e+000 -2.710415e+000
      vertex -1.950000e+001  3.033150e+000 -4.100000e+000
      vertex -1.750000e+001  3.033150e+000 -4.100000e+000
    endloop
  endfacet
  facet normal  0.000000e+000 -9.310398e-001  3.649175e-001
    outer loop
      vertex -1.950000e+001  4.320145e+000 -2.710415e+000
      vertex -1.750000e+001  5.011305e+000 -9.470088e-001
      vertex -1.950000e+001  5.011305e+000 -9.470088e-001
    endloop
  endfacet
  facet normal  0.000000e+000 -9.999999e-001  0.000000e+000
    outer loop
      vertex -1.950000e+001  5.011305e+000 -9.470088e-001
      vertex -1.750000e+001  5.011305e+000 -9.470088e-001
      vertex -1.750000e+001  5.011305e+000  9.470088e-001
    endloop
  endfacet
  facet normal  -0.000000e+000 -9.999999e-001  0.000000e+000
    outer loop
      vertex -1.950000e+001  5.011305e+000 -9.470088e-001
      vertex -1.750000e+001  5.011305e+000  9.470088e-001
      vertex -1.950000e+001  5.011305e+000  9.470088e-001
    endloop
  endfacet
  facet normal  0.000000e+000 -9.310398e-001 -3.649175e-001
    outer loop
      vertex -1.950000e+001  5.011305e+000  9.470088e-001
      vertex -1.750000e+001  5.011305e+000  9.470088e-001
      vertex -1.750000e+001  4.320145e+000  2.710415e+000
    endloop
  endfacet
  facet normal  -0.000000e+000 -9.310398e-001 -3.649175e-001
    outer loop
      vertex -1.950000e+001  5.011305e+000  9.470088e-001
      vertex -1.750000e+001  4.320145e+000  2.710415e+000
      vertex -1.950000e+001  4.320145e+000  2.710415e+000
    endloop
  endfacet
  facet normal  0.000000e+000 -7.336708e-001 -6.795051e-001
    outer loop
      vertex -1.950000e+001  4.320145e+000  2.710415e+000
      vertex -1.750000e+001  4.320145e+000  2.710415e+000
      vertex -1.750000e+001  3.033150e+000  4.100000e+000
    endloop
  endfacet
  facet normal  -0.000000e+000 -7.336708e-001 -6.795051e-001
    outer loop
      vertex -1.950000e+001  4.320145e+000  2.710415e+000
      vertex -1.750000e+001  3.033150e+000  4.100000e+000
      vertex -1.950000e+001  3.033150e+000  4.100000e+000
    endloop
  endfacet
  facet normal  0.000000e+000  0.000000e+000  1.000000e+000
    outer loop
      vertex -1.950000e+001 -3.033150e+000 -4.100000e+000
      vertex -1.750000e+001 -3.033150e+000 -4.100000e+000
      vertex -1.950000e+001  3.033150e+000 -4.100000e+000
    endloop
  endfacet
  facet normal  -0.000000e+000  0.000000e+000  1.000000e+000
    outer loop
      vertex -1.950000e+001  3.033150e+000 -4.100000e+000
      vertex -1.750000e+001 -3.033150e+000 -4.100000e+000
      vertex -1.750000e+001  3.033150e+000 -4.100000e+000
    endloop
  endfacet
  facet normal  0.000000e+000  7.099512e-001  7.042509e-001
    outer loop
      vertex -1.950000e+001 -3.033150e+000 -4.100000e+000
      vertex -1.950000e+001 -4.124318e+000 -3.000000e+000
      vertex -1.750000e+001 -3.033150e+000 -4.100000e+000
    endloop
  endfacet
  facet normal  0.000000e+000  7.099512e-001  7.042509e-001
    outer loop
      vertex -1.750000e+001 -3.033150e+000 -4.100000e+000
      vertex -1.950000e+001 -4.124318e+000 -3.000000e+000
      vertex -1.750000e+001 -4.124318e+000 -3.000000e+000
    endloop
  endfacet
  facet normal  0.000000e+000  0.000000e+000  1.000000e+000
    outer loop
      vertex -1.950000e+001 -6.873864e+000 -3.000000e+000
      vertex -1.750000e+001 -6.873864e+000 -3.000000e+000
      vertex -1.950000e+001 -4.124318e+000 -3.000000e+000
    endloop
  endfacet
  facet normal  -0.000000e+000  0.000000e+000  1.000000e+000
    outer loop
      vertex -1.950000e+001 -4.124318e+000 -3.000000e+000
      vertex -1.750000e+001 -6.873864e+000 -3.000000e+000
      vertex -1.750000e+001 -4.124318e+000 -3.000000e+000
    endloop
  endfacet
  facet normal  0.000000e+000 -8.407608e-001 -5.414069e-001
    outer loop
      vertex -1.750000e+001 -6.873864e+000 -3.000000e+000
      vertex -1.950000e+001 -6.873864e+000 -3.000000e+000
      vertex -1.750000e+001 -5.575273e+000 -5.016606e+000
    endloop
  endfacet
  facet normal  -0.000000e+000 -8.407608e-001 -5.414069e-001
    outer loop
      vertex -1.750000e+001 -5.575273e+000 -5.016606e+000
      vertex -1.950000e+001 -6.873864e+000 -3.000000e+000
      vertex -1.950000e+001 -5.575273e+000 -5.016606e+000
    endloop
  endfacet
  facet normal  0.000000e+000 -6.268481e-001 -7.791415e-001
    outer loop
      vertex -1.750000e+001 -5.575273e+000 -5.016606e+000
      vertex -1.950000e+001 -5.575273e+000 -5.016606e+000
      vertex -1.750000e+001 -3.706463e+000 -6.520133e+000
    endloop
  endfacet
  facet normal  -0.000000e+000 -6.268481e-001 -7.791415e-001
    outer loop
      vertex -1.750000e+001 -3.706463e+000 -6.520133e+000
      vertex -1.950000e+001 -5.575273e+000 -5.016606e+000
      vertex -1.950000e+001 -3.706463e+000 -6.520133e+000
    endloop
  endfacet
  facet normal  0.000000e+000 -3.488241e-001 -9.371882e-001
    outer loop
      vertex -1.750000e+001 -3.706463e+000 -6.520133e+000
      vertex -1.950000e+001 -3.706463e+000 -6.520133e+000
      vertex -1.750000e+001 -1.458571e+000 -7.356804e+000
    endloop
  endfacet
  facet normal  -0.000000e+000 -3.488241e-001 -9.371882e-001
    outer loop
      vertex -1.750000e+001 -1.458571e+000 -7.356804e+000
      vertex -1.950000e+001 -3.706463e+000 -6.520133e+000
      vertex -1.950000e+001 -1.458571e+000 -7.356804e+000
    endloop
  endfacet
  facet normal  0.000000e+000 -3.512340e-002 -9.993830e-001
    outer loop
      vertex -1.750000e+001 -1.458571e+000 -7.356804e+000
      vertex -1.950000e+001 -1.458571e+000 -7.356804e+000
      vertex -1.750000e+001  9.384989e-001 -7.441050e+000
    endloop
  endfacet
  facet normal  -0.000000e+000 -3.512340e-002 -9.993830e-001
    outer loop
      vertex -1.750000e+001  9.384989e-001 -7.441050e+000
      vertex -1.950000e+001 -1.458571e+000 -7.356804e+000
      vertex -1.950000e+001  9.384989e-001 -7.441050e+000
    endloop
  endfacet
  facet normal  0.000000e+000  2.821695e-001 -9.593646e-001
    outer loop
      vertex -1.750000e+001  9.384989e-001 -7.441050e+000
      vertex -1.950000e+001  9.384989e-001 -7.441050e+000
      vertex -1.750000e+001  3.239582e+000 -6.764252e+000
    endloop
  endfacet
  facet normal  0.000000e+000  2.821695e-001 -9.593646e-001
    outer loop
      vertex -1.750000e+001  3.239582e+000 -6.764252e+000
      vertex -1.950000e+001  9.384989e-001 -7.441050e+000
      vertex -1.950000e+001  3.239582e+000 -6.764252e+000
    endloop
  endfacet
  facet normal  0.000000e+000  5.706031e-001 -8.212259e-001
    outer loop
      vertex -1.750000e+001  3.239582e+000 -6.764252e+000
      vertex -1.950000e+001  3.239582e+000 -6.764252e+000
      vertex -1.750000e+001  5.209333e+000 -5.395632e+000
    endloop
  endfacet
  facet normal  0.000000e+000  5.706031e-001 -8.212259e-001
    outer loop
      vertex -1.750000e+001  5.209333e+000 -5.395632e+000
      vertex -1.950000e+001  3.239582e+000 -6.764252e+000
      vertex -1.950000e+001  5.209333e+000 -5.395632e+000
    endloop
  endfacet
  facet normal  0.000000e+000  8.006777e-001 -5.990953e-001
    outer loop
      vertex -1.750000e+001  5.209333e+000 -5.395632e+000
      vertex -1.950000e+001  5.209333e+000 -5.395632e+000
      vertex -1.750000e+001  6.646293e+000 -3.475167e+000
    endloop
  endfacet
  facet normal  0.000000e+000  8.006777e-001 -5.990953e-001
    outer loop
      vertex -1.750000e+001  6.646293e+000 -3.475167e+000
      vertex -1.950000e+001  5.209333e+000 -5.395632e+000
      vertex -1.950000e+001  6.646293e+000 -3.475167e+000
    endloop
  endfacet
  facet normal  0.000000e+000  9.488618e-001 -3.156916e-001
    outer loop
      vertex -1.750000e+001  6.646293e+000 -3.475167e+000
      vertex -1.950000e+001  6.646293e+000 -3.475167e+000
      vertex -1.750000e+001  7.403495e+000 -1.199275e+000
    endloop
  endfacet
  facet normal  0.000000e+000  9.488618e-001 -3.156916e-001
    outer loop
      vertex -1.750000e+001  7.403495e+000 -1.199275e+000
      vertex -1.950000e+001  6.646293e+000 -3.475167e+000
      vertex -1.950000e+001  7.403495e+000 -1.199275e+000
    endloop
  endfacet
  facet normal  0.000000e+000  1.000000e+000  0.000000e+000
    outer loop
      vertex -1.750000e+001  7.403495e+000 -1.199275e+000
      vertex -1.950000e+001  7.403495e+000 -1.199275e+000
      vertex -1.750000e+001  7.403495e+000  1.199275e+000
    endloop
  endfacet
  facet normal  0.000000e+000  1.000000e+000  0.000000e+000
    outer loop
      vertex -1.750000e+001  7.403495e+000  1.199275e+000
      vertex -1.950000e+001  7.403495e+000 -1.199275e+000
      vertex -1.950000e+001  7.403495e+000  1.199275e+000
    endloop
  endfacet
  facet normal  -0.000000e+000  9.488618e-001  3.156916e-001
    outer loop
      vertex -1.750000e+001  7.403495e+000  1.199275e+000
      vertex -1.950000e+001  7.403495e+000  1.199275e+000
      vertex -1.750000e+001  6.646293e+000  3.475167e+000
    endloop
  endfacet
  facet normal  0.000000e+000  9.488618e-001  3.156916e-001
    outer loop
      vertex -1.750000e+001  6.646293e+000  3.475167e+000
      vertex -1.950000e+001  7.403495e+000  1.199275e+000
      vertex -1.950000e+001  6.646293e+000  3.475167e+000
    endloop
  endfacet
  facet normal  -0.000000e+000  8.006777e-001  5.990953e-001
    outer loop
      vertex -1.750000e+001  6.646293e+000  3.475167e+000
      vertex -1.950000e+001  6.646293e+000  3.475167e+000
      vertex -1.750000e+001  5.209333e+000  5.395632e+000
    endloop
  endfacet
  facet normal  0.000000e+000  8.006777e-001  5.990953e-001
    outer loop
      vertex -1.750000e+001  5.209333e+000  5.395632e+000
      vertex -1.950000e+001  6.646293e+000  3.475167e+000
      vertex -1.950000e+001  5.209333e+000  5.395632e+000
    endloop
  endfacet
  facet normal  -0.000000e+000  5.706031e-001  8.212259e-001
    outer loop
      vertex -1.750000e+001  5.209333e+000  5.395632e+000
      vertex -1.950000e+001  5.209333e+000  5.395632e+000
      vertex -1.750000e+001  3.239582e+000  6.764252e+000
    endloop
  endfacet
  facet normal  0.000000e+000  5.706031e-001  8.212259e-001
    outer loop
      vertex -1.750000e+001  3.239582e+000  6.764252e+000
      vertex -1.950000e+001  5.209333e+000  5.395632e+000
      vertex -1.950000e+001  3.239582e+000  6.764252e+000
    endloop
  endfacet
  facet normal  -0.000000e+000  2.821695e-001  9.593646e-001
    outer loop
      vertex -1.750000e+001  3.239582e+000  6.764252e+000
      vertex -1.950000e+001  3.239582e+000  6.764252e+000
      vertex -1.750000e+001  9.384989e-001  7.441050e+000
    endloop
  endfacet
  facet normal  0.000000e+000  2.821695e-001  9.593646e-001
    outer loop
      vertex -1.750000e+001  9.384989e-001  7.441050e+000
      vertex -1.950000e+001  3.239582e+000  6.764252e+000
      vertex -1.950000e+001  9.384989e-001  7.441050e+000
    endloop
  endfacet
  facet normal  0.000000e+000 -3.512340e-002  9.993830e-001
    outer loop
      vertex -1.750000e+001  9.384989e-001  7.441050e+000
      vertex -1.950000e+001  9.384989e-001  7.441050e+000
      vertex -1.750000e+001 -1.458571e+000  7.356804e+000
    endloop
  endfacet
  facet normal  0.000000e+000 -3.512340e-002  9.993830e-001
    outer loop
      vertex -1.750000e+001 -1.458571e+000  7.356804e+000
      vertex -1.950000e+001  9.384989e-001  7.441050e+000
      vertex -1.950000e+001 -1.458571e+000  7.356804e+000
    endloop
  endfacet
  facet normal  0.000000e+000 -3.488241e-001  9.371882e-001
    outer loop
      vertex -1.750000e+001 -1.458571e+000  7.356804e+000
      vertex -1.950000e+001 -1.458571e+000  7.356804e+000
      vertex -1.750000e+001 -3.706463e+000  6.520133e+000
    endloop
  endfacet
  facet normal  0.000000e+000 -3.488241e-001  9.371882e-001
    outer loop
      vertex -1.750000e+001 -3.706463e+000  6.520133e+000
      vertex -1.950000e+001 -1.458571e+000  7.356804e+000
      vertex -1.950000e+001 -3.706463e+000  6.520133e+000
    endloop
  endfacet
  facet normal  0.000000e+000 -6.268481e-001  7.791415e-001
    outer loop
      vertex -1.750000e+001 -3.706463e+000  6.520133e+000
      vertex -1.950000e+001 -3.706463e+000  6.520133e+000
      vertex -1.750000e+001 -5.575273e+000  5.016606e+000
    endloop
  endfacet
  facet normal  0.000000e+000 -6.268481e-001  7.791415e-001
    outer loop
      vertex -1.750000e+001 -5.575273e+000  5.016606e+000
      vertex -1.950000e+001 -3.706463e+000  6.520133e+000
      vertex -1.950000e+001 -5.575273e+000  5.016606e+000
    endloop
  endfacet
  facet normal  0.000000e+000 -8.407608e-001  5.414069e-001
    outer loop
      vertex -1.750000e+001 -5.575273e+000  5.016606e+000
      vertex -1.950000e+001 -5.575273e+000  5.016606e+000
      vertex -1.750000e+001 -6.873864e+000  3.000000e+000
    endloop
  endfacet
  facet normal  0.000000e+000 -8.407608e-001  5.414069e-001
    outer loop
      vertex -1.750000e+001 -6.873864e+000  3.000000e+000
      vertex -1.950000e+001 -5.575273e+000  5.016606e+000
      vertex -1.950000e+001 -6.873864e+000  3.000000e+000
    endloop
  endfacet
endsolid CATIA STL
