solid CATIA STL
  facet normal  -0.000000e+000  0.000000e+000 -1.000000e+000
    outer loop
      vertex  2.020000e+002 -2.725578e+001  6.179507e+001
      vertex  2.023045e+002 -2.878651e+001  6.179507e+001
      vertex  2.018855e+002 -3.291890e+001  6.179507e+001
    endloop
  endfacet
  facet normal  0.000000e+000  0.000000e+000 -1.000000e+000
    outer loop
      vertex  2.020000e+002 -2.725578e+001  6.179507e+001
      vertex  2.018855e+002 -2.159266e+001  6.179507e+001
      vertex  2.023045e+002 -2.572504e+001  6.179507e+001
    endloop
  endfacet
  facet normal  0.000000e+000  0.000000e+000 -1.000000e+000
    outer loop
      vertex  2.100000e+002 -2.725578e+001  6.179507e+001
      vertex  2.096955e+002 -2.572504e+001  6.179507e+001
      vertex  2.101145e+002 -2.159266e+001  6.179507e+001
    endloop
  endfacet
  facet normal  0.000000e+000  -0.000000e+000 -1.000000e+000
    outer loop
      vertex  2.100000e+002 -2.725578e+001  6.179507e+001
      vertex  2.101145e+002 -2.159266e+001  6.179507e+001
      vertex  2.116631e+002 -2.314128e+001  6.179507e+001
    endloop
  endfacet
  facet normal  0.000000e+000  -0.000000e+000 -1.000000e+000
    outer loop
      vertex  2.100000e+002 -2.725578e+001  6.179507e+001
      vertex  2.116631e+002 -2.314128e+001  6.179507e+001
      vertex  2.126574e+002 -2.509266e+001  6.179507e+001
    endloop
  endfacet
  facet normal  0.000000e+000  -0.000000e+000 -9.999999e-001
    outer loop
      vertex  2.100000e+002 -2.725578e+001  6.179507e+001
      vertex  2.126574e+002 -2.509266e+001  6.179507e+001
      vertex  2.130000e+002 -2.725578e+001  6.179507e+001
    endloop
  endfacet
  facet normal  -0.000000e+000  0.000000e+000 -9.999999e-001
    outer loop
      vertex  2.100000e+002 -2.725578e+001  6.179507e+001
      vertex  2.130000e+002 -2.725578e+001  6.179507e+001
      vertex  2.126574e+002 -2.941890e+001  6.179507e+001
    endloop
  endfacet
  facet normal  -0.000000e+000  0.000000e+000 -1.000000e+000
    outer loop
      vertex  2.100000e+002 -2.725578e+001  6.179507e+001
      vertex  2.126574e+002 -2.941890e+001  6.179507e+001
      vertex  2.116631e+002 -3.137028e+001  6.179507e+001
    endloop
  endfacet
  facet normal  -0.000000e+000  0.000000e+000 -1.000000e+000
    outer loop
      vertex  2.100000e+002 -2.725578e+001  6.179507e+001
      vertex  2.116631e+002 -3.137028e+001  6.179507e+001
      vertex  2.101145e+002 -3.291890e+001  6.179507e+001
    endloop
  endfacet
  facet normal  0.000000e+000  0.000000e+000 -1.000000e+000
    outer loop
      vertex  2.100000e+002 -2.725578e+001  6.179507e+001
      vertex  2.101145e+002 -3.291890e+001  6.179507e+001
      vertex  2.096955e+002 -2.878651e+001  6.179507e+001
    endloop
  endfacet
  facet normal  0.000000e+000  -0.000000e+000 -1.000000e+000
    outer loop
      vertex  1.990000e+002 -2.725578e+001  6.179507e+001
      vertex  1.993426e+002 -2.509266e+001  6.179507e+001
      vertex  2.003369e+002 -2.314128e+001  6.179507e+001
    endloop
  endfacet
  facet normal  0.000000e+000  -0.000000e+000 -1.000000e+000
    outer loop
      vertex  1.990000e+002 -2.725578e+001  6.179507e+001
      vertex  2.003369e+002 -2.314128e+001  6.179507e+001
      vertex  2.018855e+002 -2.159266e+001  6.179507e+001
    endloop
  endfacet
  facet normal  0.000000e+000  -0.000000e+000 -1.000000e+000
    outer loop
      vertex  1.990000e+002 -2.725578e+001  6.179507e+001
      vertex  2.018855e+002 -2.159266e+001  6.179507e+001
      vertex  2.020000e+002 -2.725578e+001  6.179507e+001
    endloop
  endfacet
  facet normal  -0.000000e+000  0.000000e+000 -1.000000e+000
    outer loop
      vertex  1.990000e+002 -2.725578e+001  6.179507e+001
      vertex  2.020000e+002 -2.725578e+001  6.179507e+001
      vertex  2.018855e+002 -3.291890e+001  6.179507e+001
    endloop
  endfacet
  facet normal  0.000000e+000  0.000000e+000 -1.000000e+000
    outer loop
      vertex  1.990000e+002 -2.725578e+001  6.179507e+001
      vertex  2.018855e+002 -3.291890e+001  6.179507e+001
      vertex  2.003369e+002 -3.137028e+001  6.179507e+001
    endloop
  endfacet
  facet normal  0.000000e+000  0.000000e+000 -1.000000e+000
    outer loop
      vertex  1.990000e+002 -2.725578e+001  6.179507e+001
      vertex  2.003369e+002 -3.137028e+001  6.179507e+001
      vertex  1.993426e+002 -2.941890e+001  6.179507e+001
    endloop
  endfacet
  facet normal  0.000000e+000  0.000000e+000 -1.000000e+000
    outer loop
      vertex  2.096955e+002 -2.878651e+001  6.179507e+001
      vertex  2.101145e+002 -3.291890e+001  6.179507e+001
      vertex  2.088284e+002 -3.008421e+001  6.179507e+001
    endloop
  endfacet
  facet normal  0.000000e+000  -0.000000e+000 -1.000000e+000
    outer loop
      vertex  2.088284e+002 -3.008421e+001  6.179507e+001
      vertex  2.101145e+002 -3.291890e+001  6.179507e+001
      vertex  2.081631e+002 -3.391317e+001  6.179507e+001
    endloop
  endfacet
  facet normal  0.000000e+000  0.000000e+000 -1.000000e+000
    outer loop
      vertex  2.088284e+002 -3.008421e+001  6.179507e+001
      vertex  2.081631e+002 -3.391317e+001  6.179507e+001
      vertex  2.075307e+002 -3.095130e+001  6.179507e+001
    endloop
  endfacet
  facet normal  0.000000e+000  0.000000e+000 -1.000000e+000
    outer loop
      vertex  2.075307e+002 -3.095130e+001  6.179507e+001
      vertex  2.081631e+002 -3.391317e+001  6.179507e+001
      vertex  2.060000e+002 -3.125578e+001  6.179507e+001
    endloop
  endfacet
  facet normal  0.000000e+000  0.000000e+000 -1.000000e+000
    outer loop
      vertex  2.060000e+002 -3.125578e+001  6.179507e+001
      vertex  2.081631e+002 -3.391317e+001  6.179507e+001
      vertex  2.060000e+002 -3.425578e+001  6.179507e+001
    endloop
  endfacet
  facet normal  0.000000e+000  0.000000e+000 -1.000000e+000
    outer loop
      vertex  2.060000e+002 -3.125578e+001  6.179507e+001
      vertex  2.060000e+002 -3.425578e+001  6.179507e+001
      vertex  2.044693e+002 -3.095130e+001  6.179507e+001
    endloop
  endfacet
  facet normal  0.000000e+000  -0.000000e+000 -1.000000e+000
    outer loop
      vertex  2.044693e+002 -3.095130e+001  6.179507e+001
      vertex  2.060000e+002 -3.425578e+001  6.179507e+001
      vertex  2.038369e+002 -3.391317e+001  6.179507e+001
    endloop
  endfacet
  facet normal  0.000000e+000  0.000000e+000 -1.000000e+000
    outer loop
      vertex  2.044693e+002 -3.095130e+001  6.179507e+001
      vertex  2.038369e+002 -3.391317e+001  6.179507e+001
      vertex  2.031716e+002 -3.008421e+001  6.179507e+001
    endloop
  endfacet
  facet normal  0.000000e+000  -0.000000e+000 -1.000000e+000
    outer loop
      vertex  2.031716e+002 -3.008421e+001  6.179507e+001
      vertex  2.038369e+002 -3.391317e+001  6.179507e+001
      vertex  2.018855e+002 -3.291890e+001  6.179507e+001
    endloop
  endfacet
  facet normal  0.000000e+000  0.000000e+000 -1.000000e+000
    outer loop
      vertex  2.031716e+002 -3.008421e+001  6.179507e+001
      vertex  2.018855e+002 -3.291890e+001  6.179507e+001
      vertex  2.023045e+002 -2.878651e+001  6.179507e+001
    endloop
  endfacet
  facet normal  0.000000e+000  0.000000e+000 -1.000000e+000
    outer loop
      vertex  2.101145e+002 -2.159266e+001  6.179507e+001
      vertex  2.096955e+002 -2.572504e+001  6.179507e+001
      vertex  2.081631e+002 -2.059838e+001  6.179507e+001
    endloop
  endfacet
  facet normal  0.000000e+000  0.000000e+000 -9.999999e-001
    outer loop
      vertex  2.081631e+002 -2.059838e+001  6.179507e+001
      vertex  2.096955e+002 -2.572504e+001  6.179507e+001
      vertex  2.088284e+002 -2.442735e+001  6.179507e+001
    endloop
  endfacet
  facet normal  0.000000e+000  0.000000e+000 -1.000000e+000
    outer loop
      vertex  2.081631e+002 -2.059838e+001  6.179507e+001
      vertex  2.088284e+002 -2.442735e+001  6.179507e+001
      vertex  2.075307e+002 -2.356026e+001  6.179507e+001
    endloop
  endfacet
  facet normal  0.000000e+000  0.000000e+000 -1.000000e+000
    outer loop
      vertex  2.081631e+002 -2.059838e+001  6.179507e+001
      vertex  2.075307e+002 -2.356026e+001  6.179507e+001
      vertex  2.060000e+002 -2.025578e+001  6.179507e+001
    endloop
  endfacet
  facet normal  0.000000e+000  0.000000e+000 -1.000000e+000
    outer loop
      vertex  2.060000e+002 -2.025578e+001  6.179507e+001
      vertex  2.075307e+002 -2.356026e+001  6.179507e+001
      vertex  2.060000e+002 -2.325578e+001  6.179507e+001
    endloop
  endfacet
  facet normal  0.000000e+000  0.000000e+000 -1.000000e+000
    outer loop
      vertex  2.060000e+002 -2.025578e+001  6.179507e+001
      vertex  2.060000e+002 -2.325578e+001  6.179507e+001
      vertex  2.038369e+002 -2.059838e+001  6.179507e+001
    endloop
  endfacet
  facet normal  0.000000e+000  0.000000e+000 -9.999999e-001
    outer loop
      vertex  2.038369e+002 -2.059838e+001  6.179507e+001
      vertex  2.060000e+002 -2.325578e+001  6.179507e+001
      vertex  2.044693e+002 -2.356026e+001  6.179507e+001
    endloop
  endfacet
  facet normal  0.000000e+000  0.000000e+000 -9.999999e-001
    outer loop
      vertex  2.038369e+002 -2.059838e+001  6.179507e+001
      vertex  2.044693e+002 -2.356026e+001  6.179507e+001
      vertex  2.018855e+002 -2.159266e+001  6.179507e+001
    endloop
  endfacet
  facet normal  0.000000e+000  0.000000e+000 -1.000000e+000
    outer loop
      vertex  2.018855e+002 -2.159266e+001  6.179507e+001
      vertex  2.044693e+002 -2.356026e+001  6.179507e+001
      vertex  2.031716e+002 -2.442735e+001  6.179507e+001
    endloop
  endfacet
  facet normal  -0.000000e+000  0.000000e+000 -1.000000e+000
    outer loop
      vertex  2.018855e+002 -2.159266e+001  6.179507e+001
      vertex  2.031716e+002 -2.442735e+001  6.179507e+001
      vertex  2.023045e+002 -2.572504e+001  6.179507e+001
    endloop
  endfacet
  facet normal  0.000000e+000  0.000000e+000  1.000000e+000
    outer loop
      vertex  2.096955e+002 -2.572504e+001 -9.204934e+000
      vertex  2.096955e+002 -2.878651e+001 -9.204934e+000
      vertex  2.100000e+002 -2.725578e+001 -9.204934e+000
    endloop
  endfacet
  facet normal  0.000000e+000  -0.000000e+000  1.000000e+000
    outer loop
      vertex  2.020000e+002 -2.725578e+001 -9.204934e+000
      vertex  2.023045e+002 -2.878651e+001 -9.204934e+000
      vertex  2.023045e+002 -2.572504e+001 -9.204934e+000
    endloop
  endfacet
  facet normal  0.000000e+000  0.000000e+000  1.000000e+000
    outer loop
      vertex  2.023045e+002 -2.572504e+001 -9.204934e+000
      vertex  2.023045e+002 -2.878651e+001 -9.204934e+000
      vertex  2.031716e+002 -3.008421e+001 -9.204934e+000
    endloop
  endfacet
  facet normal  0.000000e+000  -0.000000e+000  1.000000e+000
    outer loop
      vertex  2.023045e+002 -2.572504e+001 -9.204934e+000
      vertex  2.031716e+002 -3.008421e+001 -9.204934e+000
      vertex  2.031716e+002 -2.442735e+001 -9.204934e+000
    endloop
  endfacet
  facet normal  0.000000e+000  0.000000e+000  1.000000e+000
    outer loop
      vertex  2.031716e+002 -2.442735e+001 -9.204934e+000
      vertex  2.031716e+002 -3.008421e+001 -9.204934e+000
      vertex  2.044693e+002 -3.095130e+001 -9.204934e+000
    endloop
  endfacet
  facet normal  0.000000e+000  -0.000000e+000  1.000000e+000
    outer loop
      vertex  2.031716e+002 -2.442735e+001 -9.204934e+000
      vertex  2.044693e+002 -3.095130e+001 -9.204934e+000
      vertex  2.044693e+002 -2.356026e+001 -9.204934e+000
    endloop
  endfacet
  facet normal  0.000000e+000  0.000000e+000  9.999999e-001
    outer loop
      vertex  2.044693e+002 -2.356026e+001 -9.204934e+000
      vertex  2.044693e+002 -3.095130e+001 -9.204934e+000
      vertex  2.060000e+002 -3.125578e+001 -9.204934e+000
    endloop
  endfacet
  facet normal  0.000000e+000  -0.000000e+000  1.000000e+000
    outer loop
      vertex  2.044693e+002 -2.356026e+001 -9.204934e+000
      vertex  2.060000e+002 -3.125578e+001 -9.204934e+000
      vertex  2.060000e+002 -2.325578e+001 -9.204934e+000
    endloop
  endfacet
  facet normal  0.000000e+000  0.000000e+000  1.000000e+000
    outer loop
      vertex  2.060000e+002 -2.325578e+001 -9.204934e+000
      vertex  2.060000e+002 -3.125578e+001 -9.204934e+000
      vertex  2.075307e+002 -3.095130e+001 -9.204934e+000
    endloop
  endfacet
  facet normal  0.000000e+000  -0.000000e+000  9.999999e-001
    outer loop
      vertex  2.060000e+002 -2.325578e+001 -9.204934e+000
      vertex  2.075307e+002 -3.095130e+001 -9.204934e+000
      vertex  2.075307e+002 -2.356026e+001 -9.204934e+000
    endloop
  endfacet
  facet normal  0.000000e+000  0.000000e+000  1.000000e+000
    outer loop
      vertex  2.075307e+002 -2.356026e+001 -9.204934e+000
      vertex  2.075307e+002 -3.095130e+001 -9.204934e+000
      vertex  2.088284e+002 -3.008421e+001 -9.204934e+000
    endloop
  endfacet
  facet normal  0.000000e+000  -0.000000e+000  1.000000e+000
    outer loop
      vertex  2.075307e+002 -2.356026e+001 -9.204934e+000
      vertex  2.088284e+002 -3.008421e+001 -9.204934e+000
      vertex  2.088284e+002 -2.442735e+001 -9.204934e+000
    endloop
  endfacet
  facet normal  0.000000e+000  0.000000e+000  1.000000e+000
    outer loop
      vertex  2.088284e+002 -2.442735e+001 -9.204934e+000
      vertex  2.088284e+002 -3.008421e+001 -9.204934e+000
      vertex  2.096955e+002 -2.878651e+001 -9.204934e+000
    endloop
  endfacet
  facet normal  0.000000e+000  -0.000000e+000  1.000000e+000
    outer loop
      vertex  2.088284e+002 -2.442735e+001 -9.204934e+000
      vertex  2.096955e+002 -2.878651e+001 -9.204934e+000
      vertex  2.096955e+002 -2.572504e+001 -9.204934e+000
    endloop
  endfacet
  facet normal  1.950904e-001 -9.807853e-001  0.000000e+000
    outer loop
      vertex  2.060000e+002 -2.325578e+001  6.179507e+001
      vertex  2.044693e+002 -2.356026e+001  7.179507e+001
      vertex  2.044693e+002 -2.356026e+001  6.179507e+001
    endloop
  endfacet
  facet normal  5.555691e-001 -8.314704e-001  0.000000e+000
    outer loop
      vertex  2.044693e+002 -2.356026e+001  6.179507e+001
      vertex  2.044693e+002 -2.356026e+001  7.179507e+001
      vertex  2.031716e+002 -2.442735e+001  7.179507e+001
    endloop
  endfacet
  facet normal  5.555691e-001 -8.314704e-001  0.000000e+000
    outer loop
      vertex  2.044693e+002 -2.356026e+001  6.179507e+001
      vertex  2.031716e+002 -2.442735e+001  7.179507e+001
      vertex  2.031716e+002 -2.442735e+001  6.179507e+001
    endloop
  endfacet
  facet normal  8.314726e-001 -5.555657e-001  0.000000e+000
    outer loop
      vertex  2.031716e+002 -2.442735e+001  6.179507e+001
      vertex  2.031716e+002 -2.442735e+001  7.179507e+001
      vertex  2.023045e+002 -2.572504e+001  7.179507e+001
    endloop
  endfacet
  facet normal  8.314726e-001 -5.555657e-001  0.000000e+000
    outer loop
      vertex  2.031716e+002 -2.442735e+001  6.179507e+001
      vertex  2.023045e+002 -2.572504e+001  7.179507e+001
      vertex  2.023045e+002 -2.572504e+001  6.179507e+001
    endloop
  endfacet
  facet normal  9.807844e-001 -1.950949e-001  0.000000e+000
    outer loop
      vertex  2.023045e+002 -2.572504e+001  6.179507e+001
      vertex  2.023045e+002 -2.572504e+001  7.179507e+001
      vertex  2.020000e+002 -2.725578e+001  7.179507e+001
    endloop
  endfacet
  facet normal  9.807844e-001 -1.950949e-001  0.000000e+000
    outer loop
      vertex  2.023045e+002 -2.572504e+001  6.179507e+001
      vertex  2.020000e+002 -2.725578e+001  7.179507e+001
      vertex  2.020000e+002 -2.725578e+001  6.179507e+001
    endloop
  endfacet
  facet normal  1.950904e-001 -9.807853e-001  0.000000e+000
    outer loop
      vertex  2.044693e+002 -2.356026e+001  7.179507e+001
      vertex  2.060000e+002 -2.325578e+001  6.179507e+001
      vertex  2.060000e+002 -2.325578e+001  7.179507e+001
    endloop
  endfacet
  facet normal -1.950904e-001 -9.807853e-001  -0.000000e+000
    outer loop
      vertex  2.060000e+002 -2.325578e+001  7.179507e+001
      vertex  2.060000e+002 -2.325578e+001  6.179507e+001
      vertex  2.075307e+002 -2.356026e+001  6.179507e+001
    endloop
  endfacet
  facet normal -1.950904e-001 -9.807853e-001  0.000000e+000
    outer loop
      vertex  2.060000e+002 -2.325578e+001  7.179507e+001
      vertex  2.075307e+002 -2.356026e+001  6.179507e+001
      vertex  2.075307e+002 -2.356026e+001  7.179507e+001
    endloop
  endfacet
  facet normal -5.555691e-001 -8.314704e-001  -0.000000e+000
    outer loop
      vertex  2.075307e+002 -2.356026e+001  7.179507e+001
      vertex  2.075307e+002 -2.356026e+001  6.179507e+001
      vertex  2.088284e+002 -2.442735e+001  6.179507e+001
    endloop
  endfacet
  facet normal -5.555691e-001 -8.314704e-001  0.000000e+000
    outer loop
      vertex  2.075307e+002 -2.356026e+001  7.179507e+001
      vertex  2.088284e+002 -2.442735e+001  6.179507e+001
      vertex  2.088284e+002 -2.442735e+001  7.179507e+001
    endloop
  endfacet
  facet normal -8.314726e-001 -5.555657e-001  -0.000000e+000
    outer loop
      vertex  2.088284e+002 -2.442735e+001  7.179507e+001
      vertex  2.088284e+002 -2.442735e+001  6.179507e+001
      vertex  2.096955e+002 -2.572504e+001  6.179507e+001
    endloop
  endfacet
  facet normal -8.314726e-001 -5.555657e-001  0.000000e+000
    outer loop
      vertex  2.088284e+002 -2.442735e+001  7.179507e+001
      vertex  2.096955e+002 -2.572504e+001  6.179507e+001
      vertex  2.096955e+002 -2.572504e+001  7.179507e+001
    endloop
  endfacet
  facet normal -9.807844e-001 -1.950949e-001  -0.000000e+000
    outer loop
      vertex  2.096955e+002 -2.572504e+001  7.179507e+001
      vertex  2.096955e+002 -2.572504e+001  6.179507e+001
      vertex  2.100000e+002 -2.725578e+001  6.179507e+001
    endloop
  endfacet
  facet normal -9.807844e-001 -1.950949e-001  0.000000e+000
    outer loop
      vertex  2.096955e+002 -2.572504e+001  7.179507e+001
      vertex  2.100000e+002 -2.725578e+001  6.179507e+001
      vertex  2.100000e+002 -2.725578e+001  7.179507e+001
    endloop
  endfacet
  facet normal -1.950904e-001  9.807853e-001  0.000000e+000
    outer loop
      vertex  2.060000e+002 -3.125578e+001  6.179507e+001
      vertex  2.075307e+002 -3.095130e+001  7.179507e+001
      vertex  2.075307e+002 -3.095130e+001  6.179507e+001
    endloop
  endfacet
  facet normal -5.555682e-001  8.314710e-001  0.000000e+000
    outer loop
      vertex  2.075307e+002 -3.095130e+001  6.179507e+001
      vertex  2.075307e+002 -3.095130e+001  7.179507e+001
      vertex  2.088284e+002 -3.008421e+001  7.179507e+001
    endloop
  endfacet
  facet normal -5.555682e-001  8.314710e-001  0.000000e+000
    outer loop
      vertex  2.075307e+002 -3.095130e+001  6.179507e+001
      vertex  2.088284e+002 -3.008421e+001  7.179507e+001
      vertex  2.088284e+002 -3.008421e+001  6.179507e+001
    endloop
  endfacet
  facet normal -8.314726e-001  5.555657e-001  0.000000e+000
    outer loop
      vertex  2.088284e+002 -3.008421e+001  6.179507e+001
      vertex  2.088284e+002 -3.008421e+001  7.179507e+001
      vertex  2.096955e+002 -2.878651e+001  7.179507e+001
    endloop
  endfacet
  facet normal -8.314726e-001  5.555657e-001  0.000000e+000
    outer loop
      vertex  2.088284e+002 -3.008421e+001  6.179507e+001
      vertex  2.096955e+002 -2.878651e+001  7.179507e+001
      vertex  2.096955e+002 -2.878651e+001  6.179507e+001
    endloop
  endfacet
  facet normal -9.807844e-001  1.950946e-001  0.000000e+000
    outer loop
      vertex  2.096955e+002 -2.878651e+001  6.179507e+001
      vertex  2.096955e+002 -2.878651e+001  7.179507e+001
      vertex  2.100000e+002 -2.725578e+001  7.179507e+001
    endloop
  endfacet
  facet normal -9.807844e-001  1.950946e-001  0.000000e+000
    outer loop
      vertex  2.096955e+002 -2.878651e+001  6.179507e+001
      vertex  2.100000e+002 -2.725578e+001  7.179507e+001
      vertex  2.100000e+002 -2.725578e+001  6.179507e+001
    endloop
  endfacet
  facet normal -1.950904e-001  9.807853e-001  0.000000e+000
    outer loop
      vertex  2.075307e+002 -3.095130e+001  7.179507e+001
      vertex  2.060000e+002 -3.125578e+001  6.179507e+001
      vertex  2.060000e+002 -3.125578e+001  7.179507e+001
    endloop
  endfacet
  facet normal  1.950904e-001  9.807853e-001  0.000000e+000
    outer loop
      vertex  2.060000e+002 -3.125578e+001  7.179507e+001
      vertex  2.060000e+002 -3.125578e+001  6.179507e+001
      vertex  2.044693e+002 -3.095130e+001  6.179507e+001
    endloop
  endfacet
  facet normal  1.950904e-001  9.807853e-001  -0.000000e+000
    outer loop
      vertex  2.060000e+002 -3.125578e+001  7.179507e+001
      vertex  2.044693e+002 -3.095130e+001  6.179507e+001
      vertex  2.044693e+002 -3.095130e+001  7.179507e+001
    endloop
  endfacet
  facet normal  5.555682e-001  8.314710e-001  0.000000e+000
    outer loop
      vertex  2.044693e+002 -3.095130e+001  7.179507e+001
      vertex  2.044693e+002 -3.095130e+001  6.179507e+001
      vertex  2.031716e+002 -3.008421e+001  6.179507e+001
    endloop
  endfacet
  facet normal  5.555682e-001  8.314710e-001  -0.000000e+000
    outer loop
      vertex  2.044693e+002 -3.095130e+001  7.179507e+001
      vertex  2.031716e+002 -3.008421e+001  6.179507e+001
      vertex  2.031716e+002 -3.008421e+001  7.179507e+001
    endloop
  endfacet
  facet normal  8.314726e-001  5.555657e-001  0.000000e+000
    outer loop
      vertex  2.031716e+002 -3.008421e+001  7.179507e+001
      vertex  2.031716e+002 -3.008421e+001  6.179507e+001
      vertex  2.023045e+002 -2.878651e+001  6.179507e+001
    endloop
  endfacet
  facet normal  8.314726e-001  5.555657e-001  -0.000000e+000
    outer loop
      vertex  2.031716e+002 -3.008421e+001  7.179507e+001
      vertex  2.023045e+002 -2.878651e+001  6.179507e+001
      vertex  2.023045e+002 -2.878651e+001  7.179507e+001
    endloop
  endfacet
  facet normal  9.807844e-001  1.950946e-001  0.000000e+000
    outer loop
      vertex  2.023045e+002 -2.878651e+001  7.179507e+001
      vertex  2.023045e+002 -2.878651e+001  6.179507e+001
      vertex  2.020000e+002 -2.725578e+001  6.179507e+001
    endloop
  endfacet
  facet normal  9.807844e-001  1.950946e-001  -0.000000e+000
    outer loop
      vertex  2.023045e+002 -2.878651e+001  7.179507e+001
      vertex  2.020000e+002 -2.725578e+001  6.179507e+001
      vertex  2.020000e+002 -2.725578e+001  7.179507e+001
    endloop
  endfacet
  facet normal  0.000000e+000  0.000000e+000 -1.000000e+000
    outer loop
      vertex  2.100000e+002 -2.725578e+001  7.179507e+001
      vertex  2.096955e+002 -2.878651e+001  7.179507e+001
      vertex  2.096955e+002 -2.572504e+001  7.179507e+001
    endloop
  endfacet
  facet normal  0.000000e+000  0.000000e+000 -1.000000e+000
    outer loop
      vertex  2.096955e+002 -2.572504e+001  7.179507e+001
      vertex  2.096955e+002 -2.878651e+001  7.179507e+001
      vertex  2.088284e+002 -2.442735e+001  7.179507e+001
    endloop
  endfacet
  facet normal  0.000000e+000  0.000000e+000 -1.000000e+000
    outer loop
      vertex  2.088284e+002 -2.442735e+001  7.179507e+001
      vertex  2.096955e+002 -2.878651e+001  7.179507e+001
      vertex  2.088284e+002 -3.008421e+001  7.179507e+001
    endloop
  endfacet
  facet normal  0.000000e+000  0.000000e+000 -1.000000e+000
    outer loop
      vertex  2.088284e+002 -2.442735e+001  7.179507e+001
      vertex  2.088284e+002 -3.008421e+001  7.179507e+001
      vertex  2.075307e+002 -2.356026e+001  7.179507e+001
    endloop
  endfacet
  facet normal  0.000000e+000  0.000000e+000 -1.000000e+000
    outer loop
      vertex  2.075307e+002 -2.356026e+001  7.179507e+001
      vertex  2.088284e+002 -3.008421e+001  7.179507e+001
      vertex  2.075307e+002 -3.095130e+001  7.179507e+001
    endloop
  endfacet
  facet normal  0.000000e+000  0.000000e+000 -9.999999e-001
    outer loop
      vertex  2.075307e+002 -2.356026e+001  7.179507e+001
      vertex  2.075307e+002 -3.095130e+001  7.179507e+001
      vertex  2.060000e+002 -2.325578e+001  7.179507e+001
    endloop
  endfacet
  facet normal  0.000000e+000  0.000000e+000 -1.000000e+000
    outer loop
      vertex  2.060000e+002 -2.325578e+001  7.179507e+001
      vertex  2.075307e+002 -3.095130e+001  7.179507e+001
      vertex  2.060000e+002 -3.125578e+001  7.179507e+001
    endloop
  endfacet
  facet normal  0.000000e+000  0.000000e+000 -1.000000e+000
    outer loop
      vertex  2.060000e+002 -2.325578e+001  7.179507e+001
      vertex  2.060000e+002 -3.125578e+001  7.179507e+001
      vertex  2.044693e+002 -2.356026e+001  7.179507e+001
    endloop
  endfacet
  facet normal  0.000000e+000  0.000000e+000 -9.999999e-001
    outer loop
      vertex  2.044693e+002 -2.356026e+001  7.179507e+001
      vertex  2.060000e+002 -3.125578e+001  7.179507e+001
      vertex  2.044693e+002 -3.095130e+001  7.179507e+001
    endloop
  endfacet
  facet normal  0.000000e+000  0.000000e+000 -1.000000e+000
    outer loop
      vertex  2.044693e+002 -2.356026e+001  7.179507e+001
      vertex  2.044693e+002 -3.095130e+001  7.179507e+001
      vertex  2.031716e+002 -2.442735e+001  7.179507e+001
    endloop
  endfacet
  facet normal  0.000000e+000  0.000000e+000 -1.000000e+000
    outer loop
      vertex  2.031716e+002 -2.442735e+001  7.179507e+001
      vertex  2.044693e+002 -3.095130e+001  7.179507e+001
      vertex  2.031716e+002 -3.008421e+001  7.179507e+001
    endloop
  endfacet
  facet normal  0.000000e+000  0.000000e+000 -1.000000e+000
    outer loop
      vertex  2.031716e+002 -2.442735e+001  7.179507e+001
      vertex  2.031716e+002 -3.008421e+001  7.179507e+001
      vertex  2.023045e+002 -2.572504e+001  7.179507e+001
    endloop
  endfacet
  facet normal  0.000000e+000  0.000000e+000 -1.000000e+000
    outer loop
      vertex  2.023045e+002 -2.572504e+001  7.179507e+001
      vertex  2.031716e+002 -3.008421e+001  7.179507e+001
      vertex  2.023045e+002 -2.878651e+001  7.179507e+001
    endloop
  endfacet
  facet normal  0.000000e+000  0.000000e+000 -1.000000e+000
    outer loop
      vertex  2.023045e+002 -2.572504e+001  7.179507e+001
      vertex  2.023045e+002 -2.878651e+001  7.179507e+001
      vertex  2.020000e+002 -2.725578e+001  7.179507e+001
    endloop
  endfacet
  facet normal  1.950904e-001 -9.807853e-001  0.000000e+000
    outer loop
      vertex  2.060000e+002 -2.325578e+001 -9.204934e+000
      vertex  2.044693e+002 -2.356026e+001  1.079507e+001
      vertex  2.044693e+002 -2.356026e+001 -9.204934e+000
    endloop
  endfacet
  facet normal  5.555691e-001 -8.314704e-001  0.000000e+000
    outer loop
      vertex  2.044693e+002 -2.356026e+001 -9.204934e+000
      vertex  2.044693e+002 -2.356026e+001  1.079507e+001
      vertex  2.031716e+002 -2.442735e+001  1.079507e+001
    endloop
  endfacet
  facet normal  5.555691e-001 -8.314704e-001  0.000000e+000
    outer loop
      vertex  2.044693e+002 -2.356026e+001 -9.204934e+000
      vertex  2.031716e+002 -2.442735e+001  1.079507e+001
      vertex  2.031716e+002 -2.442735e+001 -9.204934e+000
    endloop
  endfacet
  facet normal  8.314726e-001 -5.555657e-001  0.000000e+000
    outer loop
      vertex  2.031716e+002 -2.442735e+001 -9.204934e+000
      vertex  2.031716e+002 -2.442735e+001  1.079507e+001
      vertex  2.023045e+002 -2.572504e+001  1.079507e+001
    endloop
  endfacet
  facet normal  8.314726e-001 -5.555657e-001  0.000000e+000
    outer loop
      vertex  2.031716e+002 -2.442735e+001 -9.204934e+000
      vertex  2.023045e+002 -2.572504e+001  1.079507e+001
      vertex  2.023045e+002 -2.572504e+001 -9.204934e+000
    endloop
  endfacet
  facet normal  9.807844e-001 -1.950949e-001  0.000000e+000
    outer loop
      vertex  2.023045e+002 -2.572504e+001 -9.204934e+000
      vertex  2.023045e+002 -2.572504e+001  1.079507e+001
      vertex  2.020000e+002 -2.725578e+001  1.079507e+001
    endloop
  endfacet
  facet normal  9.807844e-001 -1.950949e-001  0.000000e+000
    outer loop
      vertex  2.023045e+002 -2.572504e+001 -9.204934e+000
      vertex  2.020000e+002 -2.725578e+001  1.079507e+001
      vertex  2.020000e+002 -2.725578e+001 -9.204934e+000
    endloop
  endfacet
  facet normal  1.950904e-001 -9.807853e-001  0.000000e+000
    outer loop
      vertex  2.044693e+002 -2.356026e+001  1.079507e+001
      vertex  2.060000e+002 -2.325578e+001 -9.204934e+000
      vertex  2.060000e+002 -2.325578e+001  1.079507e+001
    endloop
  endfacet
  facet normal -1.950904e-001 -9.807853e-001  -0.000000e+000
    outer loop
      vertex  2.060000e+002 -2.325578e+001  1.079507e+001
      vertex  2.060000e+002 -2.325578e+001 -9.204934e+000
      vertex  2.075307e+002 -2.356026e+001 -9.204934e+000
    endloop
  endfacet
  facet normal -1.950904e-001 -9.807853e-001  0.000000e+000
    outer loop
      vertex  2.060000e+002 -2.325578e+001  1.079507e+001
      vertex  2.075307e+002 -2.356026e+001 -9.204934e+000
      vertex  2.075307e+002 -2.356026e+001  1.079507e+001
    endloop
  endfacet
  facet normal -5.555691e-001 -8.314704e-001  -0.000000e+000
    outer loop
      vertex  2.075307e+002 -2.356026e+001  1.079507e+001
      vertex  2.075307e+002 -2.356026e+001 -9.204934e+000
      vertex  2.088284e+002 -2.442735e+001 -9.204934e+000
    endloop
  endfacet
  facet normal -5.555691e-001 -8.314704e-001  0.000000e+000
    outer loop
      vertex  2.075307e+002 -2.356026e+001  1.079507e+001
      vertex  2.088284e+002 -2.442735e+001 -9.204934e+000
      vertex  2.088284e+002 -2.442735e+001  1.079507e+001
    endloop
  endfacet
  facet normal -8.314726e-001 -5.555657e-001  -0.000000e+000
    outer loop
      vertex  2.088284e+002 -2.442735e+001  1.079507e+001
      vertex  2.088284e+002 -2.442735e+001 -9.204934e+000
      vertex  2.096955e+002 -2.572504e+001 -9.204934e+000
    endloop
  endfacet
  facet normal -8.314726e-001 -5.555657e-001  0.000000e+000
    outer loop
      vertex  2.088284e+002 -2.442735e+001  1.079507e+001
      vertex  2.096955e+002 -2.572504e+001 -9.204934e+000
      vertex  2.096955e+002 -2.572504e+001  1.079507e+001
    endloop
  endfacet
  facet normal -9.807844e-001 -1.950949e-001  -0.000000e+000
    outer loop
      vertex  2.096955e+002 -2.572504e+001  1.079507e+001
      vertex  2.096955e+002 -2.572504e+001 -9.204934e+000
      vertex  2.100000e+002 -2.725578e+001 -9.204934e+000
    endloop
  endfacet
  facet normal -9.807844e-001 -1.950949e-001  0.000000e+000
    outer loop
      vertex  2.096955e+002 -2.572504e+001  1.079507e+001
      vertex  2.100000e+002 -2.725578e+001 -9.204934e+000
      vertex  2.100000e+002 -2.725578e+001  1.079507e+001
    endloop
  endfacet
  facet normal -1.950904e-001  9.807853e-001  0.000000e+000
    outer loop
      vertex  2.060000e+002 -3.125578e+001 -9.204934e+000
      vertex  2.075307e+002 -3.095130e+001  1.079507e+001
      vertex  2.075307e+002 -3.095130e+001 -9.204934e+000
    endloop
  endfacet
  facet normal -5.555682e-001  8.314710e-001  0.000000e+000
    outer loop
      vertex  2.075307e+002 -3.095130e+001 -9.204934e+000
      vertex  2.075307e+002 -3.095130e+001  1.079507e+001
      vertex  2.088284e+002 -3.008421e+001  1.079507e+001
    endloop
  endfacet
  facet normal -5.555682e-001  8.314710e-001  0.000000e+000
    outer loop
      vertex  2.075307e+002 -3.095130e+001 -9.204934e+000
      vertex  2.088284e+002 -3.008421e+001  1.079507e+001
      vertex  2.088284e+002 -3.008421e+001 -9.204934e+000
    endloop
  endfacet
  facet normal -8.314726e-001  5.555657e-001  0.000000e+000
    outer loop
      vertex  2.088284e+002 -3.008421e+001 -9.204934e+000
      vertex  2.088284e+002 -3.008421e+001  1.079507e+001
      vertex  2.096955e+002 -2.878651e+001  1.079507e+001
    endloop
  endfacet
  facet normal -8.314726e-001  5.555657e-001  0.000000e+000
    outer loop
      vertex  2.088284e+002 -3.008421e+001 -9.204934e+000
      vertex  2.096955e+002 -2.878651e+001  1.079507e+001
      vertex  2.096955e+002 -2.878651e+001 -9.204934e+000
    endloop
  endfacet
  facet normal -9.807844e-001  1.950946e-001  0.000000e+000
    outer loop
      vertex  2.096955e+002 -2.878651e+001 -9.204934e+000
      vertex  2.096955e+002 -2.878651e+001  1.079507e+001
      vertex  2.100000e+002 -2.725578e+001  1.079507e+001
    endloop
  endfacet
  facet normal -9.807844e-001  1.950946e-001  0.000000e+000
    outer loop
      vertex  2.096955e+002 -2.878651e+001 -9.204934e+000
      vertex  2.100000e+002 -2.725578e+001  1.079507e+001
      vertex  2.100000e+002 -2.725578e+001 -9.204934e+000
    endloop
  endfacet
  facet normal -1.950904e-001  9.807853e-001  0.000000e+000
    outer loop
      vertex  2.075307e+002 -3.095130e+001  1.079507e+001
      vertex  2.060000e+002 -3.125578e+001 -9.204934e+000
      vertex  2.060000e+002 -3.125578e+001  1.079507e+001
    endloop
  endfacet
  facet normal  1.950904e-001  9.807853e-001  0.000000e+000
    outer loop
      vertex  2.060000e+002 -3.125578e+001  1.079507e+001
      vertex  2.060000e+002 -3.125578e+001 -9.204934e+000
      vertex  2.044693e+002 -3.095130e+001 -9.204934e+000
    endloop
  endfacet
  facet normal  1.950904e-001  9.807853e-001  -0.000000e+000
    outer loop
      vertex  2.060000e+002 -3.125578e+001  1.079507e+001
      vertex  2.044693e+002 -3.095130e+001 -9.204934e+000
      vertex  2.044693e+002 -3.095130e+001  1.079507e+001
    endloop
  endfacet
  facet normal  5.555682e-001  8.314710e-001  0.000000e+000
    outer loop
      vertex  2.044693e+002 -3.095130e+001  1.079507e+001
      vertex  2.044693e+002 -3.095130e+001 -9.204934e+000
      vertex  2.031716e+002 -3.008421e+001 -9.204934e+000
    endloop
  endfacet
  facet normal  5.555682e-001  8.314710e-001  -0.000000e+000
    outer loop
      vertex  2.044693e+002 -3.095130e+001  1.079507e+001
      vertex  2.031716e+002 -3.008421e+001 -9.204934e+000
      vertex  2.031716e+002 -3.008421e+001  1.079507e+001
    endloop
  endfacet
  facet normal  8.314726e-001  5.555657e-001  0.000000e+000
    outer loop
      vertex  2.031716e+002 -3.008421e+001  1.079507e+001
      vertex  2.031716e+002 -3.008421e+001 -9.204934e+000
      vertex  2.023045e+002 -2.878651e+001 -9.204934e+000
    endloop
  endfacet
  facet normal  8.314726e-001  5.555657e-001  -0.000000e+000
    outer loop
      vertex  2.031716e+002 -3.008421e+001  1.079507e+001
      vertex  2.023045e+002 -2.878651e+001 -9.204934e+000
      vertex  2.023045e+002 -2.878651e+001  1.079507e+001
    endloop
  endfacet
  facet normal  9.807844e-001  1.950946e-001  0.000000e+000
    outer loop
      vertex  2.023045e+002 -2.878651e+001  1.079507e+001
      vertex  2.023045e+002 -2.878651e+001 -9.204934e+000
      vertex  2.020000e+002 -2.725578e+001 -9.204934e+000
    endloop
  endfacet
  facet normal  9.807844e-001  1.950946e-001  -0.000000e+000
    outer loop
      vertex  2.023045e+002 -2.878651e+001  1.079507e+001
      vertex  2.020000e+002 -2.725578e+001 -9.204934e+000
      vertex  2.020000e+002 -2.725578e+001  1.079507e+001
    endloop
  endfacet
  facet normal  0.000000e+000  0.000000e+000  1.000000e+000
    outer loop
      vertex  2.018855e+002 -3.291890e+001  1.079507e+001
      vertex  2.023045e+002 -2.878651e+001  1.079507e+001
      vertex  2.020000e+002 -2.725578e+001  1.079507e+001
    endloop
  endfacet
  facet normal  0.000000e+000  0.000000e+000  1.000000e+000
    outer loop
      vertex  2.023045e+002 -2.572504e+001  1.079507e+001
      vertex  2.018855e+002 -2.159266e+001  1.079507e+001
      vertex  2.020000e+002 -2.725578e+001  1.079507e+001
    endloop
  endfacet
  facet normal  -0.000000e+000  0.000000e+000  1.000000e+000
    outer loop
      vertex  2.100000e+002 -2.725578e+001  1.079507e+001
      vertex  2.096955e+002 -2.878651e+001  1.079507e+001
      vertex  2.101145e+002 -3.291890e+001  1.079507e+001
    endloop
  endfacet
  facet normal  0.000000e+000  -0.000000e+000  1.000000e+000
    outer loop
      vertex  2.100000e+002 -2.725578e+001  1.079507e+001
      vertex  2.101145e+002 -3.291890e+001  1.079507e+001
      vertex  2.116631e+002 -3.137028e+001  1.079507e+001
    endloop
  endfacet
  facet normal  0.000000e+000  -0.000000e+000  1.000000e+000
    outer loop
      vertex  2.100000e+002 -2.725578e+001  1.079507e+001
      vertex  2.116631e+002 -3.137028e+001  1.079507e+001
      vertex  2.126574e+002 -2.941890e+001  1.079507e+001
    endloop
  endfacet
  facet normal  0.000000e+000  -0.000000e+000  9.999999e-001
    outer loop
      vertex  2.100000e+002 -2.725578e+001  1.079507e+001
      vertex  2.126574e+002 -2.941890e+001  1.079507e+001
      vertex  2.130000e+002 -2.725578e+001  1.079507e+001
    endloop
  endfacet
  facet normal  0.000000e+000  0.000000e+000  9.999999e-001
    outer loop
      vertex  2.100000e+002 -2.725578e+001  1.079507e+001
      vertex  2.130000e+002 -2.725578e+001  1.079507e+001
      vertex  2.126574e+002 -2.509266e+001  1.079507e+001
    endloop
  endfacet
  facet normal  0.000000e+000  0.000000e+000  1.000000e+000
    outer loop
      vertex  2.100000e+002 -2.725578e+001  1.079507e+001
      vertex  2.126574e+002 -2.509266e+001  1.079507e+001
      vertex  2.116631e+002 -2.314128e+001  1.079507e+001
    endloop
  endfacet
  facet normal  0.000000e+000  0.000000e+000  1.000000e+000
    outer loop
      vertex  2.100000e+002 -2.725578e+001  1.079507e+001
      vertex  2.116631e+002 -2.314128e+001  1.079507e+001
      vertex  2.101145e+002 -2.159266e+001  1.079507e+001
    endloop
  endfacet
  facet normal  0.000000e+000  0.000000e+000  1.000000e+000
    outer loop
      vertex  2.100000e+002 -2.725578e+001  1.079507e+001
      vertex  2.101145e+002 -2.159266e+001  1.079507e+001
      vertex  2.096955e+002 -2.572504e+001  1.079507e+001
    endloop
  endfacet
  facet normal  -0.000000e+000  -0.000000e+000  1.000000e+000
    outer loop
      vertex  1.990000e+002 -2.725578e+001  1.079507e+001
      vertex  1.993426e+002 -2.941890e+001  1.079507e+001
      vertex  2.003369e+002 -3.137028e+001  1.079507e+001
    endloop
  endfacet
  facet normal  -0.000000e+000  -0.000000e+000  1.000000e+000
    outer loop
      vertex  1.990000e+002 -2.725578e+001  1.079507e+001
      vertex  2.003369e+002 -3.137028e+001  1.079507e+001
      vertex  2.018855e+002 -3.291890e+001  1.079507e+001
    endloop
  endfacet
  facet normal  0.000000e+000  -0.000000e+000  1.000000e+000
    outer loop
      vertex  1.990000e+002 -2.725578e+001  1.079507e+001
      vertex  2.018855e+002 -3.291890e+001  1.079507e+001
      vertex  2.020000e+002 -2.725578e+001  1.079507e+001
    endloop
  endfacet
  facet normal  0.000000e+000  0.000000e+000  1.000000e+000
    outer loop
      vertex  1.990000e+002 -2.725578e+001  1.079507e+001
      vertex  2.020000e+002 -2.725578e+001  1.079507e+001
      vertex  2.018855e+002 -2.159266e+001  1.079507e+001
    endloop
  endfacet
  facet normal  0.000000e+000  0.000000e+000  1.000000e+000
    outer loop
      vertex  1.990000e+002 -2.725578e+001  1.079507e+001
      vertex  2.018855e+002 -2.159266e+001  1.079507e+001
      vertex  2.003369e+002 -2.314128e+001  1.079507e+001
    endloop
  endfacet
  facet normal  0.000000e+000  0.000000e+000  1.000000e+000
    outer loop
      vertex  1.990000e+002 -2.725578e+001  1.079507e+001
      vertex  2.003369e+002 -2.314128e+001  1.079507e+001
      vertex  1.993426e+002 -2.509266e+001  1.079507e+001
    endloop
  endfacet
  facet normal  0.000000e+000  -0.000000e+000  1.000000e+000
    outer loop
      vertex  2.075307e+002 -3.095130e+001  1.079507e+001
      vertex  2.081631e+002 -3.391317e+001  1.079507e+001
      vertex  2.088284e+002 -3.008421e+001  1.079507e+001
    endloop
  endfacet
  facet normal  0.000000e+000  0.000000e+000  1.000000e+000
    outer loop
      vertex  2.088284e+002 -3.008421e+001  1.079507e+001
      vertex  2.081631e+002 -3.391317e+001  1.079507e+001
      vertex  2.101145e+002 -3.291890e+001  1.079507e+001
    endloop
  endfacet
  facet normal  0.000000e+000  0.000000e+000  1.000000e+000
    outer loop
      vertex  2.088284e+002 -3.008421e+001  1.079507e+001
      vertex  2.101145e+002 -3.291890e+001  1.079507e+001
      vertex  2.096955e+002 -2.878651e+001  1.079507e+001
    endloop
  endfacet
  facet normal  0.000000e+000  0.000000e+000  1.000000e+000
    outer loop
      vertex  2.023045e+002 -2.878651e+001  1.079507e+001
      vertex  2.018855e+002 -3.291890e+001  1.079507e+001
      vertex  2.031716e+002 -3.008421e+001  1.079507e+001
    endloop
  endfacet
  facet normal  0.000000e+000  0.000000e+000  1.000000e+000
    outer loop
      vertex  2.031716e+002 -3.008421e+001  1.079507e+001
      vertex  2.018855e+002 -3.291890e+001  1.079507e+001
      vertex  2.038369e+002 -3.391317e+001  1.079507e+001
    endloop
  endfacet
  facet normal  0.000000e+000  -0.000000e+000  1.000000e+000
    outer loop
      vertex  2.031716e+002 -3.008421e+001  1.079507e+001
      vertex  2.038369e+002 -3.391317e+001  1.079507e+001
      vertex  2.044693e+002 -3.095130e+001  1.079507e+001
    endloop
  endfacet
  facet normal  0.000000e+000  0.000000e+000  1.000000e+000
    outer loop
      vertex  2.044693e+002 -3.095130e+001  1.079507e+001
      vertex  2.038369e+002 -3.391317e+001  1.079507e+001
      vertex  2.060000e+002 -3.425578e+001  1.079507e+001
    endloop
  endfacet
  facet normal  0.000000e+000  -0.000000e+000  1.000000e+000
    outer loop
      vertex  2.044693e+002 -3.095130e+001  1.079507e+001
      vertex  2.060000e+002 -3.425578e+001  1.079507e+001
      vertex  2.060000e+002 -3.125578e+001  1.079507e+001
    endloop
  endfacet
  facet normal  0.000000e+000  0.000000e+000  1.000000e+000
    outer loop
      vertex  2.060000e+002 -3.125578e+001  1.079507e+001
      vertex  2.060000e+002 -3.425578e+001  1.079507e+001
      vertex  2.081631e+002 -3.391317e+001  1.079507e+001
    endloop
  endfacet
  facet normal  0.000000e+000  0.000000e+000  1.000000e+000
    outer loop
      vertex  2.060000e+002 -3.125578e+001  1.079507e+001
      vertex  2.081631e+002 -3.391317e+001  1.079507e+001
      vertex  2.075307e+002 -3.095130e+001  1.079507e+001
    endloop
  endfacet
  facet normal  0.000000e+000  0.000000e+000  1.000000e+000
    outer loop
      vertex  2.075307e+002 -2.356026e+001  1.079507e+001
      vertex  2.088284e+002 -2.442735e+001  1.079507e+001
      vertex  2.081631e+002 -2.059838e+001  1.079507e+001
    endloop
  endfacet
  facet normal  0.000000e+000  0.000000e+000  9.999999e-001
    outer loop
      vertex  2.081631e+002 -2.059838e+001  1.079507e+001
      vertex  2.088284e+002 -2.442735e+001  1.079507e+001
      vertex  2.096955e+002 -2.572504e+001  1.079507e+001
    endloop
  endfacet
  facet normal  0.000000e+000  -0.000000e+000  1.000000e+000
    outer loop
      vertex  2.081631e+002 -2.059838e+001  1.079507e+001
      vertex  2.096955e+002 -2.572504e+001  1.079507e+001
      vertex  2.101145e+002 -2.159266e+001  1.079507e+001
    endloop
  endfacet
  facet normal  0.000000e+000  0.000000e+000  1.000000e+000
    outer loop
      vertex  2.023045e+002 -2.572504e+001  1.079507e+001
      vertex  2.031716e+002 -2.442735e+001  1.079507e+001
      vertex  2.018855e+002 -2.159266e+001  1.079507e+001
    endloop
  endfacet
  facet normal  0.000000e+000  0.000000e+000  1.000000e+000
    outer loop
      vertex  2.018855e+002 -2.159266e+001  1.079507e+001
      vertex  2.031716e+002 -2.442735e+001  1.079507e+001
      vertex  2.044693e+002 -2.356026e+001  1.079507e+001
    endloop
  endfacet
  facet normal  0.000000e+000  0.000000e+000  9.999999e-001
    outer loop
      vertex  2.018855e+002 -2.159266e+001  1.079507e+001
      vertex  2.044693e+002 -2.356026e+001  1.079507e+001
      vertex  2.038369e+002 -2.059838e+001  1.079507e+001
    endloop
  endfacet
  facet normal  0.000000e+000  0.000000e+000  9.999999e-001
    outer loop
      vertex  2.038369e+002 -2.059838e+001  1.079507e+001
      vertex  2.044693e+002 -2.356026e+001  1.079507e+001
      vertex  2.060000e+002 -2.325578e+001  1.079507e+001
    endloop
  endfacet
  facet normal  0.000000e+000  -0.000000e+000  1.000000e+000
    outer loop
      vertex  2.038369e+002 -2.059838e+001  1.079507e+001
      vertex  2.060000e+002 -2.325578e+001  1.079507e+001
      vertex  2.060000e+002 -2.025578e+001  1.079507e+001
    endloop
  endfacet
  facet normal  0.000000e+000  0.000000e+000  1.000000e+000
    outer loop
      vertex  2.060000e+002 -2.025578e+001  1.079507e+001
      vertex  2.060000e+002 -2.325578e+001  1.079507e+001
      vertex  2.075307e+002 -2.356026e+001  1.079507e+001
    endloop
  endfacet
  facet normal  0.000000e+000  -0.000000e+000  1.000000e+000
    outer loop
      vertex  2.060000e+002 -2.025578e+001  1.079507e+001
      vertex  2.075307e+002 -2.356026e+001  1.079507e+001
      vertex  2.081631e+002 -2.059838e+001  1.079507e+001
    endloop
  endfacet
  facet normal -1.564352e-001 -9.876882e-001  0.000000e+000
    outer loop
      vertex  2.060000e+002 -2.025578e+001  6.179507e+001
      vertex  2.081631e+002 -2.059838e+001  1.079507e+001
      vertex  2.081631e+002 -2.059838e+001  6.179507e+001
    endloop
  endfacet
  facet normal -4.539889e-001 -8.910074e-001  -0.000000e+000
    outer loop
      vertex  2.081631e+002 -2.059838e+001  6.179507e+001
      vertex  2.081631e+002 -2.059838e+001  1.079507e+001
      vertex  2.101145e+002 -2.159266e+001  1.079507e+001
    endloop
  endfacet
  facet normal -4.539889e-001 -8.910074e-001  0.000000e+000
    outer loop
      vertex  2.081631e+002 -2.059838e+001  6.179507e+001
      vertex  2.101145e+002 -2.159266e+001  1.079507e+001
      vertex  2.101145e+002 -2.159266e+001  6.179507e+001
    endloop
  endfacet
  facet normal -7.071086e-001 -7.071051e-001  -0.000000e+000
    outer loop
      vertex  2.101145e+002 -2.159266e+001  6.179507e+001
      vertex  2.101145e+002 -2.159266e+001  1.079507e+001
      vertex  2.116631e+002 -2.314128e+001  1.079507e+001
    endloop
  endfacet
  facet normal -7.071086e-001 -7.071051e-001  0.000000e+000
    outer loop
      vertex  2.101145e+002 -2.159266e+001  6.179507e+001
      vertex  2.116631e+002 -2.314128e+001  1.079507e+001
      vertex  2.116631e+002 -2.314128e+001  6.179507e+001
    endloop
  endfacet
  facet normal -8.910062e-001 -4.539909e-001  -0.000000e+000
    outer loop
      vertex  2.116631e+002 -2.314128e+001  6.179507e+001
      vertex  2.116631e+002 -2.314128e+001  1.079507e+001
      vertex  2.126574e+002 -2.509266e+001  1.079507e+001
    endloop
  endfacet
  facet normal -8.910062e-001 -4.539909e-001  0.000000e+000
    outer loop
      vertex  2.116631e+002 -2.314128e+001  6.179507e+001
      vertex  2.126574e+002 -2.509266e+001  1.079507e+001
      vertex  2.126574e+002 -2.509266e+001  6.179507e+001
    endloop
  endfacet
  facet normal -9.876882e-001 -1.564350e-001  -0.000000e+000
    outer loop
      vertex  2.126574e+002 -2.509266e+001  6.179507e+001
      vertex  2.126574e+002 -2.509266e+001  1.079507e+001
      vertex  2.130000e+002 -2.725578e+001  1.079507e+001
    endloop
  endfacet
  facet normal -9.876882e-001 -1.564350e-001  0.000000e+000
    outer loop
      vertex  2.126574e+002 -2.509266e+001  6.179507e+001
      vertex  2.130000e+002 -2.725578e+001  1.079507e+001
      vertex  2.130000e+002 -2.725578e+001  6.179507e+001
    endloop
  endfacet
  facet normal -1.564352e-001 -9.876882e-001  -0.000000e+000
    outer loop
      vertex  2.081631e+002 -2.059838e+001  1.079507e+001
      vertex  2.060000e+002 -2.025578e+001  6.179507e+001
      vertex  2.060000e+002 -2.025578e+001  1.079507e+001
    endloop
  endfacet
  facet normal  1.564352e-001 -9.876882e-001  0.000000e+000
    outer loop
      vertex  2.060000e+002 -2.025578e+001  1.079507e+001
      vertex  2.060000e+002 -2.025578e+001  6.179507e+001
      vertex  2.038369e+002 -2.059838e+001  6.179507e+001
    endloop
  endfacet
  facet normal  1.564352e-001 -9.876882e-001  0.000000e+000
    outer loop
      vertex  2.060000e+002 -2.025578e+001  1.079507e+001
      vertex  2.038369e+002 -2.059838e+001  6.179507e+001
      vertex  2.038369e+002 -2.059838e+001  1.079507e+001
    endloop
  endfacet
  facet normal  4.539889e-001 -8.910074e-001  0.000000e+000
    outer loop
      vertex  2.038369e+002 -2.059838e+001  1.079507e+001
      vertex  2.038369e+002 -2.059838e+001  6.179507e+001
      vertex  2.018855e+002 -2.159266e+001  6.179507e+001
    endloop
  endfacet
  facet normal  4.539889e-001 -8.910074e-001  0.000000e+000
    outer loop
      vertex  2.038369e+002 -2.059838e+001  1.079507e+001
      vertex  2.018855e+002 -2.159266e+001  6.179507e+001
      vertex  2.018855e+002 -2.159266e+001  1.079507e+001
    endloop
  endfacet
  facet normal  7.071086e-001 -7.071051e-001  0.000000e+000
    outer loop
      vertex  2.018855e+002 -2.159266e+001  1.079507e+001
      vertex  2.018855e+002 -2.159266e+001  6.179507e+001
      vertex  2.003369e+002 -2.314128e+001  6.179507e+001
    endloop
  endfacet
  facet normal  7.071086e-001 -7.071051e-001  0.000000e+000
    outer loop
      vertex  2.018855e+002 -2.159266e+001  1.079507e+001
      vertex  2.003369e+002 -2.314128e+001  6.179507e+001
      vertex  2.003369e+002 -2.314128e+001  1.079507e+001
    endloop
  endfacet
  facet normal  8.910062e-001 -4.539909e-001  0.000000e+000
    outer loop
      vertex  2.003369e+002 -2.314128e+001  1.079507e+001
      vertex  2.003369e+002 -2.314128e+001  6.179507e+001
      vertex  1.993426e+002 -2.509266e+001  6.179507e+001
    endloop
  endfacet
  facet normal  8.910062e-001 -4.539909e-001  0.000000e+000
    outer loop
      vertex  2.003369e+002 -2.314128e+001  1.079507e+001
      vertex  1.993426e+002 -2.509266e+001  6.179507e+001
      vertex  1.993426e+002 -2.509266e+001  1.079507e+001
    endloop
  endfacet
  facet normal  9.876882e-001 -1.564350e-001  0.000000e+000
    outer loop
      vertex  1.993426e+002 -2.509266e+001  1.079507e+001
      vertex  1.993426e+002 -2.509266e+001  6.179507e+001
      vertex  1.990000e+002 -2.725578e+001  6.179507e+001
    endloop
  endfacet
  facet normal  9.876882e-001 -1.564350e-001  0.000000e+000
    outer loop
      vertex  1.993426e+002 -2.509266e+001  1.079507e+001
      vertex  1.990000e+002 -2.725578e+001  6.179507e+001
      vertex  1.990000e+002 -2.725578e+001  1.079507e+001
    endloop
  endfacet
  facet normal  1.564352e-001  9.876882e-001  -0.000000e+000
    outer loop
      vertex  2.060000e+002 -3.425578e+001  6.179507e+001
      vertex  2.038369e+002 -3.391317e+001  1.079507e+001
      vertex  2.038369e+002 -3.391317e+001  6.179507e+001
    endloop
  endfacet
  facet normal  4.539896e-001  8.910070e-001  0.000000e+000
    outer loop
      vertex  2.038369e+002 -3.391317e+001  6.179507e+001
      vertex  2.038369e+002 -3.391317e+001  1.079507e+001
      vertex  2.018855e+002 -3.291890e+001  1.079507e+001
    endloop
  endfacet
  facet normal  4.539896e-001  8.910070e-001  -0.000000e+000
    outer loop
      vertex  2.038369e+002 -3.391317e+001  6.179507e+001
      vertex  2.018855e+002 -3.291890e+001  1.079507e+001
      vertex  2.018855e+002 -3.291890e+001  6.179507e+001
    endloop
  endfacet
  facet normal  7.071081e-001  7.071055e-001  0.000000e+000
    outer loop
      vertex  2.018855e+002 -3.291890e+001  6.179507e+001
      vertex  2.018855e+002 -3.291890e+001  1.079507e+001
      vertex  2.003369e+002 -3.137028e+001  1.079507e+001
    endloop
  endfacet
  facet normal  7.071081e-001  7.071055e-001  -0.000000e+000
    outer loop
      vertex  2.018855e+002 -3.291890e+001  6.179507e+001
      vertex  2.003369e+002 -3.137028e+001  1.079507e+001
      vertex  2.003369e+002 -3.137028e+001  6.179507e+001
    endloop
  endfacet
  facet normal  8.910062e-001  4.539909e-001  0.000000e+000
    outer loop
      vertex  2.003369e+002 -3.137028e+001  6.179507e+001
      vertex  2.003369e+002 -3.137028e+001  1.079507e+001
      vertex  1.993426e+002 -2.941890e+001  1.079507e+001
    endloop
  endfacet
  facet normal  8.910062e-001  4.539909e-001  -0.000000e+000
    outer loop
      vertex  2.003369e+002 -3.137028e+001  6.179507e+001
      vertex  1.993426e+002 -2.941890e+001  1.079507e+001
      vertex  1.993426e+002 -2.941890e+001  6.179507e+001
    endloop
  endfacet
  facet normal  9.876882e-001  1.564349e-001  0.000000e+000
    outer loop
      vertex  1.993426e+002 -2.941890e+001  6.179507e+001
      vertex  1.993426e+002 -2.941890e+001  1.079507e+001
      vertex  1.990000e+002 -2.725578e+001  1.079507e+001
    endloop
  endfacet
  facet normal  9.876882e-001  1.564349e-001  -0.000000e+000
    outer loop
      vertex  1.993426e+002 -2.941890e+001  6.179507e+001
      vertex  1.990000e+002 -2.725578e+001  1.079507e+001
      vertex  1.990000e+002 -2.725578e+001  6.179507e+001
    endloop
  endfacet
  facet normal  1.564352e-001  9.876882e-001  0.000000e+000
    outer loop
      vertex  2.038369e+002 -3.391317e+001  1.079507e+001
      vertex  2.060000e+002 -3.425578e+001  6.179507e+001
      vertex  2.060000e+002 -3.425578e+001  1.079507e+001
    endloop
  endfacet
  facet normal -1.564352e-001  9.876882e-001  0.000000e+000
    outer loop
      vertex  2.060000e+002 -3.425578e+001  1.079507e+001
      vertex  2.060000e+002 -3.425578e+001  6.179507e+001
      vertex  2.081631e+002 -3.391317e+001  6.179507e+001
    endloop
  endfacet
  facet normal -1.564352e-001  9.876882e-001  0.000000e+000
    outer loop
      vertex  2.060000e+002 -3.425578e+001  1.079507e+001
      vertex  2.081631e+002 -3.391317e+001  6.179507e+001
      vertex  2.081631e+002 -3.391317e+001  1.079507e+001
    endloop
  endfacet
  facet normal -4.539896e-001  8.910070e-001  0.000000e+000
    outer loop
      vertex  2.081631e+002 -3.391317e+001  1.079507e+001
      vertex  2.081631e+002 -3.391317e+001  6.179507e+001
      vertex  2.101145e+002 -3.291890e+001  6.179507e+001
    endloop
  endfacet
  facet normal -4.539896e-001  8.910070e-001  0.000000e+000
    outer loop
      vertex  2.081631e+002 -3.391317e+001  1.079507e+001
      vertex  2.101145e+002 -3.291890e+001  6.179507e+001
      vertex  2.101145e+002 -3.291890e+001  1.079507e+001
    endloop
  endfacet
  facet normal -7.071081e-001  7.071055e-001  0.000000e+000
    outer loop
      vertex  2.101145e+002 -3.291890e+001  1.079507e+001
      vertex  2.101145e+002 -3.291890e+001  6.179507e+001
      vertex  2.116631e+002 -3.137028e+001  6.179507e+001
    endloop
  endfacet
  facet normal -7.071081e-001  7.071055e-001  0.000000e+000
    outer loop
      vertex  2.101145e+002 -3.291890e+001  1.079507e+001
      vertex  2.116631e+002 -3.137028e+001  6.179507e+001
      vertex  2.116631e+002 -3.137028e+001  1.079507e+001
    endloop
  endfacet
  facet normal -8.910062e-001  4.539909e-001  0.000000e+000
    outer loop
      vertex  2.116631e+002 -3.137028e+001  1.079507e+001
      vertex  2.116631e+002 -3.137028e+001  6.179507e+001
      vertex  2.126574e+002 -2.941890e+001  6.179507e+001
    endloop
  endfacet
  facet normal -8.910062e-001  4.539909e-001  0.000000e+000
    outer loop
      vertex  2.116631e+002 -3.137028e+001  1.079507e+001
      vertex  2.126574e+002 -2.941890e+001  6.179507e+001
      vertex  2.126574e+002 -2.941890e+001  1.079507e+001
    endloop
  endfacet
  facet normal -9.876882e-001  1.564349e-001  0.000000e+000
    outer loop
      vertex  2.126574e+002 -2.941890e+001  1.079507e+001
      vertex  2.126574e+002 -2.941890e+001  6.179507e+001
      vertex  2.130000e+002 -2.725578e+001  6.179507e+001
    endloop
  endfacet
  facet normal -9.876882e-001  1.564349e-001  0.000000e+000
    outer loop
      vertex  2.126574e+002 -2.941890e+001  1.079507e+001
      vertex  2.130000e+002 -2.725578e+001  6.179507e+001
      vertex  2.130000e+002 -2.725578e+001  1.079507e+001
    endloop
  endfacet
endsolid CATIA STL
