solid Import CV5 provisoire | OCIM07AJNV | 001 | INNOV | LCI_CONCEPT
  facet normal -0.000000e+00 -1.000000e+00 -0.000000e+00
    outer loop
      vertex 2.135000e+02 -7.000000e+01 -6.999988e+01
      vertex 2.105000e+02 -7.000000e+01 -6.999988e+01
      vertex 2.135000e+02 -7.000000e+01 -8.199988e+01
    endloop
  endfacet
  facet normal 0.000000e+00 -1.000000e+00 0.000000e+00
    outer loop
      vertex 2.135000e+02 -7.000000e+01 -8.199988e+01
      vertex 2.105000e+02 -7.000000e+01 -6.999988e+01
      vertex 2.105000e+02 -7.000000e+01 -8.199988e+01
    endloop
  endfacet
  facet normal -0.000000e+00 -0.000000e+00 -1.000000e+00
    outer loop
      vertex 2.135000e+02 -6.800000e+01 -8.199988e+01
      vertex 2.135000e+02 -7.000000e+01 -8.199988e+01
      vertex 2.105000e+02 -6.800000e+01 -8.199988e+01
    endloop
  endfacet
  facet normal 0.000000e+00 0.000000e+00 -1.000000e+00
    outer loop
      vertex 2.105000e+02 -6.800000e+01 -8.199988e+01
      vertex 2.135000e+02 -7.000000e+01 -8.199988e+01
      vertex 2.105000e+02 -7.000000e+01 -8.199988e+01
    endloop
  endfacet
  facet normal -0.000000e+00 -1.000000e+00 -0.000000e+00
    outer loop
      vertex 2.135000e+02 -6.800000e+01 -8.199988e+01
      vertex 2.105000e+02 -6.800000e+01 -8.199988e+01
      vertex 2.135000e+02 -6.800000e+01 -9.199988e+01
    endloop
  endfacet
  facet normal 0.000000e+00 -1.000000e+00 0.000000e+00
    outer loop
      vertex 2.135000e+02 -6.800000e+01 -9.199988e+01
      vertex 2.105000e+02 -6.800000e+01 -8.199988e+01
      vertex 2.105000e+02 -6.800000e+01 -9.199988e+01
    endloop
  endfacet
  facet normal -0.000000e+00 -0.000000e+00 -1.000000e+00
    outer loop
      vertex 2.135000e+02 -6.200000e+01 -9.199988e+01
      vertex 2.135000e+02 -6.800000e+01 -9.199988e+01
      vertex 2.105000e+02 -6.200000e+01 -9.199988e+01
    endloop
  endfacet
  facet normal 0.000000e+00 0.000000e+00 -1.000000e+00
    outer loop
      vertex 2.105000e+02 -6.200000e+01 -9.199988e+01
      vertex 2.135000e+02 -6.800000e+01 -9.199988e+01
      vertex 2.105000e+02 -6.800000e+01 -9.199988e+01
    endloop
  endfacet
  facet normal -0.000000e+00 -0.000000e+00 -1.000000e+00
    outer loop
      vertex 2.135000e+02 -5.600000e+01 -9.199988e+01
      vertex 2.135000e+02 -6.200000e+01 -9.199988e+01
      vertex 2.105000e+02 -5.600000e+01 -9.199988e+01
    endloop
  endfacet
  facet normal 0.000000e+00 0.000000e+00 -1.000000e+00
    outer loop
      vertex 2.105000e+02 -5.600000e+01 -9.199988e+01
      vertex 2.135000e+02 -6.200000e+01 -9.199988e+01
      vertex 2.105000e+02 -6.200000e+01 -9.199988e+01
    endloop
  endfacet
  facet normal 0.000000e+00 1.000000e+00 0.000000e+00
    outer loop
      vertex 2.135000e+02 -5.600000e+01 -8.199988e+01
      vertex 2.135000e+02 -5.600000e+01 -9.199988e+01
      vertex 2.105000e+02 -5.600000e+01 -8.199988e+01
    endloop
  endfacet
  facet normal 0.000000e+00 1.000000e+00 0.000000e+00
    outer loop
      vertex 2.105000e+02 -5.600000e+01 -8.199988e+01
      vertex 2.135000e+02 -5.600000e+01 -9.199988e+01
      vertex 2.105000e+02 -5.600000e+01 -9.199988e+01
    endloop
  endfacet
  facet normal -0.000000e+00 -0.000000e+00 -1.000000e+00
    outer loop
      vertex 2.135000e+02 -5.400000e+01 -8.199988e+01
      vertex 2.135000e+02 -5.600000e+01 -8.199988e+01
      vertex 2.105000e+02 -5.400000e+01 -8.199988e+01
    endloop
  endfacet
  facet normal 0.000000e+00 0.000000e+00 -1.000000e+00
    outer loop
      vertex 2.105000e+02 -5.400000e+01 -8.199988e+01
      vertex 2.135000e+02 -5.600000e+01 -8.199988e+01
      vertex 2.105000e+02 -5.600000e+01 -8.199988e+01
    endloop
  endfacet
  facet normal 0.000000e+00 1.000000e+00 0.000000e+00
    outer loop
      vertex 2.135000e+02 -5.400000e+01 -6.999988e+01
      vertex 2.135000e+02 -5.400000e+01 -8.199988e+01
      vertex 2.105000e+02 -5.400000e+01 -6.999988e+01
    endloop
  endfacet
  facet normal 0.000000e+00 1.000000e+00 0.000000e+00
    outer loop
      vertex 2.105000e+02 -5.400000e+01 -6.999988e+01
      vertex 2.135000e+02 -5.400000e+01 -8.199988e+01
      vertex 2.105000e+02 -5.400000e+01 -8.199988e+01
    endloop
  endfacet
  facet normal 0.000000e+00 0.000000e+00 1.000000e+00
    outer loop
      vertex 2.135000e+02 -5.400000e+01 -6.999988e+01
      vertex 2.105000e+02 -5.400000e+01 -6.999988e+01
      vertex 2.135000e+02 -6.200000e+01 -6.999988e+01
    endloop
  endfacet
  facet normal 0.000000e+00 0.000000e+00 1.000000e+00
    outer loop
      vertex 2.135000e+02 -6.200000e+01 -6.999988e+01
      vertex 2.105000e+02 -5.400000e+01 -6.999988e+01
      vertex 2.105000e+02 -6.200000e+01 -6.999988e+01
    endloop
  endfacet
  facet normal 0.000000e+00 0.000000e+00 1.000000e+00
    outer loop
      vertex 2.135000e+02 -6.200000e+01 -6.999988e+01
      vertex 2.105000e+02 -6.200000e+01 -6.999988e+01
      vertex 2.135000e+02 -7.000000e+01 -6.999988e+01
    endloop
  endfacet
  facet normal 0.000000e+00 0.000000e+00 1.000000e+00
    outer loop
      vertex 2.135000e+02 -7.000000e+01 -6.999988e+01
      vertex 2.105000e+02 -6.200000e+01 -6.999988e+01
      vertex 2.105000e+02 -7.000000e+01 -6.999988e+01
    endloop
  endfacet
  facet normal -1.000000e+00 0.000000e+00 0.000000e+00
    outer loop
      vertex 2.105000e+02 -7.000000e+01 -6.999988e+01
      vertex 2.105000e+02 -6.200000e+01 -6.999988e+01
      vertex 2.105000e+02 -7.000000e+01 -8.199988e+01
    endloop
  endfacet
  facet normal -1.000000e+00 0.000000e+00 0.000000e+00
    outer loop
      vertex 2.105000e+02 -5.600000e+01 -9.199988e+01
      vertex 2.105000e+02 -6.200000e+01 -9.199988e+01
      vertex 2.105000e+02 -5.600000e+01 -8.199988e+01
    endloop
  endfacet
  facet normal -1.000000e+00 0.000000e+00 0.000000e+00
    outer loop
      vertex 2.105000e+02 -5.600000e+01 -8.199988e+01
      vertex 2.105000e+02 -6.200000e+01 -9.199988e+01
      vertex 2.105000e+02 -6.800000e+01 -9.199988e+01
    endloop
  endfacet
  facet normal -1.000000e+00 -0.000000e+00 0.000000e+00
    outer loop
      vertex 2.105000e+02 -5.600000e+01 -8.199988e+01
      vertex 2.105000e+02 -6.800000e+01 -9.199988e+01
      vertex 2.105000e+02 -6.800000e+01 -8.199988e+01
    endloop
  endfacet
  facet normal -1.000000e+00 0.000000e+00 -0.000000e+00
    outer loop
      vertex 2.105000e+02 -5.400000e+01 -6.999988e+01
      vertex 2.105000e+02 -5.400000e+01 -8.199988e+01
      vertex 2.105000e+02 -5.600000e+01 -8.199988e+01
    endloop
  endfacet
  facet normal -1.000000e+00 0.000000e+00 0.000000e+00
    outer loop
      vertex 2.105000e+02 -5.400000e+01 -6.999988e+01
      vertex 2.105000e+02 -5.600000e+01 -8.199988e+01
      vertex 2.105000e+02 -6.800000e+01 -8.199988e+01
    endloop
  endfacet
  facet normal -1.000000e+00 0.000000e+00 0.000000e+00
    outer loop
      vertex 2.105000e+02 -5.400000e+01 -6.999988e+01
      vertex 2.105000e+02 -6.800000e+01 -8.199988e+01
      vertex 2.105000e+02 -7.000000e+01 -8.199988e+01
    endloop
  endfacet
  facet normal -1.000000e+00 -0.000000e+00 0.000000e+00
    outer loop
      vertex 2.105000e+02 -5.400000e+01 -6.999988e+01
      vertex 2.105000e+02 -7.000000e+01 -8.199988e+01
      vertex 2.105000e+02 -6.200000e+01 -6.999988e+01
    endloop
  endfacet
  facet normal 1.000000e+00 0.000000e+00 0.000000e+00
    outer loop
      vertex 2.135000e+02 -7.000000e+01 -8.199988e+01
      vertex 2.135000e+02 -6.200000e+01 -6.999988e+01
      vertex 2.135000e+02 -7.000000e+01 -6.999988e+01
    endloop
  endfacet
  facet normal 1.000000e+00 -0.000000e+00 0.000000e+00
    outer loop
      vertex 2.135000e+02 -6.800000e+01 -8.199988e+01
      vertex 2.135000e+02 -6.800000e+01 -9.199988e+01
      vertex 2.135000e+02 -5.600000e+01 -8.199988e+01
    endloop
  endfacet
  facet normal 1.000000e+00 0.000000e+00 0.000000e+00
    outer loop
      vertex 2.135000e+02 -5.600000e+01 -8.199988e+01
      vertex 2.135000e+02 -6.800000e+01 -9.199988e+01
      vertex 2.135000e+02 -6.200000e+01 -9.199988e+01
    endloop
  endfacet
  facet normal 1.000000e+00 0.000000e+00 0.000000e+00
    outer loop
      vertex 2.135000e+02 -5.600000e+01 -8.199988e+01
      vertex 2.135000e+02 -6.200000e+01 -9.199988e+01
      vertex 2.135000e+02 -5.600000e+01 -9.199988e+01
    endloop
  endfacet
  facet normal 1.000000e+00 0.000000e+00 0.000000e+00
    outer loop
      vertex 2.135000e+02 -5.400000e+01 -6.999988e+01
      vertex 2.135000e+02 -6.200000e+01 -6.999988e+01
      vertex 2.135000e+02 -7.000000e+01 -8.199988e+01
    endloop
  endfacet
  facet normal 1.000000e+00 0.000000e+00 0.000000e+00
    outer loop
      vertex 2.135000e+02 -5.400000e+01 -6.999988e+01
      vertex 2.135000e+02 -7.000000e+01 -8.199988e+01
      vertex 2.135000e+02 -6.800000e+01 -8.199988e+01
    endloop
  endfacet
  facet normal 1.000000e+00 0.000000e+00 0.000000e+00
    outer loop
      vertex 2.135000e+02 -5.400000e+01 -6.999988e+01
      vertex 2.135000e+02 -6.800000e+01 -8.199988e+01
      vertex 2.135000e+02 -5.600000e+01 -8.199988e+01
    endloop
  endfacet
  facet normal 1.000000e+00 0.000000e+00 0.000000e+00
    outer loop
      vertex 2.135000e+02 -5.400000e+01 -6.999988e+01
      vertex 2.135000e+02 -5.600000e+01 -8.199988e+01
      vertex 2.135000e+02 -5.400000e+01 -8.199988e+01
    endloop
  endfacet
  facet normal -0.000000e+00 -1.000000e+00 -0.000000e+00
    outer loop
      vertex 1.385000e+02 -7.000000e+01 -6.999988e+01
      vertex 1.355000e+02 -7.000000e+01 -6.999988e+01
      vertex 1.385000e+02 -7.000000e+01 -8.199988e+01
    endloop
  endfacet
  facet normal 0.000000e+00 -1.000000e+00 0.000000e+00
    outer loop
      vertex 1.385000e+02 -7.000000e+01 -8.199988e+01
      vertex 1.355000e+02 -7.000000e+01 -6.999988e+01
      vertex 1.355000e+02 -7.000000e+01 -8.199988e+01
    endloop
  endfacet
  facet normal -0.000000e+00 -0.000000e+00 -1.000000e+00
    outer loop
      vertex 1.385000e+02 -6.800000e+01 -8.199988e+01
      vertex 1.385000e+02 -7.000000e+01 -8.199988e+01
      vertex 1.355000e+02 -6.800000e+01 -8.199988e+01
    endloop
  endfacet
  facet normal 0.000000e+00 0.000000e+00 -1.000000e+00
    outer loop
      vertex 1.355000e+02 -6.800000e+01 -8.199988e+01
      vertex 1.385000e+02 -7.000000e+01 -8.199988e+01
      vertex 1.355000e+02 -7.000000e+01 -8.199988e+01
    endloop
  endfacet
  facet normal -0.000000e+00 -1.000000e+00 -0.000000e+00
    outer loop
      vertex 1.385000e+02 -6.800000e+01 -8.199988e+01
      vertex 1.355000e+02 -6.800000e+01 -8.199988e+01
      vertex 1.385000e+02 -6.800000e+01 -9.199988e+01
    endloop
  endfacet
  facet normal 0.000000e+00 -1.000000e+00 0.000000e+00
    outer loop
      vertex 1.385000e+02 -6.800000e+01 -9.199988e+01
      vertex 1.355000e+02 -6.800000e+01 -8.199988e+01
      vertex 1.355000e+02 -6.800000e+01 -9.199988e+01
    endloop
  endfacet
  facet normal -0.000000e+00 -0.000000e+00 -1.000000e+00
    outer loop
      vertex 1.385000e+02 -6.200000e+01 -9.199988e+01
      vertex 1.385000e+02 -6.800000e+01 -9.199988e+01
      vertex 1.355000e+02 -6.200000e+01 -9.199988e+01
    endloop
  endfacet
  facet normal 0.000000e+00 0.000000e+00 -1.000000e+00
    outer loop
      vertex 1.355000e+02 -6.200000e+01 -9.199988e+01
      vertex 1.385000e+02 -6.800000e+01 -9.199988e+01
      vertex 1.355000e+02 -6.800000e+01 -9.199988e+01
    endloop
  endfacet
  facet normal -0.000000e+00 -0.000000e+00 -1.000000e+00
    outer loop
      vertex 1.385000e+02 -5.600000e+01 -9.199988e+01
      vertex 1.385000e+02 -6.200000e+01 -9.199988e+01
      vertex 1.355000e+02 -5.600000e+01 -9.199988e+01
    endloop
  endfacet
  facet normal 0.000000e+00 0.000000e+00 -1.000000e+00
    outer loop
      vertex 1.355000e+02 -5.600000e+01 -9.199988e+01
      vertex 1.385000e+02 -6.200000e+01 -9.199988e+01
      vertex 1.355000e+02 -6.200000e+01 -9.199988e+01
    endloop
  endfacet
  facet normal 0.000000e+00 1.000000e+00 0.000000e+00
    outer loop
      vertex 1.385000e+02 -5.600000e+01 -8.199988e+01
      vertex 1.385000e+02 -5.600000e+01 -9.199988e+01
      vertex 1.355000e+02 -5.600000e+01 -8.199988e+01
    endloop
  endfacet
  facet normal 0.000000e+00 1.000000e+00 0.000000e+00
    outer loop
      vertex 1.355000e+02 -5.600000e+01 -8.199988e+01
      vertex 1.385000e+02 -5.600000e+01 -9.199988e+01
      vertex 1.355000e+02 -5.600000e+01 -9.199988e+01
    endloop
  endfacet
  facet normal -0.000000e+00 -0.000000e+00 -1.000000e+00
    outer loop
      vertex 1.385000e+02 -5.400000e+01 -8.199988e+01
      vertex 1.385000e+02 -5.600000e+01 -8.199988e+01
      vertex 1.355000e+02 -5.400000e+01 -8.199988e+01
    endloop
  endfacet
  facet normal 0.000000e+00 0.000000e+00 -1.000000e+00
    outer loop
      vertex 1.355000e+02 -5.400000e+01 -8.199988e+01
      vertex 1.385000e+02 -5.600000e+01 -8.199988e+01
      vertex 1.355000e+02 -5.600000e+01 -8.199988e+01
    endloop
  endfacet
  facet normal 0.000000e+00 1.000000e+00 0.000000e+00
    outer loop
      vertex 1.385000e+02 -5.400000e+01 -6.999988e+01
      vertex 1.385000e+02 -5.400000e+01 -8.199988e+01
      vertex 1.355000e+02 -5.400000e+01 -6.999988e+01
    endloop
  endfacet
  facet normal 0.000000e+00 1.000000e+00 0.000000e+00
    outer loop
      vertex 1.355000e+02 -5.400000e+01 -6.999988e+01
      vertex 1.385000e+02 -5.400000e+01 -8.199988e+01
      vertex 1.355000e+02 -5.400000e+01 -8.199988e+01
    endloop
  endfacet
  facet normal 0.000000e+00 0.000000e+00 1.000000e+00
    outer loop
      vertex 1.385000e+02 -5.400000e+01 -6.999988e+01
      vertex 1.355000e+02 -5.400000e+01 -6.999988e+01
      vertex 1.385000e+02 -6.200000e+01 -6.999988e+01
    endloop
  endfacet
  facet normal 0.000000e+00 0.000000e+00 1.000000e+00
    outer loop
      vertex 1.385000e+02 -6.200000e+01 -6.999988e+01
      vertex 1.355000e+02 -5.400000e+01 -6.999988e+01
      vertex 1.355000e+02 -6.200000e+01 -6.999988e+01
    endloop
  endfacet
  facet normal 0.000000e+00 0.000000e+00 1.000000e+00
    outer loop
      vertex 1.385000e+02 -6.200000e+01 -6.999988e+01
      vertex 1.355000e+02 -6.200000e+01 -6.999988e+01
      vertex 1.385000e+02 -7.000000e+01 -6.999988e+01
    endloop
  endfacet
  facet normal 0.000000e+00 0.000000e+00 1.000000e+00
    outer loop
      vertex 1.385000e+02 -7.000000e+01 -6.999988e+01
      vertex 1.355000e+02 -6.200000e+01 -6.999988e+01
      vertex 1.355000e+02 -7.000000e+01 -6.999988e+01
    endloop
  endfacet
  facet normal -1.000000e+00 0.000000e+00 0.000000e+00
    outer loop
      vertex 1.355000e+02 -7.000000e+01 -6.999988e+01
      vertex 1.355000e+02 -6.200000e+01 -6.999988e+01
      vertex 1.355000e+02 -7.000000e+01 -8.199988e+01
    endloop
  endfacet
  facet normal -1.000000e+00 0.000000e+00 0.000000e+00
    outer loop
      vertex 1.355000e+02 -5.600000e+01 -9.199988e+01
      vertex 1.355000e+02 -6.200000e+01 -9.199988e+01
      vertex 1.355000e+02 -5.600000e+01 -8.199988e+01
    endloop
  endfacet
  facet normal -1.000000e+00 0.000000e+00 0.000000e+00
    outer loop
      vertex 1.355000e+02 -5.600000e+01 -8.199988e+01
      vertex 1.355000e+02 -6.200000e+01 -9.199988e+01
      vertex 1.355000e+02 -6.800000e+01 -9.199988e+01
    endloop
  endfacet
  facet normal -1.000000e+00 -0.000000e+00 0.000000e+00
    outer loop
      vertex 1.355000e+02 -5.600000e+01 -8.199988e+01
      vertex 1.355000e+02 -6.800000e+01 -9.199988e+01
      vertex 1.355000e+02 -6.800000e+01 -8.199988e+01
    endloop
  endfacet
  facet normal -1.000000e+00 0.000000e+00 -0.000000e+00
    outer loop
      vertex 1.355000e+02 -5.400000e+01 -6.999988e+01
      vertex 1.355000e+02 -5.400000e+01 -8.199988e+01
      vertex 1.355000e+02 -5.600000e+01 -8.199988e+01
    endloop
  endfacet
  facet normal -1.000000e+00 0.000000e+00 0.000000e+00
    outer loop
      vertex 1.355000e+02 -5.400000e+01 -6.999988e+01
      vertex 1.355000e+02 -5.600000e+01 -8.199988e+01
      vertex 1.355000e+02 -6.800000e+01 -8.199988e+01
    endloop
  endfacet
  facet normal -1.000000e+00 0.000000e+00 0.000000e+00
    outer loop
      vertex 1.355000e+02 -5.400000e+01 -6.999988e+01
      vertex 1.355000e+02 -6.800000e+01 -8.199988e+01
      vertex 1.355000e+02 -7.000000e+01 -8.199988e+01
    endloop
  endfacet
  facet normal -1.000000e+00 -0.000000e+00 0.000000e+00
    outer loop
      vertex 1.355000e+02 -5.400000e+01 -6.999988e+01
      vertex 1.355000e+02 -7.000000e+01 -8.199988e+01
      vertex 1.355000e+02 -6.200000e+01 -6.999988e+01
    endloop
  endfacet
  facet normal 1.000000e+00 0.000000e+00 0.000000e+00
    outer loop
      vertex 1.385000e+02 -7.000000e+01 -8.199988e+01
      vertex 1.385000e+02 -6.200000e+01 -6.999988e+01
      vertex 1.385000e+02 -7.000000e+01 -6.999988e+01
    endloop
  endfacet
  facet normal 1.000000e+00 -0.000000e+00 0.000000e+00
    outer loop
      vertex 1.385000e+02 -6.800000e+01 -8.199988e+01
      vertex 1.385000e+02 -6.800000e+01 -9.199988e+01
      vertex 1.385000e+02 -5.600000e+01 -8.199988e+01
    endloop
  endfacet
  facet normal 1.000000e+00 0.000000e+00 0.000000e+00
    outer loop
      vertex 1.385000e+02 -5.600000e+01 -8.199988e+01
      vertex 1.385000e+02 -6.800000e+01 -9.199988e+01
      vertex 1.385000e+02 -6.200000e+01 -9.199988e+01
    endloop
  endfacet
  facet normal 1.000000e+00 0.000000e+00 0.000000e+00
    outer loop
      vertex 1.385000e+02 -5.600000e+01 -8.199988e+01
      vertex 1.385000e+02 -6.200000e+01 -9.199988e+01
      vertex 1.385000e+02 -5.600000e+01 -9.199988e+01
    endloop
  endfacet
  facet normal 1.000000e+00 0.000000e+00 0.000000e+00
    outer loop
      vertex 1.385000e+02 -5.400000e+01 -6.999988e+01
      vertex 1.385000e+02 -6.200000e+01 -6.999988e+01
      vertex 1.385000e+02 -7.000000e+01 -8.199988e+01
    endloop
  endfacet
  facet normal 1.000000e+00 0.000000e+00 0.000000e+00
    outer loop
      vertex 1.385000e+02 -5.400000e+01 -6.999988e+01
      vertex 1.385000e+02 -7.000000e+01 -8.199988e+01
      vertex 1.385000e+02 -6.800000e+01 -8.199988e+01
    endloop
  endfacet
  facet normal 1.000000e+00 0.000000e+00 0.000000e+00
    outer loop
      vertex 1.385000e+02 -5.400000e+01 -6.999988e+01
      vertex 1.385000e+02 -6.800000e+01 -8.199988e+01
      vertex 1.385000e+02 -5.600000e+01 -8.199988e+01
    endloop
  endfacet
  facet normal 1.000000e+00 0.000000e+00 0.000000e+00
    outer loop
      vertex 1.385000e+02 -5.400000e+01 -6.999988e+01
      vertex 1.385000e+02 -5.600000e+01 -8.199988e+01
      vertex 1.385000e+02 -5.400000e+01 -8.199988e+01
    endloop
  endfacet
endsolid
