solid Import CV5 provisoire | OCIM07AJPH | 001 | INNOV | LCI_CONCEPT
  facet normal 0.000000e+00 0.000000e+00 1.000000e+00
    outer loop
      vertex -1.940000e+02 -2.000000e+01 -3.200000e+01
      vertex -1.840000e+02 -2.000000e+01 -3.200000e+01
      vertex -1.940000e+02 -5.000000e+00 -3.200000e+01
    endloop
  endfacet
  facet normal -0.000000e+00 0.000000e+00 1.000000e+00
    outer loop
      vertex -1.940000e+02 -5.000000e+00 -3.200000e+01
      vertex -1.840000e+02 -2.000000e+01 -3.200000e+01
      vertex -1.840000e+02 -5.000000e+00 -3.200000e+01
    endloop
  endfacet
  facet normal 0.000000e+00 1.000000e+00 0.000000e+00
    outer loop
      vertex -1.840000e+02 -5.000000e+00 -3.200000e+01
      vertex -1.840000e+02 -5.000000e+00 -4.050000e+01
      vertex -1.940000e+02 -5.000000e+00 -3.200000e+01
    endloop
  endfacet
  facet normal 0.000000e+00 1.000000e+00 0.000000e+00
    outer loop
      vertex -1.940000e+02 -5.000000e+00 -3.200000e+01
      vertex -1.840000e+02 -5.000000e+00 -4.050000e+01
      vertex -1.940000e+02 -5.000000e+00 -4.050000e+01
    endloop
  endfacet
  facet normal 0.000000e+00 2.588188e-01 9.659259e-01
    outer loop
      vertex -1.840000e+02 3.061617e-16 -4.550000e+01
      vertex -1.940000e+02 -2.500000e+00 -4.483013e+01
      vertex -1.840000e+02 -2.500000e+00 -4.483013e+01
    endloop
  endfacet
  facet normal 0.000000e+00 7.071069e-01 7.071067e-01
    outer loop
      vertex -1.840000e+02 -2.500000e+00 -4.483013e+01
      vertex -1.940000e+02 -2.500000e+00 -4.483013e+01
      vertex -1.940000e+02 -4.330127e+00 -4.300000e+01
    endloop
  endfacet
  facet normal 0.000000e+00 7.071069e-01 7.071067e-01
    outer loop
      vertex -1.840000e+02 -2.500000e+00 -4.483013e+01
      vertex -1.940000e+02 -4.330127e+00 -4.300000e+01
      vertex -1.840000e+02 -4.330127e+00 -4.300000e+01
    endloop
  endfacet
  facet normal 0.000000e+00 9.659258e-01 2.588190e-01
    outer loop
      vertex -1.840000e+02 -4.330127e+00 -4.300000e+01
      vertex -1.940000e+02 -4.330127e+00 -4.300000e+01
      vertex -1.940000e+02 -5.000000e+00 -4.050000e+01
    endloop
  endfacet
  facet normal 0.000000e+00 9.659258e-01 2.588190e-01
    outer loop
      vertex -1.840000e+02 -4.330127e+00 -4.300000e+01
      vertex -1.940000e+02 -5.000000e+00 -4.050000e+01
      vertex -1.840000e+02 -5.000000e+00 -4.050000e+01
    endloop
  endfacet
  facet normal 0.000000e+00 2.588188e-01 9.659259e-01
    outer loop
      vertex -1.940000e+02 -2.500000e+00 -4.483013e+01
      vertex -1.840000e+02 3.061617e-16 -4.550000e+01
      vertex -1.940000e+02 3.061617e-16 -4.550000e+01
    endloop
  endfacet
  facet normal 0.000000e+00 -2.588188e-01 9.659259e-01
    outer loop
      vertex -1.940000e+02 3.061617e-16 -4.550000e+01
      vertex -1.840000e+02 3.061617e-16 -4.550000e+01
      vertex -1.840000e+02 2.500000e+00 -4.483013e+01
    endloop
  endfacet
  facet normal 0.000000e+00 -2.588188e-01 9.659259e-01
    outer loop
      vertex -1.940000e+02 3.061617e-16 -4.550000e+01
      vertex -1.840000e+02 2.500000e+00 -4.483013e+01
      vertex -1.940000e+02 2.500000e+00 -4.483013e+01
    endloop
  endfacet
  facet normal 0.000000e+00 -7.071069e-01 7.071067e-01
    outer loop
      vertex -1.940000e+02 2.500000e+00 -4.483013e+01
      vertex -1.840000e+02 2.500000e+00 -4.483013e+01
      vertex -1.840000e+02 4.330127e+00 -4.300000e+01
    endloop
  endfacet
  facet normal 0.000000e+00 -7.071069e-01 7.071067e-01
    outer loop
      vertex -1.940000e+02 2.500000e+00 -4.483013e+01
      vertex -1.840000e+02 4.330127e+00 -4.300000e+01
      vertex -1.940000e+02 4.330127e+00 -4.300000e+01
    endloop
  endfacet
  facet normal 0.000000e+00 -9.659258e-01 2.588190e-01
    outer loop
      vertex -1.940000e+02 4.330127e+00 -4.300000e+01
      vertex -1.840000e+02 4.330127e+00 -4.300000e+01
      vertex -1.840000e+02 5.000000e+00 -4.050000e+01
    endloop
  endfacet
  facet normal 0.000000e+00 -9.659258e-01 2.588190e-01
    outer loop
      vertex -1.940000e+02 4.330127e+00 -4.300000e+01
      vertex -1.840000e+02 5.000000e+00 -4.050000e+01
      vertex -1.940000e+02 5.000000e+00 -4.050000e+01
    endloop
  endfacet
  facet normal -0.000000e+00 -1.000000e+00 -0.000000e+00
    outer loop
      vertex -1.840000e+02 5.000000e+00 -3.200000e+01
      vertex -1.940000e+02 5.000000e+00 -3.200000e+01
      vertex -1.840000e+02 5.000000e+00 -4.050000e+01
    endloop
  endfacet
  facet normal 0.000000e+00 -1.000000e+00 0.000000e+00
    outer loop
      vertex -1.840000e+02 5.000000e+00 -4.050000e+01
      vertex -1.940000e+02 5.000000e+00 -3.200000e+01
      vertex -1.940000e+02 5.000000e+00 -4.050000e+01
    endloop
  endfacet
  facet normal 0.000000e+00 0.000000e+00 1.000000e+00
    outer loop
      vertex -1.940000e+02 5.000000e+00 -3.200000e+01
      vertex -1.840000e+02 5.000000e+00 -3.200000e+01
      vertex -1.940000e+02 2.000000e+01 -3.200000e+01
    endloop
  endfacet
  facet normal -0.000000e+00 0.000000e+00 1.000000e+00
    outer loop
      vertex -1.940000e+02 2.000000e+01 -3.200000e+01
      vertex -1.840000e+02 5.000000e+00 -3.200000e+01
      vertex -1.840000e+02 2.000000e+01 -3.200000e+01
    endloop
  endfacet
  facet normal -0.000000e+00 1.000000e+00 0.000000e+00
    outer loop
      vertex -1.940000e+02 2.000000e+01 -3.200000e+01
      vertex -1.840000e+02 2.000000e+01 -3.200000e+01
      vertex -1.940000e+02 2.000000e+01 -7.300000e+01
    endloop
  endfacet
  facet normal 0.000000e+00 1.000000e+00 0.000000e+00
    outer loop
      vertex -1.940000e+02 2.000000e+01 -7.300000e+01
      vertex -1.840000e+02 2.000000e+01 -3.200000e+01
      vertex -1.840000e+02 2.000000e+01 -7.300000e+01
    endloop
  endfacet
  facet normal 0.000000e+00 0.000000e+00 1.000000e+00
    outer loop
      vertex -1.940000e+02 2.000000e+01 -7.300000e+01
      vertex -1.840000e+02 2.000000e+01 -7.300000e+01
      vertex -1.940000e+02 3.000000e+01 -7.300000e+01
    endloop
  endfacet
  facet normal -0.000000e+00 0.000000e+00 1.000000e+00
    outer loop
      vertex -1.940000e+02 3.000000e+01 -7.300000e+01
      vertex -1.840000e+02 2.000000e+01 -7.300000e+01
      vertex -1.840000e+02 3.000000e+01 -7.300000e+01
    endloop
  endfacet
  facet normal 0.000000e+00 1.000000e+00 0.000000e+00
    outer loop
      vertex -1.840000e+02 3.000000e+01 -7.300000e+01
      vertex -1.840000e+02 3.000000e+01 -8.200000e+01
      vertex -1.940000e+02 3.000000e+01 -7.300000e+01
    endloop
  endfacet
  facet normal 0.000000e+00 1.000000e+00 0.000000e+00
    outer loop
      vertex -1.940000e+02 3.000000e+01 -7.300000e+01
      vertex -1.840000e+02 3.000000e+01 -8.200000e+01
      vertex -1.940000e+02 3.000000e+01 -8.200000e+01
    endloop
  endfacet
  facet normal 0.000000e+00 0.000000e+00 -1.000000e+00
    outer loop
      vertex -1.940000e+02 3.000000e+01 -8.200000e+01
      vertex -1.840000e+02 3.000000e+01 -8.200000e+01
      vertex -1.940000e+02 1.000000e+01 -8.200000e+01
    endloop
  endfacet
  facet normal 0.000000e+00 0.000000e+00 -1.000000e+00
    outer loop
      vertex -1.940000e+02 1.000000e+01 -8.200000e+01
      vertex -1.840000e+02 3.000000e+01 -8.200000e+01
      vertex -1.840000e+02 1.000000e+01 -8.200000e+01
    endloop
  endfacet
  facet normal 0.000000e+00 1.000000e+00 0.000000e+00
    outer loop
      vertex -1.840000e+02 1.000000e+01 -8.200000e+01
      vertex -1.840000e+02 1.000000e+01 -9.200000e+01
      vertex -1.940000e+02 1.000000e+01 -8.200000e+01
    endloop
  endfacet
  facet normal 0.000000e+00 1.000000e+00 0.000000e+00
    outer loop
      vertex -1.940000e+02 1.000000e+01 -8.200000e+01
      vertex -1.840000e+02 1.000000e+01 -9.200000e+01
      vertex -1.940000e+02 1.000000e+01 -9.200000e+01
    endloop
  endfacet
  facet normal 0.000000e+00 0.000000e+00 -1.000000e+00
    outer loop
      vertex -1.940000e+02 1.000000e+01 -9.200000e+01
      vertex -1.840000e+02 1.000000e+01 -9.200000e+01
      vertex -1.940000e+02 -1.000000e+01 -9.200000e+01
    endloop
  endfacet
  facet normal 0.000000e+00 0.000000e+00 -1.000000e+00
    outer loop
      vertex -1.940000e+02 -1.000000e+01 -9.200000e+01
      vertex -1.840000e+02 1.000000e+01 -9.200000e+01
      vertex -1.840000e+02 -1.000000e+01 -9.200000e+01
    endloop
  endfacet
  facet normal 0.000000e+00 -1.000000e+00 0.000000e+00
    outer loop
      vertex -1.840000e+02 -1.000000e+01 -9.200000e+01
      vertex -1.840000e+02 -1.000000e+01 -8.200000e+01
      vertex -1.940000e+02 -1.000000e+01 -9.200000e+01
    endloop
  endfacet
  facet normal 0.000000e+00 -1.000000e+00 0.000000e+00
    outer loop
      vertex -1.940000e+02 -1.000000e+01 -9.200000e+01
      vertex -1.840000e+02 -1.000000e+01 -8.200000e+01
      vertex -1.940000e+02 -1.000000e+01 -8.200000e+01
    endloop
  endfacet
  facet normal 0.000000e+00 0.000000e+00 -1.000000e+00
    outer loop
      vertex -1.940000e+02 -1.000000e+01 -8.200000e+01
      vertex -1.840000e+02 -1.000000e+01 -8.200000e+01
      vertex -1.940000e+02 -3.000000e+01 -8.200000e+01
    endloop
  endfacet
  facet normal 0.000000e+00 0.000000e+00 -1.000000e+00
    outer loop
      vertex -1.940000e+02 -3.000000e+01 -8.200000e+01
      vertex -1.840000e+02 -1.000000e+01 -8.200000e+01
      vertex -1.840000e+02 -3.000000e+01 -8.200000e+01
    endloop
  endfacet
  facet normal -0.000000e+00 -1.000000e+00 -0.000000e+00
    outer loop
      vertex -1.840000e+02 -3.000000e+01 -7.300000e+01
      vertex -1.940000e+02 -3.000000e+01 -7.300000e+01
      vertex -1.840000e+02 -3.000000e+01 -8.200000e+01
    endloop
  endfacet
  facet normal 0.000000e+00 -1.000000e+00 0.000000e+00
    outer loop
      vertex -1.840000e+02 -3.000000e+01 -8.200000e+01
      vertex -1.940000e+02 -3.000000e+01 -7.300000e+01
      vertex -1.940000e+02 -3.000000e+01 -8.200000e+01
    endloop
  endfacet
  facet normal 0.000000e+00 0.000000e+00 1.000000e+00
    outer loop
      vertex -1.940000e+02 -3.000000e+01 -7.300000e+01
      vertex -1.840000e+02 -3.000000e+01 -7.300000e+01
      vertex -1.940000e+02 -2.000000e+01 -7.300000e+01
    endloop
  endfacet
  facet normal -0.000000e+00 0.000000e+00 1.000000e+00
    outer loop
      vertex -1.940000e+02 -2.000000e+01 -7.300000e+01
      vertex -1.840000e+02 -3.000000e+01 -7.300000e+01
      vertex -1.840000e+02 -2.000000e+01 -7.300000e+01
    endloop
  endfacet
  facet normal 0.000000e+00 -1.000000e+00 0.000000e+00
    outer loop
      vertex -1.940000e+02 -2.000000e+01 -3.200000e+01
      vertex -1.940000e+02 -2.000000e+01 -7.300000e+01
      vertex -1.840000e+02 -2.000000e+01 -3.200000e+01
    endloop
  endfacet
  facet normal 0.000000e+00 -1.000000e+00 -0.000000e+00
    outer loop
      vertex -1.840000e+02 -2.000000e+01 -3.200000e+01
      vertex -1.940000e+02 -2.000000e+01 -7.300000e+01
      vertex -1.840000e+02 -2.000000e+01 -7.300000e+01
    endloop
  endfacet
  facet normal 1.000000e+00 0.000000e+00 0.000000e+00
    outer loop
      vertex -1.840000e+02 -2.500000e+00 -4.483013e+01
      vertex -1.840000e+02 -9.270510e-01 -6.014687e+01
      vertex -1.840000e+02 3.061617e-16 -4.550000e+01
    endloop
  endfacet
  facet normal 1.000000e+00 0.000000e+00 0.000000e+00
    outer loop
      vertex -1.840000e+02 -9.270510e-01 -6.014687e+01
      vertex -1.840000e+02 -2.500000e+00 -4.483013e+01
      vertex -1.840000e+02 -4.330127e+00 -4.300000e+01
    endloop
  endfacet
  facet normal 1.000000e+00 0.000000e+00 0.000000e+00
    outer loop
      vertex -1.840000e+02 9.270510e-01 -6.585320e+01
      vertex -1.840000e+02 -9.270510e-01 -6.585320e+01
      vertex -1.840000e+02 -1.000000e+01 -9.200000e+01
    endloop
  endfacet
  facet normal 1.000000e+00 0.000000e+00 0.000000e+00
    outer loop
      vertex -1.840000e+02 -1.000000e+01 -9.200000e+01
      vertex -1.840000e+02 -9.270510e-01 -6.585320e+01
      vertex -1.840000e+02 -1.000000e+01 -8.200000e+01
    endloop
  endfacet
  facet normal 1.000000e+00 0.000000e+00 0.000000e+00
    outer loop
      vertex -1.840000e+02 4.330127e+00 -4.300000e+01
      vertex -1.840000e+02 2.500000e+00 -4.483013e+01
      vertex -1.840000e+02 9.270510e-01 -6.014687e+01
    endloop
  endfacet
  facet normal 1.000000e+00 0.000000e+00 -0.000000e+00
    outer loop
      vertex -1.840000e+02 9.270510e-01 -6.014687e+01
      vertex -1.840000e+02 2.500000e+00 -4.483013e+01
      vertex -1.840000e+02 3.061617e-16 -4.550000e+01
    endloop
  endfacet
  facet normal 1.000000e+00 0.000000e+00 0.000000e+00
    outer loop
      vertex -1.840000e+02 9.270510e-01 -6.014687e+01
      vertex -1.840000e+02 3.061617e-16 -4.550000e+01
      vertex -1.840000e+02 -9.270510e-01 -6.014687e+01
    endloop
  endfacet
  facet normal 1.000000e+00 0.000000e+00 0.000000e+00
    outer loop
      vertex -1.840000e+02 3.000000e+01 -7.300000e+01
      vertex -1.840000e+02 2.000000e+01 -7.300000e+01
      vertex -1.840000e+02 3.000000e+01 -8.200000e+01
    endloop
  endfacet
  facet normal 1.000000e+00 0.000000e+00 0.000000e+00
    outer loop
      vertex -1.840000e+02 3.000000e+01 -8.200000e+01
      vertex -1.840000e+02 2.000000e+01 -7.300000e+01
      vertex -1.840000e+02 9.270510e-01 -6.585320e+01
    endloop
  endfacet
  facet normal 1.000000e+00 0.000000e+00 0.000000e+00
    outer loop
      vertex -1.840000e+02 3.000000e+01 -8.200000e+01
      vertex -1.840000e+02 9.270510e-01 -6.585320e+01
      vertex -1.840000e+02 1.000000e+01 -8.200000e+01
    endloop
  endfacet
  facet normal 1.000000e+00 0.000000e+00 0.000000e+00
    outer loop
      vertex -1.840000e+02 1.000000e+01 -8.200000e+01
      vertex -1.840000e+02 9.270510e-01 -6.585320e+01
      vertex -1.840000e+02 -1.000000e+01 -9.200000e+01
    endloop
  endfacet
  facet normal 1.000000e+00 0.000000e+00 0.000000e+00
    outer loop
      vertex -1.840000e+02 1.000000e+01 -8.200000e+01
      vertex -1.840000e+02 -1.000000e+01 -9.200000e+01
      vertex -1.840000e+02 1.000000e+01 -9.200000e+01
    endloop
  endfacet
  facet normal 1.000000e+00 0.000000e+00 0.000000e+00
    outer loop
      vertex -1.840000e+02 5.000000e+00 -4.050000e+01
      vertex -1.840000e+02 4.330127e+00 -4.300000e+01
      vertex -1.840000e+02 9.270510e-01 -6.014687e+01
    endloop
  endfacet
  facet normal 1.000000e+00 0.000000e+00 0.000000e+00
    outer loop
      vertex -1.840000e+02 5.000000e+00 -4.050000e+01
      vertex -1.840000e+02 9.270510e-01 -6.014687e+01
      vertex -1.840000e+02 2.427051e+00 -6.123668e+01
    endloop
  endfacet
  facet normal 1.000000e+00 0.000000e+00 0.000000e+00
    outer loop
      vertex -1.840000e+02 5.000000e+00 -4.050000e+01
      vertex -1.840000e+02 2.427051e+00 -6.123668e+01
      vertex -1.840000e+02 3.000000e+00 -6.300003e+01
    endloop
  endfacet
  facet normal 1.000000e+00 0.000000e+00 0.000000e+00
    outer loop
      vertex -1.840000e+02 -5.000000e+00 -4.050000e+01
      vertex -1.840000e+02 -3.000000e+00 -6.300003e+01
      vertex -1.840000e+02 -2.427051e+00 -6.123668e+01
    endloop
  endfacet
  facet normal 1.000000e+00 0.000000e+00 0.000000e+00
    outer loop
      vertex -1.840000e+02 -5.000000e+00 -4.050000e+01
      vertex -1.840000e+02 -2.427051e+00 -6.123668e+01
      vertex -1.840000e+02 -9.270510e-01 -6.014687e+01
    endloop
  endfacet
  facet normal 1.000000e+00 0.000000e+00 0.000000e+00
    outer loop
      vertex -1.840000e+02 -5.000000e+00 -4.050000e+01
      vertex -1.840000e+02 -9.270510e-01 -6.014687e+01
      vertex -1.840000e+02 -4.330127e+00 -4.300000e+01
    endloop
  endfacet
  facet normal 1.000000e+00 0.000000e+00 0.000000e+00
    outer loop
      vertex -1.840000e+02 -2.000000e+01 -7.300000e+01
      vertex -1.840000e+02 -3.000000e+01 -7.300000e+01
      vertex -1.840000e+02 -3.000000e+01 -8.200000e+01
    endloop
  endfacet
  facet normal 1.000000e+00 0.000000e+00 0.000000e+00
    outer loop
      vertex -1.840000e+02 -2.000000e+01 -7.300000e+01
      vertex -1.840000e+02 -3.000000e+01 -8.200000e+01
      vertex -1.840000e+02 -1.000000e+01 -8.200000e+01
    endloop
  endfacet
  facet normal 1.000000e+00 -0.000000e+00 0.000000e+00
    outer loop
      vertex -1.840000e+02 -2.000000e+01 -7.300000e+01
      vertex -1.840000e+02 -1.000000e+01 -8.200000e+01
      vertex -1.840000e+02 -9.270510e-01 -6.585320e+01
    endloop
  endfacet
  facet normal 1.000000e+00 0.000000e+00 0.000000e+00
    outer loop
      vertex -1.840000e+02 -2.000000e+01 -7.300000e+01
      vertex -1.840000e+02 -9.270510e-01 -6.585320e+01
      vertex -1.840000e+02 -2.427051e+00 -6.476339e+01
    endloop
  endfacet
  facet normal 1.000000e+00 0.000000e+00 0.000000e+00
    outer loop
      vertex -1.840000e+02 -2.000000e+01 -7.300000e+01
      vertex -1.840000e+02 -2.427051e+00 -6.476339e+01
      vertex -1.840000e+02 -3.000000e+00 -6.300003e+01
    endloop
  endfacet
  facet normal 1.000000e+00 0.000000e+00 0.000000e+00
    outer loop
      vertex -1.840000e+02 -2.000000e+01 -7.300000e+01
      vertex -1.840000e+02 -3.000000e+00 -6.300003e+01
      vertex -1.840000e+02 -5.000000e+00 -4.050000e+01
    endloop
  endfacet
  facet normal 1.000000e+00 0.000000e+00 0.000000e+00
    outer loop
      vertex -1.840000e+02 -2.000000e+01 -7.300000e+01
      vertex -1.840000e+02 -5.000000e+00 -4.050000e+01
      vertex -1.840000e+02 -5.000000e+00 -3.200000e+01
    endloop
  endfacet
  facet normal 1.000000e+00 0.000000e+00 0.000000e+00
    outer loop
      vertex -1.840000e+02 -2.000000e+01 -7.300000e+01
      vertex -1.840000e+02 -5.000000e+00 -3.200000e+01
      vertex -1.840000e+02 -2.000000e+01 -3.200000e+01
    endloop
  endfacet
  facet normal 1.000000e+00 0.000000e+00 -0.000000e+00
    outer loop
      vertex -1.840000e+02 2.000000e+01 -7.300000e+01
      vertex -1.840000e+02 2.000000e+01 -3.200000e+01
      vertex -1.840000e+02 5.000000e+00 -3.200000e+01
    endloop
  endfacet
  facet normal 1.000000e+00 0.000000e+00 0.000000e+00
    outer loop
      vertex -1.840000e+02 2.000000e+01 -7.300000e+01
      vertex -1.840000e+02 5.000000e+00 -3.200000e+01
      vertex -1.840000e+02 5.000000e+00 -4.050000e+01
    endloop
  endfacet
  facet normal 1.000000e+00 0.000000e+00 0.000000e+00
    outer loop
      vertex -1.840000e+02 2.000000e+01 -7.300000e+01
      vertex -1.840000e+02 5.000000e+00 -4.050000e+01
      vertex -1.840000e+02 3.000000e+00 -6.300003e+01
    endloop
  endfacet
  facet normal 1.000000e+00 0.000000e+00 0.000000e+00
    outer loop
      vertex -1.840000e+02 2.000000e+01 -7.300000e+01
      vertex -1.840000e+02 3.000000e+00 -6.300003e+01
      vertex -1.840000e+02 2.427051e+00 -6.476339e+01
    endloop
  endfacet
  facet normal 1.000000e+00 0.000000e+00 0.000000e+00
    outer loop
      vertex -1.840000e+02 2.000000e+01 -7.300000e+01
      vertex -1.840000e+02 2.427051e+00 -6.476339e+01
      vertex -1.840000e+02 9.270510e-01 -6.585320e+01
    endloop
  endfacet
  facet normal -1.000000e+00 -0.000000e+00 0.000000e+00
    outer loop
      vertex -1.940000e+02 3.061617e-16 -4.550000e+01
      vertex -1.940000e+02 -9.270510e-01 -6.014687e+01
      vertex -1.940000e+02 -2.500000e+00 -4.483013e+01
    endloop
  endfacet
  facet normal -1.000000e+00 0.000000e+00 0.000000e+00
    outer loop
      vertex -1.940000e+02 -4.330127e+00 -4.300000e+01
      vertex -1.940000e+02 -2.500000e+00 -4.483013e+01
      vertex -1.940000e+02 -9.270510e-01 -6.014687e+01
    endloop
  endfacet
  facet normal -1.000000e+00 -0.000000e+00 0.000000e+00
    outer loop
      vertex -1.940000e+02 9.270510e-01 -6.585320e+01
      vertex -1.940000e+02 -1.000000e+01 -9.200000e+01
      vertex -1.940000e+02 -9.270510e-01 -6.585320e+01
    endloop
  endfacet
  facet normal -1.000000e+00 0.000000e+00 0.000000e+00
    outer loop
      vertex -1.940000e+02 -9.270510e-01 -6.585320e+01
      vertex -1.940000e+02 -1.000000e+01 -9.200000e+01
      vertex -1.940000e+02 -1.000000e+01 -8.200000e+01
    endloop
  endfacet
  facet normal -1.000000e+00 0.000000e+00 0.000000e+00
    outer loop
      vertex -1.940000e+02 -9.270510e-01 -6.014687e+01
      vertex -1.940000e+02 3.061617e-16 -4.550000e+01
      vertex -1.940000e+02 9.270510e-01 -6.014687e+01
    endloop
  endfacet
  facet normal -1.000000e+00 0.000000e+00 0.000000e+00
    outer loop
      vertex -1.940000e+02 9.270510e-01 -6.014687e+01
      vertex -1.940000e+02 3.061617e-16 -4.550000e+01
      vertex -1.940000e+02 2.500000e+00 -4.483013e+01
    endloop
  endfacet
  facet normal -1.000000e+00 0.000000e+00 0.000000e+00
    outer loop
      vertex -1.940000e+02 9.270510e-01 -6.014687e+01
      vertex -1.940000e+02 2.500000e+00 -4.483013e+01
      vertex -1.940000e+02 4.330127e+00 -4.300000e+01
    endloop
  endfacet
  facet normal -1.000000e+00 0.000000e+00 0.000000e+00
    outer loop
      vertex -1.940000e+02 1.000000e+01 -9.200000e+01
      vertex -1.940000e+02 -1.000000e+01 -9.200000e+01
      vertex -1.940000e+02 1.000000e+01 -8.200000e+01
    endloop
  endfacet
  facet normal -1.000000e+00 -0.000000e+00 0.000000e+00
    outer loop
      vertex -1.940000e+02 1.000000e+01 -8.200000e+01
      vertex -1.940000e+02 -1.000000e+01 -9.200000e+01
      vertex -1.940000e+02 9.270510e-01 -6.585320e+01
    endloop
  endfacet
  facet normal -1.000000e+00 0.000000e+00 0.000000e+00
    outer loop
      vertex -1.940000e+02 1.000000e+01 -8.200000e+01
      vertex -1.940000e+02 9.270510e-01 -6.585320e+01
      vertex -1.940000e+02 3.000000e+01 -8.200000e+01
    endloop
  endfacet
  facet normal -1.000000e+00 0.000000e+00 0.000000e+00
    outer loop
      vertex -1.940000e+02 3.000000e+01 -8.200000e+01
      vertex -1.940000e+02 9.270510e-01 -6.585320e+01
      vertex -1.940000e+02 2.000000e+01 -7.300000e+01
    endloop
  endfacet
  facet normal -1.000000e+00 0.000000e+00 0.000000e+00
    outer loop
      vertex -1.940000e+02 3.000000e+01 -8.200000e+01
      vertex -1.940000e+02 2.000000e+01 -7.300000e+01
      vertex -1.940000e+02 3.000000e+01 -7.300000e+01
    endloop
  endfacet
  facet normal -1.000000e+00 0.000000e+00 0.000000e+00
    outer loop
      vertex -1.940000e+02 5.000000e+00 -4.050000e+01
      vertex -1.940000e+02 3.000000e+00 -6.300003e+01
      vertex -1.940000e+02 2.427051e+00 -6.123668e+01
    endloop
  endfacet
  facet normal -1.000000e+00 0.000000e+00 0.000000e+00
    outer loop
      vertex -1.940000e+02 5.000000e+00 -4.050000e+01
      vertex -1.940000e+02 2.427051e+00 -6.123668e+01
      vertex -1.940000e+02 9.270510e-01 -6.014687e+01
    endloop
  endfacet
  facet normal -1.000000e+00 0.000000e+00 0.000000e+00
    outer loop
      vertex -1.940000e+02 5.000000e+00 -4.050000e+01
      vertex -1.940000e+02 9.270510e-01 -6.014687e+01
      vertex -1.940000e+02 4.330127e+00 -4.300000e+01
    endloop
  endfacet
  facet normal -1.000000e+00 0.000000e+00 0.000000e+00
    outer loop
      vertex -1.940000e+02 -5.000000e+00 -4.050000e+01
      vertex -1.940000e+02 -4.330127e+00 -4.300000e+01
      vertex -1.940000e+02 -9.270510e-01 -6.014687e+01
    endloop
  endfacet
  facet normal -1.000000e+00 0.000000e+00 0.000000e+00
    outer loop
      vertex -1.940000e+02 -5.000000e+00 -4.050000e+01
      vertex -1.940000e+02 -9.270510e-01 -6.014687e+01
      vertex -1.940000e+02 -2.427051e+00 -6.123668e+01
    endloop
  endfacet
  facet normal -1.000000e+00 0.000000e+00 0.000000e+00
    outer loop
      vertex -1.940000e+02 -5.000000e+00 -4.050000e+01
      vertex -1.940000e+02 -2.427051e+00 -6.123668e+01
      vertex -1.940000e+02 -3.000000e+00 -6.300003e+01
    endloop
  endfacet
  facet normal -1.000000e+00 0.000000e+00 0.000000e+00
    outer loop
      vertex -1.940000e+02 -2.000000e+01 -7.300000e+01
      vertex -1.940000e+02 -2.000000e+01 -3.200000e+01
      vertex -1.940000e+02 -5.000000e+00 -3.200000e+01
    endloop
  endfacet
  facet normal -1.000000e+00 0.000000e+00 0.000000e+00
    outer loop
      vertex -1.940000e+02 -2.000000e+01 -7.300000e+01
      vertex -1.940000e+02 -5.000000e+00 -3.200000e+01
      vertex -1.940000e+02 -5.000000e+00 -4.050000e+01
    endloop
  endfacet
  facet normal -1.000000e+00 0.000000e+00 0.000000e+00
    outer loop
      vertex -1.940000e+02 -2.000000e+01 -7.300000e+01
      vertex -1.940000e+02 -5.000000e+00 -4.050000e+01
      vertex -1.940000e+02 -3.000000e+00 -6.300003e+01
    endloop
  endfacet
  facet normal -1.000000e+00 0.000000e+00 0.000000e+00
    outer loop
      vertex -1.940000e+02 -2.000000e+01 -7.300000e+01
      vertex -1.940000e+02 -3.000000e+00 -6.300003e+01
      vertex -1.940000e+02 -2.427051e+00 -6.476339e+01
    endloop
  endfacet
  facet normal -1.000000e+00 0.000000e+00 0.000000e+00
    outer loop
      vertex -1.940000e+02 -2.000000e+01 -7.300000e+01
      vertex -1.940000e+02 -2.427051e+00 -6.476339e+01
      vertex -1.940000e+02 -9.270510e-01 -6.585320e+01
    endloop
  endfacet
  facet normal -1.000000e+00 0.000000e+00 0.000000e+00
    outer loop
      vertex -1.940000e+02 -2.000000e+01 -7.300000e+01
      vertex -1.940000e+02 -9.270510e-01 -6.585320e+01
      vertex -1.940000e+02 -1.000000e+01 -8.200000e+01
    endloop
  endfacet
  facet normal -1.000000e+00 0.000000e+00 -0.000000e+00
    outer loop
      vertex -1.940000e+02 -2.000000e+01 -7.300000e+01
      vertex -1.940000e+02 -1.000000e+01 -8.200000e+01
      vertex -1.940000e+02 -3.000000e+01 -8.200000e+01
    endloop
  endfacet
  facet normal -1.000000e+00 -0.000000e+00 0.000000e+00
    outer loop
      vertex -1.940000e+02 -2.000000e+01 -7.300000e+01
      vertex -1.940000e+02 -3.000000e+01 -8.200000e+01
      vertex -1.940000e+02 -3.000000e+01 -7.300000e+01
    endloop
  endfacet
  facet normal -1.000000e+00 0.000000e+00 0.000000e+00
    outer loop
      vertex -1.940000e+02 2.000000e+01 -7.300000e+01
      vertex -1.940000e+02 9.270510e-01 -6.585320e+01
      vertex -1.940000e+02 2.427051e+00 -6.476339e+01
    endloop
  endfacet
  facet normal -1.000000e+00 0.000000e+00 0.000000e+00
    outer loop
      vertex -1.940000e+02 2.000000e+01 -7.300000e+01
      vertex -1.940000e+02 2.427051e+00 -6.476339e+01
      vertex -1.940000e+02 3.000000e+00 -6.300003e+01
    endloop
  endfacet
  facet normal -1.000000e+00 0.000000e+00 0.000000e+00
    outer loop
      vertex -1.940000e+02 2.000000e+01 -7.300000e+01
      vertex -1.940000e+02 3.000000e+00 -6.300003e+01
      vertex -1.940000e+02 5.000000e+00 -4.050000e+01
    endloop
  endfacet
  facet normal -1.000000e+00 0.000000e+00 0.000000e+00
    outer loop
      vertex -1.940000e+02 2.000000e+01 -7.300000e+01
      vertex -1.940000e+02 5.000000e+00 -4.050000e+01
      vertex -1.940000e+02 5.000000e+00 -3.200000e+01
    endloop
  endfacet
  facet normal -1.000000e+00 0.000000e+00 0.000000e+00
    outer loop
      vertex -1.940000e+02 2.000000e+01 -7.300000e+01
      vertex -1.940000e+02 5.000000e+00 -3.200000e+01
      vertex -1.940000e+02 2.000000e+01 -3.200000e+01
    endloop
  endfacet
  facet normal 0.000000e+00 5.877850e-01 8.090171e-01
    outer loop
      vertex -1.840000e+02 -9.270510e-01 -6.585320e+01
      vertex -1.940000e+02 -2.427051e+00 -6.476339e+01
      vertex -1.840000e+02 -2.427051e+00 -6.476339e+01
    endloop
  endfacet
  facet normal 0.000000e+00 9.510565e-01 3.090170e-01
    outer loop
      vertex -1.840000e+02 -2.427051e+00 -6.476339e+01
      vertex -1.940000e+02 -2.427051e+00 -6.476339e+01
      vertex -1.940000e+02 -3.000000e+00 -6.300003e+01
    endloop
  endfacet
  facet normal 0.000000e+00 9.510565e-01 3.090170e-01
    outer loop
      vertex -1.840000e+02 -2.427051e+00 -6.476339e+01
      vertex -1.940000e+02 -3.000000e+00 -6.300003e+01
      vertex -1.840000e+02 -3.000000e+00 -6.300003e+01
    endloop
  endfacet
  facet normal 0.000000e+00 5.877850e-01 8.090171e-01
    outer loop
      vertex -1.940000e+02 -2.427051e+00 -6.476339e+01
      vertex -1.840000e+02 -9.270510e-01 -6.585320e+01
      vertex -1.940000e+02 -9.270510e-01 -6.585320e+01
    endloop
  endfacet
  facet normal 0.000000e+00 0.000000e+00 1.000000e+00
    outer loop
      vertex -1.940000e+02 -9.270510e-01 -6.585320e+01
      vertex -1.840000e+02 -9.270510e-01 -6.585320e+01
      vertex -1.840000e+02 9.270510e-01 -6.585320e+01
    endloop
  endfacet
  facet normal 0.000000e+00 0.000000e+00 1.000000e+00
    outer loop
      vertex -1.940000e+02 -9.270510e-01 -6.585320e+01
      vertex -1.840000e+02 9.270510e-01 -6.585320e+01
      vertex -1.940000e+02 9.270510e-01 -6.585320e+01
    endloop
  endfacet
  facet normal 0.000000e+00 -5.877850e-01 8.090171e-01
    outer loop
      vertex -1.940000e+02 9.270510e-01 -6.585320e+01
      vertex -1.840000e+02 9.270510e-01 -6.585320e+01
      vertex -1.840000e+02 2.427051e+00 -6.476339e+01
    endloop
  endfacet
  facet normal 0.000000e+00 -5.877850e-01 8.090171e-01
    outer loop
      vertex -1.940000e+02 9.270510e-01 -6.585320e+01
      vertex -1.840000e+02 2.427051e+00 -6.476339e+01
      vertex -1.940000e+02 2.427051e+00 -6.476339e+01
    endloop
  endfacet
  facet normal 0.000000e+00 -9.510565e-01 3.090170e-01
    outer loop
      vertex -1.940000e+02 2.427051e+00 -6.476339e+01
      vertex -1.840000e+02 2.427051e+00 -6.476339e+01
      vertex -1.840000e+02 3.000000e+00 -6.300003e+01
    endloop
  endfacet
  facet normal 0.000000e+00 -9.510565e-01 3.090170e-01
    outer loop
      vertex -1.940000e+02 2.427051e+00 -6.476339e+01
      vertex -1.840000e+02 3.000000e+00 -6.300003e+01
      vertex -1.940000e+02 3.000000e+00 -6.300003e+01
    endloop
  endfacet
  facet normal 0.000000e+00 -5.877850e-01 -8.090171e-01
    outer loop
      vertex -1.840000e+02 9.270510e-01 -6.014687e+01
      vertex -1.940000e+02 2.427051e+00 -6.123668e+01
      vertex -1.840000e+02 2.427051e+00 -6.123668e+01
    endloop
  endfacet
  facet normal -0.000000e+00 -9.510565e-01 -3.090170e-01
    outer loop
      vertex -1.840000e+02 2.427051e+00 -6.123668e+01
      vertex -1.940000e+02 2.427051e+00 -6.123668e+01
      vertex -1.940000e+02 3.000000e+00 -6.300003e+01
    endloop
  endfacet
  facet normal 0.000000e+00 -9.510565e-01 -3.090170e-01
    outer loop
      vertex -1.840000e+02 2.427051e+00 -6.123668e+01
      vertex -1.940000e+02 3.000000e+00 -6.300003e+01
      vertex -1.840000e+02 3.000000e+00 -6.300003e+01
    endloop
  endfacet
  facet normal 0.000000e+00 -5.877850e-01 -8.090171e-01
    outer loop
      vertex -1.940000e+02 2.427051e+00 -6.123668e+01
      vertex -1.840000e+02 9.270510e-01 -6.014687e+01
      vertex -1.940000e+02 9.270510e-01 -6.014687e+01
    endloop
  endfacet
  facet normal 0.000000e+00 0.000000e+00 -1.000000e+00
    outer loop
      vertex -1.940000e+02 9.270510e-01 -6.014687e+01
      vertex -1.840000e+02 9.270510e-01 -6.014687e+01
      vertex -1.840000e+02 -9.270510e-01 -6.014687e+01
    endloop
  endfacet
  facet normal 0.000000e+00 0.000000e+00 -1.000000e+00
    outer loop
      vertex -1.940000e+02 9.270510e-01 -6.014687e+01
      vertex -1.840000e+02 -9.270510e-01 -6.014687e+01
      vertex -1.940000e+02 -9.270510e-01 -6.014687e+01
    endloop
  endfacet
  facet normal 0.000000e+00 5.877850e-01 -8.090171e-01
    outer loop
      vertex -1.940000e+02 -9.270510e-01 -6.014687e+01
      vertex -1.840000e+02 -9.270510e-01 -6.014687e+01
      vertex -1.840000e+02 -2.427051e+00 -6.123668e+01
    endloop
  endfacet
  facet normal 0.000000e+00 5.877850e-01 -8.090171e-01
    outer loop
      vertex -1.940000e+02 -9.270510e-01 -6.014687e+01
      vertex -1.840000e+02 -2.427051e+00 -6.123668e+01
      vertex -1.940000e+02 -2.427051e+00 -6.123668e+01
    endloop
  endfacet
  facet normal 0.000000e+00 9.510565e-01 -3.090170e-01
    outer loop
      vertex -1.940000e+02 -2.427051e+00 -6.123668e+01
      vertex -1.840000e+02 -2.427051e+00 -6.123668e+01
      vertex -1.840000e+02 -3.000000e+00 -6.300003e+01
    endloop
  endfacet
  facet normal 0.000000e+00 9.510565e-01 -3.090170e-01
    outer loop
      vertex -1.940000e+02 -2.427051e+00 -6.123668e+01
      vertex -1.840000e+02 -3.000000e+00 -6.300003e+01
      vertex -1.940000e+02 -3.000000e+00 -6.300003e+01
    endloop
  endfacet
endsolid
