solid Import CV5 provisoire | OCIM07AJPJ | 001 | INNOV | LCI_CONCEPT
  facet normal 0.000000e+00 0.000000e+00 -1.000000e+00
    outer loop
      vertex 3.200000e+01 1.000000e+01 -8.200000e+01
      vertex 2.200000e+01 1.000000e+01 -8.200000e+01
      vertex 3.200000e+01 3.000000e+01 -8.200000e+01
    endloop
  endfacet
  facet normal -0.000000e+00 0.000000e+00 -1.000000e+00
    outer loop
      vertex 3.200000e+01 3.000000e+01 -8.200000e+01
      vertex 2.200000e+01 1.000000e+01 -8.200000e+01
      vertex 2.200000e+01 3.000000e+01 -8.200000e+01
    endloop
  endfacet
  facet normal -0.000000e+00 1.000000e+00 0.000000e+00
    outer loop
      vertex 2.200000e+01 1.000000e+01 -8.200000e+01
      vertex 3.200000e+01 1.000000e+01 -8.200000e+01
      vertex 2.200000e+01 1.000000e+01 -9.200000e+01
    endloop
  endfacet
  facet normal 0.000000e+00 1.000000e+00 0.000000e+00
    outer loop
      vertex 2.200000e+01 1.000000e+01 -9.200000e+01
      vertex 3.200000e+01 1.000000e+01 -8.200000e+01
      vertex 3.200000e+01 1.000000e+01 -9.200000e+01
    endloop
  endfacet
  facet normal -0.000000e+00 -0.000000e+00 -1.000000e+00
    outer loop
      vertex 3.200000e+01 1.000000e+01 -9.200000e+01
      vertex 3.200000e+01 -2.000000e+01 -9.200000e+01
      vertex 2.200000e+01 1.000000e+01 -9.200000e+01
    endloop
  endfacet
  facet normal 0.000000e+00 0.000000e+00 -1.000000e+00
    outer loop
      vertex 2.200000e+01 1.000000e+01 -9.200000e+01
      vertex 3.200000e+01 -2.000000e+01 -9.200000e+01
      vertex 2.200000e+01 -2.000000e+01 -9.200000e+01
    endloop
  endfacet
  facet normal 0.000000e+00 -1.000000e+00 0.000000e+00
    outer loop
      vertex 2.200000e+01 -2.000000e+01 -9.200000e+01
      vertex 3.200000e+01 -2.000000e+01 -9.200000e+01
      vertex 2.200000e+01 -2.000000e+01 -8.200000e+01
    endloop
  endfacet
  facet normal 0.000000e+00 -1.000000e+00 0.000000e+00
    outer loop
      vertex 2.200000e+01 -2.000000e+01 -8.200000e+01
      vertex 3.200000e+01 -2.000000e+01 -9.200000e+01
      vertex 3.200000e+01 -2.000000e+01 -8.200000e+01
    endloop
  endfacet
  facet normal 0.000000e+00 0.000000e+00 -1.000000e+00
    outer loop
      vertex 3.200000e+01 -3.000000e+01 -8.200000e+01
      vertex 2.200000e+01 -3.000000e+01 -8.200000e+01
      vertex 3.200000e+01 -2.000000e+01 -8.200000e+01
    endloop
  endfacet
  facet normal -0.000000e+00 0.000000e+00 -1.000000e+00
    outer loop
      vertex 3.200000e+01 -2.000000e+01 -8.200000e+01
      vertex 2.200000e+01 -3.000000e+01 -8.200000e+01
      vertex 2.200000e+01 -2.000000e+01 -8.200000e+01
    endloop
  endfacet
  facet normal 0.000000e+00 3.826835e-01 9.238795e-01
    outer loop
      vertex 3.200000e+01 1.550000e+01 -2.700003e+01
      vertex 2.200000e+01 1.397972e+01 -2.637031e+01
      vertex 3.200000e+01 1.397972e+01 -2.637031e+01
    endloop
  endfacet
  facet normal 0.000000e+00 9.238796e-01 3.826832e-01
    outer loop
      vertex 3.200000e+01 1.397972e+01 -2.637031e+01
      vertex 2.200000e+01 1.397972e+01 -2.637031e+01
      vertex 2.200000e+01 1.335000e+01 -2.485003e+01
    endloop
  endfacet
  facet normal 0.000000e+00 9.238796e-01 3.826832e-01
    outer loop
      vertex 3.200000e+01 1.397972e+01 -2.637031e+01
      vertex 2.200000e+01 1.335000e+01 -2.485003e+01
      vertex 3.200000e+01 1.335000e+01 -2.485003e+01
    endloop
  endfacet
  facet normal 0.000000e+00 3.826835e-01 9.238795e-01
    outer loop
      vertex 2.200000e+01 1.397972e+01 -2.637031e+01
      vertex 3.200000e+01 1.550000e+01 -2.700003e+01
      vertex 2.200000e+01 1.550000e+01 -2.700003e+01
    endloop
  endfacet
  facet normal 0.000000e+00 -3.826837e-01 9.238794e-01
    outer loop
      vertex 2.200000e+01 1.550000e+01 -2.700003e+01
      vertex 3.200000e+01 1.550000e+01 -2.700003e+01
      vertex 3.200000e+01 1.702028e+01 -2.637031e+01
    endloop
  endfacet
  facet normal 0.000000e+00 -3.826837e-01 9.238794e-01
    outer loop
      vertex 2.200000e+01 1.550000e+01 -2.700003e+01
      vertex 3.200000e+01 1.702028e+01 -2.637031e+01
      vertex 2.200000e+01 1.702028e+01 -2.637031e+01
    endloop
  endfacet
  facet normal 0.000000e+00 -9.238794e-01 3.826837e-01
    outer loop
      vertex 2.200000e+01 1.702028e+01 -2.637031e+01
      vertex 3.200000e+01 1.702028e+01 -2.637031e+01
      vertex 3.200000e+01 1.765000e+01 -2.485003e+01
    endloop
  endfacet
  facet normal 0.000000e+00 -9.238794e-01 3.826837e-01
    outer loop
      vertex 2.200000e+01 1.702028e+01 -2.637031e+01
      vertex 3.200000e+01 1.765000e+01 -2.485003e+01
      vertex 2.200000e+01 1.765000e+01 -2.485003e+01
    endloop
  endfacet
  facet normal 0.000000e+00 -3.826837e-01 -9.238794e-01
    outer loop
      vertex 3.200000e+01 1.550000e+01 -2.270003e+01
      vertex 2.200000e+01 1.702028e+01 -2.332975e+01
      vertex 3.200000e+01 1.702028e+01 -2.332975e+01
    endloop
  endfacet
  facet normal -0.000000e+00 -9.238794e-01 -3.826837e-01
    outer loop
      vertex 3.200000e+01 1.702028e+01 -2.332975e+01
      vertex 2.200000e+01 1.702028e+01 -2.332975e+01
      vertex 2.200000e+01 1.765000e+01 -2.485003e+01
    endloop
  endfacet
  facet normal 0.000000e+00 -9.238794e-01 -3.826837e-01
    outer loop
      vertex 3.200000e+01 1.702028e+01 -2.332975e+01
      vertex 2.200000e+01 1.765000e+01 -2.485003e+01
      vertex 3.200000e+01 1.765000e+01 -2.485003e+01
    endloop
  endfacet
  facet normal 0.000000e+00 -3.826837e-01 -9.238794e-01
    outer loop
      vertex 2.200000e+01 1.702028e+01 -2.332975e+01
      vertex 3.200000e+01 1.550000e+01 -2.270003e+01
      vertex 2.200000e+01 1.550000e+01 -2.270003e+01
    endloop
  endfacet
  facet normal 0.000000e+00 3.826835e-01 -9.238795e-01
    outer loop
      vertex 2.200000e+01 1.550000e+01 -2.270003e+01
      vertex 3.200000e+01 1.550000e+01 -2.270003e+01
      vertex 3.200000e+01 1.397972e+01 -2.332975e+01
    endloop
  endfacet
  facet normal 0.000000e+00 3.826835e-01 -9.238795e-01
    outer loop
      vertex 2.200000e+01 1.550000e+01 -2.270003e+01
      vertex 3.200000e+01 1.397972e+01 -2.332975e+01
      vertex 2.200000e+01 1.397972e+01 -2.332975e+01
    endloop
  endfacet
  facet normal 0.000000e+00 9.238796e-01 -3.826832e-01
    outer loop
      vertex 2.200000e+01 1.397972e+01 -2.332975e+01
      vertex 3.200000e+01 1.397972e+01 -2.332975e+01
      vertex 3.200000e+01 1.335000e+01 -2.485003e+01
    endloop
  endfacet
  facet normal 0.000000e+00 9.238796e-01 -3.826832e-01
    outer loop
      vertex 2.200000e+01 1.397972e+01 -2.332975e+01
      vertex 3.200000e+01 1.335000e+01 -2.485003e+01
      vertex 2.200000e+01 1.335000e+01 -2.485003e+01
    endloop
  endfacet
  facet normal 0.000000e+00 3.826825e-01 9.238799e-01
    outer loop
      vertex 3.200000e+01 1.550000e+01 -5.800003e+01
      vertex 2.200000e+01 1.397972e+01 -5.737031e+01
      vertex 3.200000e+01 1.397972e+01 -5.737031e+01
    endloop
  endfacet
  facet normal 0.000000e+00 9.238796e-01 3.826832e-01
    outer loop
      vertex 3.200000e+01 1.397972e+01 -5.737031e+01
      vertex 2.200000e+01 1.397972e+01 -5.737031e+01
      vertex 2.200000e+01 1.335000e+01 -5.585003e+01
    endloop
  endfacet
  facet normal 0.000000e+00 9.238796e-01 3.826832e-01
    outer loop
      vertex 3.200000e+01 1.397972e+01 -5.737031e+01
      vertex 2.200000e+01 1.335000e+01 -5.585003e+01
      vertex 3.200000e+01 1.335000e+01 -5.585003e+01
    endloop
  endfacet
  facet normal 0.000000e+00 3.826825e-01 9.238799e-01
    outer loop
      vertex 2.200000e+01 1.397972e+01 -5.737031e+01
      vertex 3.200000e+01 1.550000e+01 -5.800003e+01
      vertex 2.200000e+01 1.550000e+01 -5.800003e+01
    endloop
  endfacet
  facet normal 0.000000e+00 -3.826827e-01 9.238798e-01
    outer loop
      vertex 2.200000e+01 1.550000e+01 -5.800003e+01
      vertex 3.200000e+01 1.550000e+01 -5.800003e+01
      vertex 3.200000e+01 1.702028e+01 -5.737031e+01
    endloop
  endfacet
  facet normal 0.000000e+00 -3.826827e-01 9.238798e-01
    outer loop
      vertex 2.200000e+01 1.550000e+01 -5.800003e+01
      vertex 3.200000e+01 1.702028e+01 -5.737031e+01
      vertex 2.200000e+01 1.702028e+01 -5.737031e+01
    endloop
  endfacet
  facet normal 0.000000e+00 -9.238794e-01 3.826837e-01
    outer loop
      vertex 2.200000e+01 1.702028e+01 -5.737031e+01
      vertex 3.200000e+01 1.702028e+01 -5.737031e+01
      vertex 3.200000e+01 1.765000e+01 -5.585003e+01
    endloop
  endfacet
  facet normal 0.000000e+00 -9.238794e-01 3.826837e-01
    outer loop
      vertex 2.200000e+01 1.702028e+01 -5.737031e+01
      vertex 3.200000e+01 1.765000e+01 -5.585003e+01
      vertex 2.200000e+01 1.765000e+01 -5.585003e+01
    endloop
  endfacet
  facet normal 0.000000e+00 -3.826827e-01 -9.238798e-01
    outer loop
      vertex 3.200000e+01 1.550000e+01 -5.370003e+01
      vertex 2.200000e+01 1.702028e+01 -5.432975e+01
      vertex 3.200000e+01 1.702028e+01 -5.432975e+01
    endloop
  endfacet
  facet normal -0.000000e+00 -9.238798e-01 -3.826829e-01
    outer loop
      vertex 3.200000e+01 1.702028e+01 -5.432975e+01
      vertex 2.200000e+01 1.702028e+01 -5.432975e+01
      vertex 2.200000e+01 1.765000e+01 -5.585003e+01
    endloop
  endfacet
  facet normal 0.000000e+00 -9.238798e-01 -3.826829e-01
    outer loop
      vertex 3.200000e+01 1.702028e+01 -5.432975e+01
      vertex 2.200000e+01 1.765000e+01 -5.585003e+01
      vertex 3.200000e+01 1.765000e+01 -5.585003e+01
    endloop
  endfacet
  facet normal 0.000000e+00 -3.826827e-01 -9.238798e-01
    outer loop
      vertex 2.200000e+01 1.702028e+01 -5.432975e+01
      vertex 3.200000e+01 1.550000e+01 -5.370003e+01
      vertex 2.200000e+01 1.550000e+01 -5.370003e+01
    endloop
  endfacet
  facet normal 0.000000e+00 3.826825e-01 -9.238799e-01
    outer loop
      vertex 2.200000e+01 1.550000e+01 -5.370003e+01
      vertex 3.200000e+01 1.550000e+01 -5.370003e+01
      vertex 3.200000e+01 1.397972e+01 -5.432975e+01
    endloop
  endfacet
  facet normal 0.000000e+00 3.826825e-01 -9.238799e-01
    outer loop
      vertex 2.200000e+01 1.550000e+01 -5.370003e+01
      vertex 3.200000e+01 1.397972e+01 -5.432975e+01
      vertex 2.200000e+01 1.397972e+01 -5.432975e+01
    endloop
  endfacet
  facet normal 0.000000e+00 9.238800e-01 -3.826824e-01
    outer loop
      vertex 2.200000e+01 1.397972e+01 -5.432975e+01
      vertex 3.200000e+01 1.397972e+01 -5.432975e+01
      vertex 3.200000e+01 1.335000e+01 -5.585003e+01
    endloop
  endfacet
  facet normal 0.000000e+00 9.238800e-01 -3.826824e-01
    outer loop
      vertex 2.200000e+01 1.397972e+01 -5.432975e+01
      vertex 3.200000e+01 1.335000e+01 -5.585003e+01
      vertex 2.200000e+01 1.335000e+01 -5.585003e+01
    endloop
  endfacet
  facet normal 0.000000e+00 3.826837e-01 9.238794e-01
    outer loop
      vertex 3.200000e+01 -1.550000e+01 -2.700003e+01
      vertex 2.200000e+01 -1.702028e+01 -2.637031e+01
      vertex 3.200000e+01 -1.702028e+01 -2.637031e+01
    endloop
  endfacet
  facet normal 0.000000e+00 9.238794e-01 3.826837e-01
    outer loop
      vertex 3.200000e+01 -1.702028e+01 -2.637031e+01
      vertex 2.200000e+01 -1.702028e+01 -2.637031e+01
      vertex 2.200000e+01 -1.765000e+01 -2.485003e+01
    endloop
  endfacet
  facet normal 0.000000e+00 9.238794e-01 3.826837e-01
    outer loop
      vertex 3.200000e+01 -1.702028e+01 -2.637031e+01
      vertex 2.200000e+01 -1.765000e+01 -2.485003e+01
      vertex 3.200000e+01 -1.765000e+01 -2.485003e+01
    endloop
  endfacet
  facet normal 0.000000e+00 3.826837e-01 9.238794e-01
    outer loop
      vertex 2.200000e+01 -1.702028e+01 -2.637031e+01
      vertex 3.200000e+01 -1.550000e+01 -2.700003e+01
      vertex 2.200000e+01 -1.550000e+01 -2.700003e+01
    endloop
  endfacet
  facet normal 0.000000e+00 -3.826835e-01 9.238795e-01
    outer loop
      vertex 2.200000e+01 -1.550000e+01 -2.700003e+01
      vertex 3.200000e+01 -1.550000e+01 -2.700003e+01
      vertex 3.200000e+01 -1.397972e+01 -2.637031e+01
    endloop
  endfacet
  facet normal 0.000000e+00 -3.826835e-01 9.238795e-01
    outer loop
      vertex 2.200000e+01 -1.550000e+01 -2.700003e+01
      vertex 3.200000e+01 -1.397972e+01 -2.637031e+01
      vertex 2.200000e+01 -1.397972e+01 -2.637031e+01
    endloop
  endfacet
  facet normal 0.000000e+00 -9.238796e-01 3.826832e-01
    outer loop
      vertex 2.200000e+01 -1.397972e+01 -2.637031e+01
      vertex 3.200000e+01 -1.397972e+01 -2.637031e+01
      vertex 3.200000e+01 -1.335000e+01 -2.485003e+01
    endloop
  endfacet
  facet normal 0.000000e+00 -9.238796e-01 3.826832e-01
    outer loop
      vertex 2.200000e+01 -1.397972e+01 -2.637031e+01
      vertex 3.200000e+01 -1.335000e+01 -2.485003e+01
      vertex 2.200000e+01 -1.335000e+01 -2.485003e+01
    endloop
  endfacet
  facet normal 0.000000e+00 -3.826835e-01 -9.238795e-01
    outer loop
      vertex 3.200000e+01 -1.550000e+01 -2.270003e+01
      vertex 2.200000e+01 -1.397972e+01 -2.332975e+01
      vertex 3.200000e+01 -1.397972e+01 -2.332975e+01
    endloop
  endfacet
  facet normal -0.000000e+00 -9.238796e-01 -3.826832e-01
    outer loop
      vertex 3.200000e+01 -1.397972e+01 -2.332975e+01
      vertex 2.200000e+01 -1.397972e+01 -2.332975e+01
      vertex 2.200000e+01 -1.335000e+01 -2.485003e+01
    endloop
  endfacet
  facet normal 0.000000e+00 -9.238796e-01 -3.826832e-01
    outer loop
      vertex 3.200000e+01 -1.397972e+01 -2.332975e+01
      vertex 2.200000e+01 -1.335000e+01 -2.485003e+01
      vertex 3.200000e+01 -1.335000e+01 -2.485003e+01
    endloop
  endfacet
  facet normal 0.000000e+00 -3.826835e-01 -9.238795e-01
    outer loop
      vertex 2.200000e+01 -1.397972e+01 -2.332975e+01
      vertex 3.200000e+01 -1.550000e+01 -2.270003e+01
      vertex 2.200000e+01 -1.550000e+01 -2.270003e+01
    endloop
  endfacet
  facet normal 0.000000e+00 3.826837e-01 -9.238794e-01
    outer loop
      vertex 2.200000e+01 -1.550000e+01 -2.270003e+01
      vertex 3.200000e+01 -1.550000e+01 -2.270003e+01
      vertex 3.200000e+01 -1.702028e+01 -2.332975e+01
    endloop
  endfacet
  facet normal 0.000000e+00 3.826837e-01 -9.238794e-01
    outer loop
      vertex 2.200000e+01 -1.550000e+01 -2.270003e+01
      vertex 3.200000e+01 -1.702028e+01 -2.332975e+01
      vertex 2.200000e+01 -1.702028e+01 -2.332975e+01
    endloop
  endfacet
  facet normal 0.000000e+00 9.238794e-01 -3.826837e-01
    outer loop
      vertex 2.200000e+01 -1.702028e+01 -2.332975e+01
      vertex 3.200000e+01 -1.702028e+01 -2.332975e+01
      vertex 3.200000e+01 -1.765000e+01 -2.485003e+01
    endloop
  endfacet
  facet normal 0.000000e+00 9.238794e-01 -3.826837e-01
    outer loop
      vertex 2.200000e+01 -1.702028e+01 -2.332975e+01
      vertex 3.200000e+01 -1.765000e+01 -2.485003e+01
      vertex 2.200000e+01 -1.765000e+01 -2.485003e+01
    endloop
  endfacet
  facet normal 0.000000e+00 3.826827e-01 9.238798e-01
    outer loop
      vertex 3.200000e+01 -1.550000e+01 -5.800003e+01
      vertex 2.200000e+01 -1.702028e+01 -5.737031e+01
      vertex 3.200000e+01 -1.702028e+01 -5.737031e+01
    endloop
  endfacet
  facet normal 0.000000e+00 9.238794e-01 3.826837e-01
    outer loop
      vertex 3.200000e+01 -1.702028e+01 -5.737031e+01
      vertex 2.200000e+01 -1.702028e+01 -5.737031e+01
      vertex 2.200000e+01 -1.765000e+01 -5.585003e+01
    endloop
  endfacet
  facet normal 0.000000e+00 9.238794e-01 3.826837e-01
    outer loop
      vertex 3.200000e+01 -1.702028e+01 -5.737031e+01
      vertex 2.200000e+01 -1.765000e+01 -5.585003e+01
      vertex 3.200000e+01 -1.765000e+01 -5.585003e+01
    endloop
  endfacet
  facet normal 0.000000e+00 3.826827e-01 9.238798e-01
    outer loop
      vertex 2.200000e+01 -1.702028e+01 -5.737031e+01
      vertex 3.200000e+01 -1.550000e+01 -5.800003e+01
      vertex 2.200000e+01 -1.550000e+01 -5.800003e+01
    endloop
  endfacet
  facet normal 0.000000e+00 -3.826825e-01 9.238799e-01
    outer loop
      vertex 2.200000e+01 -1.550000e+01 -5.800003e+01
      vertex 3.200000e+01 -1.550000e+01 -5.800003e+01
      vertex 3.200000e+01 -1.397972e+01 -5.737031e+01
    endloop
  endfacet
  facet normal 0.000000e+00 -3.826825e-01 9.238799e-01
    outer loop
      vertex 2.200000e+01 -1.550000e+01 -5.800003e+01
      vertex 3.200000e+01 -1.397972e+01 -5.737031e+01
      vertex 2.200000e+01 -1.397972e+01 -5.737031e+01
    endloop
  endfacet
  facet normal 0.000000e+00 -9.238796e-01 3.826832e-01
    outer loop
      vertex 2.200000e+01 -1.397972e+01 -5.737031e+01
      vertex 3.200000e+01 -1.397972e+01 -5.737031e+01
      vertex 3.200000e+01 -1.335000e+01 -5.585003e+01
    endloop
  endfacet
  facet normal 0.000000e+00 -9.238796e-01 3.826832e-01
    outer loop
      vertex 2.200000e+01 -1.397972e+01 -5.737031e+01
      vertex 3.200000e+01 -1.335000e+01 -5.585003e+01
      vertex 2.200000e+01 -1.335000e+01 -5.585003e+01
    endloop
  endfacet
  facet normal 0.000000e+00 -3.826825e-01 -9.238799e-01
    outer loop
      vertex 3.200000e+01 -1.550000e+01 -5.370003e+01
      vertex 2.200000e+01 -1.397972e+01 -5.432975e+01
      vertex 3.200000e+01 -1.397972e+01 -5.432975e+01
    endloop
  endfacet
  facet normal -0.000000e+00 -9.238800e-01 -3.826824e-01
    outer loop
      vertex 3.200000e+01 -1.397972e+01 -5.432975e+01
      vertex 2.200000e+01 -1.397972e+01 -5.432975e+01
      vertex 2.200000e+01 -1.335000e+01 -5.585003e+01
    endloop
  endfacet
  facet normal 0.000000e+00 -9.238800e-01 -3.826824e-01
    outer loop
      vertex 3.200000e+01 -1.397972e+01 -5.432975e+01
      vertex 2.200000e+01 -1.335000e+01 -5.585003e+01
      vertex 3.200000e+01 -1.335000e+01 -5.585003e+01
    endloop
  endfacet
  facet normal 0.000000e+00 -3.826825e-01 -9.238799e-01
    outer loop
      vertex 2.200000e+01 -1.397972e+01 -5.432975e+01
      vertex 3.200000e+01 -1.550000e+01 -5.370003e+01
      vertex 2.200000e+01 -1.550000e+01 -5.370003e+01
    endloop
  endfacet
  facet normal 0.000000e+00 3.826827e-01 -9.238798e-01
    outer loop
      vertex 2.200000e+01 -1.550000e+01 -5.370003e+01
      vertex 3.200000e+01 -1.550000e+01 -5.370003e+01
      vertex 3.200000e+01 -1.702028e+01 -5.432975e+01
    endloop
  endfacet
  facet normal 0.000000e+00 3.826827e-01 -9.238798e-01
    outer loop
      vertex 2.200000e+01 -1.550000e+01 -5.370003e+01
      vertex 3.200000e+01 -1.702028e+01 -5.432975e+01
      vertex 2.200000e+01 -1.702028e+01 -5.432975e+01
    endloop
  endfacet
  facet normal 0.000000e+00 9.238798e-01 -3.826829e-01
    outer loop
      vertex 2.200000e+01 -1.702028e+01 -5.432975e+01
      vertex 3.200000e+01 -1.702028e+01 -5.432975e+01
      vertex 3.200000e+01 -1.765000e+01 -5.585003e+01
    endloop
  endfacet
  facet normal 0.000000e+00 9.238798e-01 -3.826829e-01
    outer loop
      vertex 2.200000e+01 -1.702028e+01 -5.432975e+01
      vertex 3.200000e+01 -1.765000e+01 -5.585003e+01
      vertex 2.200000e+01 -1.765000e+01 -5.585003e+01
    endloop
  endfacet
  facet normal 0.000000e+00 5.877850e-01 8.090171e-01
    outer loop
      vertex 3.200000e+01 -9.270510e-01 -6.585320e+01
      vertex 2.200000e+01 -2.427051e+00 -6.476339e+01
      vertex 3.200000e+01 -2.427051e+00 -6.476339e+01
    endloop
  endfacet
  facet normal 0.000000e+00 9.510565e-01 3.090170e-01
    outer loop
      vertex 3.200000e+01 -2.427051e+00 -6.476339e+01
      vertex 2.200000e+01 -2.427051e+00 -6.476339e+01
      vertex 2.200000e+01 -3.000000e+00 -6.300003e+01
    endloop
  endfacet
  facet normal 0.000000e+00 9.510565e-01 3.090170e-01
    outer loop
      vertex 3.200000e+01 -2.427051e+00 -6.476339e+01
      vertex 2.200000e+01 -3.000000e+00 -6.300003e+01
      vertex 3.200000e+01 -3.000000e+00 -6.300003e+01
    endloop
  endfacet
  facet normal 0.000000e+00 5.877850e-01 8.090171e-01
    outer loop
      vertex 2.200000e+01 -2.427051e+00 -6.476339e+01
      vertex 3.200000e+01 -9.270510e-01 -6.585320e+01
      vertex 2.200000e+01 -9.270510e-01 -6.585320e+01
    endloop
  endfacet
  facet normal 0.000000e+00 0.000000e+00 1.000000e+00
    outer loop
      vertex 2.200000e+01 -9.270510e-01 -6.585320e+01
      vertex 3.200000e+01 -9.270510e-01 -6.585320e+01
      vertex 3.200000e+01 9.270510e-01 -6.585320e+01
    endloop
  endfacet
  facet normal 0.000000e+00 0.000000e+00 1.000000e+00
    outer loop
      vertex 2.200000e+01 -9.270510e-01 -6.585320e+01
      vertex 3.200000e+01 9.270510e-01 -6.585320e+01
      vertex 2.200000e+01 9.270510e-01 -6.585320e+01
    endloop
  endfacet
  facet normal 0.000000e+00 -5.877850e-01 8.090171e-01
    outer loop
      vertex 2.200000e+01 9.270510e-01 -6.585320e+01
      vertex 3.200000e+01 9.270510e-01 -6.585320e+01
      vertex 3.200000e+01 2.427051e+00 -6.476339e+01
    endloop
  endfacet
  facet normal 0.000000e+00 -5.877850e-01 8.090171e-01
    outer loop
      vertex 2.200000e+01 9.270510e-01 -6.585320e+01
      vertex 3.200000e+01 2.427051e+00 -6.476339e+01
      vertex 2.200000e+01 2.427051e+00 -6.476339e+01
    endloop
  endfacet
  facet normal 0.000000e+00 -9.510565e-01 3.090170e-01
    outer loop
      vertex 2.200000e+01 2.427051e+00 -6.476339e+01
      vertex 3.200000e+01 2.427051e+00 -6.476339e+01
      vertex 3.200000e+01 3.000000e+00 -6.300003e+01
    endloop
  endfacet
  facet normal 0.000000e+00 -9.510565e-01 3.090170e-01
    outer loop
      vertex 2.200000e+01 2.427051e+00 -6.476339e+01
      vertex 3.200000e+01 3.000000e+00 -6.300003e+01
      vertex 2.200000e+01 3.000000e+00 -6.300003e+01
    endloop
  endfacet
  facet normal 0.000000e+00 -5.877850e-01 -8.090171e-01
    outer loop
      vertex 3.200000e+01 9.270510e-01 -6.014687e+01
      vertex 2.200000e+01 2.427051e+00 -6.123668e+01
      vertex 3.200000e+01 2.427051e+00 -6.123668e+01
    endloop
  endfacet
  facet normal -0.000000e+00 -9.510565e-01 -3.090170e-01
    outer loop
      vertex 3.200000e+01 2.427051e+00 -6.123668e+01
      vertex 2.200000e+01 2.427051e+00 -6.123668e+01
      vertex 2.200000e+01 3.000000e+00 -6.300003e+01
    endloop
  endfacet
  facet normal 0.000000e+00 -9.510565e-01 -3.090170e-01
    outer loop
      vertex 3.200000e+01 2.427051e+00 -6.123668e+01
      vertex 2.200000e+01 3.000000e+00 -6.300003e+01
      vertex 3.200000e+01 3.000000e+00 -6.300003e+01
    endloop
  endfacet
  facet normal 0.000000e+00 -5.877850e-01 -8.090171e-01
    outer loop
      vertex 2.200000e+01 2.427051e+00 -6.123668e+01
      vertex 3.200000e+01 9.270510e-01 -6.014687e+01
      vertex 2.200000e+01 9.270510e-01 -6.014687e+01
    endloop
  endfacet
  facet normal 0.000000e+00 0.000000e+00 -1.000000e+00
    outer loop
      vertex 2.200000e+01 9.270510e-01 -6.014687e+01
      vertex 3.200000e+01 9.270510e-01 -6.014687e+01
      vertex 3.200000e+01 -9.270510e-01 -6.014687e+01
    endloop
  endfacet
  facet normal 0.000000e+00 0.000000e+00 -1.000000e+00
    outer loop
      vertex 2.200000e+01 9.270510e-01 -6.014687e+01
      vertex 3.200000e+01 -9.270510e-01 -6.014687e+01
      vertex 2.200000e+01 -9.270510e-01 -6.014687e+01
    endloop
  endfacet
  facet normal 0.000000e+00 5.877850e-01 -8.090171e-01
    outer loop
      vertex 2.200000e+01 -9.270510e-01 -6.014687e+01
      vertex 3.200000e+01 -9.270510e-01 -6.014687e+01
      vertex 3.200000e+01 -2.427051e+00 -6.123668e+01
    endloop
  endfacet
  facet normal 0.000000e+00 5.877850e-01 -8.090171e-01
    outer loop
      vertex 2.200000e+01 -9.270510e-01 -6.014687e+01
      vertex 3.200000e+01 -2.427051e+00 -6.123668e+01
      vertex 2.200000e+01 -2.427051e+00 -6.123668e+01
    endloop
  endfacet
  facet normal 0.000000e+00 9.510565e-01 -3.090170e-01
    outer loop
      vertex 2.200000e+01 -2.427051e+00 -6.123668e+01
      vertex 3.200000e+01 -2.427051e+00 -6.123668e+01
      vertex 3.200000e+01 -3.000000e+00 -6.300003e+01
    endloop
  endfacet
  facet normal 0.000000e+00 9.510565e-01 -3.090170e-01
    outer loop
      vertex 2.200000e+01 -2.427051e+00 -6.123668e+01
      vertex 3.200000e+01 -3.000000e+00 -6.300003e+01
      vertex 2.200000e+01 -3.000000e+00 -6.300003e+01
    endloop
  endfacet
  facet normal 0.000000e+00 3.420194e-01 9.396929e-01
    outer loop
      vertex 3.200000e+01 -1.910130e+00 -5.118291e+01
      vertex 2.200000e+01 -5.500000e+00 -4.987631e+01
      vertex 3.200000e+01 -5.500000e+00 -4.987631e+01
    endloop
  endfacet
  facet normal 0.000000e+00 6.427876e-01 7.660444e-01
    outer loop
      vertex 3.200000e+01 -5.500000e+00 -4.987631e+01
      vertex 2.200000e+01 -5.500000e+00 -4.987631e+01
      vertex 2.200000e+01 -8.426489e+00 -4.742070e+01
    endloop
  endfacet
  facet normal 0.000000e+00 6.427876e-01 7.660444e-01
    outer loop
      vertex 3.200000e+01 -5.500000e+00 -4.987631e+01
      vertex 2.200000e+01 -8.426489e+00 -4.742070e+01
      vertex 3.200000e+01 -8.426489e+00 -4.742070e+01
    endloop
  endfacet
  facet normal 0.000000e+00 8.660256e-01 4.999996e-01
    outer loop
      vertex 3.200000e+01 -8.426489e+00 -4.742070e+01
      vertex 2.200000e+01 -8.426489e+00 -4.742070e+01
      vertex 2.200000e+01 -1.033662e+01 -4.411225e+01
    endloop
  endfacet
  facet normal 0.000000e+00 8.660256e-01 4.999996e-01
    outer loop
      vertex 3.200000e+01 -8.426489e+00 -4.742070e+01
      vertex 2.200000e+01 -1.033662e+01 -4.411225e+01
      vertex 3.200000e+01 -1.033662e+01 -4.411225e+01
    endloop
  endfacet
  facet normal 0.000000e+00 9.848077e-01 1.736484e-01
    outer loop
      vertex 3.200000e+01 -1.033662e+01 -4.411225e+01
      vertex 2.200000e+01 -1.033662e+01 -4.411225e+01
      vertex 2.200000e+01 -1.100000e+01 -4.035003e+01
    endloop
  endfacet
  facet normal 0.000000e+00 9.848077e-01 1.736484e-01
    outer loop
      vertex 3.200000e+01 -1.033662e+01 -4.411225e+01
      vertex 2.200000e+01 -1.100000e+01 -4.035003e+01
      vertex 3.200000e+01 -1.100000e+01 -4.035003e+01
    endloop
  endfacet
  facet normal 0.000000e+00 3.420194e-01 9.396929e-01
    outer loop
      vertex 2.200000e+01 -5.500000e+00 -4.987631e+01
      vertex 3.200000e+01 -1.910130e+00 -5.118291e+01
      vertex 2.200000e+01 -1.910130e+00 -5.118291e+01
    endloop
  endfacet
  facet normal 0.000000e+00 0.000000e+00 1.000000e+00
    outer loop
      vertex 2.200000e+01 -1.910130e+00 -5.118291e+01
      vertex 3.200000e+01 -1.910130e+00 -5.118291e+01
      vertex 3.200000e+01 1.910130e+00 -5.118291e+01
    endloop
  endfacet
  facet normal 0.000000e+00 0.000000e+00 1.000000e+00
    outer loop
      vertex 2.200000e+01 -1.910130e+00 -5.118291e+01
      vertex 3.200000e+01 1.910130e+00 -5.118291e+01
      vertex 2.200000e+01 1.910130e+00 -5.118291e+01
    endloop
  endfacet
  facet normal 0.000000e+00 -3.420194e-01 9.396929e-01
    outer loop
      vertex 2.200000e+01 1.910130e+00 -5.118291e+01
      vertex 3.200000e+01 1.910130e+00 -5.118291e+01
      vertex 3.200000e+01 5.500000e+00 -4.987631e+01
    endloop
  endfacet
  facet normal 0.000000e+00 -3.420194e-01 9.396929e-01
    outer loop
      vertex 2.200000e+01 1.910130e+00 -5.118291e+01
      vertex 3.200000e+01 5.500000e+00 -4.987631e+01
      vertex 2.200000e+01 5.500000e+00 -4.987631e+01
    endloop
  endfacet
  facet normal 0.000000e+00 -6.427876e-01 7.660444e-01
    outer loop
      vertex 2.200000e+01 5.500000e+00 -4.987631e+01
      vertex 3.200000e+01 5.500000e+00 -4.987631e+01
      vertex 3.200000e+01 8.426489e+00 -4.742070e+01
    endloop
  endfacet
  facet normal 0.000000e+00 -6.427876e-01 7.660444e-01
    outer loop
      vertex 2.200000e+01 5.500000e+00 -4.987631e+01
      vertex 3.200000e+01 8.426489e+00 -4.742070e+01
      vertex 2.200000e+01 8.426489e+00 -4.742070e+01
    endloop
  endfacet
  facet normal 0.000000e+00 -8.660256e-01 4.999996e-01
    outer loop
      vertex 2.200000e+01 8.426489e+00 -4.742070e+01
      vertex 3.200000e+01 8.426489e+00 -4.742070e+01
      vertex 3.200000e+01 1.033662e+01 -4.411225e+01
    endloop
  endfacet
  facet normal 0.000000e+00 -8.660256e-01 4.999996e-01
    outer loop
      vertex 2.200000e+01 8.426489e+00 -4.742070e+01
      vertex 3.200000e+01 1.033662e+01 -4.411225e+01
      vertex 2.200000e+01 1.033662e+01 -4.411225e+01
    endloop
  endfacet
  facet normal 0.000000e+00 -9.848077e-01 1.736484e-01
    outer loop
      vertex 2.200000e+01 1.033662e+01 -4.411225e+01
      vertex 3.200000e+01 1.033662e+01 -4.411225e+01
      vertex 3.200000e+01 1.100000e+01 -4.035003e+01
    endloop
  endfacet
  facet normal 0.000000e+00 -9.848077e-01 1.736484e-01
    outer loop
      vertex 2.200000e+01 1.033662e+01 -4.411225e+01
      vertex 3.200000e+01 1.100000e+01 -4.035003e+01
      vertex 2.200000e+01 1.100000e+01 -4.035003e+01
    endloop
  endfacet
  facet normal 0.000000e+00 -3.420202e-01 -9.396926e-01
    outer loop
      vertex 3.200000e+01 1.910130e+00 -2.951715e+01
      vertex 2.200000e+01 5.500000e+00 -3.082375e+01
      vertex 3.200000e+01 5.500000e+00 -3.082375e+01
    endloop
  endfacet
  facet normal -0.000000e+00 -6.427874e-01 -7.660447e-01
    outer loop
      vertex 3.200000e+01 5.500000e+00 -3.082375e+01
      vertex 2.200000e+01 5.500000e+00 -3.082375e+01
      vertex 2.200000e+01 8.426489e+00 -3.327937e+01
    endloop
  endfacet
  facet normal 0.000000e+00 -6.427874e-01 -7.660447e-01
    outer loop
      vertex 3.200000e+01 5.500000e+00 -3.082375e+01
      vertex 2.200000e+01 8.426489e+00 -3.327937e+01
      vertex 3.200000e+01 8.426489e+00 -3.327937e+01
    endloop
  endfacet
  facet normal -0.000000e+00 -8.660256e-01 -4.999996e-01
    outer loop
      vertex 3.200000e+01 8.426489e+00 -3.327937e+01
      vertex 2.200000e+01 8.426489e+00 -3.327937e+01
      vertex 2.200000e+01 1.033662e+01 -3.658781e+01
    endloop
  endfacet
  facet normal 0.000000e+00 -8.660256e-01 -4.999996e-01
    outer loop
      vertex 3.200000e+01 8.426489e+00 -3.327937e+01
      vertex 2.200000e+01 1.033662e+01 -3.658781e+01
      vertex 3.200000e+01 1.033662e+01 -3.658781e+01
    endloop
  endfacet
  facet normal -0.000000e+00 -9.848077e-01 -1.736482e-01
    outer loop
      vertex 3.200000e+01 1.033662e+01 -3.658781e+01
      vertex 2.200000e+01 1.033662e+01 -3.658781e+01
      vertex 2.200000e+01 1.100000e+01 -4.035003e+01
    endloop
  endfacet
  facet normal 0.000000e+00 -9.848077e-01 -1.736482e-01
    outer loop
      vertex 3.200000e+01 1.033662e+01 -3.658781e+01
      vertex 2.200000e+01 1.100000e+01 -4.035003e+01
      vertex 3.200000e+01 1.100000e+01 -4.035003e+01
    endloop
  endfacet
  facet normal 0.000000e+00 -3.420202e-01 -9.396926e-01
    outer loop
      vertex 2.200000e+01 5.500000e+00 -3.082375e+01
      vertex 3.200000e+01 1.910130e+00 -2.951715e+01
      vertex 2.200000e+01 1.910130e+00 -2.951715e+01
    endloop
  endfacet
  facet normal 0.000000e+00 0.000000e+00 -1.000000e+00
    outer loop
      vertex 2.200000e+01 1.910130e+00 -2.951715e+01
      vertex 3.200000e+01 1.910130e+00 -2.951715e+01
      vertex 3.200000e+01 -1.910130e+00 -2.951715e+01
    endloop
  endfacet
  facet normal 0.000000e+00 0.000000e+00 -1.000000e+00
    outer loop
      vertex 2.200000e+01 1.910130e+00 -2.951715e+01
      vertex 3.200000e+01 -1.910130e+00 -2.951715e+01
      vertex 2.200000e+01 -1.910130e+00 -2.951715e+01
    endloop
  endfacet
  facet normal 0.000000e+00 3.420202e-01 -9.396926e-01
    outer loop
      vertex 2.200000e+01 -1.910130e+00 -2.951715e+01
      vertex 3.200000e+01 -1.910130e+00 -2.951715e+01
      vertex 3.200000e+01 -5.500000e+00 -3.082375e+01
    endloop
  endfacet
  facet normal 0.000000e+00 3.420202e-01 -9.396926e-01
    outer loop
      vertex 2.200000e+01 -1.910130e+00 -2.951715e+01
      vertex 3.200000e+01 -5.500000e+00 -3.082375e+01
      vertex 2.200000e+01 -5.500000e+00 -3.082375e+01
    endloop
  endfacet
  facet normal 0.000000e+00 6.427874e-01 -7.660447e-01
    outer loop
      vertex 2.200000e+01 -5.500000e+00 -3.082375e+01
      vertex 3.200000e+01 -5.500000e+00 -3.082375e+01
      vertex 3.200000e+01 -8.426489e+00 -3.327937e+01
    endloop
  endfacet
  facet normal 0.000000e+00 6.427874e-01 -7.660447e-01
    outer loop
      vertex 2.200000e+01 -5.500000e+00 -3.082375e+01
      vertex 3.200000e+01 -8.426489e+00 -3.327937e+01
      vertex 2.200000e+01 -8.426489e+00 -3.327937e+01
    endloop
  endfacet
  facet normal 0.000000e+00 8.660256e-01 -4.999996e-01
    outer loop
      vertex 2.200000e+01 -8.426489e+00 -3.327937e+01
      vertex 3.200000e+01 -8.426489e+00 -3.327937e+01
      vertex 3.200000e+01 -1.033662e+01 -3.658781e+01
    endloop
  endfacet
  facet normal 0.000000e+00 8.660256e-01 -4.999996e-01
    outer loop
      vertex 2.200000e+01 -8.426489e+00 -3.327937e+01
      vertex 3.200000e+01 -1.033662e+01 -3.658781e+01
      vertex 2.200000e+01 -1.033662e+01 -3.658781e+01
    endloop
  endfacet
  facet normal 0.000000e+00 9.848077e-01 -1.736482e-01
    outer loop
      vertex 2.200000e+01 -1.033662e+01 -3.658781e+01
      vertex 3.200000e+01 -1.033662e+01 -3.658781e+01
      vertex 3.200000e+01 -1.100000e+01 -4.035003e+01
    endloop
  endfacet
  facet normal 0.000000e+00 9.848077e-01 -1.736482e-01
    outer loop
      vertex 2.200000e+01 -1.033662e+01 -3.658781e+01
      vertex 3.200000e+01 -1.100000e+01 -4.035003e+01
      vertex 2.200000e+01 -1.100000e+01 -4.035003e+01
    endloop
  endfacet
  facet normal 0.000000e+00 3.826822e-01 9.238800e-01
    outer loop
      vertex 3.200000e+01 1.200000e+01 -7.550000e+01
      vertex 2.200000e+01 1.164645e+01 -7.535355e+01
      vertex 3.200000e+01 1.164645e+01 -7.535355e+01
    endloop
  endfacet
  facet normal 0.000000e+00 9.238800e-01 3.826822e-01
    outer loop
      vertex 3.200000e+01 1.164645e+01 -7.535355e+01
      vertex 2.200000e+01 1.164645e+01 -7.535355e+01
      vertex 2.200000e+01 1.150000e+01 -7.500000e+01
    endloop
  endfacet
  facet normal 0.000000e+00 9.238800e-01 3.826822e-01
    outer loop
      vertex 3.200000e+01 1.164645e+01 -7.535355e+01
      vertex 2.200000e+01 1.150000e+01 -7.500000e+01
      vertex 3.200000e+01 1.150000e+01 -7.500000e+01
    endloop
  endfacet
  facet normal 0.000000e+00 3.826822e-01 9.238800e-01
    outer loop
      vertex 2.200000e+01 1.164645e+01 -7.535355e+01
      vertex 3.200000e+01 1.200000e+01 -7.550000e+01
      vertex 2.200000e+01 1.200000e+01 -7.550000e+01
    endloop
  endfacet
  facet normal 0.000000e+00 -3.826822e-01 9.238800e-01
    outer loop
      vertex 2.200000e+01 1.200000e+01 -7.550000e+01
      vertex 3.200000e+01 1.200000e+01 -7.550000e+01
      vertex 3.200000e+01 1.235355e+01 -7.535355e+01
    endloop
  endfacet
  facet normal 0.000000e+00 -3.826822e-01 9.238800e-01
    outer loop
      vertex 2.200000e+01 1.200000e+01 -7.550000e+01
      vertex 3.200000e+01 1.235355e+01 -7.535355e+01
      vertex 2.200000e+01 1.235355e+01 -7.535355e+01
    endloop
  endfacet
  facet normal 0.000000e+00 -9.238800e-01 3.826822e-01
    outer loop
      vertex 2.200000e+01 1.235355e+01 -7.535355e+01
      vertex 3.200000e+01 1.235355e+01 -7.535355e+01
      vertex 3.200000e+01 1.250000e+01 -7.500000e+01
    endloop
  endfacet
  facet normal 0.000000e+00 -9.238800e-01 3.826822e-01
    outer loop
      vertex 2.200000e+01 1.235355e+01 -7.535355e+01
      vertex 3.200000e+01 1.250000e+01 -7.500000e+01
      vertex 2.200000e+01 1.250000e+01 -7.500000e+01
    endloop
  endfacet
  facet normal 0.000000e+00 -3.826822e-01 -9.238800e-01
    outer loop
      vertex 3.200000e+01 1.200000e+01 -7.450000e+01
      vertex 2.200000e+01 1.235355e+01 -7.464645e+01
      vertex 3.200000e+01 1.235355e+01 -7.464645e+01
    endloop
  endfacet
  facet normal -0.000000e+00 -9.238800e-01 -3.826822e-01
    outer loop
      vertex 3.200000e+01 1.235355e+01 -7.464645e+01
      vertex 2.200000e+01 1.235355e+01 -7.464645e+01
      vertex 2.200000e+01 1.250000e+01 -7.500000e+01
    endloop
  endfacet
  facet normal 0.000000e+00 -9.238800e-01 -3.826822e-01
    outer loop
      vertex 3.200000e+01 1.235355e+01 -7.464645e+01
      vertex 2.200000e+01 1.250000e+01 -7.500000e+01
      vertex 3.200000e+01 1.250000e+01 -7.500000e+01
    endloop
  endfacet
  facet normal 0.000000e+00 -3.826822e-01 -9.238800e-01
    outer loop
      vertex 2.200000e+01 1.235355e+01 -7.464645e+01
      vertex 3.200000e+01 1.200000e+01 -7.450000e+01
      vertex 2.200000e+01 1.200000e+01 -7.450000e+01
    endloop
  endfacet
  facet normal 0.000000e+00 3.826822e-01 -9.238800e-01
    outer loop
      vertex 2.200000e+01 1.200000e+01 -7.450000e+01
      vertex 3.200000e+01 1.200000e+01 -7.450000e+01
      vertex 3.200000e+01 1.164645e+01 -7.464645e+01
    endloop
  endfacet
  facet normal 0.000000e+00 3.826822e-01 -9.238800e-01
    outer loop
      vertex 2.200000e+01 1.200000e+01 -7.450000e+01
      vertex 3.200000e+01 1.164645e+01 -7.464645e+01
      vertex 2.200000e+01 1.164645e+01 -7.464645e+01
    endloop
  endfacet
  facet normal 0.000000e+00 9.238800e-01 -3.826822e-01
    outer loop
      vertex 2.200000e+01 1.164645e+01 -7.464645e+01
      vertex 3.200000e+01 1.164645e+01 -7.464645e+01
      vertex 3.200000e+01 1.150000e+01 -7.500000e+01
    endloop
  endfacet
  facet normal 0.000000e+00 9.238800e-01 -3.826822e-01
    outer loop
      vertex 2.200000e+01 1.164645e+01 -7.464645e+01
      vertex 3.200000e+01 1.150000e+01 -7.500000e+01
      vertex 2.200000e+01 1.150000e+01 -7.500000e+01
    endloop
  endfacet
  facet normal 0.000000e+00 3.826822e-01 9.238800e-01
    outer loop
      vertex 3.200000e+01 -1.200000e+01 -7.550000e+01
      vertex 2.200000e+01 -1.235355e+01 -7.535355e+01
      vertex 3.200000e+01 -1.235355e+01 -7.535355e+01
    endloop
  endfacet
  facet normal 0.000000e+00 9.238800e-01 3.826822e-01
    outer loop
      vertex 3.200000e+01 -1.235355e+01 -7.535355e+01
      vertex 2.200000e+01 -1.235355e+01 -7.535355e+01
      vertex 2.200000e+01 -1.250000e+01 -7.500000e+01
    endloop
  endfacet
  facet normal 0.000000e+00 9.238800e-01 3.826822e-01
    outer loop
      vertex 3.200000e+01 -1.235355e+01 -7.535355e+01
      vertex 2.200000e+01 -1.250000e+01 -7.500000e+01
      vertex 3.200000e+01 -1.250000e+01 -7.500000e+01
    endloop
  endfacet
  facet normal 0.000000e+00 3.826822e-01 9.238800e-01
    outer loop
      vertex 2.200000e+01 -1.235355e+01 -7.535355e+01
      vertex 3.200000e+01 -1.200000e+01 -7.550000e+01
      vertex 2.200000e+01 -1.200000e+01 -7.550000e+01
    endloop
  endfacet
  facet normal 0.000000e+00 -3.826822e-01 9.238800e-01
    outer loop
      vertex 2.200000e+01 -1.200000e+01 -7.550000e+01
      vertex 3.200000e+01 -1.200000e+01 -7.550000e+01
      vertex 3.200000e+01 -1.164645e+01 -7.535355e+01
    endloop
  endfacet
  facet normal 0.000000e+00 -3.826822e-01 9.238800e-01
    outer loop
      vertex 2.200000e+01 -1.200000e+01 -7.550000e+01
      vertex 3.200000e+01 -1.164645e+01 -7.535355e+01
      vertex 2.200000e+01 -1.164645e+01 -7.535355e+01
    endloop
  endfacet
  facet normal 0.000000e+00 -9.238800e-01 3.826822e-01
    outer loop
      vertex 2.200000e+01 -1.164645e+01 -7.535355e+01
      vertex 3.200000e+01 -1.164645e+01 -7.535355e+01
      vertex 3.200000e+01 -1.150000e+01 -7.500000e+01
    endloop
  endfacet
  facet normal 0.000000e+00 -9.238800e-01 3.826822e-01
    outer loop
      vertex 2.200000e+01 -1.164645e+01 -7.535355e+01
      vertex 3.200000e+01 -1.150000e+01 -7.500000e+01
      vertex 2.200000e+01 -1.150000e+01 -7.500000e+01
    endloop
  endfacet
  facet normal 0.000000e+00 -3.826822e-01 -9.238800e-01
    outer loop
      vertex 3.200000e+01 -1.200000e+01 -7.450000e+01
      vertex 2.200000e+01 -1.164645e+01 -7.464645e+01
      vertex 3.200000e+01 -1.164645e+01 -7.464645e+01
    endloop
  endfacet
  facet normal -0.000000e+00 -9.238800e-01 -3.826822e-01
    outer loop
      vertex 3.200000e+01 -1.164645e+01 -7.464645e+01
      vertex 2.200000e+01 -1.164645e+01 -7.464645e+01
      vertex 2.200000e+01 -1.150000e+01 -7.500000e+01
    endloop
  endfacet
  facet normal 0.000000e+00 -9.238800e-01 -3.826822e-01
    outer loop
      vertex 3.200000e+01 -1.164645e+01 -7.464645e+01
      vertex 2.200000e+01 -1.150000e+01 -7.500000e+01
      vertex 3.200000e+01 -1.150000e+01 -7.500000e+01
    endloop
  endfacet
  facet normal 0.000000e+00 -3.826822e-01 -9.238800e-01
    outer loop
      vertex 2.200000e+01 -1.164645e+01 -7.464645e+01
      vertex 3.200000e+01 -1.200000e+01 -7.450000e+01
      vertex 2.200000e+01 -1.200000e+01 -7.450000e+01
    endloop
  endfacet
  facet normal 0.000000e+00 3.826822e-01 -9.238800e-01
    outer loop
      vertex 2.200000e+01 -1.200000e+01 -7.450000e+01
      vertex 3.200000e+01 -1.200000e+01 -7.450000e+01
      vertex 3.200000e+01 -1.235355e+01 -7.464645e+01
    endloop
  endfacet
  facet normal 0.000000e+00 3.826822e-01 -9.238800e-01
    outer loop
      vertex 2.200000e+01 -1.200000e+01 -7.450000e+01
      vertex 3.200000e+01 -1.235355e+01 -7.464645e+01
      vertex 2.200000e+01 -1.235355e+01 -7.464645e+01
    endloop
  endfacet
  facet normal 0.000000e+00 9.238800e-01 -3.826822e-01
    outer loop
      vertex 2.200000e+01 -1.235355e+01 -7.464645e+01
      vertex 3.200000e+01 -1.235355e+01 -7.464645e+01
      vertex 3.200000e+01 -1.250000e+01 -7.500000e+01
    endloop
  endfacet
  facet normal 0.000000e+00 9.238800e-01 -3.826822e-01
    outer loop
      vertex 2.200000e+01 -1.235355e+01 -7.464645e+01
      vertex 3.200000e+01 -1.250000e+01 -7.500000e+01
      vertex 2.200000e+01 -1.250000e+01 -7.500000e+01
    endloop
  endfacet
  facet normal 0.000000e+00 1.000000e+00 0.000000e+00
    outer loop
      vertex 3.200000e+01 3.000000e+01 -2.000000e+01
      vertex 3.200000e+01 3.000000e+01 -8.200000e+01
      vertex 2.200000e+01 3.000000e+01 -2.000000e+01
    endloop
  endfacet
  facet normal 0.000000e+00 1.000000e+00 0.000000e+00
    outer loop
      vertex 2.200000e+01 3.000000e+01 -2.000000e+01
      vertex 3.200000e+01 3.000000e+01 -8.200000e+01
      vertex 2.200000e+01 3.000000e+01 -8.200000e+01
    endloop
  endfacet
  facet normal 0.000000e+00 -1.000000e+00 0.000000e+00
    outer loop
      vertex 3.200000e+01 -3.000000e+01 -8.200000e+01
      vertex 3.200000e+01 -3.000000e+01 -2.000000e+01
      vertex 2.200000e+01 -3.000000e+01 -8.200000e+01
    endloop
  endfacet
  facet normal 0.000000e+00 -1.000000e+00 0.000000e+00
    outer loop
      vertex 2.200000e+01 -3.000000e+01 -8.200000e+01
      vertex 3.200000e+01 -3.000000e+01 -2.000000e+01
      vertex 2.200000e+01 -3.000000e+01 -2.000000e+01
    endloop
  endfacet
  facet normal -1.000000e+00 0.000000e+00 0.000000e+00
    outer loop
      vertex 2.200000e+01 -1.150000e+01 -7.500000e+01
      vertex 2.200000e+01 -1.164645e+01 -7.464645e+01
      vertex 2.200000e+01 -9.270510e-01 -6.585320e+01
    endloop
  endfacet
  facet normal -1.000000e+00 0.000000e+00 0.000000e+00
    outer loop
      vertex 2.200000e+01 9.270510e-01 -6.014687e+01
      vertex 2.200000e+01 1.910130e+00 -5.118291e+01
      vertex 2.200000e+01 2.427051e+00 -6.123668e+01
    endloop
  endfacet
  facet normal -1.000000e+00 0.000000e+00 0.000000e+00
    outer loop
      vertex 2.200000e+01 1.702028e+01 -5.432975e+01
      vertex 2.200000e+01 1.550000e+01 -5.370003e+01
      vertex 2.200000e+01 1.550000e+01 -2.700003e+01
    endloop
  endfacet
  facet normal -1.000000e+00 0.000000e+00 -0.000000e+00
    outer loop
      vertex 2.200000e+01 1.335000e+01 -5.585003e+01
      vertex 2.200000e+01 1.397972e+01 -5.737031e+01
      vertex 2.200000e+01 1.200000e+01 -7.450000e+01
    endloop
  endfacet
  facet normal -1.000000e+00 0.000000e+00 0.000000e+00
    outer loop
      vertex 2.200000e+01 1.200000e+01 -7.450000e+01
      vertex 2.200000e+01 1.397972e+01 -5.737031e+01
      vertex 2.200000e+01 1.550000e+01 -5.800003e+01
    endloop
  endfacet
  facet normal -1.000000e+00 0.000000e+00 0.000000e+00
    outer loop
      vertex 2.200000e+01 1.235355e+01 -7.464645e+01
      vertex 2.200000e+01 1.200000e+01 -7.450000e+01
      vertex 2.200000e+01 1.550000e+01 -5.800003e+01
    endloop
  endfacet
  facet normal -1.000000e+00 0.000000e+00 0.000000e+00
    outer loop
      vertex 2.200000e+01 1.250000e+01 -7.500000e+01
      vertex 2.200000e+01 1.235355e+01 -7.464645e+01
      vertex 2.200000e+01 1.550000e+01 -5.800003e+01
    endloop
  endfacet
  facet normal -1.000000e+00 0.000000e+00 -0.000000e+00
    outer loop
      vertex 2.200000e+01 -1.335000e+01 -5.585003e+01
      vertex 2.200000e+01 -1.200000e+01 -7.450000e+01
      vertex 2.200000e+01 -1.397972e+01 -5.737031e+01
    endloop
  endfacet
  facet normal -1.000000e+00 0.000000e+00 0.000000e+00
    outer loop
      vertex 2.200000e+01 -1.200000e+01 -7.450000e+01
      vertex 2.200000e+01 -1.550000e+01 -5.800003e+01
      vertex 2.200000e+01 -1.397972e+01 -5.737031e+01
    endloop
  endfacet
  facet normal -1.000000e+00 0.000000e+00 0.000000e+00
    outer loop
      vertex 2.200000e+01 -1.550000e+01 -5.800003e+01
      vertex 2.200000e+01 -1.200000e+01 -7.450000e+01
      vertex 2.200000e+01 -1.235355e+01 -7.464645e+01
    endloop
  endfacet
  facet normal -1.000000e+00 0.000000e+00 0.000000e+00
    outer loop
      vertex 2.200000e+01 -1.250000e+01 -7.500000e+01
      vertex 2.200000e+01 -1.550000e+01 -5.800003e+01
      vertex 2.200000e+01 -1.235355e+01 -7.464645e+01
    endloop
  endfacet
  facet normal -1.000000e+00 0.000000e+00 0.000000e+00
    outer loop
      vertex 2.200000e+01 -1.702028e+01 -5.432975e+01
      vertex 2.200000e+01 -1.550000e+01 -2.700003e+01
      vertex 2.200000e+01 -1.550000e+01 -5.370003e+01
    endloop
  endfacet
  facet normal -1.000000e+00 0.000000e+00 0.000000e+00
    outer loop
      vertex 2.200000e+01 -2.427051e+00 -6.123668e+01
      vertex 2.200000e+01 -1.910130e+00 -5.118291e+01
      vertex 2.200000e+01 -9.270510e-01 -6.014687e+01
    endloop
  endfacet
  facet normal -1.000000e+00 0.000000e+00 0.000000e+00
    outer loop
      vertex 2.200000e+01 -9.270510e-01 -6.014687e+01
      vertex 2.200000e+01 -1.910130e+00 -5.118291e+01
      vertex 2.200000e+01 1.910130e+00 -5.118291e+01
    endloop
  endfacet
  facet normal -1.000000e+00 0.000000e+00 0.000000e+00
    outer loop
      vertex 2.200000e+01 -9.270510e-01 -6.014687e+01
      vertex 2.200000e+01 1.910130e+00 -5.118291e+01
      vertex 2.200000e+01 9.270510e-01 -6.014687e+01
    endloop
  endfacet
  facet normal -1.000000e+00 0.000000e+00 0.000000e+00
    outer loop
      vertex 2.200000e+01 1.200000e+01 -7.450000e+01
      vertex 2.200000e+01 1.335000e+01 -2.485003e+01
      vertex 2.200000e+01 1.335000e+01 -5.585003e+01
    endloop
  endfacet
  facet normal -1.000000e+00 0.000000e+00 0.000000e+00
    outer loop
      vertex 2.200000e+01 1.335000e+01 -5.585003e+01
      vertex 2.200000e+01 1.335000e+01 -2.485003e+01
      vertex 2.200000e+01 1.397972e+01 -2.637031e+01
    endloop
  endfacet
  facet normal -1.000000e+00 0.000000e+00 0.000000e+00
    outer loop
      vertex 2.200000e+01 1.335000e+01 -5.585003e+01
      vertex 2.200000e+01 1.397972e+01 -2.637031e+01
      vertex 2.200000e+01 1.397972e+01 -5.432975e+01
    endloop
  endfacet
  facet normal -1.000000e+00 0.000000e+00 0.000000e+00
    outer loop
      vertex 2.200000e+01 1.397972e+01 -5.432975e+01
      vertex 2.200000e+01 1.397972e+01 -2.637031e+01
      vertex 2.200000e+01 1.550000e+01 -2.700003e+01
    endloop
  endfacet
  facet normal -1.000000e+00 0.000000e+00 0.000000e+00
    outer loop
      vertex 2.200000e+01 1.397972e+01 -5.432975e+01
      vertex 2.200000e+01 1.550000e+01 -2.700003e+01
      vertex 2.200000e+01 1.550000e+01 -5.370003e+01
    endloop
  endfacet
  facet normal -1.000000e+00 0.000000e+00 -0.000000e+00
    outer loop
      vertex 2.200000e+01 -1.335000e+01 -2.485003e+01
      vertex 2.200000e+01 -1.200000e+01 -7.450000e+01
      vertex 2.200000e+01 -1.397972e+01 -2.637031e+01
    endloop
  endfacet
  facet normal -1.000000e+00 0.000000e+00 0.000000e+00
    outer loop
      vertex 2.200000e+01 -1.397972e+01 -2.637031e+01
      vertex 2.200000e+01 -1.200000e+01 -7.450000e+01
      vertex 2.200000e+01 -1.335000e+01 -5.585003e+01
    endloop
  endfacet
  facet normal -1.000000e+00 0.000000e+00 -0.000000e+00
    outer loop
      vertex 2.200000e+01 -1.397972e+01 -2.637031e+01
      vertex 2.200000e+01 -1.335000e+01 -5.585003e+01
      vertex 2.200000e+01 -1.550000e+01 -2.700003e+01
    endloop
  endfacet
  facet normal -1.000000e+00 0.000000e+00 0.000000e+00
    outer loop
      vertex 2.200000e+01 -1.550000e+01 -2.700003e+01
      vertex 2.200000e+01 -1.335000e+01 -5.585003e+01
      vertex 2.200000e+01 -1.397972e+01 -5.432975e+01
    endloop
  endfacet
  facet normal -1.000000e+00 0.000000e+00 0.000000e+00
    outer loop
      vertex 2.200000e+01 -1.550000e+01 -2.700003e+01
      vertex 2.200000e+01 -1.397972e+01 -5.432975e+01
      vertex 2.200000e+01 -1.550000e+01 -5.370003e+01
    endloop
  endfacet
  facet normal -1.000000e+00 0.000000e+00 0.000000e+00
    outer loop
      vertex 2.200000e+01 -1.335000e+01 -2.485003e+01
      vertex 2.200000e+01 1.550000e+01 -2.270003e+01
      vertex 2.200000e+01 -5.500000e+00 -3.082375e+01
    endloop
  endfacet
  facet normal -1.000000e+00 0.000000e+00 0.000000e+00
    outer loop
      vertex 2.200000e+01 -1.335000e+01 -2.485003e+01
      vertex 2.200000e+01 -5.500000e+00 -3.082375e+01
      vertex 2.200000e+01 -8.426489e+00 -3.327937e+01
    endloop
  endfacet
  facet normal -1.000000e+00 0.000000e+00 0.000000e+00
    outer loop
      vertex 2.200000e+01 -1.335000e+01 -2.485003e+01
      vertex 2.200000e+01 -8.426489e+00 -3.327937e+01
      vertex 2.200000e+01 -1.033662e+01 -3.658781e+01
    endloop
  endfacet
  facet normal -1.000000e+00 0.000000e+00 0.000000e+00
    outer loop
      vertex 2.200000e+01 -1.335000e+01 -2.485003e+01
      vertex 2.200000e+01 -1.033662e+01 -3.658781e+01
      vertex 2.200000e+01 -1.100000e+01 -4.035003e+01
    endloop
  endfacet
  facet normal -1.000000e+00 0.000000e+00 0.000000e+00
    outer loop
      vertex 2.200000e+01 -1.335000e+01 -2.485003e+01
      vertex 2.200000e+01 -1.100000e+01 -4.035003e+01
      vertex 2.200000e+01 -1.200000e+01 -7.450000e+01
    endloop
  endfacet
  facet normal -1.000000e+00 0.000000e+00 -0.000000e+00
    outer loop
      vertex 2.200000e+01 3.000000e+01 -2.000000e+01
      vertex 2.200000e+01 3.000000e+01 -8.200000e+01
      vertex 2.200000e+01 1.765000e+01 -2.485003e+01
    endloop
  endfacet
  facet normal -1.000000e+00 0.000000e+00 0.000000e+00
    outer loop
      vertex 2.200000e+01 3.000000e+01 -2.000000e+01
      vertex 2.200000e+01 1.765000e+01 -2.485003e+01
      vertex 2.200000e+01 1.702028e+01 -2.332975e+01
    endloop
  endfacet
  facet normal -1.000000e+00 0.000000e+00 0.000000e+00
    outer loop
      vertex 2.200000e+01 3.000000e+01 -2.000000e+01
      vertex 2.200000e+01 1.702028e+01 -2.332975e+01
      vertex 2.200000e+01 1.550000e+01 -2.270003e+01
    endloop
  endfacet
  facet normal -1.000000e+00 0.000000e+00 0.000000e+00
    outer loop
      vertex 2.200000e+01 3.000000e+01 -2.000000e+01
      vertex 2.200000e+01 1.550000e+01 -2.270003e+01
      vertex 2.200000e+01 -1.335000e+01 -2.485003e+01
    endloop
  endfacet
  facet normal -1.000000e+00 0.000000e+00 0.000000e+00
    outer loop
      vertex 2.200000e+01 3.000000e+01 -2.000000e+01
      vertex 2.200000e+01 -1.335000e+01 -2.485003e+01
      vertex 2.200000e+01 -1.397972e+01 -2.332975e+01
    endloop
  endfacet
  facet normal -1.000000e+00 0.000000e+00 0.000000e+00
    outer loop
      vertex 2.200000e+01 3.000000e+01 -2.000000e+01
      vertex 2.200000e+01 -1.397972e+01 -2.332975e+01
      vertex 2.200000e+01 -1.550000e+01 -2.270003e+01
    endloop
  endfacet
  facet normal -1.000000e+00 -0.000000e+00 0.000000e+00
    outer loop
      vertex 2.200000e+01 3.000000e+01 -2.000000e+01
      vertex 2.200000e+01 -1.550000e+01 -2.270003e+01
      vertex 2.200000e+01 -3.000000e+01 -2.000000e+01
    endloop
  endfacet
  facet normal -1.000000e+00 0.000000e+00 0.000000e+00
    outer loop
      vertex 2.200000e+01 1.000000e+01 -8.200000e+01
      vertex 2.200000e+01 1.150000e+01 -7.500000e+01
      vertex 2.200000e+01 1.164645e+01 -7.535355e+01
    endloop
  endfacet
  facet normal -1.000000e+00 0.000000e+00 0.000000e+00
    outer loop
      vertex 2.200000e+01 1.000000e+01 -8.200000e+01
      vertex 2.200000e+01 1.164645e+01 -7.535355e+01
      vertex 2.200000e+01 1.200000e+01 -7.550000e+01
    endloop
  endfacet
  facet normal -1.000000e+00 0.000000e+00 0.000000e+00
    outer loop
      vertex 2.200000e+01 1.000000e+01 -8.200000e+01
      vertex 2.200000e+01 1.200000e+01 -7.550000e+01
      vertex 2.200000e+01 3.000000e+01 -8.200000e+01
    endloop
  endfacet
  facet normal -1.000000e+00 0.000000e+00 0.000000e+00
    outer loop
      vertex 2.200000e+01 9.270510e-01 -6.585320e+01
      vertex 2.200000e+01 1.200000e+01 -7.450000e+01
      vertex 2.200000e+01 1.164645e+01 -7.464645e+01
    endloop
  endfacet
  facet normal -1.000000e+00 0.000000e+00 0.000000e+00
    outer loop
      vertex 2.200000e+01 9.270510e-01 -6.585320e+01
      vertex 2.200000e+01 1.164645e+01 -7.464645e+01
      vertex 2.200000e+01 1.150000e+01 -7.500000e+01
    endloop
  endfacet
  facet normal -1.000000e+00 0.000000e+00 0.000000e+00
    outer loop
      vertex 2.200000e+01 9.270510e-01 -6.585320e+01
      vertex 2.200000e+01 1.150000e+01 -7.500000e+01
      vertex 2.200000e+01 1.000000e+01 -8.200000e+01
    endloop
  endfacet
  facet normal -1.000000e+00 0.000000e+00 0.000000e+00
    outer loop
      vertex 2.200000e+01 9.270510e-01 -6.585320e+01
      vertex 2.200000e+01 1.000000e+01 -8.200000e+01
      vertex 2.200000e+01 1.000000e+01 -9.200000e+01
    endloop
  endfacet
  facet normal -1.000000e+00 0.000000e+00 0.000000e+00
    outer loop
      vertex 2.200000e+01 1.000000e+01 -9.200000e+01
      vertex 2.200000e+01 -1.235355e+01 -7.535355e+01
      vertex 2.200000e+01 -1.200000e+01 -7.550000e+01
    endloop
  endfacet
  facet normal -1.000000e+00 0.000000e+00 0.000000e+00
    outer loop
      vertex 2.200000e+01 1.000000e+01 -9.200000e+01
      vertex 2.200000e+01 -1.200000e+01 -7.550000e+01
      vertex 2.200000e+01 -1.164645e+01 -7.535355e+01
    endloop
  endfacet
  facet normal -1.000000e+00 0.000000e+00 0.000000e+00
    outer loop
      vertex 2.200000e+01 1.000000e+01 -9.200000e+01
      vertex 2.200000e+01 -1.164645e+01 -7.535355e+01
      vertex 2.200000e+01 -1.150000e+01 -7.500000e+01
    endloop
  endfacet
  facet normal -1.000000e+00 0.000000e+00 0.000000e+00
    outer loop
      vertex 2.200000e+01 1.000000e+01 -9.200000e+01
      vertex 2.200000e+01 -1.150000e+01 -7.500000e+01
      vertex 2.200000e+01 -9.270510e-01 -6.585320e+01
    endloop
  endfacet
  facet normal -1.000000e+00 0.000000e+00 0.000000e+00
    outer loop
      vertex 2.200000e+01 1.000000e+01 -9.200000e+01
      vertex 2.200000e+01 -9.270510e-01 -6.585320e+01
      vertex 2.200000e+01 9.270510e-01 -6.585320e+01
    endloop
  endfacet
  facet normal -1.000000e+00 0.000000e+00 0.000000e+00
    outer loop
      vertex 2.200000e+01 -2.000000e+01 -9.200000e+01
      vertex 2.200000e+01 -2.000000e+01 -8.200000e+01
      vertex 2.200000e+01 -1.550000e+01 -5.800003e+01
    endloop
  endfacet
  facet normal -1.000000e+00 0.000000e+00 0.000000e+00
    outer loop
      vertex 2.200000e+01 -2.000000e+01 -9.200000e+01
      vertex 2.200000e+01 -1.550000e+01 -5.800003e+01
      vertex 2.200000e+01 -1.250000e+01 -7.500000e+01
    endloop
  endfacet
  facet normal -1.000000e+00 0.000000e+00 0.000000e+00
    outer loop
      vertex 2.200000e+01 -2.000000e+01 -9.200000e+01
      vertex 2.200000e+01 -1.250000e+01 -7.500000e+01
      vertex 2.200000e+01 -1.235355e+01 -7.535355e+01
    endloop
  endfacet
  facet normal -1.000000e+00 0.000000e+00 0.000000e+00
    outer loop
      vertex 2.200000e+01 -2.000000e+01 -9.200000e+01
      vertex 2.200000e+01 -1.235355e+01 -7.535355e+01
      vertex 2.200000e+01 1.000000e+01 -9.200000e+01
    endloop
  endfacet
  facet normal -1.000000e+00 0.000000e+00 0.000000e+00
    outer loop
      vertex 2.200000e+01 1.200000e+01 -7.450000e+01
      vertex 2.200000e+01 9.270510e-01 -6.585320e+01
      vertex 2.200000e+01 2.427051e+00 -6.476339e+01
    endloop
  endfacet
  facet normal -1.000000e+00 0.000000e+00 0.000000e+00
    outer loop
      vertex 2.200000e+01 1.200000e+01 -7.450000e+01
      vertex 2.200000e+01 2.427051e+00 -6.476339e+01
      vertex 2.200000e+01 3.000000e+00 -6.300003e+01
    endloop
  endfacet
  facet normal -1.000000e+00 0.000000e+00 0.000000e+00
    outer loop
      vertex 2.200000e+01 1.200000e+01 -7.450000e+01
      vertex 2.200000e+01 3.000000e+00 -6.300003e+01
      vertex 2.200000e+01 2.427051e+00 -6.123668e+01
    endloop
  endfacet
  facet normal -1.000000e+00 0.000000e+00 0.000000e+00
    outer loop
      vertex 2.200000e+01 1.200000e+01 -7.450000e+01
      vertex 2.200000e+01 2.427051e+00 -6.123668e+01
      vertex 2.200000e+01 1.910130e+00 -5.118291e+01
    endloop
  endfacet
  facet normal -1.000000e+00 0.000000e+00 0.000000e+00
    outer loop
      vertex 2.200000e+01 1.200000e+01 -7.450000e+01
      vertex 2.200000e+01 1.910130e+00 -5.118291e+01
      vertex 2.200000e+01 5.500000e+00 -4.987631e+01
    endloop
  endfacet
  facet normal -1.000000e+00 0.000000e+00 0.000000e+00
    outer loop
      vertex 2.200000e+01 1.200000e+01 -7.450000e+01
      vertex 2.200000e+01 5.500000e+00 -4.987631e+01
      vertex 2.200000e+01 8.426489e+00 -4.742070e+01
    endloop
  endfacet
  facet normal -1.000000e+00 0.000000e+00 0.000000e+00
    outer loop
      vertex 2.200000e+01 1.200000e+01 -7.450000e+01
      vertex 2.200000e+01 8.426489e+00 -4.742070e+01
      vertex 2.200000e+01 1.033662e+01 -4.411225e+01
    endloop
  endfacet
  facet normal -1.000000e+00 0.000000e+00 0.000000e+00
    outer loop
      vertex 2.200000e+01 1.200000e+01 -7.450000e+01
      vertex 2.200000e+01 1.033662e+01 -4.411225e+01
      vertex 2.200000e+01 1.100000e+01 -4.035003e+01
    endloop
  endfacet
  facet normal -1.000000e+00 0.000000e+00 0.000000e+00
    outer loop
      vertex 2.200000e+01 3.000000e+01 -8.200000e+01
      vertex 2.200000e+01 1.200000e+01 -7.550000e+01
      vertex 2.200000e+01 1.235355e+01 -7.535355e+01
    endloop
  endfacet
  facet normal -1.000000e+00 0.000000e+00 0.000000e+00
    outer loop
      vertex 2.200000e+01 3.000000e+01 -8.200000e+01
      vertex 2.200000e+01 1.235355e+01 -7.535355e+01
      vertex 2.200000e+01 1.250000e+01 -7.500000e+01
    endloop
  endfacet
  facet normal -1.000000e+00 0.000000e+00 0.000000e+00
    outer loop
      vertex 2.200000e+01 3.000000e+01 -8.200000e+01
      vertex 2.200000e+01 1.250000e+01 -7.500000e+01
      vertex 2.200000e+01 1.550000e+01 -5.800003e+01
    endloop
  endfacet
  facet normal -1.000000e+00 0.000000e+00 0.000000e+00
    outer loop
      vertex 2.200000e+01 3.000000e+01 -8.200000e+01
      vertex 2.200000e+01 1.550000e+01 -5.800003e+01
      vertex 2.200000e+01 1.702028e+01 -5.737031e+01
    endloop
  endfacet
  facet normal -1.000000e+00 0.000000e+00 0.000000e+00
    outer loop
      vertex 2.200000e+01 3.000000e+01 -8.200000e+01
      vertex 2.200000e+01 1.702028e+01 -5.737031e+01
      vertex 2.200000e+01 1.765000e+01 -5.585003e+01
    endloop
  endfacet
  facet normal -1.000000e+00 0.000000e+00 0.000000e+00
    outer loop
      vertex 2.200000e+01 3.000000e+01 -8.200000e+01
      vertex 2.200000e+01 1.765000e+01 -5.585003e+01
      vertex 2.200000e+01 1.702028e+01 -5.432975e+01
    endloop
  endfacet
  facet normal -1.000000e+00 0.000000e+00 0.000000e+00
    outer loop
      vertex 2.200000e+01 3.000000e+01 -8.200000e+01
      vertex 2.200000e+01 1.702028e+01 -5.432975e+01
      vertex 2.200000e+01 1.550000e+01 -2.700003e+01
    endloop
  endfacet
  facet normal -1.000000e+00 0.000000e+00 0.000000e+00
    outer loop
      vertex 2.200000e+01 3.000000e+01 -8.200000e+01
      vertex 2.200000e+01 1.550000e+01 -2.700003e+01
      vertex 2.200000e+01 1.702028e+01 -2.637031e+01
    endloop
  endfacet
  facet normal -1.000000e+00 0.000000e+00 0.000000e+00
    outer loop
      vertex 2.200000e+01 3.000000e+01 -8.200000e+01
      vertex 2.200000e+01 1.702028e+01 -2.637031e+01
      vertex 2.200000e+01 1.765000e+01 -2.485003e+01
    endloop
  endfacet
  facet normal -1.000000e+00 0.000000e+00 0.000000e+00
    outer loop
      vertex 2.200000e+01 1.335000e+01 -2.485003e+01
      vertex 2.200000e+01 1.200000e+01 -7.450000e+01
      vertex 2.200000e+01 1.100000e+01 -4.035003e+01
    endloop
  endfacet
  facet normal -1.000000e+00 0.000000e+00 0.000000e+00
    outer loop
      vertex 2.200000e+01 1.335000e+01 -2.485003e+01
      vertex 2.200000e+01 1.100000e+01 -4.035003e+01
      vertex 2.200000e+01 1.033662e+01 -3.658781e+01
    endloop
  endfacet
  facet normal -1.000000e+00 0.000000e+00 0.000000e+00
    outer loop
      vertex 2.200000e+01 1.335000e+01 -2.485003e+01
      vertex 2.200000e+01 1.033662e+01 -3.658781e+01
      vertex 2.200000e+01 8.426489e+00 -3.327937e+01
    endloop
  endfacet
  facet normal -1.000000e+00 0.000000e+00 0.000000e+00
    outer loop
      vertex 2.200000e+01 1.397972e+01 -2.332975e+01
      vertex 2.200000e+01 1.335000e+01 -2.485003e+01
      vertex 2.200000e+01 8.426489e+00 -3.327937e+01
    endloop
  endfacet
  facet normal -1.000000e+00 0.000000e+00 0.000000e+00
    outer loop
      vertex 2.200000e+01 1.397972e+01 -2.332975e+01
      vertex 2.200000e+01 8.426489e+00 -3.327937e+01
      vertex 2.200000e+01 5.500000e+00 -3.082375e+01
    endloop
  endfacet
  facet normal -1.000000e+00 0.000000e+00 0.000000e+00
    outer loop
      vertex 2.200000e+01 1.397972e+01 -2.332975e+01
      vertex 2.200000e+01 5.500000e+00 -3.082375e+01
      vertex 2.200000e+01 1.910130e+00 -2.951715e+01
    endloop
  endfacet
  facet normal -1.000000e+00 0.000000e+00 0.000000e+00
    outer loop
      vertex 2.200000e+01 1.397972e+01 -2.332975e+01
      vertex 2.200000e+01 1.910130e+00 -2.951715e+01
      vertex 2.200000e+01 -1.910130e+00 -2.951715e+01
    endloop
  endfacet
  facet normal -1.000000e+00 0.000000e+00 0.000000e+00
    outer loop
      vertex 2.200000e+01 1.397972e+01 -2.332975e+01
      vertex 2.200000e+01 -1.910130e+00 -2.951715e+01
      vertex 2.200000e+01 -5.500000e+00 -3.082375e+01
    endloop
  endfacet
  facet normal -1.000000e+00 -0.000000e+00 0.000000e+00
    outer loop
      vertex 2.200000e+01 1.397972e+01 -2.332975e+01
      vertex 2.200000e+01 -5.500000e+00 -3.082375e+01
      vertex 2.200000e+01 1.550000e+01 -2.270003e+01
    endloop
  endfacet
  facet normal -1.000000e+00 0.000000e+00 0.000000e+00
    outer loop
      vertex 2.200000e+01 -1.200000e+01 -7.450000e+01
      vertex 2.200000e+01 -1.100000e+01 -4.035003e+01
      vertex 2.200000e+01 -1.033662e+01 -4.411225e+01
    endloop
  endfacet
  facet normal -1.000000e+00 0.000000e+00 0.000000e+00
    outer loop
      vertex 2.200000e+01 -1.200000e+01 -7.450000e+01
      vertex 2.200000e+01 -1.033662e+01 -4.411225e+01
      vertex 2.200000e+01 -8.426489e+00 -4.742070e+01
    endloop
  endfacet
  facet normal -1.000000e+00 0.000000e+00 0.000000e+00
    outer loop
      vertex 2.200000e+01 -1.200000e+01 -7.450000e+01
      vertex 2.200000e+01 -8.426489e+00 -4.742070e+01
      vertex 2.200000e+01 -5.500000e+00 -4.987631e+01
    endloop
  endfacet
  facet normal -1.000000e+00 0.000000e+00 0.000000e+00
    outer loop
      vertex 2.200000e+01 -1.200000e+01 -7.450000e+01
      vertex 2.200000e+01 -5.500000e+00 -4.987631e+01
      vertex 2.200000e+01 -1.910130e+00 -5.118291e+01
    endloop
  endfacet
  facet normal -1.000000e+00 0.000000e+00 0.000000e+00
    outer loop
      vertex 2.200000e+01 -1.200000e+01 -7.450000e+01
      vertex 2.200000e+01 -1.910130e+00 -5.118291e+01
      vertex 2.200000e+01 -2.427051e+00 -6.123668e+01
    endloop
  endfacet
  facet normal -1.000000e+00 0.000000e+00 0.000000e+00
    outer loop
      vertex 2.200000e+01 -1.200000e+01 -7.450000e+01
      vertex 2.200000e+01 -2.427051e+00 -6.123668e+01
      vertex 2.200000e+01 -3.000000e+00 -6.300003e+01
    endloop
  endfacet
  facet normal -1.000000e+00 0.000000e+00 0.000000e+00
    outer loop
      vertex 2.200000e+01 -1.200000e+01 -7.450000e+01
      vertex 2.200000e+01 -3.000000e+00 -6.300003e+01
      vertex 2.200000e+01 -2.427051e+00 -6.476339e+01
    endloop
  endfacet
  facet normal -1.000000e+00 0.000000e+00 0.000000e+00
    outer loop
      vertex 2.200000e+01 -1.200000e+01 -7.450000e+01
      vertex 2.200000e+01 -2.427051e+00 -6.476339e+01
      vertex 2.200000e+01 -9.270510e-01 -6.585320e+01
    endloop
  endfacet
  facet normal -1.000000e+00 0.000000e+00 0.000000e+00
    outer loop
      vertex 2.200000e+01 -1.200000e+01 -7.450000e+01
      vertex 2.200000e+01 -9.270510e-01 -6.585320e+01
      vertex 2.200000e+01 -1.164645e+01 -7.464645e+01
    endloop
  endfacet
  facet normal -1.000000e+00 0.000000e+00 0.000000e+00
    outer loop
      vertex 2.200000e+01 -3.000000e+01 -8.200000e+01
      vertex 2.200000e+01 -1.765000e+01 -2.485003e+01
      vertex 2.200000e+01 -1.702028e+01 -2.637031e+01
    endloop
  endfacet
  facet normal -1.000000e+00 0.000000e+00 0.000000e+00
    outer loop
      vertex 2.200000e+01 -3.000000e+01 -8.200000e+01
      vertex 2.200000e+01 -1.702028e+01 -2.637031e+01
      vertex 2.200000e+01 -1.550000e+01 -2.700003e+01
    endloop
  endfacet
  facet normal -1.000000e+00 0.000000e+00 0.000000e+00
    outer loop
      vertex 2.200000e+01 -3.000000e+01 -8.200000e+01
      vertex 2.200000e+01 -1.550000e+01 -2.700003e+01
      vertex 2.200000e+01 -1.702028e+01 -5.432975e+01
    endloop
  endfacet
  facet normal -1.000000e+00 0.000000e+00 0.000000e+00
    outer loop
      vertex 2.200000e+01 -3.000000e+01 -8.200000e+01
      vertex 2.200000e+01 -1.702028e+01 -5.432975e+01
      vertex 2.200000e+01 -1.765000e+01 -5.585003e+01
    endloop
  endfacet
  facet normal -1.000000e+00 0.000000e+00 0.000000e+00
    outer loop
      vertex 2.200000e+01 -3.000000e+01 -8.200000e+01
      vertex 2.200000e+01 -1.765000e+01 -5.585003e+01
      vertex 2.200000e+01 -1.702028e+01 -5.737031e+01
    endloop
  endfacet
  facet normal -1.000000e+00 0.000000e+00 0.000000e+00
    outer loop
      vertex 2.200000e+01 -3.000000e+01 -8.200000e+01
      vertex 2.200000e+01 -1.702028e+01 -5.737031e+01
      vertex 2.200000e+01 -1.550000e+01 -5.800003e+01
    endloop
  endfacet
  facet normal -1.000000e+00 0.000000e+00 0.000000e+00
    outer loop
      vertex 2.200000e+01 -3.000000e+01 -8.200000e+01
      vertex 2.200000e+01 -1.550000e+01 -5.800003e+01
      vertex 2.200000e+01 -2.000000e+01 -8.200000e+01
    endloop
  endfacet
  facet normal -1.000000e+00 0.000000e+00 0.000000e+00
    outer loop
      vertex 2.200000e+01 -3.000000e+01 -2.000000e+01
      vertex 2.200000e+01 -1.550000e+01 -2.270003e+01
      vertex 2.200000e+01 -1.702028e+01 -2.332975e+01
    endloop
  endfacet
  facet normal -1.000000e+00 0.000000e+00 0.000000e+00
    outer loop
      vertex 2.200000e+01 -3.000000e+01 -2.000000e+01
      vertex 2.200000e+01 -1.702028e+01 -2.332975e+01
      vertex 2.200000e+01 -1.765000e+01 -2.485003e+01
    endloop
  endfacet
  facet normal -1.000000e+00 0.000000e+00 0.000000e+00
    outer loop
      vertex 2.200000e+01 -3.000000e+01 -2.000000e+01
      vertex 2.200000e+01 -1.765000e+01 -2.485003e+01
      vertex 2.200000e+01 -3.000000e+01 -8.200000e+01
    endloop
  endfacet
  facet normal 1.000000e+00 0.000000e+00 0.000000e+00
    outer loop
      vertex 3.200000e+01 -9.270510e-01 -6.585320e+01
      vertex 3.200000e+01 -1.164645e+01 -7.464645e+01
      vertex 3.200000e+01 -1.150000e+01 -7.500000e+01
    endloop
  endfacet
  facet normal 1.000000e+00 0.000000e+00 0.000000e+00
    outer loop
      vertex 3.200000e+01 2.427051e+00 -6.123668e+01
      vertex 3.200000e+01 1.910130e+00 -5.118291e+01
      vertex 3.200000e+01 9.270510e-01 -6.014687e+01
    endloop
  endfacet
  facet normal 1.000000e+00 0.000000e+00 0.000000e+00
    outer loop
      vertex 3.200000e+01 1.550000e+01 -2.700003e+01
      vertex 3.200000e+01 1.550000e+01 -5.370003e+01
      vertex 3.200000e+01 1.702028e+01 -5.432975e+01
    endloop
  endfacet
  facet normal 1.000000e+00 0.000000e+00 0.000000e+00
    outer loop
      vertex 3.200000e+01 1.200000e+01 -7.450000e+01
      vertex 3.200000e+01 1.397972e+01 -5.737031e+01
      vertex 3.200000e+01 1.335000e+01 -5.585003e+01
    endloop
  endfacet
  facet normal 1.000000e+00 0.000000e+00 0.000000e+00
    outer loop
      vertex 3.200000e+01 1.550000e+01 -5.800003e+01
      vertex 3.200000e+01 1.397972e+01 -5.737031e+01
      vertex 3.200000e+01 1.200000e+01 -7.450000e+01
    endloop
  endfacet
  facet normal 1.000000e+00 0.000000e+00 0.000000e+00
    outer loop
      vertex 3.200000e+01 1.550000e+01 -5.800003e+01
      vertex 3.200000e+01 1.200000e+01 -7.450000e+01
      vertex 3.200000e+01 1.235355e+01 -7.464645e+01
    endloop
  endfacet
  facet normal 1.000000e+00 0.000000e+00 0.000000e+00
    outer loop
      vertex 3.200000e+01 1.550000e+01 -5.800003e+01
      vertex 3.200000e+01 1.235355e+01 -7.464645e+01
      vertex 3.200000e+01 1.250000e+01 -7.500000e+01
    endloop
  endfacet
  facet normal 1.000000e+00 -0.000000e+00 0.000000e+00
    outer loop
      vertex 3.200000e+01 -1.397972e+01 -5.737031e+01
      vertex 3.200000e+01 -1.200000e+01 -7.450000e+01
      vertex 3.200000e+01 -1.335000e+01 -5.585003e+01
    endloop
  endfacet
  facet normal 1.000000e+00 0.000000e+00 0.000000e+00
    outer loop
      vertex 3.200000e+01 -1.397972e+01 -5.737031e+01
      vertex 3.200000e+01 -1.550000e+01 -5.800003e+01
      vertex 3.200000e+01 -1.200000e+01 -7.450000e+01
    endloop
  endfacet
  facet normal 1.000000e+00 0.000000e+00 -0.000000e+00
    outer loop
      vertex 3.200000e+01 -1.235355e+01 -7.464645e+01
      vertex 3.200000e+01 -1.200000e+01 -7.450000e+01
      vertex 3.200000e+01 -1.550000e+01 -5.800003e+01
    endloop
  endfacet
  facet normal 1.000000e+00 0.000000e+00 0.000000e+00
    outer loop
      vertex 3.200000e+01 -1.235355e+01 -7.464645e+01
      vertex 3.200000e+01 -1.550000e+01 -5.800003e+01
      vertex 3.200000e+01 -1.250000e+01 -7.500000e+01
    endloop
  endfacet
  facet normal 1.000000e+00 0.000000e+00 -0.000000e+00
    outer loop
      vertex 3.200000e+01 -1.550000e+01 -5.370003e+01
      vertex 3.200000e+01 -1.550000e+01 -2.700003e+01
      vertex 3.200000e+01 -1.702028e+01 -5.432975e+01
    endloop
  endfacet
  facet normal 1.000000e+00 0.000000e+00 -0.000000e+00
    outer loop
      vertex 3.200000e+01 9.270510e-01 -6.014687e+01
      vertex 3.200000e+01 1.910130e+00 -5.118291e+01
      vertex 3.200000e+01 -9.270510e-01 -6.014687e+01
    endloop
  endfacet
  facet normal 1.000000e+00 0.000000e+00 -0.000000e+00
    outer loop
      vertex 3.200000e+01 -9.270510e-01 -6.014687e+01
      vertex 3.200000e+01 1.910130e+00 -5.118291e+01
      vertex 3.200000e+01 -1.910130e+00 -5.118291e+01
    endloop
  endfacet
  facet normal 1.000000e+00 0.000000e+00 0.000000e+00
    outer loop
      vertex 3.200000e+01 -9.270510e-01 -6.014687e+01
      vertex 3.200000e+01 -1.910130e+00 -5.118291e+01
      vertex 3.200000e+01 -2.427051e+00 -6.123668e+01
    endloop
  endfacet
  facet normal 1.000000e+00 0.000000e+00 -0.000000e+00
    outer loop
      vertex 3.200000e+01 1.550000e+01 -5.370003e+01
      vertex 3.200000e+01 1.550000e+01 -2.700003e+01
      vertex 3.200000e+01 1.397972e+01 -5.432975e+01
    endloop
  endfacet
  facet normal 1.000000e+00 0.000000e+00 0.000000e+00
    outer loop
      vertex 3.200000e+01 1.397972e+01 -5.432975e+01
      vertex 3.200000e+01 1.550000e+01 -2.700003e+01
      vertex 3.200000e+01 1.397972e+01 -2.637031e+01
    endloop
  endfacet
  facet normal 1.000000e+00 0.000000e+00 -0.000000e+00
    outer loop
      vertex 3.200000e+01 1.397972e+01 -5.432975e+01
      vertex 3.200000e+01 1.397972e+01 -2.637031e+01
      vertex 3.200000e+01 1.335000e+01 -5.585003e+01
    endloop
  endfacet
  facet normal 1.000000e+00 0.000000e+00 0.000000e+00
    outer loop
      vertex 3.200000e+01 1.335000e+01 -5.585003e+01
      vertex 3.200000e+01 1.397972e+01 -2.637031e+01
      vertex 3.200000e+01 1.335000e+01 -2.485003e+01
    endloop
  endfacet
  facet normal 1.000000e+00 0.000000e+00 -0.000000e+00
    outer loop
      vertex 3.200000e+01 1.335000e+01 -5.585003e+01
      vertex 3.200000e+01 1.335000e+01 -2.485003e+01
      vertex 3.200000e+01 1.200000e+01 -7.450000e+01
    endloop
  endfacet
  facet normal 1.000000e+00 -0.000000e+00 0.000000e+00
    outer loop
      vertex 3.200000e+01 -1.550000e+01 -5.370003e+01
      vertex 3.200000e+01 -1.397972e+01 -5.432975e+01
      vertex 3.200000e+01 -1.550000e+01 -2.700003e+01
    endloop
  endfacet
  facet normal 1.000000e+00 0.000000e+00 0.000000e+00
    outer loop
      vertex 3.200000e+01 -1.550000e+01 -2.700003e+01
      vertex 3.200000e+01 -1.397972e+01 -5.432975e+01
      vertex 3.200000e+01 -1.335000e+01 -5.585003e+01
    endloop
  endfacet
  facet normal 1.000000e+00 -0.000000e+00 0.000000e+00
    outer loop
      vertex 3.200000e+01 -1.550000e+01 -2.700003e+01
      vertex 3.200000e+01 -1.335000e+01 -5.585003e+01
      vertex 3.200000e+01 -1.397972e+01 -2.637031e+01
    endloop
  endfacet
  facet normal 1.000000e+00 0.000000e+00 0.000000e+00
    outer loop
      vertex 3.200000e+01 -1.397972e+01 -2.637031e+01
      vertex 3.200000e+01 -1.335000e+01 -5.585003e+01
      vertex 3.200000e+01 -1.200000e+01 -7.450000e+01
    endloop
  endfacet
  facet normal 1.000000e+00 -0.000000e+00 0.000000e+00
    outer loop
      vertex 3.200000e+01 -1.397972e+01 -2.637031e+01
      vertex 3.200000e+01 -1.200000e+01 -7.450000e+01
      vertex 3.200000e+01 -1.335000e+01 -2.485003e+01
    endloop
  endfacet
  facet normal 1.000000e+00 0.000000e+00 0.000000e+00
    outer loop
      vertex 3.200000e+01 -1.335000e+01 -2.485003e+01
      vertex 3.200000e+01 -1.200000e+01 -7.450000e+01
      vertex 3.200000e+01 -1.100000e+01 -4.035003e+01
    endloop
  endfacet
  facet normal 1.000000e+00 0.000000e+00 0.000000e+00
    outer loop
      vertex 3.200000e+01 -1.335000e+01 -2.485003e+01
      vertex 3.200000e+01 -1.100000e+01 -4.035003e+01
      vertex 3.200000e+01 -1.033662e+01 -3.658781e+01
    endloop
  endfacet
  facet normal 1.000000e+00 0.000000e+00 0.000000e+00
    outer loop
      vertex 3.200000e+01 -1.335000e+01 -2.485003e+01
      vertex 3.200000e+01 -1.033662e+01 -3.658781e+01
      vertex 3.200000e+01 -8.426489e+00 -3.327937e+01
    endloop
  endfacet
  facet normal 1.000000e+00 0.000000e+00 0.000000e+00
    outer loop
      vertex 3.200000e+01 -1.335000e+01 -2.485003e+01
      vertex 3.200000e+01 -8.426489e+00 -3.327937e+01
      vertex 3.200000e+01 -5.500000e+00 -3.082375e+01
    endloop
  endfacet
  facet normal 1.000000e+00 -0.000000e+00 0.000000e+00
    outer loop
      vertex 3.200000e+01 -1.335000e+01 -2.485003e+01
      vertex 3.200000e+01 -5.500000e+00 -3.082375e+01
      vertex 3.200000e+01 1.550000e+01 -2.270003e+01
    endloop
  endfacet
  facet normal 1.000000e+00 0.000000e+00 0.000000e+00
    outer loop
      vertex 3.200000e+01 3.000000e+01 -2.000000e+01
      vertex 3.200000e+01 -3.000000e+01 -2.000000e+01
      vertex 3.200000e+01 -1.550000e+01 -2.270003e+01
    endloop
  endfacet
  facet normal 1.000000e+00 0.000000e+00 0.000000e+00
    outer loop
      vertex 3.200000e+01 3.000000e+01 -2.000000e+01
      vertex 3.200000e+01 -1.550000e+01 -2.270003e+01
      vertex 3.200000e+01 -1.397972e+01 -2.332975e+01
    endloop
  endfacet
  facet normal 1.000000e+00 0.000000e+00 0.000000e+00
    outer loop
      vertex 3.200000e+01 3.000000e+01 -2.000000e+01
      vertex 3.200000e+01 -1.397972e+01 -2.332975e+01
      vertex 3.200000e+01 -1.335000e+01 -2.485003e+01
    endloop
  endfacet
  facet normal 1.000000e+00 0.000000e+00 0.000000e+00
    outer loop
      vertex 3.200000e+01 3.000000e+01 -2.000000e+01
      vertex 3.200000e+01 -1.335000e+01 -2.485003e+01
      vertex 3.200000e+01 1.550000e+01 -2.270003e+01
    endloop
  endfacet
  facet normal 1.000000e+00 0.000000e+00 0.000000e+00
    outer loop
      vertex 3.200000e+01 3.000000e+01 -2.000000e+01
      vertex 3.200000e+01 1.550000e+01 -2.270003e+01
      vertex 3.200000e+01 1.702028e+01 -2.332975e+01
    endloop
  endfacet
  facet normal 1.000000e+00 0.000000e+00 0.000000e+00
    outer loop
      vertex 3.200000e+01 3.000000e+01 -2.000000e+01
      vertex 3.200000e+01 1.702028e+01 -2.332975e+01
      vertex 3.200000e+01 1.765000e+01 -2.485003e+01
    endloop
  endfacet
  facet normal 1.000000e+00 0.000000e+00 0.000000e+00
    outer loop
      vertex 3.200000e+01 3.000000e+01 -2.000000e+01
      vertex 3.200000e+01 1.765000e+01 -2.485003e+01
      vertex 3.200000e+01 3.000000e+01 -8.200000e+01
    endloop
  endfacet
  facet normal 1.000000e+00 0.000000e+00 0.000000e+00
    outer loop
      vertex 3.200000e+01 1.000000e+01 -8.200000e+01
      vertex 3.200000e+01 3.000000e+01 -8.200000e+01
      vertex 3.200000e+01 1.200000e+01 -7.550000e+01
    endloop
  endfacet
  facet normal 1.000000e+00 0.000000e+00 0.000000e+00
    outer loop
      vertex 3.200000e+01 1.000000e+01 -8.200000e+01
      vertex 3.200000e+01 1.200000e+01 -7.550000e+01
      vertex 3.200000e+01 1.164645e+01 -7.535355e+01
    endloop
  endfacet
  facet normal 1.000000e+00 0.000000e+00 0.000000e+00
    outer loop
      vertex 3.200000e+01 1.000000e+01 -8.200000e+01
      vertex 3.200000e+01 1.164645e+01 -7.535355e+01
      vertex 3.200000e+01 1.150000e+01 -7.500000e+01
    endloop
  endfacet
  facet normal 1.000000e+00 0.000000e+00 0.000000e+00
    outer loop
      vertex 3.200000e+01 9.270510e-01 -6.585320e+01
      vertex 3.200000e+01 1.000000e+01 -9.200000e+01
      vertex 3.200000e+01 1.000000e+01 -8.200000e+01
    endloop
  endfacet
  facet normal 1.000000e+00 0.000000e+00 0.000000e+00
    outer loop
      vertex 3.200000e+01 9.270510e-01 -6.585320e+01
      vertex 3.200000e+01 1.000000e+01 -8.200000e+01
      vertex 3.200000e+01 1.150000e+01 -7.500000e+01
    endloop
  endfacet
  facet normal 1.000000e+00 0.000000e+00 0.000000e+00
    outer loop
      vertex 3.200000e+01 9.270510e-01 -6.585320e+01
      vertex 3.200000e+01 1.150000e+01 -7.500000e+01
      vertex 3.200000e+01 1.164645e+01 -7.464645e+01
    endloop
  endfacet
  facet normal 1.000000e+00 0.000000e+00 0.000000e+00
    outer loop
      vertex 3.200000e+01 9.270510e-01 -6.585320e+01
      vertex 3.200000e+01 1.164645e+01 -7.464645e+01
      vertex 3.200000e+01 1.200000e+01 -7.450000e+01
    endloop
  endfacet
  facet normal 1.000000e+00 0.000000e+00 0.000000e+00
    outer loop
      vertex 3.200000e+01 1.000000e+01 -9.200000e+01
      vertex 3.200000e+01 9.270510e-01 -6.585320e+01
      vertex 3.200000e+01 -9.270510e-01 -6.585320e+01
    endloop
  endfacet
  facet normal 1.000000e+00 0.000000e+00 0.000000e+00
    outer loop
      vertex 3.200000e+01 1.000000e+01 -9.200000e+01
      vertex 3.200000e+01 -9.270510e-01 -6.585320e+01
      vertex 3.200000e+01 -1.150000e+01 -7.500000e+01
    endloop
  endfacet
  facet normal 1.000000e+00 0.000000e+00 0.000000e+00
    outer loop
      vertex 3.200000e+01 1.000000e+01 -9.200000e+01
      vertex 3.200000e+01 -1.150000e+01 -7.500000e+01
      vertex 3.200000e+01 -1.164645e+01 -7.535355e+01
    endloop
  endfacet
  facet normal 1.000000e+00 0.000000e+00 0.000000e+00
    outer loop
      vertex 3.200000e+01 1.000000e+01 -9.200000e+01
      vertex 3.200000e+01 -1.164645e+01 -7.535355e+01
      vertex 3.200000e+01 -1.200000e+01 -7.550000e+01
    endloop
  endfacet
  facet normal 1.000000e+00 0.000000e+00 0.000000e+00
    outer loop
      vertex 3.200000e+01 1.000000e+01 -9.200000e+01
      vertex 3.200000e+01 -1.200000e+01 -7.550000e+01
      vertex 3.200000e+01 -1.235355e+01 -7.535355e+01
    endloop
  endfacet
  facet normal 1.000000e+00 0.000000e+00 0.000000e+00
    outer loop
      vertex 3.200000e+01 -2.000000e+01 -9.200000e+01
      vertex 3.200000e+01 1.000000e+01 -9.200000e+01
      vertex 3.200000e+01 -1.235355e+01 -7.535355e+01
    endloop
  endfacet
  facet normal 1.000000e+00 0.000000e+00 0.000000e+00
    outer loop
      vertex 3.200000e+01 -2.000000e+01 -9.200000e+01
      vertex 3.200000e+01 -1.235355e+01 -7.535355e+01
      vertex 3.200000e+01 -1.250000e+01 -7.500000e+01
    endloop
  endfacet
  facet normal 1.000000e+00 0.000000e+00 0.000000e+00
    outer loop
      vertex 3.200000e+01 -2.000000e+01 -9.200000e+01
      vertex 3.200000e+01 -1.250000e+01 -7.500000e+01
      vertex 3.200000e+01 -1.550000e+01 -5.800003e+01
    endloop
  endfacet
  facet normal 1.000000e+00 0.000000e+00 0.000000e+00
    outer loop
      vertex 3.200000e+01 -2.000000e+01 -9.200000e+01
      vertex 3.200000e+01 -1.550000e+01 -5.800003e+01
      vertex 3.200000e+01 -2.000000e+01 -8.200000e+01
    endloop
  endfacet
  facet normal 1.000000e+00 0.000000e+00 0.000000e+00
    outer loop
      vertex 3.200000e+01 1.200000e+01 -7.450000e+01
      vertex 3.200000e+01 1.100000e+01 -4.035003e+01
      vertex 3.200000e+01 1.033662e+01 -4.411225e+01
    endloop
  endfacet
  facet normal 1.000000e+00 0.000000e+00 0.000000e+00
    outer loop
      vertex 3.200000e+01 1.200000e+01 -7.450000e+01
      vertex 3.200000e+01 1.033662e+01 -4.411225e+01
      vertex 3.200000e+01 8.426489e+00 -4.742070e+01
    endloop
  endfacet
  facet normal 1.000000e+00 0.000000e+00 0.000000e+00
    outer loop
      vertex 3.200000e+01 1.200000e+01 -7.450000e+01
      vertex 3.200000e+01 8.426489e+00 -4.742070e+01
      vertex 3.200000e+01 5.500000e+00 -4.987631e+01
    endloop
  endfacet
  facet normal 1.000000e+00 0.000000e+00 0.000000e+00
    outer loop
      vertex 3.200000e+01 1.200000e+01 -7.450000e+01
      vertex 3.200000e+01 5.500000e+00 -4.987631e+01
      vertex 3.200000e+01 1.910130e+00 -5.118291e+01
    endloop
  endfacet
  facet normal 1.000000e+00 0.000000e+00 0.000000e+00
    outer loop
      vertex 3.200000e+01 1.200000e+01 -7.450000e+01
      vertex 3.200000e+01 1.910130e+00 -5.118291e+01
      vertex 3.200000e+01 2.427051e+00 -6.123668e+01
    endloop
  endfacet
  facet normal 1.000000e+00 0.000000e+00 0.000000e+00
    outer loop
      vertex 3.200000e+01 1.200000e+01 -7.450000e+01
      vertex 3.200000e+01 2.427051e+00 -6.123668e+01
      vertex 3.200000e+01 3.000000e+00 -6.300003e+01
    endloop
  endfacet
  facet normal 1.000000e+00 0.000000e+00 0.000000e+00
    outer loop
      vertex 3.200000e+01 1.200000e+01 -7.450000e+01
      vertex 3.200000e+01 3.000000e+00 -6.300003e+01
      vertex 3.200000e+01 2.427051e+00 -6.476339e+01
    endloop
  endfacet
  facet normal 1.000000e+00 0.000000e+00 0.000000e+00
    outer loop
      vertex 3.200000e+01 1.200000e+01 -7.450000e+01
      vertex 3.200000e+01 2.427051e+00 -6.476339e+01
      vertex 3.200000e+01 9.270510e-01 -6.585320e+01
    endloop
  endfacet
  facet normal 1.000000e+00 0.000000e+00 0.000000e+00
    outer loop
      vertex 3.200000e+01 3.000000e+01 -8.200000e+01
      vertex 3.200000e+01 1.765000e+01 -2.485003e+01
      vertex 3.200000e+01 1.702028e+01 -2.637031e+01
    endloop
  endfacet
  facet normal 1.000000e+00 0.000000e+00 0.000000e+00
    outer loop
      vertex 3.200000e+01 3.000000e+01 -8.200000e+01
      vertex 3.200000e+01 1.702028e+01 -2.637031e+01
      vertex 3.200000e+01 1.550000e+01 -2.700003e+01
    endloop
  endfacet
  facet normal 1.000000e+00 0.000000e+00 0.000000e+00
    outer loop
      vertex 3.200000e+01 3.000000e+01 -8.200000e+01
      vertex 3.200000e+01 1.550000e+01 -2.700003e+01
      vertex 3.200000e+01 1.702028e+01 -5.432975e+01
    endloop
  endfacet
  facet normal 1.000000e+00 0.000000e+00 0.000000e+00
    outer loop
      vertex 3.200000e+01 3.000000e+01 -8.200000e+01
      vertex 3.200000e+01 1.702028e+01 -5.432975e+01
      vertex 3.200000e+01 1.765000e+01 -5.585003e+01
    endloop
  endfacet
  facet normal 1.000000e+00 0.000000e+00 0.000000e+00
    outer loop
      vertex 3.200000e+01 3.000000e+01 -8.200000e+01
      vertex 3.200000e+01 1.765000e+01 -5.585003e+01
      vertex 3.200000e+01 1.702028e+01 -5.737031e+01
    endloop
  endfacet
  facet normal 1.000000e+00 0.000000e+00 0.000000e+00
    outer loop
      vertex 3.200000e+01 3.000000e+01 -8.200000e+01
      vertex 3.200000e+01 1.702028e+01 -5.737031e+01
      vertex 3.200000e+01 1.550000e+01 -5.800003e+01
    endloop
  endfacet
  facet normal 1.000000e+00 0.000000e+00 0.000000e+00
    outer loop
      vertex 3.200000e+01 3.000000e+01 -8.200000e+01
      vertex 3.200000e+01 1.550000e+01 -5.800003e+01
      vertex 3.200000e+01 1.250000e+01 -7.500000e+01
    endloop
  endfacet
  facet normal 1.000000e+00 0.000000e+00 0.000000e+00
    outer loop
      vertex 3.200000e+01 3.000000e+01 -8.200000e+01
      vertex 3.200000e+01 1.250000e+01 -7.500000e+01
      vertex 3.200000e+01 1.235355e+01 -7.535355e+01
    endloop
  endfacet
  facet normal 1.000000e+00 0.000000e+00 0.000000e+00
    outer loop
      vertex 3.200000e+01 3.000000e+01 -8.200000e+01
      vertex 3.200000e+01 1.235355e+01 -7.535355e+01
      vertex 3.200000e+01 1.200000e+01 -7.550000e+01
    endloop
  endfacet
  facet normal 1.000000e+00 0.000000e+00 0.000000e+00
    outer loop
      vertex 3.200000e+01 1.335000e+01 -2.485003e+01
      vertex 3.200000e+01 8.426489e+00 -3.327937e+01
      vertex 3.200000e+01 1.033662e+01 -3.658781e+01
    endloop
  endfacet
  facet normal 1.000000e+00 0.000000e+00 0.000000e+00
    outer loop
      vertex 3.200000e+01 1.335000e+01 -2.485003e+01
      vertex 3.200000e+01 1.033662e+01 -3.658781e+01
      vertex 3.200000e+01 1.100000e+01 -4.035003e+01
    endloop
  endfacet
  facet normal 1.000000e+00 0.000000e+00 0.000000e+00
    outer loop
      vertex 3.200000e+01 1.335000e+01 -2.485003e+01
      vertex 3.200000e+01 1.100000e+01 -4.035003e+01
      vertex 3.200000e+01 1.200000e+01 -7.450000e+01
    endloop
  endfacet
  facet normal 1.000000e+00 0.000000e+00 -0.000000e+00
    outer loop
      vertex 3.200000e+01 1.397972e+01 -2.332975e+01
      vertex 3.200000e+01 1.550000e+01 -2.270003e+01
      vertex 3.200000e+01 -5.500000e+00 -3.082375e+01
    endloop
  endfacet
  facet normal 1.000000e+00 0.000000e+00 0.000000e+00
    outer loop
      vertex 3.200000e+01 1.397972e+01 -2.332975e+01
      vertex 3.200000e+01 -5.500000e+00 -3.082375e+01
      vertex 3.200000e+01 -1.910130e+00 -2.951715e+01
    endloop
  endfacet
  facet normal 1.000000e+00 0.000000e+00 0.000000e+00
    outer loop
      vertex 3.200000e+01 1.397972e+01 -2.332975e+01
      vertex 3.200000e+01 -1.910130e+00 -2.951715e+01
      vertex 3.200000e+01 1.910130e+00 -2.951715e+01
    endloop
  endfacet
  facet normal 1.000000e+00 0.000000e+00 0.000000e+00
    outer loop
      vertex 3.200000e+01 1.397972e+01 -2.332975e+01
      vertex 3.200000e+01 1.910130e+00 -2.951715e+01
      vertex 3.200000e+01 5.500000e+00 -3.082375e+01
    endloop
  endfacet
  facet normal 1.000000e+00 0.000000e+00 0.000000e+00
    outer loop
      vertex 3.200000e+01 1.397972e+01 -2.332975e+01
      vertex 3.200000e+01 5.500000e+00 -3.082375e+01
      vertex 3.200000e+01 8.426489e+00 -3.327937e+01
    endloop
  endfacet
  facet normal 1.000000e+00 0.000000e+00 0.000000e+00
    outer loop
      vertex 3.200000e+01 1.397972e+01 -2.332975e+01
      vertex 3.200000e+01 8.426489e+00 -3.327937e+01
      vertex 3.200000e+01 1.335000e+01 -2.485003e+01
    endloop
  endfacet
  facet normal 1.000000e+00 -0.000000e+00 0.000000e+00
    outer loop
      vertex 3.200000e+01 -1.200000e+01 -7.450000e+01
      vertex 3.200000e+01 -1.164645e+01 -7.464645e+01
      vertex 3.200000e+01 -9.270510e-01 -6.585320e+01
    endloop
  endfacet
  facet normal 1.000000e+00 0.000000e+00 0.000000e+00
    outer loop
      vertex 3.200000e+01 -1.200000e+01 -7.450000e+01
      vertex 3.200000e+01 -9.270510e-01 -6.585320e+01
      vertex 3.200000e+01 -2.427051e+00 -6.476339e+01
    endloop
  endfacet
  facet normal 1.000000e+00 0.000000e+00 0.000000e+00
    outer loop
      vertex 3.200000e+01 -1.200000e+01 -7.450000e+01
      vertex 3.200000e+01 -2.427051e+00 -6.476339e+01
      vertex 3.200000e+01 -3.000000e+00 -6.300003e+01
    endloop
  endfacet
  facet normal 1.000000e+00 0.000000e+00 0.000000e+00
    outer loop
      vertex 3.200000e+01 -1.200000e+01 -7.450000e+01
      vertex 3.200000e+01 -3.000000e+00 -6.300003e+01
      vertex 3.200000e+01 -2.427051e+00 -6.123668e+01
    endloop
  endfacet
  facet normal 1.000000e+00 0.000000e+00 0.000000e+00
    outer loop
      vertex 3.200000e+01 -1.200000e+01 -7.450000e+01
      vertex 3.200000e+01 -2.427051e+00 -6.123668e+01
      vertex 3.200000e+01 -1.910130e+00 -5.118291e+01
    endloop
  endfacet
  facet normal 1.000000e+00 0.000000e+00 0.000000e+00
    outer loop
      vertex 3.200000e+01 -1.200000e+01 -7.450000e+01
      vertex 3.200000e+01 -1.910130e+00 -5.118291e+01
      vertex 3.200000e+01 -5.500000e+00 -4.987631e+01
    endloop
  endfacet
  facet normal 1.000000e+00 0.000000e+00 0.000000e+00
    outer loop
      vertex 3.200000e+01 -1.200000e+01 -7.450000e+01
      vertex 3.200000e+01 -5.500000e+00 -4.987631e+01
      vertex 3.200000e+01 -8.426489e+00 -4.742070e+01
    endloop
  endfacet
  facet normal 1.000000e+00 0.000000e+00 0.000000e+00
    outer loop
      vertex 3.200000e+01 -1.200000e+01 -7.450000e+01
      vertex 3.200000e+01 -8.426489e+00 -4.742070e+01
      vertex 3.200000e+01 -1.033662e+01 -4.411225e+01
    endloop
  endfacet
  facet normal 1.000000e+00 0.000000e+00 0.000000e+00
    outer loop
      vertex 3.200000e+01 -1.200000e+01 -7.450000e+01
      vertex 3.200000e+01 -1.033662e+01 -4.411225e+01
      vertex 3.200000e+01 -1.100000e+01 -4.035003e+01
    endloop
  endfacet
  facet normal 1.000000e+00 0.000000e+00 0.000000e+00
    outer loop
      vertex 3.200000e+01 -3.000000e+01 -8.200000e+01
      vertex 3.200000e+01 -2.000000e+01 -8.200000e+01
      vertex 3.200000e+01 -1.550000e+01 -5.800003e+01
    endloop
  endfacet
  facet normal 1.000000e+00 0.000000e+00 0.000000e+00
    outer loop
      vertex 3.200000e+01 -3.000000e+01 -8.200000e+01
      vertex 3.200000e+01 -1.550000e+01 -5.800003e+01
      vertex 3.200000e+01 -1.702028e+01 -5.737031e+01
    endloop
  endfacet
  facet normal 1.000000e+00 0.000000e+00 0.000000e+00
    outer loop
      vertex 3.200000e+01 -3.000000e+01 -8.200000e+01
      vertex 3.200000e+01 -1.702028e+01 -5.737031e+01
      vertex 3.200000e+01 -1.765000e+01 -5.585003e+01
    endloop
  endfacet
  facet normal 1.000000e+00 0.000000e+00 0.000000e+00
    outer loop
      vertex 3.200000e+01 -3.000000e+01 -8.200000e+01
      vertex 3.200000e+01 -1.765000e+01 -5.585003e+01
      vertex 3.200000e+01 -1.702028e+01 -5.432975e+01
    endloop
  endfacet
  facet normal 1.000000e+00 0.000000e+00 0.000000e+00
    outer loop
      vertex 3.200000e+01 -3.000000e+01 -8.200000e+01
      vertex 3.200000e+01 -1.702028e+01 -5.432975e+01
      vertex 3.200000e+01 -1.550000e+01 -2.700003e+01
    endloop
  endfacet
  facet normal 1.000000e+00 0.000000e+00 0.000000e+00
    outer loop
      vertex 3.200000e+01 -3.000000e+01 -8.200000e+01
      vertex 3.200000e+01 -1.550000e+01 -2.700003e+01
      vertex 3.200000e+01 -1.702028e+01 -2.637031e+01
    endloop
  endfacet
  facet normal 1.000000e+00 0.000000e+00 0.000000e+00
    outer loop
      vertex 3.200000e+01 -3.000000e+01 -8.200000e+01
      vertex 3.200000e+01 -1.702028e+01 -2.637031e+01
      vertex 3.200000e+01 -1.765000e+01 -2.485003e+01
    endloop
  endfacet
  facet normal 1.000000e+00 0.000000e+00 0.000000e+00
    outer loop
      vertex 3.200000e+01 -3.000000e+01 -2.000000e+01
      vertex 3.200000e+01 -3.000000e+01 -8.200000e+01
      vertex 3.200000e+01 -1.765000e+01 -2.485003e+01
    endloop
  endfacet
  facet normal 1.000000e+00 0.000000e+00 0.000000e+00
    outer loop
      vertex 3.200000e+01 -3.000000e+01 -2.000000e+01
      vertex 3.200000e+01 -1.765000e+01 -2.485003e+01
      vertex 3.200000e+01 -1.702028e+01 -2.332975e+01
    endloop
  endfacet
  facet normal 1.000000e+00 0.000000e+00 0.000000e+00
    outer loop
      vertex 3.200000e+01 -3.000000e+01 -2.000000e+01
      vertex 3.200000e+01 -1.702028e+01 -2.332975e+01
      vertex 3.200000e+01 -1.550000e+01 -2.270003e+01
    endloop
  endfacet
  facet normal 0.000000e+00 0.000000e+00 1.000000e+00
    outer loop
      vertex 2.200000e+01 -3.000000e+01 -2.000000e+01
      vertex 3.200000e+01 -3.000000e+01 -2.000000e+01
      vertex 2.200000e+01 3.000000e+01 -2.000000e+01
    endloop
  endfacet
  facet normal -0.000000e+00 0.000000e+00 1.000000e+00
    outer loop
      vertex 2.200000e+01 3.000000e+01 -2.000000e+01
      vertex 3.200000e+01 -3.000000e+01 -2.000000e+01
      vertex 3.200000e+01 3.000000e+01 -2.000000e+01
    endloop
  endfacet
endsolid
