solid Import CV5 provisoire | OCIM07AJPN | 001 | INNOV | LCI_CONCEPT
  facet normal 0.000000e+00 3.826826e-01 9.238799e-01
    outer loop
      vertex 2.200000e+01 -1.550000e+01 -5.795003e+01
      vertex 1.900000e+01 -1.698492e+01 -5.733496e+01
      vertex 2.200000e+01 -1.698492e+01 -5.733496e+01
    endloop
  endfacet
  facet normal 0.000000e+00 9.238795e-01 3.826836e-01
    outer loop
      vertex 2.200000e+01 -1.698492e+01 -5.733496e+01
      vertex 1.900000e+01 -1.698492e+01 -5.733496e+01
      vertex 1.900000e+01 -1.760000e+01 -5.585003e+01
    endloop
  endfacet
  facet normal 0.000000e+00 9.238795e-01 3.826836e-01
    outer loop
      vertex 2.200000e+01 -1.698492e+01 -5.733496e+01
      vertex 1.900000e+01 -1.760000e+01 -5.585003e+01
      vertex 2.200000e+01 -1.760000e+01 -5.585003e+01
    endloop
  endfacet
  facet normal 0.000000e+00 3.826826e-01 9.238799e-01
    outer loop
      vertex 1.900000e+01 -1.698492e+01 -5.733496e+01
      vertex 2.200000e+01 -1.550000e+01 -5.795003e+01
      vertex 1.900000e+01 -1.550000e+01 -5.795003e+01
    endloop
  endfacet
  facet normal 0.000000e+00 -3.826826e-01 9.238799e-01
    outer loop
      vertex 1.900000e+01 -1.550000e+01 -5.795003e+01
      vertex 2.200000e+01 -1.550000e+01 -5.795003e+01
      vertex 2.200000e+01 -1.401508e+01 -5.733496e+01
    endloop
  endfacet
  facet normal 0.000000e+00 -3.826826e-01 9.238799e-01
    outer loop
      vertex 1.900000e+01 -1.550000e+01 -5.795003e+01
      vertex 2.200000e+01 -1.401508e+01 -5.733496e+01
      vertex 1.900000e+01 -1.401508e+01 -5.733496e+01
    endloop
  endfacet
  facet normal 0.000000e+00 -9.238795e-01 3.826836e-01
    outer loop
      vertex 1.900000e+01 -1.401508e+01 -5.733496e+01
      vertex 2.200000e+01 -1.401508e+01 -5.733496e+01
      vertex 2.200000e+01 -1.340000e+01 -5.585003e+01
    endloop
  endfacet
  facet normal 0.000000e+00 -9.238795e-01 3.826836e-01
    outer loop
      vertex 1.900000e+01 -1.401508e+01 -5.733496e+01
      vertex 2.200000e+01 -1.340000e+01 -5.585003e+01
      vertex 1.900000e+01 -1.340000e+01 -5.585003e+01
    endloop
  endfacet
  facet normal 0.000000e+00 -3.826846e-01 -9.238791e-01
    outer loop
      vertex 2.200000e+01 -1.550000e+01 -5.375003e+01
      vertex 1.900000e+01 -1.401508e+01 -5.436511e+01
      vertex 2.200000e+01 -1.401508e+01 -5.436511e+01
    endloop
  endfacet
  facet normal -0.000000e+00 -9.238795e-01 -3.826836e-01
    outer loop
      vertex 2.200000e+01 -1.401508e+01 -5.436511e+01
      vertex 1.900000e+01 -1.401508e+01 -5.436511e+01
      vertex 1.900000e+01 -1.340000e+01 -5.585003e+01
    endloop
  endfacet
  facet normal 0.000000e+00 -9.238795e-01 -3.826836e-01
    outer loop
      vertex 2.200000e+01 -1.401508e+01 -5.436511e+01
      vertex 1.900000e+01 -1.340000e+01 -5.585003e+01
      vertex 2.200000e+01 -1.340000e+01 -5.585003e+01
    endloop
  endfacet
  facet normal 0.000000e+00 -3.826846e-01 -9.238791e-01
    outer loop
      vertex 1.900000e+01 -1.401508e+01 -5.436511e+01
      vertex 2.200000e+01 -1.550000e+01 -5.375003e+01
      vertex 1.900000e+01 -1.550000e+01 -5.375003e+01
    endloop
  endfacet
  facet normal 0.000000e+00 3.826846e-01 -9.238791e-01
    outer loop
      vertex 1.900000e+01 -1.550000e+01 -5.375003e+01
      vertex 2.200000e+01 -1.550000e+01 -5.375003e+01
      vertex 2.200000e+01 -1.698492e+01 -5.436511e+01
    endloop
  endfacet
  facet normal 0.000000e+00 3.826846e-01 -9.238791e-01
    outer loop
      vertex 1.900000e+01 -1.550000e+01 -5.375003e+01
      vertex 2.200000e+01 -1.698492e+01 -5.436511e+01
      vertex 1.900000e+01 -1.698492e+01 -5.436511e+01
    endloop
  endfacet
  facet normal 0.000000e+00 9.238795e-01 -3.826836e-01
    outer loop
      vertex 1.900000e+01 -1.698492e+01 -5.436511e+01
      vertex 2.200000e+01 -1.698492e+01 -5.436511e+01
      vertex 2.200000e+01 -1.760000e+01 -5.585003e+01
    endloop
  endfacet
  facet normal 0.000000e+00 9.238795e-01 -3.826836e-01
    outer loop
      vertex 1.900000e+01 -1.698492e+01 -5.436511e+01
      vertex 2.200000e+01 -1.760000e+01 -5.585003e+01
      vertex 1.900000e+01 -1.760000e+01 -5.585003e+01
    endloop
  endfacet
  facet normal -1.000000e+00 0.000000e+00 0.000000e+00
    outer loop
      vertex 1.900000e+01 -1.000000e+01 -7.300000e+01
      vertex 1.900000e+01 -1.401508e+01 -5.733496e+01
      vertex 1.900000e+01 -1.340000e+01 -5.585003e+01
    endloop
  endfacet
  facet normal -1.000000e+00 0.000000e+00 0.000000e+00
    outer loop
      vertex 1.900000e+01 -1.000000e+01 -7.300000e+01
      vertex 1.900000e+01 -1.550000e+01 -5.795003e+01
      vertex 1.900000e+01 -1.401508e+01 -5.733496e+01
    endloop
  endfacet
  facet normal -1.000000e+00 0.000000e+00 -0.000000e+00
    outer loop
      vertex 1.900000e+01 -1.340000e+01 -2.485003e+01
      vertex 1.900000e+01 -1.446334e+00 -3.401300e+01
      vertex 1.900000e+01 -1.401508e+01 -2.633496e+01
    endloop
  endfacet
  facet normal -1.000000e+00 0.000000e+00 -0.000000e+00
    outer loop
      vertex 1.900000e+01 1.340000e+01 -2.485003e+01
      vertex 1.900000e+01 1.401508e+01 -2.633496e+01
      vertex 1.900000e+01 1.446438e+00 -3.401300e+01
    endloop
  endfacet
  facet normal -1.000000e+00 0.000000e+00 0.000000e+00
    outer loop
      vertex 1.900000e+01 1.000000e+01 -7.300000e+01
      vertex 1.900000e+01 1.401508e+01 -5.733496e+01
      vertex 1.900000e+01 1.550000e+01 -5.795003e+01
    endloop
  endfacet
  facet normal -1.000000e+00 0.000000e+00 0.000000e+00
    outer loop
      vertex 1.900000e+01 1.000000e+01 -5.300000e+01
      vertex 1.900000e+01 -1.000000e+01 -5.300000e+01
      vertex 1.900000e+01 -1.446334e+00 -4.668706e+01
    endloop
  endfacet
  facet normal -1.000000e+00 0.000000e+00 0.000000e+00
    outer loop
      vertex 1.900000e+01 1.000000e+01 -5.300000e+01
      vertex 1.900000e+01 -1.446334e+00 -4.668706e+01
      vertex 1.900000e+01 1.446438e+00 -4.668706e+01
    endloop
  endfacet
  facet normal -1.000000e+00 0.000000e+00 0.000000e+00
    outer loop
      vertex 1.900000e+01 1.000000e+01 -5.300000e+01
      vertex 1.900000e+01 1.446438e+00 -4.668706e+01
      vertex 1.900000e+01 1.550000e+01 -5.375003e+01
    endloop
  endfacet
  facet normal -1.000000e+00 0.000000e+00 0.000000e+00
    outer loop
      vertex 1.900000e+01 1.000000e+01 -5.300000e+01
      vertex 1.900000e+01 1.550000e+01 -5.375003e+01
      vertex 1.900000e+01 1.401508e+01 -5.436511e+01
    endloop
  endfacet
  facet normal -1.000000e+00 0.000000e+00 0.000000e+00
    outer loop
      vertex 1.900000e+01 1.000000e+01 -5.300000e+01
      vertex 1.900000e+01 1.401508e+01 -5.436511e+01
      vertex 1.900000e+01 1.340000e+01 -5.585003e+01
    endloop
  endfacet
  facet normal -1.000000e+00 0.000000e+00 0.000000e+00
    outer loop
      vertex 1.900000e+01 1.000000e+01 -5.300000e+01
      vertex 1.900000e+01 1.340000e+01 -5.585003e+01
      vertex 1.900000e+01 1.401508e+01 -5.733496e+01
    endloop
  endfacet
  facet normal -1.000000e+00 0.000000e+00 0.000000e+00
    outer loop
      vertex 1.900000e+01 1.000000e+01 -5.300000e+01
      vertex 1.900000e+01 1.401508e+01 -5.733496e+01
      vertex 1.900000e+01 1.000000e+01 -7.300000e+01
    endloop
  endfacet
  facet normal -1.000000e+00 0.000000e+00 0.000000e+00
    outer loop
      vertex 1.900000e+01 -2.000000e+01 -8.800000e+01
      vertex 1.900000e+01 -1.760000e+01 -2.485003e+01
      vertex 1.900000e+01 -1.698492e+01 -2.633496e+01
    endloop
  endfacet
  facet normal -1.000000e+00 0.000000e+00 0.000000e+00
    outer loop
      vertex 1.900000e+01 -2.000000e+01 -8.800000e+01
      vertex 1.900000e+01 -1.698492e+01 -2.633496e+01
      vertex 1.900000e+01 -1.550000e+01 -2.695003e+01
    endloop
  endfacet
  facet normal -1.000000e+00 0.000000e+00 0.000000e+00
    outer loop
      vertex 1.900000e+01 -2.000000e+01 -8.800000e+01
      vertex 1.900000e+01 -1.550000e+01 -2.695003e+01
      vertex 1.900000e+01 -1.760000e+01 -5.585003e+01
    endloop
  endfacet
  facet normal -1.000000e+00 0.000000e+00 0.000000e+00
    outer loop
      vertex 1.900000e+01 -2.000000e+01 -8.800000e+01
      vertex 1.900000e+01 -1.760000e+01 -5.585003e+01
      vertex 1.900000e+01 -1.698492e+01 -5.733496e+01
    endloop
  endfacet
  facet normal -1.000000e+00 0.000000e+00 0.000000e+00
    outer loop
      vertex 1.900000e+01 -2.000000e+01 -8.800000e+01
      vertex 1.900000e+01 -1.698492e+01 -5.733496e+01
      vertex 1.900000e+01 -1.550000e+01 -5.795003e+01
    endloop
  endfacet
  facet normal -1.000000e+00 0.000000e+00 0.000000e+00
    outer loop
      vertex 1.900000e+01 -2.000000e+01 -8.800000e+01
      vertex 1.900000e+01 -1.550000e+01 -5.795003e+01
      vertex 1.900000e+01 -1.000000e+01 -7.300000e+01
    endloop
  endfacet
  facet normal -1.000000e+00 0.000000e+00 0.000000e+00
    outer loop
      vertex 1.900000e+01 2.000000e+01 -8.800000e+01
      vertex 1.900000e+01 -2.000000e+01 -8.800000e+01
      vertex 1.900000e+01 -1.000000e+01 -7.300000e+01
    endloop
  endfacet
  facet normal -1.000000e+00 0.000000e+00 0.000000e+00
    outer loop
      vertex 1.900000e+01 2.000000e+01 -8.800000e+01
      vertex 1.900000e+01 -1.000000e+01 -7.300000e+01
      vertex 1.900000e+01 1.000000e+01 -7.300000e+01
    endloop
  endfacet
  facet normal -1.000000e+00 0.000000e+00 0.000000e+00
    outer loop
      vertex 1.900000e+01 2.000000e+01 -8.800000e+01
      vertex 1.900000e+01 1.000000e+01 -7.300000e+01
      vertex 1.900000e+01 1.550000e+01 -5.795003e+01
    endloop
  endfacet
  facet normal -1.000000e+00 0.000000e+00 0.000000e+00
    outer loop
      vertex 1.900000e+01 2.000000e+01 -8.800000e+01
      vertex 1.900000e+01 1.550000e+01 -5.795003e+01
      vertex 1.900000e+01 1.698492e+01 -5.733496e+01
    endloop
  endfacet
  facet normal -1.000000e+00 0.000000e+00 0.000000e+00
    outer loop
      vertex 1.900000e+01 2.000000e+01 -8.800000e+01
      vertex 1.900000e+01 1.698492e+01 -5.733496e+01
      vertex 1.900000e+01 1.760000e+01 -5.585003e+01
    endloop
  endfacet
  facet normal -1.000000e+00 0.000000e+00 0.000000e+00
    outer loop
      vertex 1.900000e+01 2.000000e+01 -8.800000e+01
      vertex 1.900000e+01 1.760000e+01 -5.585003e+01
      vertex 1.900000e+01 1.550000e+01 -2.695003e+01
    endloop
  endfacet
  facet normal -1.000000e+00 0.000000e+00 0.000000e+00
    outer loop
      vertex 1.900000e+01 2.000000e+01 -8.800000e+01
      vertex 1.900000e+01 1.550000e+01 -2.695003e+01
      vertex 1.900000e+01 1.698492e+01 -2.633496e+01
    endloop
  endfacet
  facet normal -1.000000e+00 0.000000e+00 0.000000e+00
    outer loop
      vertex 1.900000e+01 2.000000e+01 -8.800000e+01
      vertex 1.900000e+01 1.698492e+01 -2.633496e+01
      vertex 1.900000e+01 1.760000e+01 -2.485003e+01
    endloop
  endfacet
  facet normal -1.000000e+00 0.000000e+00 0.000000e+00
    outer loop
      vertex 1.900000e+01 2.000000e+01 -8.800000e+01
      vertex 1.900000e+01 1.760000e+01 -2.485003e+01
      vertex 1.900000e+01 2.000000e+01 -1.900000e+01
    endloop
  endfacet
  facet normal -1.000000e+00 0.000000e+00 0.000000e+00
    outer loop
      vertex 1.900000e+01 1.401508e+01 -2.336511e+01
      vertex 1.900000e+01 1.340000e+01 -2.485003e+01
      vertex 1.900000e+01 1.446438e+00 -3.401300e+01
    endloop
  endfacet
  facet normal -1.000000e+00 0.000000e+00 0.000000e+00
    outer loop
      vertex 1.900000e+01 1.401508e+01 -2.336511e+01
      vertex 1.900000e+01 1.446438e+00 -3.401300e+01
      vertex 1.900000e+01 -1.446334e+00 -3.401300e+01
    endloop
  endfacet
  facet normal -1.000000e+00 0.000000e+00 0.000000e+00
    outer loop
      vertex 1.900000e+01 1.401508e+01 -2.336511e+01
      vertex 1.900000e+01 -1.446334e+00 -3.401300e+01
      vertex 1.900000e+01 -1.340000e+01 -2.485003e+01
    endloop
  endfacet
  facet normal -1.000000e+00 -0.000000e+00 0.000000e+00
    outer loop
      vertex 1.900000e+01 1.401508e+01 -2.336511e+01
      vertex 1.900000e+01 -1.340000e+01 -2.485003e+01
      vertex 1.900000e+01 -1.401508e+01 -2.336511e+01
    endloop
  endfacet
  facet normal -1.000000e+00 0.000000e+00 0.000000e+00
    outer loop
      vertex 1.900000e+01 2.000000e+01 -1.900000e+01
      vertex 1.900000e+01 1.760000e+01 -2.485003e+01
      vertex 1.900000e+01 1.698492e+01 -2.336511e+01
    endloop
  endfacet
  facet normal -1.000000e+00 0.000000e+00 0.000000e+00
    outer loop
      vertex 1.900000e+01 2.000000e+01 -1.900000e+01
      vertex 1.900000e+01 1.698492e+01 -2.336511e+01
      vertex 1.900000e+01 1.550000e+01 -2.275003e+01
    endloop
  endfacet
  facet normal -1.000000e+00 0.000000e+00 0.000000e+00
    outer loop
      vertex 1.900000e+01 2.000000e+01 -1.900000e+01
      vertex 1.900000e+01 1.550000e+01 -2.275003e+01
      vertex 1.900000e+01 1.401508e+01 -2.336511e+01
    endloop
  endfacet
  facet normal -1.000000e+00 0.000000e+00 0.000000e+00
    outer loop
      vertex 1.900000e+01 2.000000e+01 -1.900000e+01
      vertex 1.900000e+01 1.401508e+01 -2.336511e+01
      vertex 1.900000e+01 -1.401508e+01 -2.336511e+01
    endloop
  endfacet
  facet normal -1.000000e+00 0.000000e+00 0.000000e+00
    outer loop
      vertex 1.900000e+01 2.000000e+01 -1.900000e+01
      vertex 1.900000e+01 -1.401508e+01 -2.336511e+01
      vertex 1.900000e+01 -1.550000e+01 -2.275003e+01
    endloop
  endfacet
  facet normal -1.000000e+00 -0.000000e+00 0.000000e+00
    outer loop
      vertex 1.900000e+01 2.000000e+01 -1.900000e+01
      vertex 1.900000e+01 -1.550000e+01 -2.275003e+01
      vertex 1.900000e+01 -2.000000e+01 -1.900000e+01
    endloop
  endfacet
  facet normal -1.000000e+00 0.000000e+00 0.000000e+00
    outer loop
      vertex 1.900000e+01 1.550000e+01 -5.375003e+01
      vertex 1.900000e+01 1.446438e+00 -4.668706e+01
      vertex 1.900000e+01 4.052735e+00 -4.543193e+01
    endloop
  endfacet
  facet normal -1.000000e+00 0.000000e+00 0.000000e+00
    outer loop
      vertex 1.900000e+01 1.550000e+01 -5.375003e+01
      vertex 1.900000e+01 4.052735e+00 -4.543193e+01
      vertex 1.900000e+01 5.856349e+00 -4.317028e+01
    endloop
  endfacet
  facet normal -1.000000e+00 0.000000e+00 0.000000e+00
    outer loop
      vertex 1.900000e+01 1.550000e+01 -5.375003e+01
      vertex 1.900000e+01 5.856349e+00 -4.317028e+01
      vertex 1.900000e+01 6.500051e+00 -4.035003e+01
    endloop
  endfacet
  facet normal -1.000000e+00 0.000000e+00 0.000000e+00
    outer loop
      vertex 1.900000e+01 1.550000e+01 -5.375003e+01
      vertex 1.900000e+01 6.500051e+00 -4.035003e+01
      vertex 1.900000e+01 5.856349e+00 -3.752979e+01
    endloop
  endfacet
  facet normal -1.000000e+00 0.000000e+00 0.000000e+00
    outer loop
      vertex 1.900000e+01 1.550000e+01 -2.695003e+01
      vertex 1.900000e+01 1.760000e+01 -5.585003e+01
      vertex 1.900000e+01 1.698492e+01 -5.436511e+01
    endloop
  endfacet
  facet normal -1.000000e+00 0.000000e+00 0.000000e+00
    outer loop
      vertex 1.900000e+01 1.550000e+01 -2.695003e+01
      vertex 1.900000e+01 1.698492e+01 -5.436511e+01
      vertex 1.900000e+01 1.550000e+01 -5.375003e+01
    endloop
  endfacet
  facet normal -1.000000e+00 0.000000e+00 -0.000000e+00
    outer loop
      vertex 1.900000e+01 1.550000e+01 -2.695003e+01
      vertex 1.900000e+01 1.550000e+01 -5.375003e+01
      vertex 1.900000e+01 5.856349e+00 -3.752979e+01
    endloop
  endfacet
  facet normal -1.000000e+00 0.000000e+00 0.000000e+00
    outer loop
      vertex 1.900000e+01 1.550000e+01 -2.695003e+01
      vertex 1.900000e+01 5.856349e+00 -3.752979e+01
      vertex 1.900000e+01 4.052735e+00 -3.526813e+01
    endloop
  endfacet
  facet normal -1.000000e+00 0.000000e+00 0.000000e+00
    outer loop
      vertex 1.900000e+01 1.550000e+01 -2.695003e+01
      vertex 1.900000e+01 4.052735e+00 -3.526813e+01
      vertex 1.900000e+01 1.446438e+00 -3.401300e+01
    endloop
  endfacet
  facet normal -1.000000e+00 -0.000000e+00 0.000000e+00
    outer loop
      vertex 1.900000e+01 1.550000e+01 -2.695003e+01
      vertex 1.900000e+01 1.446438e+00 -3.401300e+01
      vertex 1.900000e+01 1.401508e+01 -2.633496e+01
    endloop
  endfacet
  facet normal -1.000000e+00 0.000000e+00 0.000000e+00
    outer loop
      vertex 1.900000e+01 -1.550000e+01 -5.375003e+01
      vertex 1.900000e+01 -5.856246e+00 -3.752979e+01
      vertex 1.900000e+01 -6.499949e+00 -4.035003e+01
    endloop
  endfacet
  facet normal -1.000000e+00 0.000000e+00 0.000000e+00
    outer loop
      vertex 1.900000e+01 -1.550000e+01 -5.375003e+01
      vertex 1.900000e+01 -6.499949e+00 -4.035003e+01
      vertex 1.900000e+01 -5.856246e+00 -4.317028e+01
    endloop
  endfacet
  facet normal -1.000000e+00 0.000000e+00 0.000000e+00
    outer loop
      vertex 1.900000e+01 -1.550000e+01 -5.375003e+01
      vertex 1.900000e+01 -5.856246e+00 -4.317028e+01
      vertex 1.900000e+01 -4.052632e+00 -4.543193e+01
    endloop
  endfacet
  facet normal -1.000000e+00 0.000000e+00 0.000000e+00
    outer loop
      vertex 1.900000e+01 -1.550000e+01 -5.375003e+01
      vertex 1.900000e+01 -4.052632e+00 -4.543193e+01
      vertex 1.900000e+01 -1.446334e+00 -4.668706e+01
    endloop
  endfacet
  facet normal -1.000000e+00 0.000000e+00 0.000000e+00
    outer loop
      vertex 1.900000e+01 -1.550000e+01 -5.375003e+01
      vertex 1.900000e+01 -1.446334e+00 -4.668706e+01
      vertex 1.900000e+01 -1.000000e+01 -5.300000e+01
    endloop
  endfacet
  facet normal -1.000000e+00 0.000000e+00 0.000000e+00
    outer loop
      vertex 1.900000e+01 -1.550000e+01 -2.695003e+01
      vertex 1.900000e+01 -1.401508e+01 -2.633496e+01
      vertex 1.900000e+01 -1.446334e+00 -3.401300e+01
    endloop
  endfacet
  facet normal -1.000000e+00 0.000000e+00 0.000000e+00
    outer loop
      vertex 1.900000e+01 -1.550000e+01 -2.695003e+01
      vertex 1.900000e+01 -1.446334e+00 -3.401300e+01
      vertex 1.900000e+01 -4.052632e+00 -3.526813e+01
    endloop
  endfacet
  facet normal -1.000000e+00 0.000000e+00 0.000000e+00
    outer loop
      vertex 1.900000e+01 -1.550000e+01 -2.695003e+01
      vertex 1.900000e+01 -4.052632e+00 -3.526813e+01
      vertex 1.900000e+01 -5.856246e+00 -3.752979e+01
    endloop
  endfacet
  facet normal -1.000000e+00 0.000000e+00 0.000000e+00
    outer loop
      vertex 1.900000e+01 -1.550000e+01 -2.695003e+01
      vertex 1.900000e+01 -5.856246e+00 -3.752979e+01
      vertex 1.900000e+01 -1.550000e+01 -5.375003e+01
    endloop
  endfacet
  facet normal -1.000000e+00 0.000000e+00 -0.000000e+00
    outer loop
      vertex 1.900000e+01 -1.550000e+01 -2.695003e+01
      vertex 1.900000e+01 -1.550000e+01 -5.375003e+01
      vertex 1.900000e+01 -1.698492e+01 -5.436511e+01
    endloop
  endfacet
  facet normal -1.000000e+00 0.000000e+00 0.000000e+00
    outer loop
      vertex 1.900000e+01 -1.550000e+01 -2.695003e+01
      vertex 1.900000e+01 -1.698492e+01 -5.436511e+01
      vertex 1.900000e+01 -1.760000e+01 -5.585003e+01
    endloop
  endfacet
  facet normal -1.000000e+00 0.000000e+00 -0.000000e+00
    outer loop
      vertex 1.900000e+01 -1.000000e+01 -5.300000e+01
      vertex 1.900000e+01 -1.000000e+01 -7.300000e+01
      vertex 1.900000e+01 -1.340000e+01 -5.585003e+01
    endloop
  endfacet
  facet normal -1.000000e+00 0.000000e+00 0.000000e+00
    outer loop
      vertex 1.900000e+01 -1.000000e+01 -5.300000e+01
      vertex 1.900000e+01 -1.340000e+01 -5.585003e+01
      vertex 1.900000e+01 -1.401508e+01 -5.436511e+01
    endloop
  endfacet
  facet normal -1.000000e+00 0.000000e+00 0.000000e+00
    outer loop
      vertex 1.900000e+01 -1.000000e+01 -5.300000e+01
      vertex 1.900000e+01 -1.401508e+01 -5.436511e+01
      vertex 1.900000e+01 -1.550000e+01 -5.375003e+01
    endloop
  endfacet
  facet normal -1.000000e+00 0.000000e+00 0.000000e+00
    outer loop
      vertex 1.900000e+01 -2.000000e+01 -1.900000e+01
      vertex 1.900000e+01 -1.550000e+01 -2.275003e+01
      vertex 1.900000e+01 -1.698492e+01 -2.336511e+01
    endloop
  endfacet
  facet normal -1.000000e+00 0.000000e+00 0.000000e+00
    outer loop
      vertex 1.900000e+01 -2.000000e+01 -1.900000e+01
      vertex 1.900000e+01 -1.698492e+01 -2.336511e+01
      vertex 1.900000e+01 -1.760000e+01 -2.485003e+01
    endloop
  endfacet
  facet normal -1.000000e+00 0.000000e+00 0.000000e+00
    outer loop
      vertex 1.900000e+01 -2.000000e+01 -1.900000e+01
      vertex 1.900000e+01 -1.760000e+01 -2.485003e+01
      vertex 1.900000e+01 -2.000000e+01 -8.800000e+01
    endloop
  endfacet
  facet normal 0.000000e+00 -3.826836e-01 -9.238795e-01
    outer loop
      vertex 2.200000e+01 -1.550000e+01 -2.275003e+01
      vertex 1.900000e+01 -1.401508e+01 -2.336511e+01
      vertex 2.200000e+01 -1.401508e+01 -2.336511e+01
    endloop
  endfacet
  facet normal -0.000000e+00 -9.238795e-01 -3.826836e-01
    outer loop
      vertex 2.200000e+01 -1.401508e+01 -2.336511e+01
      vertex 1.900000e+01 -1.401508e+01 -2.336511e+01
      vertex 1.900000e+01 -1.340000e+01 -2.485003e+01
    endloop
  endfacet
  facet normal 0.000000e+00 -9.238795e-01 -3.826836e-01
    outer loop
      vertex 2.200000e+01 -1.401508e+01 -2.336511e+01
      vertex 1.900000e+01 -1.340000e+01 -2.485003e+01
      vertex 2.200000e+01 -1.340000e+01 -2.485003e+01
    endloop
  endfacet
  facet normal 0.000000e+00 -3.826836e-01 -9.238795e-01
    outer loop
      vertex 1.900000e+01 -1.401508e+01 -2.336511e+01
      vertex 2.200000e+01 -1.550000e+01 -2.275003e+01
      vertex 1.900000e+01 -1.550000e+01 -2.275003e+01
    endloop
  endfacet
  facet normal 0.000000e+00 3.826836e-01 -9.238795e-01
    outer loop
      vertex 1.900000e+01 -1.550000e+01 -2.275003e+01
      vertex 2.200000e+01 -1.550000e+01 -2.275003e+01
      vertex 2.200000e+01 -1.698492e+01 -2.336511e+01
    endloop
  endfacet
  facet normal 0.000000e+00 3.826836e-01 -9.238795e-01
    outer loop
      vertex 1.900000e+01 -1.550000e+01 -2.275003e+01
      vertex 2.200000e+01 -1.698492e+01 -2.336511e+01
      vertex 1.900000e+01 -1.698492e+01 -2.336511e+01
    endloop
  endfacet
  facet normal 0.000000e+00 9.238795e-01 -3.826836e-01
    outer loop
      vertex 1.900000e+01 -1.698492e+01 -2.336511e+01
      vertex 2.200000e+01 -1.698492e+01 -2.336511e+01
      vertex 2.200000e+01 -1.760000e+01 -2.485003e+01
    endloop
  endfacet
  facet normal 0.000000e+00 9.238795e-01 -3.826836e-01
    outer loop
      vertex 1.900000e+01 -1.698492e+01 -2.336511e+01
      vertex 2.200000e+01 -1.760000e+01 -2.485003e+01
      vertex 1.900000e+01 -1.760000e+01 -2.485003e+01
    endloop
  endfacet
  facet normal 0.000000e+00 3.826836e-01 9.238795e-01
    outer loop
      vertex 2.200000e+01 -1.550000e+01 -2.695003e+01
      vertex 1.900000e+01 -1.698492e+01 -2.633496e+01
      vertex 2.200000e+01 -1.698492e+01 -2.633496e+01
    endloop
  endfacet
  facet normal 0.000000e+00 9.238795e-01 3.826836e-01
    outer loop
      vertex 2.200000e+01 -1.698492e+01 -2.633496e+01
      vertex 1.900000e+01 -1.698492e+01 -2.633496e+01
      vertex 1.900000e+01 -1.760000e+01 -2.485003e+01
    endloop
  endfacet
  facet normal 0.000000e+00 9.238795e-01 3.826836e-01
    outer loop
      vertex 2.200000e+01 -1.698492e+01 -2.633496e+01
      vertex 1.900000e+01 -1.760000e+01 -2.485003e+01
      vertex 2.200000e+01 -1.760000e+01 -2.485003e+01
    endloop
  endfacet
  facet normal 0.000000e+00 3.826836e-01 9.238795e-01
    outer loop
      vertex 1.900000e+01 -1.698492e+01 -2.633496e+01
      vertex 2.200000e+01 -1.550000e+01 -2.695003e+01
      vertex 1.900000e+01 -1.550000e+01 -2.695003e+01
    endloop
  endfacet
  facet normal 0.000000e+00 -3.826836e-01 9.238795e-01
    outer loop
      vertex 1.900000e+01 -1.550000e+01 -2.695003e+01
      vertex 2.200000e+01 -1.550000e+01 -2.695003e+01
      vertex 2.200000e+01 -1.401508e+01 -2.633496e+01
    endloop
  endfacet
  facet normal 0.000000e+00 -3.826836e-01 9.238795e-01
    outer loop
      vertex 1.900000e+01 -1.550000e+01 -2.695003e+01
      vertex 2.200000e+01 -1.401508e+01 -2.633496e+01
      vertex 1.900000e+01 -1.401508e+01 -2.633496e+01
    endloop
  endfacet
  facet normal 0.000000e+00 -9.238795e-01 3.826836e-01
    outer loop
      vertex 1.900000e+01 -1.401508e+01 -2.633496e+01
      vertex 2.200000e+01 -1.401508e+01 -2.633496e+01
      vertex 2.200000e+01 -1.340000e+01 -2.485003e+01
    endloop
  endfacet
  facet normal 0.000000e+00 -9.238795e-01 3.826836e-01
    outer loop
      vertex 1.900000e+01 -1.401508e+01 -2.633496e+01
      vertex 2.200000e+01 -1.340000e+01 -2.485003e+01
      vertex 1.900000e+01 -1.340000e+01 -2.485003e+01
    endloop
  endfacet
  facet normal 1.000000e+00 0.000000e+00 0.000000e+00
    outer loop
      vertex 2.200000e+01 -1.340000e+01 -5.585003e+01
      vertex 2.200000e+01 -1.401508e+01 -5.733496e+01
      vertex 2.200000e+01 -1.000000e+01 -7.300000e+01
    endloop
  endfacet
  facet normal 1.000000e+00 0.000000e+00 0.000000e+00
    outer loop
      vertex 2.200000e+01 -1.401508e+01 -5.733496e+01
      vertex 2.200000e+01 -1.550000e+01 -5.795003e+01
      vertex 2.200000e+01 -1.000000e+01 -7.300000e+01
    endloop
  endfacet
  facet normal 1.000000e+00 -0.000000e+00 0.000000e+00
    outer loop
      vertex 2.200000e+01 -1.401508e+01 -2.633496e+01
      vertex 2.200000e+01 -1.446334e+00 -3.401300e+01
      vertex 2.200000e+01 -1.340000e+01 -2.485003e+01
    endloop
  endfacet
  facet normal 1.000000e+00 0.000000e+00 0.000000e+00
    outer loop
      vertex 2.200000e+01 1.446438e+00 -3.401300e+01
      vertex 2.200000e+01 1.401508e+01 -2.633496e+01
      vertex 2.200000e+01 1.340000e+01 -2.485003e+01
    endloop
  endfacet
  facet normal 1.000000e+00 0.000000e+00 0.000000e+00
    outer loop
      vertex 2.200000e+01 1.550000e+01 -5.795003e+01
      vertex 2.200000e+01 1.401508e+01 -5.733496e+01
      vertex 2.200000e+01 1.000000e+01 -7.300000e+01
    endloop
  endfacet
  facet normal 1.000000e+00 0.000000e+00 0.000000e+00
    outer loop
      vertex 2.200000e+01 1.000000e+01 -5.300000e+01
      vertex 2.200000e+01 1.000000e+01 -7.300000e+01
      vertex 2.200000e+01 1.401508e+01 -5.733496e+01
    endloop
  endfacet
  facet normal 1.000000e+00 0.000000e+00 0.000000e+00
    outer loop
      vertex 2.200000e+01 1.000000e+01 -5.300000e+01
      vertex 2.200000e+01 1.401508e+01 -5.733496e+01
      vertex 2.200000e+01 1.340000e+01 -5.585003e+01
    endloop
  endfacet
  facet normal 1.000000e+00 0.000000e+00 0.000000e+00
    outer loop
      vertex 2.200000e+01 1.000000e+01 -5.300000e+01
      vertex 2.200000e+01 1.340000e+01 -5.585003e+01
      vertex 2.200000e+01 1.401508e+01 -5.436511e+01
    endloop
  endfacet
  facet normal 1.000000e+00 0.000000e+00 0.000000e+00
    outer loop
      vertex 2.200000e+01 1.000000e+01 -5.300000e+01
      vertex 2.200000e+01 1.401508e+01 -5.436511e+01
      vertex 2.200000e+01 1.550000e+01 -5.375003e+01
    endloop
  endfacet
  facet normal 1.000000e+00 -0.000000e+00 -0.000000e+00
    outer loop
      vertex 2.200000e+01 1.000000e+01 -5.300000e+01
      vertex 2.200000e+01 1.550000e+01 -5.375003e+01
      vertex 2.200000e+01 1.446438e+00 -4.668706e+01
    endloop
  endfacet
  facet normal 1.000000e+00 0.000000e+00 0.000000e+00
    outer loop
      vertex 2.200000e+01 1.000000e+01 -5.300000e+01
      vertex 2.200000e+01 1.446438e+00 -4.668706e+01
      vertex 2.200000e+01 -1.446334e+00 -4.668706e+01
    endloop
  endfacet
  facet normal 1.000000e+00 0.000000e+00 0.000000e+00
    outer loop
      vertex 2.200000e+01 1.000000e+01 -5.300000e+01
      vertex 2.200000e+01 -1.446334e+00 -4.668706e+01
      vertex 2.200000e+01 -1.000000e+01 -5.300000e+01
    endloop
  endfacet
  facet normal 1.000000e+00 0.000000e+00 0.000000e+00
    outer loop
      vertex 2.200000e+01 -2.000000e+01 -8.800000e+01
      vertex 2.200000e+01 -1.000000e+01 -7.300000e+01
      vertex 2.200000e+01 -1.550000e+01 -5.795003e+01
    endloop
  endfacet
  facet normal 1.000000e+00 0.000000e+00 0.000000e+00
    outer loop
      vertex 2.200000e+01 -2.000000e+01 -8.800000e+01
      vertex 2.200000e+01 -1.550000e+01 -5.795003e+01
      vertex 2.200000e+01 -1.698492e+01 -5.733496e+01
    endloop
  endfacet
  facet normal 1.000000e+00 0.000000e+00 0.000000e+00
    outer loop
      vertex 2.200000e+01 -2.000000e+01 -8.800000e+01
      vertex 2.200000e+01 -1.698492e+01 -5.733496e+01
      vertex 2.200000e+01 -1.760000e+01 -5.585003e+01
    endloop
  endfacet
  facet normal 1.000000e+00 0.000000e+00 0.000000e+00
    outer loop
      vertex 2.200000e+01 -2.000000e+01 -8.800000e+01
      vertex 2.200000e+01 -1.760000e+01 -5.585003e+01
      vertex 2.200000e+01 -1.550000e+01 -2.695003e+01
    endloop
  endfacet
  facet normal 1.000000e+00 0.000000e+00 0.000000e+00
    outer loop
      vertex 2.200000e+01 -2.000000e+01 -8.800000e+01
      vertex 2.200000e+01 -1.550000e+01 -2.695003e+01
      vertex 2.200000e+01 -1.698492e+01 -2.633496e+01
    endloop
  endfacet
  facet normal 1.000000e+00 0.000000e+00 0.000000e+00
    outer loop
      vertex 2.200000e+01 -2.000000e+01 -8.800000e+01
      vertex 2.200000e+01 -1.698492e+01 -2.633496e+01
      vertex 2.200000e+01 -1.760000e+01 -2.485003e+01
    endloop
  endfacet
  facet normal 1.000000e+00 0.000000e+00 -0.000000e+00
    outer loop
      vertex 2.200000e+01 2.000000e+01 -8.800000e+01
      vertex 2.200000e+01 2.000000e+01 -1.900000e+01
      vertex 2.200000e+01 1.760000e+01 -2.485003e+01
    endloop
  endfacet
  facet normal 1.000000e+00 0.000000e+00 0.000000e+00
    outer loop
      vertex 2.200000e+01 2.000000e+01 -8.800000e+01
      vertex 2.200000e+01 1.760000e+01 -2.485003e+01
      vertex 2.200000e+01 1.698492e+01 -2.633496e+01
    endloop
  endfacet
  facet normal 1.000000e+00 0.000000e+00 0.000000e+00
    outer loop
      vertex 2.200000e+01 2.000000e+01 -8.800000e+01
      vertex 2.200000e+01 1.698492e+01 -2.633496e+01
      vertex 2.200000e+01 1.550000e+01 -2.695003e+01
    endloop
  endfacet
  facet normal 1.000000e+00 0.000000e+00 0.000000e+00
    outer loop
      vertex 2.200000e+01 2.000000e+01 -8.800000e+01
      vertex 2.200000e+01 1.550000e+01 -2.695003e+01
      vertex 2.200000e+01 1.760000e+01 -5.585003e+01
    endloop
  endfacet
  facet normal 1.000000e+00 0.000000e+00 0.000000e+00
    outer loop
      vertex 2.200000e+01 2.000000e+01 -8.800000e+01
      vertex 2.200000e+01 1.760000e+01 -5.585003e+01
      vertex 2.200000e+01 1.698492e+01 -5.733496e+01
    endloop
  endfacet
  facet normal 1.000000e+00 0.000000e+00 0.000000e+00
    outer loop
      vertex 2.200000e+01 2.000000e+01 -8.800000e+01
      vertex 2.200000e+01 1.698492e+01 -5.733496e+01
      vertex 2.200000e+01 1.550000e+01 -5.795003e+01
    endloop
  endfacet
  facet normal 1.000000e+00 0.000000e+00 0.000000e+00
    outer loop
      vertex 2.200000e+01 2.000000e+01 -8.800000e+01
      vertex 2.200000e+01 1.550000e+01 -5.795003e+01
      vertex 2.200000e+01 1.000000e+01 -7.300000e+01
    endloop
  endfacet
  facet normal 1.000000e+00 0.000000e+00 0.000000e+00
    outer loop
      vertex 2.200000e+01 2.000000e+01 -8.800000e+01
      vertex 2.200000e+01 1.000000e+01 -7.300000e+01
      vertex 2.200000e+01 -1.000000e+01 -7.300000e+01
    endloop
  endfacet
  facet normal 1.000000e+00 0.000000e+00 0.000000e+00
    outer loop
      vertex 2.200000e+01 2.000000e+01 -8.800000e+01
      vertex 2.200000e+01 -1.000000e+01 -7.300000e+01
      vertex 2.200000e+01 -2.000000e+01 -8.800000e+01
    endloop
  endfacet
  facet normal 1.000000e+00 0.000000e+00 0.000000e+00
    outer loop
      vertex 2.200000e+01 1.401508e+01 -2.336511e+01
      vertex 2.200000e+01 -1.401508e+01 -2.336511e+01
      vertex 2.200000e+01 -1.340000e+01 -2.485003e+01
    endloop
  endfacet
  facet normal 1.000000e+00 0.000000e+00 0.000000e+00
    outer loop
      vertex 2.200000e+01 1.401508e+01 -2.336511e+01
      vertex 2.200000e+01 -1.340000e+01 -2.485003e+01
      vertex 2.200000e+01 -1.446334e+00 -3.401300e+01
    endloop
  endfacet
  facet normal 1.000000e+00 0.000000e+00 0.000000e+00
    outer loop
      vertex 2.200000e+01 1.401508e+01 -2.336511e+01
      vertex 2.200000e+01 -1.446334e+00 -3.401300e+01
      vertex 2.200000e+01 1.446438e+00 -3.401300e+01
    endloop
  endfacet
  facet normal 1.000000e+00 0.000000e+00 0.000000e+00
    outer loop
      vertex 2.200000e+01 1.401508e+01 -2.336511e+01
      vertex 2.200000e+01 1.446438e+00 -3.401300e+01
      vertex 2.200000e+01 1.340000e+01 -2.485003e+01
    endloop
  endfacet
  facet normal 1.000000e+00 0.000000e+00 0.000000e+00
    outer loop
      vertex 2.200000e+01 2.000000e+01 -1.900000e+01
      vertex 2.200000e+01 -2.000000e+01 -1.900000e+01
      vertex 2.200000e+01 -1.550000e+01 -2.275003e+01
    endloop
  endfacet
  facet normal 1.000000e+00 0.000000e+00 0.000000e+00
    outer loop
      vertex 2.200000e+01 2.000000e+01 -1.900000e+01
      vertex 2.200000e+01 -1.550000e+01 -2.275003e+01
      vertex 2.200000e+01 -1.401508e+01 -2.336511e+01
    endloop
  endfacet
  facet normal 1.000000e+00 0.000000e+00 0.000000e+00
    outer loop
      vertex 2.200000e+01 2.000000e+01 -1.900000e+01
      vertex 2.200000e+01 -1.401508e+01 -2.336511e+01
      vertex 2.200000e+01 1.401508e+01 -2.336511e+01
    endloop
  endfacet
  facet normal 1.000000e+00 0.000000e+00 0.000000e+00
    outer loop
      vertex 2.200000e+01 2.000000e+01 -1.900000e+01
      vertex 2.200000e+01 1.401508e+01 -2.336511e+01
      vertex 2.200000e+01 1.550000e+01 -2.275003e+01
    endloop
  endfacet
  facet normal 1.000000e+00 0.000000e+00 0.000000e+00
    outer loop
      vertex 2.200000e+01 2.000000e+01 -1.900000e+01
      vertex 2.200000e+01 1.550000e+01 -2.275003e+01
      vertex 2.200000e+01 1.698492e+01 -2.336511e+01
    endloop
  endfacet
  facet normal 1.000000e+00 0.000000e+00 0.000000e+00
    outer loop
      vertex 2.200000e+01 2.000000e+01 -1.900000e+01
      vertex 2.200000e+01 1.698492e+01 -2.336511e+01
      vertex 2.200000e+01 1.760000e+01 -2.485003e+01
    endloop
  endfacet
  facet normal 1.000000e+00 0.000000e+00 0.000000e+00
    outer loop
      vertex 2.200000e+01 1.550000e+01 -5.375003e+01
      vertex 2.200000e+01 5.856349e+00 -3.752979e+01
      vertex 2.200000e+01 6.500051e+00 -4.035003e+01
    endloop
  endfacet
  facet normal 1.000000e+00 0.000000e+00 0.000000e+00
    outer loop
      vertex 2.200000e+01 1.550000e+01 -5.375003e+01
      vertex 2.200000e+01 6.500051e+00 -4.035003e+01
      vertex 2.200000e+01 5.856349e+00 -4.317028e+01
    endloop
  endfacet
  facet normal 1.000000e+00 0.000000e+00 0.000000e+00
    outer loop
      vertex 2.200000e+01 1.550000e+01 -5.375003e+01
      vertex 2.200000e+01 5.856349e+00 -4.317028e+01
      vertex 2.200000e+01 4.052735e+00 -4.543193e+01
    endloop
  endfacet
  facet normal 1.000000e+00 0.000000e+00 0.000000e+00
    outer loop
      vertex 2.200000e+01 1.550000e+01 -5.375003e+01
      vertex 2.200000e+01 4.052735e+00 -4.543193e+01
      vertex 2.200000e+01 1.446438e+00 -4.668706e+01
    endloop
  endfacet
  facet normal 1.000000e+00 0.000000e+00 0.000000e+00
    outer loop
      vertex 2.200000e+01 1.550000e+01 -2.695003e+01
      vertex 2.200000e+01 1.401508e+01 -2.633496e+01
      vertex 2.200000e+01 1.446438e+00 -3.401300e+01
    endloop
  endfacet
  facet normal 1.000000e+00 0.000000e+00 0.000000e+00
    outer loop
      vertex 2.200000e+01 1.550000e+01 -2.695003e+01
      vertex 2.200000e+01 1.446438e+00 -3.401300e+01
      vertex 2.200000e+01 4.052735e+00 -3.526813e+01
    endloop
  endfacet
  facet normal 1.000000e+00 0.000000e+00 0.000000e+00
    outer loop
      vertex 2.200000e+01 1.550000e+01 -2.695003e+01
      vertex 2.200000e+01 4.052735e+00 -3.526813e+01
      vertex 2.200000e+01 5.856349e+00 -3.752979e+01
    endloop
  endfacet
  facet normal 1.000000e+00 0.000000e+00 0.000000e+00
    outer loop
      vertex 2.200000e+01 1.550000e+01 -2.695003e+01
      vertex 2.200000e+01 5.856349e+00 -3.752979e+01
      vertex 2.200000e+01 1.550000e+01 -5.375003e+01
    endloop
  endfacet
  facet normal 1.000000e+00 0.000000e+00 0.000000e+00
    outer loop
      vertex 2.200000e+01 1.550000e+01 -2.695003e+01
      vertex 2.200000e+01 1.550000e+01 -5.375003e+01
      vertex 2.200000e+01 1.698492e+01 -5.436511e+01
    endloop
  endfacet
  facet normal 1.000000e+00 0.000000e+00 0.000000e+00
    outer loop
      vertex 2.200000e+01 1.550000e+01 -2.695003e+01
      vertex 2.200000e+01 1.698492e+01 -5.436511e+01
      vertex 2.200000e+01 1.760000e+01 -5.585003e+01
    endloop
  endfacet
  facet normal 1.000000e+00 0.000000e+00 0.000000e+00
    outer loop
      vertex 2.200000e+01 -1.550000e+01 -5.375003e+01
      vertex 2.200000e+01 -1.000000e+01 -5.300000e+01
      vertex 2.200000e+01 -1.446334e+00 -4.668706e+01
    endloop
  endfacet
  facet normal 1.000000e+00 0.000000e+00 0.000000e+00
    outer loop
      vertex 2.200000e+01 -1.550000e+01 -5.375003e+01
      vertex 2.200000e+01 -1.446334e+00 -4.668706e+01
      vertex 2.200000e+01 -4.052632e+00 -4.543193e+01
    endloop
  endfacet
  facet normal 1.000000e+00 0.000000e+00 0.000000e+00
    outer loop
      vertex 2.200000e+01 -1.550000e+01 -5.375003e+01
      vertex 2.200000e+01 -4.052632e+00 -4.543193e+01
      vertex 2.200000e+01 -5.856246e+00 -4.317028e+01
    endloop
  endfacet
  facet normal 1.000000e+00 0.000000e+00 0.000000e+00
    outer loop
      vertex 2.200000e+01 -1.550000e+01 -5.375003e+01
      vertex 2.200000e+01 -5.856246e+00 -4.317028e+01
      vertex 2.200000e+01 -6.499949e+00 -4.035003e+01
    endloop
  endfacet
  facet normal 1.000000e+00 0.000000e+00 0.000000e+00
    outer loop
      vertex 2.200000e+01 -1.550000e+01 -5.375003e+01
      vertex 2.200000e+01 -6.499949e+00 -4.035003e+01
      vertex 2.200000e+01 -5.856246e+00 -3.752979e+01
    endloop
  endfacet
  facet normal 1.000000e+00 0.000000e+00 0.000000e+00
    outer loop
      vertex 2.200000e+01 -1.550000e+01 -2.695003e+01
      vertex 2.200000e+01 -1.760000e+01 -5.585003e+01
      vertex 2.200000e+01 -1.698492e+01 -5.436511e+01
    endloop
  endfacet
  facet normal 1.000000e+00 0.000000e+00 0.000000e+00
    outer loop
      vertex 2.200000e+01 -1.550000e+01 -2.695003e+01
      vertex 2.200000e+01 -1.698492e+01 -5.436511e+01
      vertex 2.200000e+01 -1.550000e+01 -5.375003e+01
    endloop
  endfacet
  facet normal 1.000000e+00 0.000000e+00 0.000000e+00
    outer loop
      vertex 2.200000e+01 -1.550000e+01 -2.695003e+01
      vertex 2.200000e+01 -1.550000e+01 -5.375003e+01
      vertex 2.200000e+01 -5.856246e+00 -3.752979e+01
    endloop
  endfacet
  facet normal 1.000000e+00 0.000000e+00 0.000000e+00
    outer loop
      vertex 2.200000e+01 -1.550000e+01 -2.695003e+01
      vertex 2.200000e+01 -5.856246e+00 -3.752979e+01
      vertex 2.200000e+01 -4.052632e+00 -3.526813e+01
    endloop
  endfacet
  facet normal 1.000000e+00 0.000000e+00 0.000000e+00
    outer loop
      vertex 2.200000e+01 -1.550000e+01 -2.695003e+01
      vertex 2.200000e+01 -4.052632e+00 -3.526813e+01
      vertex 2.200000e+01 -1.446334e+00 -3.401300e+01
    endloop
  endfacet
  facet normal 1.000000e+00 -0.000000e+00 0.000000e+00
    outer loop
      vertex 2.200000e+01 -1.550000e+01 -2.695003e+01
      vertex 2.200000e+01 -1.446334e+00 -3.401300e+01
      vertex 2.200000e+01 -1.401508e+01 -2.633496e+01
    endloop
  endfacet
  facet normal 1.000000e+00 0.000000e+00 0.000000e+00
    outer loop
      vertex 2.200000e+01 -1.000000e+01 -5.300000e+01
      vertex 2.200000e+01 -1.550000e+01 -5.375003e+01
      vertex 2.200000e+01 -1.401508e+01 -5.436511e+01
    endloop
  endfacet
  facet normal 1.000000e+00 0.000000e+00 0.000000e+00
    outer loop
      vertex 2.200000e+01 -1.000000e+01 -5.300000e+01
      vertex 2.200000e+01 -1.401508e+01 -5.436511e+01
      vertex 2.200000e+01 -1.340000e+01 -5.585003e+01
    endloop
  endfacet
  facet normal 1.000000e+00 0.000000e+00 0.000000e+00
    outer loop
      vertex 2.200000e+01 -1.000000e+01 -5.300000e+01
      vertex 2.200000e+01 -1.340000e+01 -5.585003e+01
      vertex 2.200000e+01 -1.000000e+01 -7.300000e+01
    endloop
  endfacet
  facet normal 1.000000e+00 0.000000e+00 0.000000e+00
    outer loop
      vertex 2.200000e+01 -2.000000e+01 -1.900000e+01
      vertex 2.200000e+01 -2.000000e+01 -8.800000e+01
      vertex 2.200000e+01 -1.760000e+01 -2.485003e+01
    endloop
  endfacet
  facet normal 1.000000e+00 0.000000e+00 0.000000e+00
    outer loop
      vertex 2.200000e+01 -2.000000e+01 -1.900000e+01
      vertex 2.200000e+01 -1.760000e+01 -2.485003e+01
      vertex 2.200000e+01 -1.698492e+01 -2.336511e+01
    endloop
  endfacet
  facet normal 1.000000e+00 0.000000e+00 0.000000e+00
    outer loop
      vertex 2.200000e+01 -2.000000e+01 -1.900000e+01
      vertex 2.200000e+01 -1.698492e+01 -2.336511e+01
      vertex 2.200000e+01 -1.550000e+01 -2.275003e+01
    endloop
  endfacet
  facet normal 0.000000e+00 3.826836e-01 9.238795e-01
    outer loop
      vertex 2.200000e+01 1.550000e+01 -2.695003e+01
      vertex 1.900000e+01 1.401508e+01 -2.633496e+01
      vertex 2.200000e+01 1.401508e+01 -2.633496e+01
    endloop
  endfacet
  facet normal 0.000000e+00 9.238795e-01 3.826836e-01
    outer loop
      vertex 2.200000e+01 1.401508e+01 -2.633496e+01
      vertex 1.900000e+01 1.401508e+01 -2.633496e+01
      vertex 1.900000e+01 1.340000e+01 -2.485003e+01
    endloop
  endfacet
  facet normal 0.000000e+00 9.238795e-01 3.826836e-01
    outer loop
      vertex 2.200000e+01 1.401508e+01 -2.633496e+01
      vertex 1.900000e+01 1.340000e+01 -2.485003e+01
      vertex 2.200000e+01 1.340000e+01 -2.485003e+01
    endloop
  endfacet
  facet normal 0.000000e+00 3.826836e-01 9.238795e-01
    outer loop
      vertex 1.900000e+01 1.401508e+01 -2.633496e+01
      vertex 2.200000e+01 1.550000e+01 -2.695003e+01
      vertex 1.900000e+01 1.550000e+01 -2.695003e+01
    endloop
  endfacet
  facet normal 0.000000e+00 -3.826836e-01 9.238795e-01
    outer loop
      vertex 1.900000e+01 1.550000e+01 -2.695003e+01
      vertex 2.200000e+01 1.550000e+01 -2.695003e+01
      vertex 2.200000e+01 1.698492e+01 -2.633496e+01
    endloop
  endfacet
  facet normal 0.000000e+00 -3.826836e-01 9.238795e-01
    outer loop
      vertex 1.900000e+01 1.550000e+01 -2.695003e+01
      vertex 2.200000e+01 1.698492e+01 -2.633496e+01
      vertex 1.900000e+01 1.698492e+01 -2.633496e+01
    endloop
  endfacet
  facet normal 0.000000e+00 -9.238795e-01 3.826836e-01
    outer loop
      vertex 1.900000e+01 1.698492e+01 -2.633496e+01
      vertex 2.200000e+01 1.698492e+01 -2.633496e+01
      vertex 2.200000e+01 1.760000e+01 -2.485003e+01
    endloop
  endfacet
  facet normal 0.000000e+00 -9.238795e-01 3.826836e-01
    outer loop
      vertex 1.900000e+01 1.698492e+01 -2.633496e+01
      vertex 2.200000e+01 1.760000e+01 -2.485003e+01
      vertex 1.900000e+01 1.760000e+01 -2.485003e+01
    endloop
  endfacet
  facet normal 0.000000e+00 -3.826836e-01 -9.238795e-01
    outer loop
      vertex 2.200000e+01 1.550000e+01 -2.275003e+01
      vertex 1.900000e+01 1.698492e+01 -2.336511e+01
      vertex 2.200000e+01 1.698492e+01 -2.336511e+01
    endloop
  endfacet
  facet normal -0.000000e+00 -9.238795e-01 -3.826836e-01
    outer loop
      vertex 2.200000e+01 1.698492e+01 -2.336511e+01
      vertex 1.900000e+01 1.698492e+01 -2.336511e+01
      vertex 1.900000e+01 1.760000e+01 -2.485003e+01
    endloop
  endfacet
  facet normal 0.000000e+00 -9.238795e-01 -3.826836e-01
    outer loop
      vertex 2.200000e+01 1.698492e+01 -2.336511e+01
      vertex 1.900000e+01 1.760000e+01 -2.485003e+01
      vertex 2.200000e+01 1.760000e+01 -2.485003e+01
    endloop
  endfacet
  facet normal 0.000000e+00 -3.826836e-01 -9.238795e-01
    outer loop
      vertex 1.900000e+01 1.698492e+01 -2.336511e+01
      vertex 2.200000e+01 1.550000e+01 -2.275003e+01
      vertex 1.900000e+01 1.550000e+01 -2.275003e+01
    endloop
  endfacet
  facet normal 0.000000e+00 3.826836e-01 -9.238795e-01
    outer loop
      vertex 1.900000e+01 1.550000e+01 -2.275003e+01
      vertex 2.200000e+01 1.550000e+01 -2.275003e+01
      vertex 2.200000e+01 1.401508e+01 -2.336511e+01
    endloop
  endfacet
  facet normal 0.000000e+00 3.826836e-01 -9.238795e-01
    outer loop
      vertex 1.900000e+01 1.550000e+01 -2.275003e+01
      vertex 2.200000e+01 1.401508e+01 -2.336511e+01
      vertex 1.900000e+01 1.401508e+01 -2.336511e+01
    endloop
  endfacet
  facet normal 0.000000e+00 9.238795e-01 -3.826836e-01
    outer loop
      vertex 1.900000e+01 1.401508e+01 -2.336511e+01
      vertex 2.200000e+01 1.401508e+01 -2.336511e+01
      vertex 2.200000e+01 1.340000e+01 -2.485003e+01
    endloop
  endfacet
  facet normal 0.000000e+00 9.238795e-01 -3.826836e-01
    outer loop
      vertex 1.900000e+01 1.401508e+01 -2.336511e+01
      vertex 2.200000e+01 1.340000e+01 -2.485003e+01
      vertex 1.900000e+01 1.340000e+01 -2.485003e+01
    endloop
  endfacet
  facet normal 0.000000e+00 -4.338838e-01 -9.009688e-01
    outer loop
      vertex 2.200000e+01 1.446438e+00 -3.401300e+01
      vertex 1.900000e+01 4.052735e+00 -3.526813e+01
      vertex 2.200000e+01 4.052735e+00 -3.526813e+01
    endloop
  endfacet
  facet normal -0.000000e+00 -7.818312e-01 -6.234902e-01
    outer loop
      vertex 2.200000e+01 4.052735e+00 -3.526813e+01
      vertex 1.900000e+01 4.052735e+00 -3.526813e+01
      vertex 1.900000e+01 5.856349e+00 -3.752979e+01
    endloop
  endfacet
  facet normal 0.000000e+00 -7.818312e-01 -6.234902e-01
    outer loop
      vertex 2.200000e+01 4.052735e+00 -3.526813e+01
      vertex 1.900000e+01 5.856349e+00 -3.752979e+01
      vertex 2.200000e+01 5.856349e+00 -3.752979e+01
    endloop
  endfacet
  facet normal -0.000000e+00 -9.749280e-01 -2.225207e-01
    outer loop
      vertex 2.200000e+01 5.856349e+00 -3.752979e+01
      vertex 1.900000e+01 5.856349e+00 -3.752979e+01
      vertex 1.900000e+01 6.500051e+00 -4.035003e+01
    endloop
  endfacet
  facet normal 0.000000e+00 -9.749280e-01 -2.225207e-01
    outer loop
      vertex 2.200000e+01 5.856349e+00 -3.752979e+01
      vertex 1.900000e+01 6.500051e+00 -4.035003e+01
      vertex 2.200000e+01 6.500051e+00 -4.035003e+01
    endloop
  endfacet
  facet normal 0.000000e+00 -4.338838e-01 -9.009688e-01
    outer loop
      vertex 1.900000e+01 4.052735e+00 -3.526813e+01
      vertex 2.200000e+01 1.446438e+00 -3.401300e+01
      vertex 1.900000e+01 1.446438e+00 -3.401300e+01
    endloop
  endfacet
  facet normal 0.000000e+00 0.000000e+00 -1.000000e+00
    outer loop
      vertex 1.900000e+01 1.446438e+00 -3.401300e+01
      vertex 2.200000e+01 1.446438e+00 -3.401300e+01
      vertex 2.200000e+01 -1.446334e+00 -3.401300e+01
    endloop
  endfacet
  facet normal 0.000000e+00 0.000000e+00 -1.000000e+00
    outer loop
      vertex 1.900000e+01 1.446438e+00 -3.401300e+01
      vertex 2.200000e+01 -1.446334e+00 -3.401300e+01
      vertex 1.900000e+01 -1.446334e+00 -3.401300e+01
    endloop
  endfacet
  facet normal 0.000000e+00 4.338838e-01 -9.009689e-01
    outer loop
      vertex 1.900000e+01 -1.446334e+00 -3.401300e+01
      vertex 2.200000e+01 -1.446334e+00 -3.401300e+01
      vertex 2.200000e+01 -4.052632e+00 -3.526813e+01
    endloop
  endfacet
  facet normal 0.000000e+00 4.338838e-01 -9.009689e-01
    outer loop
      vertex 1.900000e+01 -1.446334e+00 -3.401300e+01
      vertex 2.200000e+01 -4.052632e+00 -3.526813e+01
      vertex 1.900000e+01 -4.052632e+00 -3.526813e+01
    endloop
  endfacet
  facet normal 0.000000e+00 7.818312e-01 -6.234902e-01
    outer loop
      vertex 1.900000e+01 -4.052632e+00 -3.526813e+01
      vertex 2.200000e+01 -4.052632e+00 -3.526813e+01
      vertex 2.200000e+01 -5.856246e+00 -3.752979e+01
    endloop
  endfacet
  facet normal 0.000000e+00 7.818312e-01 -6.234902e-01
    outer loop
      vertex 1.900000e+01 -4.052632e+00 -3.526813e+01
      vertex 2.200000e+01 -5.856246e+00 -3.752979e+01
      vertex 1.900000e+01 -5.856246e+00 -3.752979e+01
    endloop
  endfacet
  facet normal 0.000000e+00 9.749280e-01 -2.225207e-01
    outer loop
      vertex 1.900000e+01 -5.856246e+00 -3.752979e+01
      vertex 2.200000e+01 -5.856246e+00 -3.752979e+01
      vertex 2.200000e+01 -6.499949e+00 -4.035003e+01
    endloop
  endfacet
  facet normal 0.000000e+00 9.749280e-01 -2.225207e-01
    outer loop
      vertex 1.900000e+01 -5.856246e+00 -3.752979e+01
      vertex 2.200000e+01 -6.499949e+00 -4.035003e+01
      vertex 1.900000e+01 -6.499949e+00 -4.035003e+01
    endloop
  endfacet
  facet normal 0.000000e+00 4.338838e-01 9.009689e-01
    outer loop
      vertex 2.200000e+01 -1.446334e+00 -4.668706e+01
      vertex 1.900000e+01 -4.052632e+00 -4.543193e+01
      vertex 2.200000e+01 -4.052632e+00 -4.543193e+01
    endloop
  endfacet
  facet normal 0.000000e+00 7.818312e-01 6.234902e-01
    outer loop
      vertex 2.200000e+01 -4.052632e+00 -4.543193e+01
      vertex 1.900000e+01 -4.052632e+00 -4.543193e+01
      vertex 1.900000e+01 -5.856246e+00 -4.317028e+01
    endloop
  endfacet
  facet normal 0.000000e+00 7.818312e-01 6.234902e-01
    outer loop
      vertex 2.200000e+01 -4.052632e+00 -4.543193e+01
      vertex 1.900000e+01 -5.856246e+00 -4.317028e+01
      vertex 2.200000e+01 -5.856246e+00 -4.317028e+01
    endloop
  endfacet
  facet normal 0.000000e+00 9.749279e-01 2.225210e-01
    outer loop
      vertex 2.200000e+01 -5.856246e+00 -4.317028e+01
      vertex 1.900000e+01 -5.856246e+00 -4.317028e+01
      vertex 1.900000e+01 -6.499949e+00 -4.035003e+01
    endloop
  endfacet
  facet normal 0.000000e+00 9.749279e-01 2.225210e-01
    outer loop
      vertex 2.200000e+01 -5.856246e+00 -4.317028e+01
      vertex 1.900000e+01 -6.499949e+00 -4.035003e+01
      vertex 2.200000e+01 -6.499949e+00 -4.035003e+01
    endloop
  endfacet
  facet normal 0.000000e+00 4.338838e-01 9.009689e-01
    outer loop
      vertex 1.900000e+01 -4.052632e+00 -4.543193e+01
      vertex 2.200000e+01 -1.446334e+00 -4.668706e+01
      vertex 1.900000e+01 -1.446334e+00 -4.668706e+01
    endloop
  endfacet
  facet normal 0.000000e+00 0.000000e+00 1.000000e+00
    outer loop
      vertex 1.900000e+01 -1.446334e+00 -4.668706e+01
      vertex 2.200000e+01 -1.446334e+00 -4.668706e+01
      vertex 2.200000e+01 1.446438e+00 -4.668706e+01
    endloop
  endfacet
  facet normal 0.000000e+00 0.000000e+00 1.000000e+00
    outer loop
      vertex 1.900000e+01 -1.446334e+00 -4.668706e+01
      vertex 2.200000e+01 1.446438e+00 -4.668706e+01
      vertex 1.900000e+01 1.446438e+00 -4.668706e+01
    endloop
  endfacet
  facet normal 0.000000e+00 -4.338838e-01 9.009688e-01
    outer loop
      vertex 1.900000e+01 1.446438e+00 -4.668706e+01
      vertex 2.200000e+01 1.446438e+00 -4.668706e+01
      vertex 2.200000e+01 4.052735e+00 -4.543193e+01
    endloop
  endfacet
  facet normal 0.000000e+00 -4.338838e-01 9.009688e-01
    outer loop
      vertex 1.900000e+01 1.446438e+00 -4.668706e+01
      vertex 2.200000e+01 4.052735e+00 -4.543193e+01
      vertex 1.900000e+01 4.052735e+00 -4.543193e+01
    endloop
  endfacet
  facet normal 0.000000e+00 -7.818312e-01 6.234902e-01
    outer loop
      vertex 1.900000e+01 4.052735e+00 -4.543193e+01
      vertex 2.200000e+01 4.052735e+00 -4.543193e+01
      vertex 2.200000e+01 5.856349e+00 -4.317028e+01
    endloop
  endfacet
  facet normal 0.000000e+00 -7.818312e-01 6.234902e-01
    outer loop
      vertex 1.900000e+01 4.052735e+00 -4.543193e+01
      vertex 2.200000e+01 5.856349e+00 -4.317028e+01
      vertex 1.900000e+01 5.856349e+00 -4.317028e+01
    endloop
  endfacet
  facet normal 0.000000e+00 -9.749279e-01 2.225210e-01
    outer loop
      vertex 1.900000e+01 5.856349e+00 -4.317028e+01
      vertex 2.200000e+01 5.856349e+00 -4.317028e+01
      vertex 2.200000e+01 6.500051e+00 -4.035003e+01
    endloop
  endfacet
  facet normal 0.000000e+00 -9.749279e-01 2.225210e-01
    outer loop
      vertex 1.900000e+01 5.856349e+00 -4.317028e+01
      vertex 2.200000e+01 6.500051e+00 -4.035003e+01
      vertex 1.900000e+01 6.500051e+00 -4.035003e+01
    endloop
  endfacet
  facet normal -0.000000e+00 -0.000000e+00 -1.000000e+00
    outer loop
      vertex 2.200000e+01 1.000000e+01 -5.300000e+01
      vertex 2.200000e+01 -1.000000e+01 -5.300000e+01
      vertex 1.900000e+01 1.000000e+01 -5.300000e+01
    endloop
  endfacet
  facet normal 0.000000e+00 0.000000e+00 -1.000000e+00
    outer loop
      vertex 1.900000e+01 1.000000e+01 -5.300000e+01
      vertex 2.200000e+01 -1.000000e+01 -5.300000e+01
      vertex 1.900000e+01 -1.000000e+01 -5.300000e+01
    endloop
  endfacet
  facet normal 0.000000e+00 1.000000e+00 0.000000e+00
    outer loop
      vertex 2.200000e+01 -1.000000e+01 -5.300000e+01
      vertex 2.200000e+01 -1.000000e+01 -7.300000e+01
      vertex 1.900000e+01 -1.000000e+01 -5.300000e+01
    endloop
  endfacet
  facet normal 0.000000e+00 1.000000e+00 0.000000e+00
    outer loop
      vertex 1.900000e+01 -1.000000e+01 -5.300000e+01
      vertex 2.200000e+01 -1.000000e+01 -7.300000e+01
      vertex 1.900000e+01 -1.000000e+01 -7.300000e+01
    endloop
  endfacet
  facet normal 0.000000e+00 0.000000e+00 1.000000e+00
    outer loop
      vertex 2.200000e+01 1.000000e+01 -7.300000e+01
      vertex 1.900000e+01 1.000000e+01 -7.300000e+01
      vertex 2.200000e+01 -1.000000e+01 -7.300000e+01
    endloop
  endfacet
  facet normal 0.000000e+00 0.000000e+00 1.000000e+00
    outer loop
      vertex 2.200000e+01 -1.000000e+01 -7.300000e+01
      vertex 1.900000e+01 1.000000e+01 -7.300000e+01
      vertex 1.900000e+01 -1.000000e+01 -7.300000e+01
    endloop
  endfacet
  facet normal -0.000000e+00 -1.000000e+00 -0.000000e+00
    outer loop
      vertex 2.200000e+01 1.000000e+01 -5.300000e+01
      vertex 1.900000e+01 1.000000e+01 -5.300000e+01
      vertex 2.200000e+01 1.000000e+01 -7.300000e+01
    endloop
  endfacet
  facet normal 0.000000e+00 -1.000000e+00 0.000000e+00
    outer loop
      vertex 2.200000e+01 1.000000e+01 -7.300000e+01
      vertex 1.900000e+01 1.000000e+01 -5.300000e+01
      vertex 1.900000e+01 1.000000e+01 -7.300000e+01
    endloop
  endfacet
  facet normal -0.000000e+00 -0.000000e+00 -1.000000e+00
    outer loop
      vertex 2.200000e+01 2.000000e+01 -8.800000e+01
      vertex 2.200000e+01 -2.000000e+01 -8.800000e+01
      vertex 1.900000e+01 2.000000e+01 -8.800000e+01
    endloop
  endfacet
  facet normal 0.000000e+00 0.000000e+00 -1.000000e+00
    outer loop
      vertex 1.900000e+01 2.000000e+01 -8.800000e+01
      vertex 2.200000e+01 -2.000000e+01 -8.800000e+01
      vertex 1.900000e+01 -2.000000e+01 -8.800000e+01
    endloop
  endfacet
  facet normal -0.000000e+00 -1.000000e+00 -0.000000e+00
    outer loop
      vertex 2.200000e+01 -2.000000e+01 -1.900000e+01
      vertex 1.900000e+01 -2.000000e+01 -1.900000e+01
      vertex 2.200000e+01 -2.000000e+01 -8.800000e+01
    endloop
  endfacet
  facet normal 0.000000e+00 -1.000000e+00 0.000000e+00
    outer loop
      vertex 2.200000e+01 -2.000000e+01 -8.800000e+01
      vertex 1.900000e+01 -2.000000e+01 -1.900000e+01
      vertex 1.900000e+01 -2.000000e+01 -8.800000e+01
    endloop
  endfacet
  facet normal 0.000000e+00 3.826826e-01 9.238799e-01
    outer loop
      vertex 2.200000e+01 1.550000e+01 -5.795003e+01
      vertex 1.900000e+01 1.401508e+01 -5.733496e+01
      vertex 2.200000e+01 1.401508e+01 -5.733496e+01
    endloop
  endfacet
  facet normal 0.000000e+00 9.238795e-01 3.826836e-01
    outer loop
      vertex 2.200000e+01 1.401508e+01 -5.733496e+01
      vertex 1.900000e+01 1.401508e+01 -5.733496e+01
      vertex 1.900000e+01 1.340000e+01 -5.585003e+01
    endloop
  endfacet
  facet normal 0.000000e+00 9.238795e-01 3.826836e-01
    outer loop
      vertex 2.200000e+01 1.401508e+01 -5.733496e+01
      vertex 1.900000e+01 1.340000e+01 -5.585003e+01
      vertex 2.200000e+01 1.340000e+01 -5.585003e+01
    endloop
  endfacet
  facet normal 0.000000e+00 3.826826e-01 9.238799e-01
    outer loop
      vertex 1.900000e+01 1.401508e+01 -5.733496e+01
      vertex 2.200000e+01 1.550000e+01 -5.795003e+01
      vertex 1.900000e+01 1.550000e+01 -5.795003e+01
    endloop
  endfacet
  facet normal 0.000000e+00 -3.826826e-01 9.238799e-01
    outer loop
      vertex 1.900000e+01 1.550000e+01 -5.795003e+01
      vertex 2.200000e+01 1.550000e+01 -5.795003e+01
      vertex 2.200000e+01 1.698492e+01 -5.733496e+01
    endloop
  endfacet
  facet normal 0.000000e+00 -3.826826e-01 9.238799e-01
    outer loop
      vertex 1.900000e+01 1.550000e+01 -5.795003e+01
      vertex 2.200000e+01 1.698492e+01 -5.733496e+01
      vertex 1.900000e+01 1.698492e+01 -5.733496e+01
    endloop
  endfacet
  facet normal 0.000000e+00 -9.238795e-01 3.826836e-01
    outer loop
      vertex 1.900000e+01 1.698492e+01 -5.733496e+01
      vertex 2.200000e+01 1.698492e+01 -5.733496e+01
      vertex 2.200000e+01 1.760000e+01 -5.585003e+01
    endloop
  endfacet
  facet normal 0.000000e+00 -9.238795e-01 3.826836e-01
    outer loop
      vertex 1.900000e+01 1.698492e+01 -5.733496e+01
      vertex 2.200000e+01 1.760000e+01 -5.585003e+01
      vertex 1.900000e+01 1.760000e+01 -5.585003e+01
    endloop
  endfacet
  facet normal 0.000000e+00 1.000000e+00 0.000000e+00
    outer loop
      vertex 2.200000e+01 2.000000e+01 -1.900000e+01
      vertex 2.200000e+01 2.000000e+01 -8.800000e+01
      vertex 1.900000e+01 2.000000e+01 -1.900000e+01
    endloop
  endfacet
  facet normal 0.000000e+00 1.000000e+00 0.000000e+00
    outer loop
      vertex 1.900000e+01 2.000000e+01 -1.900000e+01
      vertex 2.200000e+01 2.000000e+01 -8.800000e+01
      vertex 1.900000e+01 2.000000e+01 -8.800000e+01
    endloop
  endfacet
  facet normal 0.000000e+00 -3.826846e-01 -9.238791e-01
    outer loop
      vertex 2.200000e+01 1.550000e+01 -5.375003e+01
      vertex 1.900000e+01 1.698492e+01 -5.436511e+01
      vertex 2.200000e+01 1.698492e+01 -5.436511e+01
    endloop
  endfacet
  facet normal -0.000000e+00 -9.238795e-01 -3.826836e-01
    outer loop
      vertex 2.200000e+01 1.698492e+01 -5.436511e+01
      vertex 1.900000e+01 1.698492e+01 -5.436511e+01
      vertex 1.900000e+01 1.760000e+01 -5.585003e+01
    endloop
  endfacet
  facet normal 0.000000e+00 -9.238795e-01 -3.826836e-01
    outer loop
      vertex 2.200000e+01 1.698492e+01 -5.436511e+01
      vertex 1.900000e+01 1.760000e+01 -5.585003e+01
      vertex 2.200000e+01 1.760000e+01 -5.585003e+01
    endloop
  endfacet
  facet normal 0.000000e+00 -3.826846e-01 -9.238791e-01
    outer loop
      vertex 1.900000e+01 1.698492e+01 -5.436511e+01
      vertex 2.200000e+01 1.550000e+01 -5.375003e+01
      vertex 1.900000e+01 1.550000e+01 -5.375003e+01
    endloop
  endfacet
  facet normal 0.000000e+00 3.826846e-01 -9.238791e-01
    outer loop
      vertex 1.900000e+01 1.550000e+01 -5.375003e+01
      vertex 2.200000e+01 1.550000e+01 -5.375003e+01
      vertex 2.200000e+01 1.401508e+01 -5.436511e+01
    endloop
  endfacet
  facet normal 0.000000e+00 3.826846e-01 -9.238791e-01
    outer loop
      vertex 1.900000e+01 1.550000e+01 -5.375003e+01
      vertex 2.200000e+01 1.401508e+01 -5.436511e+01
      vertex 1.900000e+01 1.401508e+01 -5.436511e+01
    endloop
  endfacet
  facet normal 0.000000e+00 9.238795e-01 -3.826836e-01
    outer loop
      vertex 1.900000e+01 1.401508e+01 -5.436511e+01
      vertex 2.200000e+01 1.401508e+01 -5.436511e+01
      vertex 2.200000e+01 1.340000e+01 -5.585003e+01
    endloop
  endfacet
  facet normal 0.000000e+00 9.238795e-01 -3.826836e-01
    outer loop
      vertex 1.900000e+01 1.401508e+01 -5.436511e+01
      vertex 2.200000e+01 1.340000e+01 -5.585003e+01
      vertex 1.900000e+01 1.340000e+01 -5.585003e+01
    endloop
  endfacet
  facet normal 0.000000e+00 -0.000000e+00 1.000000e+00
    outer loop
      vertex 2.200000e+01 -2.000000e+01 -1.900000e+01
      vertex 2.200000e+01 2.000000e+01 -1.900000e+01
      vertex 1.900000e+01 -2.000000e+01 -1.900000e+01
    endloop
  endfacet
  facet normal 0.000000e+00 0.000000e+00 1.000000e+00
    outer loop
      vertex 1.900000e+01 -2.000000e+01 -1.900000e+01
      vertex 2.200000e+01 2.000000e+01 -1.900000e+01
      vertex 1.900000e+01 2.000000e+01 -1.900000e+01
    endloop
  endfacet
endsolid
