solid Import CV5 provisoire | OCIM07AJPQ | 001 | INNOV | LCI_CONCEPT
  facet normal 1.000000e+00 0.000000e+00 -0.000000e+00
    outer loop
      vertex -1.360000e+02 -8.700000e+01 -5.000000e+01
      vertex -1.360000e+02 -8.700000e+01 -3.400000e+01
      vertex -1.360000e+02 -9.000000e+01 -5.000000e+01
    endloop
  endfacet
  facet normal 1.000000e+00 0.000000e+00 0.000000e+00
    outer loop
      vertex -1.360000e+02 -9.000000e+01 -5.000000e+01
      vertex -1.360000e+02 -8.700000e+01 -3.400000e+01
      vertex -1.360000e+02 -9.000000e+01 -3.400000e+01
    endloop
  endfacet
  facet normal -0.000000e+00 0.000000e+00 1.000000e+00
    outer loop
      vertex -1.800000e+02 -8.700000e+01 -3.400000e+01
      vertex -1.800000e+02 -9.000000e+01 -3.400000e+01
      vertex -1.360000e+02 -8.700000e+01 -3.400000e+01
    endloop
  endfacet
  facet normal 0.000000e+00 0.000000e+00 1.000000e+00
    outer loop
      vertex -1.360000e+02 -8.700000e+01 -3.400000e+01
      vertex -1.800000e+02 -9.000000e+01 -3.400000e+01
      vertex -1.360000e+02 -9.000000e+01 -3.400000e+01
    endloop
  endfacet
  facet normal -1.000000e+00 -0.000000e+00 -0.000000e+00
    outer loop
      vertex -1.800000e+02 -8.700000e+01 -3.400000e+01
      vertex -1.800000e+02 -8.700000e+01 -5.000000e+01
      vertex -1.800000e+02 -9.000000e+01 -3.400000e+01
    endloop
  endfacet
  facet normal -1.000000e+00 0.000000e+00 0.000000e+00
    outer loop
      vertex -1.800000e+02 -9.000000e+01 -3.400000e+01
      vertex -1.800000e+02 -8.700000e+01 -5.000000e+01
      vertex -1.800000e+02 -9.000000e+01 -5.000000e+01
    endloop
  endfacet
  facet normal 0.000000e+00 0.000000e+00 1.000000e+00
    outer loop
      vertex -1.800000e+02 -8.700000e+01 -5.000000e+01
      vertex -1.900000e+02 -8.700000e+01 -5.000000e+01
      vertex -1.800000e+02 -9.000000e+01 -5.000000e+01
    endloop
  endfacet
  facet normal 0.000000e+00 0.000000e+00 1.000000e+00
    outer loop
      vertex -1.800000e+02 -9.000000e+01 -5.000000e+01
      vertex -1.900000e+02 -8.700000e+01 -5.000000e+01
      vertex -1.900000e+02 -9.000000e+01 -5.000000e+01
    endloop
  endfacet
  facet normal -1.000000e+00 -0.000000e+00 -0.000000e+00
    outer loop
      vertex -1.900000e+02 -8.700000e+01 -5.000000e+01
      vertex -1.900000e+02 -8.700000e+01 -8.200000e+01
      vertex -1.900000e+02 -9.000000e+01 -5.000000e+01
    endloop
  endfacet
  facet normal -1.000000e+00 0.000000e+00 0.000000e+00
    outer loop
      vertex -1.900000e+02 -9.000000e+01 -5.000000e+01
      vertex -1.900000e+02 -8.700000e+01 -8.200000e+01
      vertex -1.900000e+02 -9.000000e+01 -8.200000e+01
    endloop
  endfacet
  facet normal 0.000000e+00 0.000000e+00 -1.000000e+00
    outer loop
      vertex -1.900000e+02 -8.700000e+01 -8.200000e+01
      vertex -1.740000e+02 -8.700000e+01 -8.200000e+01
      vertex -1.900000e+02 -9.000000e+01 -8.200000e+01
    endloop
  endfacet
  facet normal 0.000000e+00 0.000000e+00 -1.000000e+00
    outer loop
      vertex -1.900000e+02 -9.000000e+01 -8.200000e+01
      vertex -1.740000e+02 -8.700000e+01 -8.200000e+01
      vertex -1.740000e+02 -9.000000e+01 -8.200000e+01
    endloop
  endfacet
  facet normal -1.000000e+00 -0.000000e+00 -0.000000e+00
    outer loop
      vertex -1.740000e+02 -8.700000e+01 -8.200000e+01
      vertex -1.740000e+02 -8.700000e+01 -9.200000e+01
      vertex -1.740000e+02 -9.000000e+01 -8.200000e+01
    endloop
  endfacet
  facet normal -1.000000e+00 0.000000e+00 0.000000e+00
    outer loop
      vertex -1.740000e+02 -9.000000e+01 -8.200000e+01
      vertex -1.740000e+02 -8.700000e+01 -9.200000e+01
      vertex -1.740000e+02 -9.000000e+01 -9.200000e+01
    endloop
  endfacet
  facet normal -0.000000e+00 -0.000000e+00 -1.000000e+00
    outer loop
      vertex -1.420000e+02 -8.700000e+01 -9.200000e+01
      vertex -1.420000e+02 -9.000000e+01 -9.200000e+01
      vertex -1.740000e+02 -8.700000e+01 -9.200000e+01
    endloop
  endfacet
  facet normal 0.000000e+00 0.000000e+00 -1.000000e+00
    outer loop
      vertex -1.740000e+02 -8.700000e+01 -9.200000e+01
      vertex -1.420000e+02 -9.000000e+01 -9.200000e+01
      vertex -1.740000e+02 -9.000000e+01 -9.200000e+01
    endloop
  endfacet
  facet normal 1.000000e+00 0.000000e+00 -0.000000e+00
    outer loop
      vertex -1.420000e+02 -8.700000e+01 -9.200000e+01
      vertex -1.420000e+02 -8.700000e+01 -8.200000e+01
      vertex -1.420000e+02 -9.000000e+01 -9.200000e+01
    endloop
  endfacet
  facet normal 1.000000e+00 0.000000e+00 0.000000e+00
    outer loop
      vertex -1.420000e+02 -9.000000e+01 -9.200000e+01
      vertex -1.420000e+02 -8.700000e+01 -8.200000e+01
      vertex -1.420000e+02 -9.000000e+01 -8.200000e+01
    endloop
  endfacet
  facet normal 0.000000e+00 0.000000e+00 -1.000000e+00
    outer loop
      vertex -1.420000e+02 -8.700000e+01 -8.200000e+01
      vertex -1.260000e+02 -8.700000e+01 -8.200000e+01
      vertex -1.420000e+02 -9.000000e+01 -8.200000e+01
    endloop
  endfacet
  facet normal 0.000000e+00 0.000000e+00 -1.000000e+00
    outer loop
      vertex -1.420000e+02 -9.000000e+01 -8.200000e+01
      vertex -1.260000e+02 -8.700000e+01 -8.200000e+01
      vertex -1.260000e+02 -9.000000e+01 -8.200000e+01
    endloop
  endfacet
  facet normal 1.000000e+00 0.000000e+00 -0.000000e+00
    outer loop
      vertex -1.260000e+02 -8.700000e+01 -8.200000e+01
      vertex -1.260000e+02 -8.700000e+01 -5.000000e+01
      vertex -1.260000e+02 -9.000000e+01 -8.200000e+01
    endloop
  endfacet
  facet normal 1.000000e+00 0.000000e+00 0.000000e+00
    outer loop
      vertex -1.260000e+02 -9.000000e+01 -8.200000e+01
      vertex -1.260000e+02 -8.700000e+01 -5.000000e+01
      vertex -1.260000e+02 -9.000000e+01 -5.000000e+01
    endloop
  endfacet
  facet normal 0.000000e+00 0.000000e+00 1.000000e+00
    outer loop
      vertex -1.260000e+02 -8.700000e+01 -5.000000e+01
      vertex -1.360000e+02 -8.700000e+01 -5.000000e+01
      vertex -1.260000e+02 -9.000000e+01 -5.000000e+01
    endloop
  endfacet
  facet normal 0.000000e+00 0.000000e+00 1.000000e+00
    outer loop
      vertex -1.260000e+02 -9.000000e+01 -5.000000e+01
      vertex -1.360000e+02 -8.700000e+01 -5.000000e+01
      vertex -1.360000e+02 -9.000000e+01 -5.000000e+01
    endloop
  endfacet
  facet normal 0.000000e+00 0.000000e+00 -1.000000e+00
    outer loop
      vertex -1.700000e+02 -8.700000e+01 -3.600000e+01
      vertex -1.460000e+02 -8.700000e+01 -3.600000e+01
      vertex -1.700000e+02 -9.000000e+01 -3.600000e+01
    endloop
  endfacet
  facet normal 0.000000e+00 0.000000e+00 -1.000000e+00
    outer loop
      vertex -1.700000e+02 -9.000000e+01 -3.600000e+01
      vertex -1.460000e+02 -8.700000e+01 -3.600000e+01
      vertex -1.460000e+02 -9.000000e+01 -3.600000e+01
    endloop
  endfacet
  facet normal -1.000000e+00 0.000000e+00 0.000000e+00
    outer loop
      vertex -1.460000e+02 -8.700000e+01 -4.000000e+01
      vertex -1.460000e+02 -9.000000e+01 -4.000000e+01
      vertex -1.460000e+02 -8.700000e+01 -3.600000e+01
    endloop
  endfacet
  facet normal -1.000000e+00 -0.000000e+00 0.000000e+00
    outer loop
      vertex -1.460000e+02 -8.700000e+01 -3.600000e+01
      vertex -1.460000e+02 -9.000000e+01 -4.000000e+01
      vertex -1.460000e+02 -9.000000e+01 -3.600000e+01
    endloop
  endfacet
  facet normal 0.000000e+00 0.000000e+00 1.000000e+00
    outer loop
      vertex -1.460000e+02 -8.700000e+01 -4.000000e+01
      vertex -1.700000e+02 -8.700000e+01 -4.000000e+01
      vertex -1.460000e+02 -9.000000e+01 -4.000000e+01
    endloop
  endfacet
  facet normal 0.000000e+00 0.000000e+00 1.000000e+00
    outer loop
      vertex -1.460000e+02 -9.000000e+01 -4.000000e+01
      vertex -1.700000e+02 -8.700000e+01 -4.000000e+01
      vertex -1.700000e+02 -9.000000e+01 -4.000000e+01
    endloop
  endfacet
  facet normal 1.000000e+00 0.000000e+00 0.000000e+00
    outer loop
      vertex -1.700000e+02 -8.700000e+01 -3.600000e+01
      vertex -1.700000e+02 -9.000000e+01 -3.600000e+01
      vertex -1.700000e+02 -8.700000e+01 -4.000000e+01
    endloop
  endfacet
  facet normal 1.000000e+00 0.000000e+00 0.000000e+00
    outer loop
      vertex -1.700000e+02 -8.700000e+01 -4.000000e+01
      vertex -1.700000e+02 -9.000000e+01 -3.600000e+01
      vertex -1.700000e+02 -9.000000e+01 -4.000000e+01
    endloop
  endfacet
  facet normal 0.000000e+00 -1.000000e+00 0.000000e+00
    outer loop
      vertex -1.740000e+02 -9.000000e+01 -8.200000e+01
      vertex -1.900000e+02 -9.000000e+01 -5.000000e+01
      vertex -1.900000e+02 -9.000000e+01 -8.200000e+01
    endloop
  endfacet
  facet normal 0.000000e+00 -1.000000e+00 0.000000e+00
    outer loop
      vertex -1.420000e+02 -9.000000e+01 -9.200000e+01
      vertex -1.420000e+02 -9.000000e+01 -8.200000e+01
      vertex -1.740000e+02 -9.000000e+01 -9.200000e+01
    endloop
  endfacet
  facet normal 0.000000e+00 -1.000000e+00 0.000000e+00
    outer loop
      vertex -1.740000e+02 -9.000000e+01 -9.200000e+01
      vertex -1.420000e+02 -9.000000e+01 -8.200000e+01
      vertex -1.460000e+02 -9.000000e+01 -4.000000e+01
    endloop
  endfacet
  facet normal 0.000000e+00 -1.000000e+00 0.000000e+00
    outer loop
      vertex -1.740000e+02 -9.000000e+01 -9.200000e+01
      vertex -1.460000e+02 -9.000000e+01 -4.000000e+01
      vertex -1.740000e+02 -9.000000e+01 -8.200000e+01
    endloop
  endfacet
  facet normal 0.000000e+00 -1.000000e+00 0.000000e+00
    outer loop
      vertex -1.740000e+02 -9.000000e+01 -8.200000e+01
      vertex -1.460000e+02 -9.000000e+01 -4.000000e+01
      vertex -1.700000e+02 -9.000000e+01 -4.000000e+01
    endloop
  endfacet
  facet normal 0.000000e+00 -1.000000e+00 0.000000e+00
    outer loop
      vertex -1.460000e+02 -9.000000e+01 -4.000000e+01
      vertex -1.360000e+02 -9.000000e+01 -5.000000e+01
      vertex -1.460000e+02 -9.000000e+01 -3.600000e+01
    endloop
  endfacet
  facet normal 0.000000e+00 -1.000000e+00 0.000000e+00
    outer loop
      vertex -1.460000e+02 -9.000000e+01 -3.600000e+01
      vertex -1.360000e+02 -9.000000e+01 -5.000000e+01
      vertex -1.360000e+02 -9.000000e+01 -3.400000e+01
    endloop
  endfacet
  facet normal 0.000000e+00 -1.000000e+00 0.000000e+00
    outer loop
      vertex -1.460000e+02 -9.000000e+01 -3.600000e+01
      vertex -1.360000e+02 -9.000000e+01 -3.400000e+01
      vertex -1.700000e+02 -9.000000e+01 -3.600000e+01
    endloop
  endfacet
  facet normal 0.000000e+00 -1.000000e+00 0.000000e+00
    outer loop
      vertex -1.700000e+02 -9.000000e+01 -3.600000e+01
      vertex -1.360000e+02 -9.000000e+01 -3.400000e+01
      vertex -1.800000e+02 -9.000000e+01 -3.400000e+01
    endloop
  endfacet
  facet normal 0.000000e+00 -1.000000e+00 0.000000e+00
    outer loop
      vertex -1.420000e+02 -9.000000e+01 -8.200000e+01
      vertex -1.260000e+02 -9.000000e+01 -8.200000e+01
      vertex -1.260000e+02 -9.000000e+01 -5.000000e+01
    endloop
  endfacet
  facet normal 0.000000e+00 -1.000000e+00 0.000000e+00
    outer loop
      vertex -1.420000e+02 -9.000000e+01 -8.200000e+01
      vertex -1.260000e+02 -9.000000e+01 -5.000000e+01
      vertex -1.360000e+02 -9.000000e+01 -5.000000e+01
    endloop
  endfacet
  facet normal 0.000000e+00 -1.000000e+00 0.000000e+00
    outer loop
      vertex -1.420000e+02 -9.000000e+01 -8.200000e+01
      vertex -1.360000e+02 -9.000000e+01 -5.000000e+01
      vertex -1.460000e+02 -9.000000e+01 -4.000000e+01
    endloop
  endfacet
  facet normal -0.000000e+00 -1.000000e+00 -0.000000e+00
    outer loop
      vertex -1.800000e+02 -9.000000e+01 -5.000000e+01
      vertex -1.900000e+02 -9.000000e+01 -5.000000e+01
      vertex -1.740000e+02 -9.000000e+01 -8.200000e+01
    endloop
  endfacet
  facet normal 0.000000e+00 -1.000000e+00 0.000000e+00
    outer loop
      vertex -1.800000e+02 -9.000000e+01 -5.000000e+01
      vertex -1.740000e+02 -9.000000e+01 -8.200000e+01
      vertex -1.700000e+02 -9.000000e+01 -4.000000e+01
    endloop
  endfacet
  facet normal 0.000000e+00 -1.000000e+00 0.000000e+00
    outer loop
      vertex -1.800000e+02 -9.000000e+01 -5.000000e+01
      vertex -1.700000e+02 -9.000000e+01 -4.000000e+01
      vertex -1.700000e+02 -9.000000e+01 -3.600000e+01
    endloop
  endfacet
  facet normal 0.000000e+00 -1.000000e+00 0.000000e+00
    outer loop
      vertex -1.800000e+02 -9.000000e+01 -5.000000e+01
      vertex -1.700000e+02 -9.000000e+01 -3.600000e+01
      vertex -1.800000e+02 -9.000000e+01 -3.400000e+01
    endloop
  endfacet
  facet normal 0.000000e+00 1.000000e+00 0.000000e+00
    outer loop
      vertex -1.900000e+02 -8.700000e+01 -8.200000e+01
      vertex -1.900000e+02 -8.700000e+01 -5.000000e+01
      vertex -1.740000e+02 -8.700000e+01 -8.200000e+01
    endloop
  endfacet
  facet normal 0.000000e+00 1.000000e+00 -0.000000e+00
    outer loop
      vertex -1.420000e+02 -8.700000e+01 -9.200000e+01
      vertex -1.740000e+02 -8.700000e+01 -9.200000e+01
      vertex -1.420000e+02 -8.700000e+01 -8.200000e+01
    endloop
  endfacet
  facet normal 0.000000e+00 1.000000e+00 0.000000e+00
    outer loop
      vertex -1.420000e+02 -8.700000e+01 -8.200000e+01
      vertex -1.740000e+02 -8.700000e+01 -9.200000e+01
      vertex -1.460000e+02 -8.700000e+01 -4.000000e+01
    endloop
  endfacet
  facet normal 0.000000e+00 1.000000e+00 0.000000e+00
    outer loop
      vertex -1.740000e+02 -8.700000e+01 -9.200000e+01
      vertex -1.740000e+02 -8.700000e+01 -8.200000e+01
      vertex -1.460000e+02 -8.700000e+01 -4.000000e+01
    endloop
  endfacet
  facet normal 0.000000e+00 1.000000e+00 0.000000e+00
    outer loop
      vertex -1.460000e+02 -8.700000e+01 -4.000000e+01
      vertex -1.740000e+02 -8.700000e+01 -8.200000e+01
      vertex -1.700000e+02 -8.700000e+01 -4.000000e+01
    endloop
  endfacet
  facet normal -0.000000e+00 1.000000e+00 0.000000e+00
    outer loop
      vertex -1.460000e+02 -8.700000e+01 -4.000000e+01
      vertex -1.460000e+02 -8.700000e+01 -3.600000e+01
      vertex -1.360000e+02 -8.700000e+01 -5.000000e+01
    endloop
  endfacet
  facet normal 0.000000e+00 1.000000e+00 -0.000000e+00
    outer loop
      vertex -1.360000e+02 -8.700000e+01 -5.000000e+01
      vertex -1.460000e+02 -8.700000e+01 -3.600000e+01
      vertex -1.360000e+02 -8.700000e+01 -3.400000e+01
    endloop
  endfacet
  facet normal 0.000000e+00 1.000000e+00 -0.000000e+00
    outer loop
      vertex -1.460000e+02 -8.700000e+01 -3.600000e+01
      vertex -1.700000e+02 -8.700000e+01 -3.600000e+01
      vertex -1.360000e+02 -8.700000e+01 -3.400000e+01
    endloop
  endfacet
  facet normal 0.000000e+00 1.000000e+00 0.000000e+00
    outer loop
      vertex -1.360000e+02 -8.700000e+01 -3.400000e+01
      vertex -1.700000e+02 -8.700000e+01 -3.600000e+01
      vertex -1.800000e+02 -8.700000e+01 -3.400000e+01
    endloop
  endfacet
  facet normal 0.000000e+00 1.000000e+00 -0.000000e+00
    outer loop
      vertex -1.420000e+02 -8.700000e+01 -8.200000e+01
      vertex -1.460000e+02 -8.700000e+01 -4.000000e+01
      vertex -1.360000e+02 -8.700000e+01 -5.000000e+01
    endloop
  endfacet
  facet normal 0.000000e+00 1.000000e+00 0.000000e+00
    outer loop
      vertex -1.420000e+02 -8.700000e+01 -8.200000e+01
      vertex -1.360000e+02 -8.700000e+01 -5.000000e+01
      vertex -1.260000e+02 -8.700000e+01 -5.000000e+01
    endloop
  endfacet
  facet normal 0.000000e+00 1.000000e+00 0.000000e+00
    outer loop
      vertex -1.420000e+02 -8.700000e+01 -8.200000e+01
      vertex -1.260000e+02 -8.700000e+01 -5.000000e+01
      vertex -1.260000e+02 -8.700000e+01 -8.200000e+01
    endloop
  endfacet
  facet normal 0.000000e+00 1.000000e+00 0.000000e+00
    outer loop
      vertex -1.800000e+02 -8.700000e+01 -5.000000e+01
      vertex -1.800000e+02 -8.700000e+01 -3.400000e+01
      vertex -1.700000e+02 -8.700000e+01 -3.600000e+01
    endloop
  endfacet
  facet normal 0.000000e+00 1.000000e+00 0.000000e+00
    outer loop
      vertex -1.800000e+02 -8.700000e+01 -5.000000e+01
      vertex -1.700000e+02 -8.700000e+01 -3.600000e+01
      vertex -1.700000e+02 -8.700000e+01 -4.000000e+01
    endloop
  endfacet
  facet normal -0.000000e+00 1.000000e+00 0.000000e+00
    outer loop
      vertex -1.800000e+02 -8.700000e+01 -5.000000e+01
      vertex -1.700000e+02 -8.700000e+01 -4.000000e+01
      vertex -1.740000e+02 -8.700000e+01 -8.200000e+01
    endloop
  endfacet
  facet normal 0.000000e+00 1.000000e+00 0.000000e+00
    outer loop
      vertex -1.800000e+02 -8.700000e+01 -5.000000e+01
      vertex -1.740000e+02 -8.700000e+01 -8.200000e+01
      vertex -1.900000e+02 -8.700000e+01 -5.000000e+01
    endloop
  endfacet
  facet normal 1.000000e+00 0.000000e+00 -0.000000e+00
    outer loop
      vertex -1.360000e+02 -5.200000e+01 -5.000000e+01
      vertex -1.360000e+02 -5.200000e+01 -3.400000e+01
      vertex -1.360000e+02 -5.500000e+01 -5.000000e+01
    endloop
  endfacet
  facet normal 1.000000e+00 0.000000e+00 0.000000e+00
    outer loop
      vertex -1.360000e+02 -5.500000e+01 -5.000000e+01
      vertex -1.360000e+02 -5.200000e+01 -3.400000e+01
      vertex -1.360000e+02 -5.500000e+01 -3.400000e+01
    endloop
  endfacet
  facet normal -0.000000e+00 0.000000e+00 1.000000e+00
    outer loop
      vertex -1.800000e+02 -5.200000e+01 -3.400000e+01
      vertex -1.800000e+02 -5.500000e+01 -3.400000e+01
      vertex -1.360000e+02 -5.200000e+01 -3.400000e+01
    endloop
  endfacet
  facet normal 0.000000e+00 0.000000e+00 1.000000e+00
    outer loop
      vertex -1.360000e+02 -5.200000e+01 -3.400000e+01
      vertex -1.800000e+02 -5.500000e+01 -3.400000e+01
      vertex -1.360000e+02 -5.500000e+01 -3.400000e+01
    endloop
  endfacet
  facet normal -1.000000e+00 -0.000000e+00 -0.000000e+00
    outer loop
      vertex -1.800000e+02 -5.200000e+01 -3.400000e+01
      vertex -1.800000e+02 -5.200000e+01 -5.000000e+01
      vertex -1.800000e+02 -5.500000e+01 -3.400000e+01
    endloop
  endfacet
  facet normal -1.000000e+00 0.000000e+00 0.000000e+00
    outer loop
      vertex -1.800000e+02 -5.500000e+01 -3.400000e+01
      vertex -1.800000e+02 -5.200000e+01 -5.000000e+01
      vertex -1.800000e+02 -5.500000e+01 -5.000000e+01
    endloop
  endfacet
  facet normal 0.000000e+00 0.000000e+00 1.000000e+00
    outer loop
      vertex -1.800000e+02 -5.200000e+01 -5.000000e+01
      vertex -1.900000e+02 -5.200000e+01 -5.000000e+01
      vertex -1.800000e+02 -5.500000e+01 -5.000000e+01
    endloop
  endfacet
  facet normal 0.000000e+00 0.000000e+00 1.000000e+00
    outer loop
      vertex -1.800000e+02 -5.500000e+01 -5.000000e+01
      vertex -1.900000e+02 -5.200000e+01 -5.000000e+01
      vertex -1.900000e+02 -5.500000e+01 -5.000000e+01
    endloop
  endfacet
  facet normal -1.000000e+00 -0.000000e+00 -0.000000e+00
    outer loop
      vertex -1.900000e+02 -5.200000e+01 -5.000000e+01
      vertex -1.900000e+02 -5.200000e+01 -8.200000e+01
      vertex -1.900000e+02 -5.500000e+01 -5.000000e+01
    endloop
  endfacet
  facet normal -1.000000e+00 0.000000e+00 0.000000e+00
    outer loop
      vertex -1.900000e+02 -5.500000e+01 -5.000000e+01
      vertex -1.900000e+02 -5.200000e+01 -8.200000e+01
      vertex -1.900000e+02 -5.500000e+01 -8.200000e+01
    endloop
  endfacet
  facet normal 0.000000e+00 0.000000e+00 -1.000000e+00
    outer loop
      vertex -1.900000e+02 -5.200000e+01 -8.200000e+01
      vertex -1.740000e+02 -5.200000e+01 -8.200000e+01
      vertex -1.900000e+02 -5.500000e+01 -8.200000e+01
    endloop
  endfacet
  facet normal 0.000000e+00 0.000000e+00 -1.000000e+00
    outer loop
      vertex -1.900000e+02 -5.500000e+01 -8.200000e+01
      vertex -1.740000e+02 -5.200000e+01 -8.200000e+01
      vertex -1.740000e+02 -5.500000e+01 -8.200000e+01
    endloop
  endfacet
  facet normal -1.000000e+00 -0.000000e+00 -0.000000e+00
    outer loop
      vertex -1.740000e+02 -5.200000e+01 -8.200000e+01
      vertex -1.740000e+02 -5.200000e+01 -9.200000e+01
      vertex -1.740000e+02 -5.500000e+01 -8.200000e+01
    endloop
  endfacet
  facet normal -1.000000e+00 0.000000e+00 0.000000e+00
    outer loop
      vertex -1.740000e+02 -5.500000e+01 -8.200000e+01
      vertex -1.740000e+02 -5.200000e+01 -9.200000e+01
      vertex -1.740000e+02 -5.500000e+01 -9.200000e+01
    endloop
  endfacet
  facet normal -0.000000e+00 -0.000000e+00 -1.000000e+00
    outer loop
      vertex -1.420000e+02 -5.200000e+01 -9.200000e+01
      vertex -1.420000e+02 -5.500000e+01 -9.200000e+01
      vertex -1.740000e+02 -5.200000e+01 -9.200000e+01
    endloop
  endfacet
  facet normal 0.000000e+00 0.000000e+00 -1.000000e+00
    outer loop
      vertex -1.740000e+02 -5.200000e+01 -9.200000e+01
      vertex -1.420000e+02 -5.500000e+01 -9.200000e+01
      vertex -1.740000e+02 -5.500000e+01 -9.200000e+01
    endloop
  endfacet
  facet normal 1.000000e+00 0.000000e+00 -0.000000e+00
    outer loop
      vertex -1.420000e+02 -5.200000e+01 -9.200000e+01
      vertex -1.420000e+02 -5.200000e+01 -8.200000e+01
      vertex -1.420000e+02 -5.500000e+01 -9.200000e+01
    endloop
  endfacet
  facet normal 1.000000e+00 0.000000e+00 0.000000e+00
    outer loop
      vertex -1.420000e+02 -5.500000e+01 -9.200000e+01
      vertex -1.420000e+02 -5.200000e+01 -8.200000e+01
      vertex -1.420000e+02 -5.500000e+01 -8.200000e+01
    endloop
  endfacet
  facet normal 0.000000e+00 0.000000e+00 -1.000000e+00
    outer loop
      vertex -1.420000e+02 -5.200000e+01 -8.200000e+01
      vertex -1.260000e+02 -5.200000e+01 -8.200000e+01
      vertex -1.420000e+02 -5.500000e+01 -8.200000e+01
    endloop
  endfacet
  facet normal 0.000000e+00 0.000000e+00 -1.000000e+00
    outer loop
      vertex -1.420000e+02 -5.500000e+01 -8.200000e+01
      vertex -1.260000e+02 -5.200000e+01 -8.200000e+01
      vertex -1.260000e+02 -5.500000e+01 -8.200000e+01
    endloop
  endfacet
  facet normal 1.000000e+00 0.000000e+00 -0.000000e+00
    outer loop
      vertex -1.260000e+02 -5.200000e+01 -8.200000e+01
      vertex -1.260000e+02 -5.200000e+01 -5.000000e+01
      vertex -1.260000e+02 -5.500000e+01 -8.200000e+01
    endloop
  endfacet
  facet normal 1.000000e+00 0.000000e+00 0.000000e+00
    outer loop
      vertex -1.260000e+02 -5.500000e+01 -8.200000e+01
      vertex -1.260000e+02 -5.200000e+01 -5.000000e+01
      vertex -1.260000e+02 -5.500000e+01 -5.000000e+01
    endloop
  endfacet
  facet normal 0.000000e+00 0.000000e+00 1.000000e+00
    outer loop
      vertex -1.260000e+02 -5.200000e+01 -5.000000e+01
      vertex -1.360000e+02 -5.200000e+01 -5.000000e+01
      vertex -1.260000e+02 -5.500000e+01 -5.000000e+01
    endloop
  endfacet
  facet normal 0.000000e+00 0.000000e+00 1.000000e+00
    outer loop
      vertex -1.260000e+02 -5.500000e+01 -5.000000e+01
      vertex -1.360000e+02 -5.200000e+01 -5.000000e+01
      vertex -1.360000e+02 -5.500000e+01 -5.000000e+01
    endloop
  endfacet
  facet normal 0.000000e+00 0.000000e+00 -1.000000e+00
    outer loop
      vertex -1.700000e+02 -5.200000e+01 -3.600000e+01
      vertex -1.460000e+02 -5.200000e+01 -3.600000e+01
      vertex -1.700000e+02 -5.500000e+01 -3.600000e+01
    endloop
  endfacet
  facet normal 0.000000e+00 0.000000e+00 -1.000000e+00
    outer loop
      vertex -1.700000e+02 -5.500000e+01 -3.600000e+01
      vertex -1.460000e+02 -5.200000e+01 -3.600000e+01
      vertex -1.460000e+02 -5.500000e+01 -3.600000e+01
    endloop
  endfacet
  facet normal -1.000000e+00 0.000000e+00 0.000000e+00
    outer loop
      vertex -1.460000e+02 -5.200000e+01 -4.000000e+01
      vertex -1.460000e+02 -5.500000e+01 -4.000000e+01
      vertex -1.460000e+02 -5.200000e+01 -3.600000e+01
    endloop
  endfacet
  facet normal -1.000000e+00 -0.000000e+00 0.000000e+00
    outer loop
      vertex -1.460000e+02 -5.200000e+01 -3.600000e+01
      vertex -1.460000e+02 -5.500000e+01 -4.000000e+01
      vertex -1.460000e+02 -5.500000e+01 -3.600000e+01
    endloop
  endfacet
  facet normal 0.000000e+00 0.000000e+00 1.000000e+00
    outer loop
      vertex -1.460000e+02 -5.200000e+01 -4.000000e+01
      vertex -1.700000e+02 -5.200000e+01 -4.000000e+01
      vertex -1.460000e+02 -5.500000e+01 -4.000000e+01
    endloop
  endfacet
  facet normal 0.000000e+00 0.000000e+00 1.000000e+00
    outer loop
      vertex -1.460000e+02 -5.500000e+01 -4.000000e+01
      vertex -1.700000e+02 -5.200000e+01 -4.000000e+01
      vertex -1.700000e+02 -5.500000e+01 -4.000000e+01
    endloop
  endfacet
  facet normal 1.000000e+00 0.000000e+00 0.000000e+00
    outer loop
      vertex -1.700000e+02 -5.200000e+01 -3.600000e+01
      vertex -1.700000e+02 -5.500000e+01 -3.600000e+01
      vertex -1.700000e+02 -5.200000e+01 -4.000000e+01
    endloop
  endfacet
  facet normal 1.000000e+00 0.000000e+00 0.000000e+00
    outer loop
      vertex -1.700000e+02 -5.200000e+01 -4.000000e+01
      vertex -1.700000e+02 -5.500000e+01 -3.600000e+01
      vertex -1.700000e+02 -5.500000e+01 -4.000000e+01
    endloop
  endfacet
  facet normal 0.000000e+00 -1.000000e+00 0.000000e+00
    outer loop
      vertex -1.740000e+02 -5.500000e+01 -8.200000e+01
      vertex -1.900000e+02 -5.500000e+01 -5.000000e+01
      vertex -1.900000e+02 -5.500000e+01 -8.200000e+01
    endloop
  endfacet
  facet normal 0.000000e+00 -1.000000e+00 0.000000e+00
    outer loop
      vertex -1.420000e+02 -5.500000e+01 -9.200000e+01
      vertex -1.420000e+02 -5.500000e+01 -8.200000e+01
      vertex -1.740000e+02 -5.500000e+01 -9.200000e+01
    endloop
  endfacet
  facet normal 0.000000e+00 -1.000000e+00 0.000000e+00
    outer loop
      vertex -1.740000e+02 -5.500000e+01 -9.200000e+01
      vertex -1.420000e+02 -5.500000e+01 -8.200000e+01
      vertex -1.460000e+02 -5.500000e+01 -4.000000e+01
    endloop
  endfacet
  facet normal 0.000000e+00 -1.000000e+00 0.000000e+00
    outer loop
      vertex -1.740000e+02 -5.500000e+01 -9.200000e+01
      vertex -1.460000e+02 -5.500000e+01 -4.000000e+01
      vertex -1.740000e+02 -5.500000e+01 -8.200000e+01
    endloop
  endfacet
  facet normal 0.000000e+00 -1.000000e+00 0.000000e+00
    outer loop
      vertex -1.740000e+02 -5.500000e+01 -8.200000e+01
      vertex -1.460000e+02 -5.500000e+01 -4.000000e+01
      vertex -1.700000e+02 -5.500000e+01 -4.000000e+01
    endloop
  endfacet
  facet normal 0.000000e+00 -1.000000e+00 0.000000e+00
    outer loop
      vertex -1.460000e+02 -5.500000e+01 -4.000000e+01
      vertex -1.360000e+02 -5.500000e+01 -5.000000e+01
      vertex -1.460000e+02 -5.500000e+01 -3.600000e+01
    endloop
  endfacet
  facet normal 0.000000e+00 -1.000000e+00 0.000000e+00
    outer loop
      vertex -1.460000e+02 -5.500000e+01 -3.600000e+01
      vertex -1.360000e+02 -5.500000e+01 -5.000000e+01
      vertex -1.360000e+02 -5.500000e+01 -3.400000e+01
    endloop
  endfacet
  facet normal 0.000000e+00 -1.000000e+00 0.000000e+00
    outer loop
      vertex -1.460000e+02 -5.500000e+01 -3.600000e+01
      vertex -1.360000e+02 -5.500000e+01 -3.400000e+01
      vertex -1.700000e+02 -5.500000e+01 -3.600000e+01
    endloop
  endfacet
  facet normal 0.000000e+00 -1.000000e+00 0.000000e+00
    outer loop
      vertex -1.700000e+02 -5.500000e+01 -3.600000e+01
      vertex -1.360000e+02 -5.500000e+01 -3.400000e+01
      vertex -1.800000e+02 -5.500000e+01 -3.400000e+01
    endloop
  endfacet
  facet normal 0.000000e+00 -1.000000e+00 0.000000e+00
    outer loop
      vertex -1.420000e+02 -5.500000e+01 -8.200000e+01
      vertex -1.260000e+02 -5.500000e+01 -8.200000e+01
      vertex -1.260000e+02 -5.500000e+01 -5.000000e+01
    endloop
  endfacet
  facet normal 0.000000e+00 -1.000000e+00 0.000000e+00
    outer loop
      vertex -1.420000e+02 -5.500000e+01 -8.200000e+01
      vertex -1.260000e+02 -5.500000e+01 -5.000000e+01
      vertex -1.360000e+02 -5.500000e+01 -5.000000e+01
    endloop
  endfacet
  facet normal 0.000000e+00 -1.000000e+00 0.000000e+00
    outer loop
      vertex -1.420000e+02 -5.500000e+01 -8.200000e+01
      vertex -1.360000e+02 -5.500000e+01 -5.000000e+01
      vertex -1.460000e+02 -5.500000e+01 -4.000000e+01
    endloop
  endfacet
  facet normal -0.000000e+00 -1.000000e+00 -0.000000e+00
    outer loop
      vertex -1.800000e+02 -5.500000e+01 -5.000000e+01
      vertex -1.900000e+02 -5.500000e+01 -5.000000e+01
      vertex -1.740000e+02 -5.500000e+01 -8.200000e+01
    endloop
  endfacet
  facet normal 0.000000e+00 -1.000000e+00 0.000000e+00
    outer loop
      vertex -1.800000e+02 -5.500000e+01 -5.000000e+01
      vertex -1.740000e+02 -5.500000e+01 -8.200000e+01
      vertex -1.700000e+02 -5.500000e+01 -4.000000e+01
    endloop
  endfacet
  facet normal 0.000000e+00 -1.000000e+00 0.000000e+00
    outer loop
      vertex -1.800000e+02 -5.500000e+01 -5.000000e+01
      vertex -1.700000e+02 -5.500000e+01 -4.000000e+01
      vertex -1.700000e+02 -5.500000e+01 -3.600000e+01
    endloop
  endfacet
  facet normal 0.000000e+00 -1.000000e+00 0.000000e+00
    outer loop
      vertex -1.800000e+02 -5.500000e+01 -5.000000e+01
      vertex -1.700000e+02 -5.500000e+01 -3.600000e+01
      vertex -1.800000e+02 -5.500000e+01 -3.400000e+01
    endloop
  endfacet
  facet normal 0.000000e+00 1.000000e+00 0.000000e+00
    outer loop
      vertex -1.900000e+02 -5.200000e+01 -8.200000e+01
      vertex -1.900000e+02 -5.200000e+01 -5.000000e+01
      vertex -1.740000e+02 -5.200000e+01 -8.200000e+01
    endloop
  endfacet
  facet normal 0.000000e+00 1.000000e+00 -0.000000e+00
    outer loop
      vertex -1.420000e+02 -5.200000e+01 -9.200000e+01
      vertex -1.740000e+02 -5.200000e+01 -9.200000e+01
      vertex -1.420000e+02 -5.200000e+01 -8.200000e+01
    endloop
  endfacet
  facet normal 0.000000e+00 1.000000e+00 0.000000e+00
    outer loop
      vertex -1.420000e+02 -5.200000e+01 -8.200000e+01
      vertex -1.740000e+02 -5.200000e+01 -9.200000e+01
      vertex -1.460000e+02 -5.200000e+01 -4.000000e+01
    endloop
  endfacet
  facet normal 0.000000e+00 1.000000e+00 0.000000e+00
    outer loop
      vertex -1.740000e+02 -5.200000e+01 -9.200000e+01
      vertex -1.740000e+02 -5.200000e+01 -8.200000e+01
      vertex -1.460000e+02 -5.200000e+01 -4.000000e+01
    endloop
  endfacet
  facet normal 0.000000e+00 1.000000e+00 0.000000e+00
    outer loop
      vertex -1.460000e+02 -5.200000e+01 -4.000000e+01
      vertex -1.740000e+02 -5.200000e+01 -8.200000e+01
      vertex -1.700000e+02 -5.200000e+01 -4.000000e+01
    endloop
  endfacet
  facet normal -0.000000e+00 1.000000e+00 0.000000e+00
    outer loop
      vertex -1.460000e+02 -5.200000e+01 -4.000000e+01
      vertex -1.460000e+02 -5.200000e+01 -3.600000e+01
      vertex -1.360000e+02 -5.200000e+01 -5.000000e+01
    endloop
  endfacet
  facet normal 0.000000e+00 1.000000e+00 -0.000000e+00
    outer loop
      vertex -1.360000e+02 -5.200000e+01 -5.000000e+01
      vertex -1.460000e+02 -5.200000e+01 -3.600000e+01
      vertex -1.360000e+02 -5.200000e+01 -3.400000e+01
    endloop
  endfacet
  facet normal 0.000000e+00 1.000000e+00 -0.000000e+00
    outer loop
      vertex -1.460000e+02 -5.200000e+01 -3.600000e+01
      vertex -1.700000e+02 -5.200000e+01 -3.600000e+01
      vertex -1.360000e+02 -5.200000e+01 -3.400000e+01
    endloop
  endfacet
  facet normal 0.000000e+00 1.000000e+00 0.000000e+00
    outer loop
      vertex -1.360000e+02 -5.200000e+01 -3.400000e+01
      vertex -1.700000e+02 -5.200000e+01 -3.600000e+01
      vertex -1.800000e+02 -5.200000e+01 -3.400000e+01
    endloop
  endfacet
  facet normal 0.000000e+00 1.000000e+00 -0.000000e+00
    outer loop
      vertex -1.420000e+02 -5.200000e+01 -8.200000e+01
      vertex -1.460000e+02 -5.200000e+01 -4.000000e+01
      vertex -1.360000e+02 -5.200000e+01 -5.000000e+01
    endloop
  endfacet
  facet normal 0.000000e+00 1.000000e+00 0.000000e+00
    outer loop
      vertex -1.420000e+02 -5.200000e+01 -8.200000e+01
      vertex -1.360000e+02 -5.200000e+01 -5.000000e+01
      vertex -1.260000e+02 -5.200000e+01 -5.000000e+01
    endloop
  endfacet
  facet normal 0.000000e+00 1.000000e+00 0.000000e+00
    outer loop
      vertex -1.420000e+02 -5.200000e+01 -8.200000e+01
      vertex -1.260000e+02 -5.200000e+01 -5.000000e+01
      vertex -1.260000e+02 -5.200000e+01 -8.200000e+01
    endloop
  endfacet
  facet normal 0.000000e+00 1.000000e+00 0.000000e+00
    outer loop
      vertex -1.800000e+02 -5.200000e+01 -5.000000e+01
      vertex -1.800000e+02 -5.200000e+01 -3.400000e+01
      vertex -1.700000e+02 -5.200000e+01 -3.600000e+01
    endloop
  endfacet
  facet normal 0.000000e+00 1.000000e+00 0.000000e+00
    outer loop
      vertex -1.800000e+02 -5.200000e+01 -5.000000e+01
      vertex -1.700000e+02 -5.200000e+01 -3.600000e+01
      vertex -1.700000e+02 -5.200000e+01 -4.000000e+01
    endloop
  endfacet
  facet normal -0.000000e+00 1.000000e+00 0.000000e+00
    outer loop
      vertex -1.800000e+02 -5.200000e+01 -5.000000e+01
      vertex -1.700000e+02 -5.200000e+01 -4.000000e+01
      vertex -1.740000e+02 -5.200000e+01 -8.200000e+01
    endloop
  endfacet
  facet normal 0.000000e+00 1.000000e+00 0.000000e+00
    outer loop
      vertex -1.800000e+02 -5.200000e+01 -5.000000e+01
      vertex -1.740000e+02 -5.200000e+01 -8.200000e+01
      vertex -1.900000e+02 -5.200000e+01 -5.000000e+01
    endloop
  endfacet
endsolid
