solid CATIA STL
  facet normal  0.000000e+000  0.000000e+000  1.000000e+000
    outer loop
      vertex  2.327556e+000  1.000000e+001 -4.975002e+001
      vertex -5.767244e+001 -1.000000e+001 -4.975002e+001
      vertex -4.247244e+001 -1.000000e+001 -4.975002e+001
    endloop
  endfacet
  facet normal  0.000000e+000  0.000000e+000  1.000000e+000
    outer loop
      vertex  2.327556e+000  1.000000e+001 -4.975002e+001
      vertex -4.247244e+001 -1.000000e+001 -4.975002e+001
      vertex -1.287244e+001 -1.000000e+001 -4.975002e+001
    endloop
  endfacet
  facet normal  0.000000e+000  0.000000e+000  1.000000e+000
    outer loop
      vertex  2.327556e+000  1.000000e+001 -4.975002e+001
      vertex -1.287244e+001 -1.000000e+001 -4.975002e+001
      vertex  2.327556e+000 -1.000000e+001 -4.975002e+001
    endloop
  endfacet
  facet normal  0.000000e+000  0.000000e+000  1.000000e+000
    outer loop
      vertex -5.767244e+001 -1.000000e+001 -4.975002e+001
      vertex  2.327556e+000  1.000000e+001 -4.975002e+001
      vertex -1.287244e+001  1.000000e+001 -4.975002e+001
    endloop
  endfacet
  facet normal  0.000000e+000  0.000000e+000  1.000000e+000
    outer loop
      vertex -5.767244e+001 -1.000000e+001 -4.975002e+001
      vertex -1.287244e+001  1.000000e+001 -4.975002e+001
      vertex -4.247244e+001  1.000000e+001 -4.975002e+001
    endloop
  endfacet
  facet normal  0.000000e+000  0.000000e+000  1.000000e+000
    outer loop
      vertex -5.767244e+001 -1.000000e+001 -4.975002e+001
      vertex -4.247244e+001  1.000000e+001 -4.975002e+001
      vertex -5.767244e+001  1.000000e+001 -4.975002e+001
    endloop
  endfacet
  facet normal  0.000000e+000  0.000000e+000  1.000000e+000
    outer loop
      vertex -4.247244e+001  1.000000e+001 -4.975002e+001
      vertex -1.287244e+001  1.000000e+001 -4.975002e+001
      vertex -4.247244e+001  1.300000e+001 -4.975002e+001
    endloop
  endfacet
  facet normal  -0.000000e+000  0.000000e+000  1.000000e+000
    outer loop
      vertex -4.247244e+001  1.300000e+001 -4.975002e+001
      vertex -1.287244e+001  1.000000e+001 -4.975002e+001
      vertex -1.287244e+001  1.300000e+001 -4.975002e+001
    endloop
  endfacet
  facet normal  0.000000e+000  0.000000e+000  1.000000e+000
    outer loop
      vertex -4.247244e+001 -1.300000e+001 -4.975002e+001
      vertex -1.287244e+001 -1.300000e+001 -4.975002e+001
      vertex -4.247244e+001 -1.000000e+001 -4.975002e+001
    endloop
  endfacet
  facet normal  -0.000000e+000  0.000000e+000  1.000000e+000
    outer loop
      vertex -4.247244e+001 -1.000000e+001 -4.975002e+001
      vertex -1.287244e+001 -1.300000e+001 -4.975002e+001
      vertex -1.287244e+001 -1.000000e+001 -4.975002e+001
    endloop
  endfacet
  facet normal  0.000000e+000  0.000000e+000 -1.000000e+000
    outer loop
      vertex  2.327556e+000  1.000000e+001 -5.275002e+001
      vertex  2.327556e+000 -1.000000e+001 -5.275002e+001
      vertex -1.287244e+001 -1.000000e+001 -5.275002e+001
    endloop
  endfacet
  facet normal  0.000000e+000  0.000000e+000 -1.000000e+000
    outer loop
      vertex  2.327556e+000  1.000000e+001 -5.275002e+001
      vertex -1.287244e+001 -1.000000e+001 -5.275002e+001
      vertex -4.247244e+001 -1.000000e+001 -5.275002e+001
    endloop
  endfacet
  facet normal  0.000000e+000  0.000000e+000 -1.000000e+000
    outer loop
      vertex  2.327556e+000  1.000000e+001 -5.275002e+001
      vertex -4.247244e+001 -1.000000e+001 -5.275002e+001
      vertex -5.767244e+001 -1.000000e+001 -5.275002e+001
    endloop
  endfacet
  facet normal  0.000000e+000  0.000000e+000 -1.000000e+000
    outer loop
      vertex -5.767244e+001 -1.000000e+001 -5.275002e+001
      vertex -5.767244e+001  1.000000e+001 -5.275002e+001
      vertex -4.247244e+001  1.000000e+001 -5.275002e+001
    endloop
  endfacet
  facet normal  0.000000e+000  -0.000000e+000 -1.000000e+000
    outer loop
      vertex -5.767244e+001 -1.000000e+001 -5.275002e+001
      vertex -4.247244e+001  1.000000e+001 -5.275002e+001
      vertex -1.287244e+001  1.000000e+001 -5.275002e+001
    endloop
  endfacet
  facet normal  0.000000e+000  -0.000000e+000 -1.000000e+000
    outer loop
      vertex -5.767244e+001 -1.000000e+001 -5.275002e+001
      vertex -1.287244e+001  1.000000e+001 -5.275002e+001
      vertex  2.327556e+000  1.000000e+001 -5.275002e+001
    endloop
  endfacet
  facet normal  0.000000e+000  0.000000e+000 -1.000000e+000
    outer loop
      vertex -4.247244e+001  1.000000e+001 -5.275002e+001
      vertex -4.247244e+001  1.300000e+001 -5.275002e+001
      vertex -1.287244e+001  1.000000e+001 -5.275002e+001
    endloop
  endfacet
  facet normal  0.000000e+000  0.000000e+000 -1.000000e+000
    outer loop
      vertex -1.287244e+001  1.000000e+001 -5.275002e+001
      vertex -4.247244e+001  1.300000e+001 -5.275002e+001
      vertex -1.287244e+001  1.300000e+001 -5.275002e+001
    endloop
  endfacet
  facet normal  0.000000e+000  0.000000e+000 -1.000000e+000
    outer loop
      vertex -4.247244e+001 -1.300000e+001 -5.275002e+001
      vertex -4.247244e+001 -1.000000e+001 -5.275002e+001
      vertex -1.287244e+001 -1.300000e+001 -5.275002e+001
    endloop
  endfacet
  facet normal  0.000000e+000  0.000000e+000 -1.000000e+000
    outer loop
      vertex -1.287244e+001 -1.300000e+001 -5.275002e+001
      vertex -4.247244e+001 -1.000000e+001 -5.275002e+001
      vertex -1.287244e+001 -1.000000e+001 -5.275002e+001
    endloop
  endfacet
  facet normal  1.000000e+000  -0.000000e+000  0.000000e+000
    outer loop
      vertex -1.287244e+001  1.300000e+001 -4.975002e+001
      vertex -1.287244e+001  1.000000e+001 -4.975002e+001
      vertex -1.287244e+001  1.300000e+001 -5.275002e+001
    endloop
  endfacet
  facet normal  1.000000e+000  0.000000e+000  0.000000e+000
    outer loop
      vertex -1.287244e+001  1.300000e+001 -5.275002e+001
      vertex -1.287244e+001  1.000000e+001 -4.975002e+001
      vertex -1.287244e+001  1.000000e+001 -5.275002e+001
    endloop
  endfacet
  facet normal  0.000000e+000  1.000000e+000  0.000000e+000
    outer loop
      vertex -1.287244e+001  1.000000e+001 -4.975002e+001
      vertex  2.327556e+000  1.000000e+001 -4.975002e+001
      vertex -1.287244e+001  1.000000e+001 -5.275002e+001
    endloop
  endfacet
  facet normal  0.000000e+000  1.000000e+000  0.000000e+000
    outer loop
      vertex -1.287244e+001  1.000000e+001 -5.275002e+001
      vertex  2.327556e+000  1.000000e+001 -4.975002e+001
      vertex  2.327556e+000  1.000000e+001 -5.275002e+001
    endloop
  endfacet
  facet normal  1.000000e+000  -0.000000e+000  0.000000e+000
    outer loop
      vertex  2.327556e+000  1.000000e+001 -4.975002e+001
      vertex  2.327556e+000 -1.000000e+001 -4.975002e+001
      vertex  2.327556e+000  1.000000e+001 -5.275002e+001
    endloop
  endfacet
  facet normal  1.000000e+000  0.000000e+000  0.000000e+000
    outer loop
      vertex  2.327556e+000  1.000000e+001 -5.275002e+001
      vertex  2.327556e+000 -1.000000e+001 -4.975002e+001
      vertex  2.327556e+000 -1.000000e+001 -5.275002e+001
    endloop
  endfacet
  facet normal  0.000000e+000 -1.000000e+000  0.000000e+000
    outer loop
      vertex  2.327556e+000 -1.000000e+001 -4.975002e+001
      vertex -1.287244e+001 -1.000000e+001 -4.975002e+001
      vertex  2.327556e+000 -1.000000e+001 -5.275002e+001
    endloop
  endfacet
  facet normal  0.000000e+000 -1.000000e+000  0.000000e+000
    outer loop
      vertex  2.327556e+000 -1.000000e+001 -5.275002e+001
      vertex -1.287244e+001 -1.000000e+001 -4.975002e+001
      vertex -1.287244e+001 -1.000000e+001 -5.275002e+001
    endloop
  endfacet
  facet normal  1.000000e+000  -0.000000e+000  0.000000e+000
    outer loop
      vertex -1.287244e+001 -1.000000e+001 -4.975002e+001
      vertex -1.287244e+001 -1.300000e+001 -4.975002e+001
      vertex -1.287244e+001 -1.000000e+001 -5.275002e+001
    endloop
  endfacet
  facet normal  1.000000e+000  0.000000e+000  0.000000e+000
    outer loop
      vertex -1.287244e+001 -1.000000e+001 -5.275002e+001
      vertex -1.287244e+001 -1.300000e+001 -4.975002e+001
      vertex -1.287244e+001 -1.300000e+001 -5.275002e+001
    endloop
  endfacet
  facet normal  0.000000e+000 -1.000000e+000  0.000000e+000
    outer loop
      vertex -1.287244e+001 -1.300000e+001 -4.975002e+001
      vertex -4.247244e+001 -1.300000e+001 -4.975002e+001
      vertex -1.287244e+001 -1.300000e+001 -5.275002e+001
    endloop
  endfacet
  facet normal  0.000000e+000 -1.000000e+000  0.000000e+000
    outer loop
      vertex -1.287244e+001 -1.300000e+001 -5.275002e+001
      vertex -4.247244e+001 -1.300000e+001 -4.975002e+001
      vertex -4.247244e+001 -1.300000e+001 -5.275002e+001
    endloop
  endfacet
  facet normal -1.000000e+000  -0.000000e+000  0.000000e+000
    outer loop
      vertex -4.247244e+001 -1.300000e+001 -4.975002e+001
      vertex -4.247244e+001 -1.000000e+001 -4.975002e+001
      vertex -4.247244e+001 -1.300000e+001 -5.275002e+001
    endloop
  endfacet
  facet normal -1.000000e+000  0.000000e+000  0.000000e+000
    outer loop
      vertex -4.247244e+001 -1.300000e+001 -5.275002e+001
      vertex -4.247244e+001 -1.000000e+001 -4.975002e+001
      vertex -4.247244e+001 -1.000000e+001 -5.275002e+001
    endloop
  endfacet
  facet normal  0.000000e+000 -1.000000e+000  0.000000e+000
    outer loop
      vertex -4.247244e+001 -1.000000e+001 -4.975002e+001
      vertex -5.767244e+001 -1.000000e+001 -4.975002e+001
      vertex -4.247244e+001 -1.000000e+001 -5.275002e+001
    endloop
  endfacet
  facet normal  0.000000e+000 -1.000000e+000  0.000000e+000
    outer loop
      vertex -4.247244e+001 -1.000000e+001 -5.275002e+001
      vertex -5.767244e+001 -1.000000e+001 -4.975002e+001
      vertex -5.767244e+001 -1.000000e+001 -5.275002e+001
    endloop
  endfacet
  facet normal -1.000000e+000  -0.000000e+000  0.000000e+000
    outer loop
      vertex -5.767244e+001 -1.000000e+001 -4.975002e+001
      vertex -5.767244e+001  1.000000e+001 -4.975002e+001
      vertex -5.767244e+001 -1.000000e+001 -5.275002e+001
    endloop
  endfacet
  facet normal -1.000000e+000  0.000000e+000  0.000000e+000
    outer loop
      vertex -5.767244e+001 -1.000000e+001 -5.275002e+001
      vertex -5.767244e+001  1.000000e+001 -4.975002e+001
      vertex -5.767244e+001  1.000000e+001 -5.275002e+001
    endloop
  endfacet
  facet normal  0.000000e+000  1.000000e+000  0.000000e+000
    outer loop
      vertex -5.767244e+001  1.000000e+001 -4.975002e+001
      vertex -4.247244e+001  1.000000e+001 -4.975002e+001
      vertex -5.767244e+001  1.000000e+001 -5.275002e+001
    endloop
  endfacet
  facet normal  0.000000e+000  1.000000e+000  0.000000e+000
    outer loop
      vertex -5.767244e+001  1.000000e+001 -5.275002e+001
      vertex -4.247244e+001  1.000000e+001 -4.975002e+001
      vertex -4.247244e+001  1.000000e+001 -5.275002e+001
    endloop
  endfacet
  facet normal -1.000000e+000  -0.000000e+000  0.000000e+000
    outer loop
      vertex -4.247244e+001  1.000000e+001 -4.975002e+001
      vertex -4.247244e+001  1.300000e+001 -4.975002e+001
      vertex -4.247244e+001  1.000000e+001 -5.275002e+001
    endloop
  endfacet
  facet normal -1.000000e+000  0.000000e+000  0.000000e+000
    outer loop
      vertex -4.247244e+001  1.000000e+001 -5.275002e+001
      vertex -4.247244e+001  1.300000e+001 -4.975002e+001
      vertex -4.247244e+001  1.300000e+001 -5.275002e+001
    endloop
  endfacet
  facet normal  0.000000e+000  1.000000e+000  0.000000e+000
    outer loop
      vertex -4.247244e+001  1.300000e+001 -4.975002e+001
      vertex -1.287244e+001  1.300000e+001 -4.975002e+001
      vertex -4.247244e+001  1.300000e+001 -5.275002e+001
    endloop
  endfacet
  facet normal  0.000000e+000  1.000000e+000  0.000000e+000
    outer loop
      vertex -4.247244e+001  1.300000e+001 -5.275002e+001
      vertex -1.287244e+001  1.300000e+001 -4.975002e+001
      vertex -1.287244e+001  1.300000e+001 -5.275002e+001
    endloop
  endfacet
endsolid CATIA STL
