solid CATIA STL
  facet normal  1.000000e+000 -1.726336e-006 -1.623520e-007
    outer loop
      vertex -4.467247e+001 -6.928351e+000  3.175810e+000
      vertex -4.467245e+001  6.213661e+000  4.411739e+000
      vertex -4.467246e+001 -7.141271e-001  7.587547e+000
    endloop
  endfacet
  facet normal  1.000000e+000 -1.726336e-006 -1.623520e-007
    outer loop
      vertex -4.467245e+001  6.213661e+000  4.411739e+000
      vertex -4.467247e+001 -6.928351e+000  3.175810e+000
      vertex -4.467245e+001  6.927226e+000 -3.175805e+000
    endloop
  endfacet
  facet normal  1.000000e+000 -1.726336e-006 -1.623520e-007
    outer loop
      vertex -4.467245e+001  6.927226e+000 -3.175805e+000
      vertex -4.467247e+001 -6.928351e+000  3.175810e+000
      vertex -4.467247e+001 -6.214787e+000 -4.411734e+000
    endloop
  endfacet
  facet normal  1.000000e+000 -1.726336e-006 -1.623520e-007
    outer loop
      vertex -4.467245e+001  6.927226e+000 -3.175805e+000
      vertex -4.467247e+001 -6.214787e+000 -4.411734e+000
      vertex -4.467246e+001  7.130015e-001 -7.587542e+000
    endloop
  endfacet
  facet normal -1.274942e-006 -7.071068e-001  7.071068e-001
    outer loop
      vertex -5.867246e+001 -5.366557e-004  7.000003e+000
      vertex -5.867246e+001 -2.000537e+000  5.000003e+000
      vertex -5.067246e+001 -5.515809e-004  7.000003e+000
    endloop
  endfacet
  facet normal -1.264405e-006 -7.071068e-001  7.071067e-001
    outer loop
      vertex -5.067246e+001 -5.515809e-004  7.000003e+000
      vertex -5.867246e+001 -2.000537e+000  5.000003e+000
      vertex -5.067246e+001 -2.000551e+000  5.000003e+000
    endloop
  endfacet
  facet normal  1.359236e-006  7.071068e-001  7.071068e-001
    outer loop
      vertex -5.867245e+001  1.999463e+000  5.000003e+000
      vertex -5.867246e+001 -5.366557e-004  7.000003e+000
      vertex -5.067245e+001  1.999448e+000  5.000003e+000
    endloop
  endfacet
  facet normal  1.359236e-006  7.071068e-001  7.071068e-001
    outer loop
      vertex -5.067245e+001  1.999448e+000  5.000003e+000
      vertex -5.867246e+001 -5.366557e-004  7.000003e+000
      vertex -5.067246e+001 -5.515809e-004  7.000003e+000
    endloop
  endfacet
  facet normal  8.815164e-007  4.167166e-001  9.090365e-001
    outer loop
      vertex -3.967247e+001 -6.214796e+000 -4.411735e+000
      vertex -3.967246e+001  7.129923e-001 -7.587542e+000
      vertex -4.467247e+001 -6.214787e+000 -4.411734e+000
    endloop
  endfacet
  facet normal  7.948239e-007  4.167166e-001  9.090364e-001
    outer loop
      vertex -4.467247e+001 -6.214787e+000 -4.411734e+000
      vertex -3.967246e+001  7.129923e-001 -7.587542e+000
      vertex -4.467246e+001  7.130015e-001 -7.587542e+000
    endloop
  endfacet
  facet normal -1.104146e-006 -5.788903e-001  8.154054e-001
    outer loop
      vertex -3.967246e+001  7.129923e-001 -7.587542e+000
      vertex -3.967245e+001  6.927216e+000 -3.175805e+000
      vertex -4.467246e+001  7.130015e-001 -7.587542e+000
    endloop
  endfacet
  facet normal -1.026383e-006 -5.788904e-001  8.154054e-001
    outer loop
      vertex -4.467246e+001  7.130015e-001 -7.587542e+000
      vertex -3.967245e+001  6.927216e+000 -3.175805e+000
      vertex -4.467245e+001  6.927226e+000 -3.175805e+000
    endloop
  endfacet
  facet normal -1.907899e-006 -9.956070e-001 -9.363104e-002
    outer loop
      vertex -3.967245e+001  6.927216e+000 -3.175805e+000
      vertex -3.967245e+001  6.213652e+000  4.411739e+000
      vertex -4.467245e+001  6.927226e+000 -3.175805e+000
    endloop
  endfacet
  facet normal -1.898970e-006 -9.956070e-001 -9.363104e-002
    outer loop
      vertex -4.467245e+001  6.927226e+000 -3.175805e+000
      vertex -3.967245e+001  6.213652e+000  4.411739e+000
      vertex -4.467245e+001  6.213661e+000  4.411739e+000
    endloop
  endfacet
  facet normal -7.948238e-007 -4.167166e-001 -9.090365e-001
    outer loop
      vertex -3.967245e+001  6.213652e+000  4.411739e+000
      vertex -3.967246e+001 -7.141365e-001  7.587546e+000
      vertex -4.467245e+001  6.213661e+000  4.411739e+000
    endloop
  endfacet
  facet normal -8.815165e-007 -4.167167e-001 -9.090365e-001
    outer loop
      vertex -4.467245e+001  6.213661e+000  4.411739e+000
      vertex -3.967246e+001 -7.141365e-001  7.587546e+000
      vertex -4.467246e+001 -7.141271e-001  7.587547e+000
    endloop
  endfacet
  facet normal  9.486194e-007  5.788903e-001 -8.154054e-001
    outer loop
      vertex -3.967246e+001 -7.141365e-001  7.587546e+000
      vertex -3.967247e+001 -6.928360e+000  3.175810e+000
      vertex -4.467246e+001 -7.141271e-001  7.587547e+000
    endloop
  endfacet
  facet normal  1.026383e-006  5.788904e-001 -8.154054e-001
    outer loop
      vertex -4.467246e+001 -7.141271e-001  7.587547e+000
      vertex -3.967247e+001 -6.928360e+000  3.175810e+000
      vertex -4.467247e+001 -6.928351e+000  3.175810e+000
    endloop
  endfacet
  facet normal  1.898970e-006  9.956070e-001  9.363104e-002
    outer loop
      vertex -3.967247e+001 -6.928360e+000  3.175810e+000
      vertex -3.967247e+001 -6.214796e+000 -4.411735e+000
      vertex -4.467247e+001 -6.928351e+000  3.175810e+000
    endloop
  endfacet
  facet normal  1.907899e-006  9.956070e-001  9.363104e-002
    outer loop
      vertex -4.467247e+001 -6.928351e+000  3.175810e+000
      vertex -3.967247e+001 -6.214796e+000 -4.411735e+000
      vertex -4.467247e+001 -6.214787e+000 -4.411734e+000
    endloop
  endfacet
  facet normal -1.000000e+000  1.907349e-006  0.000000e+000
    outer loop
      vertex -5.867245e+001  1.999463e+000 -6.708200e+000
      vertex -5.867246e+001 -5.366557e-004 -6.999997e+000
      vertex -5.867246e+001 -2.000537e+000 -6.708200e+000
    endloop
  endfacet
  facet normal -1.000000e+000  1.907349e-006  0.000000e+000
    outer loop
      vertex -5.867246e+001 -5.366557e-004  7.000003e+000
      vertex -5.867245e+001  1.999463e+000  5.000003e+000
      vertex -5.867246e+001 -2.000537e+000  5.000003e+000
    endloop
  endfacet
  facet normal -1.000000e+000  1.907349e-006  0.000000e+000
    outer loop
      vertex -5.867246e+001 -2.000537e+000  5.000003e+000
      vertex -5.867245e+001  1.999463e+000  5.000003e+000
      vertex -5.867245e+001  1.999463e+000 -6.708200e+000
    endloop
  endfacet
  facet normal -1.000000e+000  1.907349e-006  0.000000e+000
    outer loop
      vertex -5.867246e+001 -2.000537e+000  5.000003e+000
      vertex -5.867245e+001  1.999463e+000 -6.708200e+000
      vertex -5.867246e+001 -2.000537e+000 -6.708200e+000
    endloop
  endfacet
  facet normal -1.847744e-006 -1.000000e+000  0.000000e+000
    outer loop
      vertex -5.867246e+001 -2.000537e+000 -6.708200e+000
      vertex -5.067246e+001 -2.000551e+000 -6.708201e+000
      vertex -5.867246e+001 -2.000537e+000  5.000003e+000
    endloop
  endfacet
  facet normal -1.847744e-006 -1.000000e+000  0.000000e+000
    outer loop
      vertex -5.867246e+001 -2.000537e+000  5.000003e+000
      vertex -5.067246e+001 -2.000551e+000 -6.708201e+000
      vertex -5.067246e+001 -2.000551e+000  5.000003e+000
    endloop
  endfacet
  facet normal -1.000000e+000  1.418832e-006 -9.916749e-007
    outer loop
      vertex -5.067246e+001 -2.000551e+000 -6.708201e+000
      vertex -5.067247e+001 -4.010697e+000 -5.737482e+000
      vertex -5.067247e+001 -5.613038e+000 -4.183297e+000
    endloop
  endfacet
  facet normal -1.000000e+000  3.321842e-006  1.731041e-006
    outer loop
      vertex -5.067246e+001 -2.000551e+000 -6.708201e+000
      vertex -5.067247e+001 -5.613038e+000 -4.183297e+000
      vertex -5.067247e+001 -6.644624e+000 -2.203698e+000
    endloop
  endfacet
  facet normal -1.000000e+000  1.947996e-006  3.146277e-007
    outer loop
      vertex -5.067246e+001 -2.000551e+000 -6.708201e+000
      vertex -5.067247e+001 -6.644624e+000 -2.203698e+000
      vertex -5.067247e+001 -7.000552e+000  2.963327e-006
    endloop
  endfacet
  facet normal -1.000000e+000  1.258462e-006 -1.993209e-007
    outer loop
      vertex -5.067246e+001 -2.000551e+000 -6.708201e+000
      vertex -5.067247e+001 -7.000552e+000  2.963327e-006
      vertex -5.067247e+001 -6.657947e+000  2.163122e+000
    endloop
  endfacet
  facet normal -1.000000e+000  8.313098e-007 -4.235735e-007
    outer loop
      vertex -5.067246e+001 -2.000551e+000 -6.708201e+000
      vertex -5.067247e+001 -6.657947e+000  2.163122e+000
      vertex -5.067247e+001 -5.663671e+000  4.114500e+000
    endloop
  endfacet
  facet normal -1.000000e+000  2.367059e-006  9.622588e-008
    outer loop
      vertex -5.067246e+001 -2.000551e+000 -6.708201e+000
      vertex -5.067247e+001 -5.663671e+000  4.114500e+000
      vertex -5.067247e+001 -4.115048e+000  5.663122e+000
    endloop
  endfacet
  facet normal -1.000000e+000  1.804068e-006  0.000000e+000
    outer loop
      vertex -5.067246e+001 -2.000551e+000 -6.708201e+000
      vertex -5.067247e+001 -4.115048e+000  5.663122e+000
      vertex -5.067246e+001 -2.000551e+000  5.000003e+000
    endloop
  endfacet
  facet normal -1.000000e+000  1.677204e-006  5.449570e-007
    outer loop
      vertex -5.067246e+001 -2.163671e+000  6.657399e+000
      vertex -5.067246e+001 -5.515809e-004  7.000003e+000
      vertex -5.067247e+001 -4.115048e+000  5.663122e+000
    endloop
  endfacet
  facet normal -1.000000e+000  1.828725e-006  7.862356e-008
    outer loop
      vertex -5.067247e+001 -4.115048e+000  5.663122e+000
      vertex -5.067246e+001 -5.515809e-004  7.000003e+000
      vertex -5.067246e+001 -2.000551e+000  5.000003e+000
    endloop
  endfacet
  facet normal -1.000000e+000  1.804069e-006  0.000000e+000
    outer loop
      vertex -5.067245e+001  1.999448e+000 -6.708201e+000
      vertex -5.067245e+001  1.999448e+000  5.000003e+000
      vertex -5.067245e+001  4.113945e+000  5.663122e+000
    endloop
  endfacet
  facet normal -1.000000e+000  2.367058e-006 -9.622574e-008
    outer loop
      vertex -5.067245e+001  1.999448e+000 -6.708201e+000
      vertex -5.067245e+001  4.113945e+000  5.663122e+000
      vertex -5.067245e+001  5.662568e+000  4.114500e+000
    endloop
  endfacet
  facet normal -1.000000e+000  8.313096e-007  4.235734e-007
    outer loop
      vertex -5.067245e+001  1.999448e+000 -6.708201e+000
      vertex -5.067245e+001  5.662568e+000  4.114500e+000
      vertex -5.067245e+001  6.656844e+000  2.163122e+000
    endloop
  endfacet
  facet normal -1.000000e+000  1.258462e-006  1.993207e-007
    outer loop
      vertex -5.067245e+001  1.999448e+000 -6.708201e+000
      vertex -5.067245e+001  6.656844e+000  2.163122e+000
      vertex -5.067245e+001  6.999448e+000  2.963327e-006
    endloop
  endfacet
  facet normal -1.000000e+000  1.947996e-006 -3.146277e-007
    outer loop
      vertex -5.067245e+001  1.999448e+000 -6.708201e+000
      vertex -5.067245e+001  6.999448e+000  2.963327e-006
      vertex -5.067245e+001  6.643521e+000 -2.203698e+000
    endloop
  endfacet
  facet normal -1.000000e+000  3.321841e-006 -1.731040e-006
    outer loop
      vertex -5.067245e+001  1.999448e+000 -6.708201e+000
      vertex -5.067245e+001  6.643521e+000 -2.203698e+000
      vertex -5.067245e+001  5.611935e+000 -4.183297e+000
    endloop
  endfacet
  facet normal -1.000000e+000  1.418832e-006  9.916753e-007
    outer loop
      vertex -5.067245e+001  1.999448e+000 -6.708201e+000
      vertex -5.067245e+001  5.611935e+000 -4.183297e+000
      vertex -5.067245e+001  4.009594e+000 -5.737482e+000
    endloop
  endfacet
  facet normal -1.000000e+000  1.828725e-006 -7.862324e-008
    outer loop
      vertex -5.067245e+001  1.999448e+000  5.000003e+000
      vertex -5.067246e+001 -5.515809e-004  7.000003e+000
      vertex -5.067245e+001  4.113945e+000  5.663122e+000
    endloop
  endfacet
  facet normal -1.000000e+000  1.677204e-006 -5.449570e-007
    outer loop
      vertex -5.067245e+001  4.113945e+000  5.663122e+000
      vertex -5.067246e+001 -5.515809e-004  7.000003e+000
      vertex -5.067245e+001  2.162567e+000  6.657399e+000
    endloop
  endfacet
  facet normal  1.862645e-006  1.000000e+000  0.000000e+000
    outer loop
      vertex -5.867245e+001  1.999463e+000 -6.708200e+000
      vertex -5.867245e+001  1.999463e+000  5.000003e+000
      vertex -5.067245e+001  1.999448e+000 -6.708201e+000
    endloop
  endfacet
  facet normal  1.862645e-006  1.000000e+000  -0.000000e+000
    outer loop
      vertex -5.067245e+001  1.999448e+000 -6.708201e+000
      vertex -5.867245e+001  1.999463e+000  5.000003e+000
      vertex -5.067245e+001  1.999448e+000  5.000003e+000
    endloop
  endfacet
  facet normal  9.999999e-001 -6.867205e-007  5.979109e-006
    outer loop
      vertex -3.967246e+001 -5.721031e-004 -9.999998e+000
      vertex -3.967247e+001 -5.000572e+000 -8.660252e+000
      vertex -3.967246e+001 -2.588763e+000 -9.659256e+000
    endloop
  endfacet
  facet normal  9.999999e-001 -1.423664e-006 -3.814702e-007
    outer loop
      vertex -3.967246e+001 -5.721031e-004 -9.999998e+000
      vertex -3.967245e+001  2.587618e+000 -9.659256e+000
      vertex -3.967245e+001  4.999428e+000 -8.660252e+000
    endloop
  endfacet
  facet normal  1.000000e+000 -2.737757e-006 -2.574701e-007
    outer loop
      vertex -3.967247e+001 -6.214796e+000 -4.411735e+000
      vertex -3.967247e+001 -6.928360e+000  3.175810e+000
      vertex -3.967248e+001 -9.659830e+000  2.588193e+000
    endloop
  endfacet
  facet normal  1.000000e+000 -1.747219e-006  2.300260e-007
    outer loop
      vertex -3.967247e+001 -6.214796e+000 -4.411735e+000
      vertex -3.967248e+001 -9.659830e+000  2.588193e+000
      vertex -3.967248e+001 -1.000057e+001  2.320047e-006
    endloop
  endfacet
  facet normal  9.999999e-001 -2.380496e-006 -3.133986e-007
    outer loop
      vertex -3.967247e+001 -6.214796e+000 -4.411735e+000
      vertex -3.967248e+001 -1.000057e+001  2.320047e-006
      vertex -3.967248e+001 -9.659830e+000 -2.588188e+000
    endloop
  endfacet
  facet normal  9.999999e-001 -1.764191e-006  8.509224e-007
    outer loop
      vertex -3.967247e+001 -6.214796e+000 -4.411735e+000
      vertex -3.967248e+001 -9.659830e+000 -2.588188e+000
      vertex -3.967247e+001 -8.660826e+000 -4.999998e+000
    endloop
  endfacet
  facet normal  1.000000e+000 -1.356313e-006 -6.328274e-007
    outer loop
      vertex -3.967245e+001  4.999428e+000 -8.660252e+000
      vertex -3.967245e+001  7.070496e+000 -7.071065e+000
      vertex -3.967246e+001 -5.721031e-004 -9.999998e+000
    endloop
  endfacet
  facet normal  1.000000e+000 -1.844412e-006  5.455461e-007
    outer loop
      vertex -3.967246e+001 -5.721031e-004 -9.999998e+000
      vertex -3.967245e+001  7.070496e+000 -7.071065e+000
      vertex -3.967246e+001  7.129923e-001 -7.587542e+000
    endloop
  endfacet
  facet normal  1.000000e+000 -2.120739e-006  6.272792e-007
    outer loop
      vertex -3.967246e+001 -5.721031e-004 -9.999998e+000
      vertex -3.967246e+001  7.129923e-001 -7.587542e+000
      vertex -3.967247e+001 -5.000572e+000 -8.660252e+000
    endloop
  endfacet
  facet normal  1.000000e+000 -1.900966e-006 -5.432952e-007
    outer loop
      vertex -3.967247e+001 -5.000572e+000 -8.660252e+000
      vertex -3.967246e+001  7.129923e-001 -7.587542e+000
      vertex -3.967247e+001 -6.214796e+000 -4.411735e+000
    endloop
  endfacet
  facet normal  1.000000e+000 -2.359296e-006 -6.742856e-007
    outer loop
      vertex -3.967247e+001 -5.000572e+000 -8.660252e+000
      vertex -3.967247e+001 -6.214796e+000 -4.411735e+000
      vertex -3.967247e+001 -7.071640e+000 -7.071065e+000
    endloop
  endfacet
  facet normal  1.000000e+000 -1.316584e-006 -1.010250e-006
    outer loop
      vertex -3.967247e+001 -7.071640e+000 -7.071065e+000
      vertex -3.967247e+001 -6.214796e+000 -4.411735e+000
      vertex -3.967247e+001 -8.660826e+000 -4.999998e+000
    endloop
  endfacet
  facet normal  1.000000e+000 -6.867235e-007  5.979101e-006
    outer loop
      vertex -3.967245e+001  2.587618e+000  9.659261e+000
      vertex -3.967246e+001 -5.721031e-004  1.000000e+001
      vertex -3.967245e+001  4.999428e+000  8.660256e+000
    endloop
  endfacet
  facet normal  1.000000e+000 -2.120739e-006  6.272796e-007
    outer loop
      vertex -3.967245e+001  4.999428e+000  8.660256e+000
      vertex -3.967246e+001 -5.721031e-004  1.000000e+001
      vertex -3.967246e+001 -7.141365e-001  7.587546e+000
    endloop
  endfacet
  facet normal  1.000000e+000 -1.971306e-006 -1.686466e-007
    outer loop
      vertex -3.967245e+001  4.999428e+000  8.660256e+000
      vertex -3.967246e+001 -7.141365e-001  7.587546e+000
      vertex -3.967244e+001  7.070496e+000  7.071070e+000
    endloop
  endfacet
  facet normal  9.999999e-001 -2.012271e-006 -7.860982e-007
    outer loop
      vertex -3.967244e+001  7.070496e+000  7.071070e+000
      vertex -3.967246e+001 -7.141365e-001  7.587546e+000
      vertex -3.967245e+001  6.213652e+000  4.411739e+000
    endloop
  endfacet
  facet normal  1.000000e+000 -1.316584e-006 -1.010251e-006
    outer loop
      vertex -3.967244e+001  7.070496e+000  7.071070e+000
      vertex -3.967245e+001  6.213652e+000  4.411739e+000
      vertex -3.967244e+001  8.659682e+000  5.000002e+000
    endloop
  endfacet
  facet normal  9.999999e-001 -1.533605e-006  4.536150e-007
    outer loop
      vertex -3.967246e+001 -5.721031e-004  1.000000e+001
      vertex -3.967246e+001 -2.588763e+000  9.659261e+000
      vertex -3.967246e+001 -7.141365e-001  7.587546e+000
    endloop
  endfacet
  facet normal  1.000000e+000 -1.705238e-006  2.983099e-007
    outer loop
      vertex -3.967246e+001 -7.141365e-001  7.587546e+000
      vertex -3.967246e+001 -2.588763e+000  9.659261e+000
      vertex -3.967247e+001 -5.000572e+000  8.660256e+000
    endloop
  endfacet
  facet normal  1.000000e+000 -1.795142e-006 -6.093482e-008
    outer loop
      vertex -3.967246e+001 -7.141365e-001  7.587546e+000
      vertex -3.967247e+001 -5.000572e+000  8.660256e+000
      vertex -3.967247e+001 -7.071640e+000  7.071070e+000
    endloop
  endfacet
  facet normal  1.000000e+000 -1.794729e-006 -6.601561e-008
    outer loop
      vertex -3.967246e+001 -7.141365e-001  7.587546e+000
      vertex -3.967247e+001 -7.071640e+000  7.071070e+000
      vertex -3.967247e+001 -6.928360e+000  3.175810e+000
    endloop
  endfacet
  facet normal  1.000000e+000 -2.290606e-006 -8.425547e-008
    outer loop
      vertex -3.967247e+001 -6.928360e+000  3.175810e+000
      vertex -3.967247e+001 -7.071640e+000  7.071070e+000
      vertex -3.967247e+001 -8.660826e+000  5.000002e+000
    endloop
  endfacet
  facet normal  1.000000e+000 -2.692840e-006 -4.662634e-007
    outer loop
      vertex -3.967247e+001 -6.928360e+000  3.175810e+000
      vertex -3.967247e+001 -8.660826e+000  5.000002e+000
      vertex -3.967248e+001 -9.659830e+000  2.588193e+000
    endloop
  endfacet
  facet normal  1.000000e+000 -1.764191e-006  8.509233e-007
    outer loop
      vertex -3.967244e+001  8.659682e+000  5.000002e+000
      vertex -3.967245e+001  6.213652e+000  4.411739e+000
      vertex -3.967244e+001  9.658686e+000  2.588193e+000
    endloop
  endfacet
  facet normal  1.000000e+000 -2.330625e-006 -2.191817e-007
    outer loop
      vertex -3.967244e+001  9.658686e+000  2.588193e+000
      vertex -3.967245e+001  6.213652e+000  4.411739e+000
      vertex -3.967245e+001  6.927216e+000 -3.175805e+000
    endloop
  endfacet
  facet normal  1.000000e+000 -2.185876e-006 -2.877763e-007
    outer loop
      vertex -3.967244e+001  9.658686e+000  2.588193e+000
      vertex -3.967245e+001  6.927216e+000 -3.175805e+000
      vertex -3.967244e+001  9.999428e+000  2.320047e-006
    endloop
  endfacet
  facet normal  1.000000e+000 -2.874560e-006  3.784434e-007
    outer loop
      vertex -3.967244e+001  9.999428e+000  2.320047e-006
      vertex -3.967245e+001  6.927216e+000 -3.175805e+000
      vertex -3.967244e+001  9.658686e+000 -2.588188e+000
    endloop
  endfacet
  facet normal  9.999999e-001 -2.692839e-006 -4.662645e-007
    outer loop
      vertex -3.967244e+001  9.658686e+000 -2.588188e+000
      vertex -3.967245e+001  6.927216e+000 -3.175805e+000
      vertex -3.967244e+001  8.659682e+000 -4.999998e+000
    endloop
  endfacet
  facet normal  1.000000e+000 -1.986691e-006  2.043761e-007
    outer loop
      vertex -3.967244e+001  8.659682e+000 -4.999998e+000
      vertex -3.967245e+001  6.927216e+000 -3.175805e+000
      vertex -3.967246e+001  7.129923e-001 -7.587542e+000
    endloop
  endfacet
  facet normal  1.000000e+000 -1.760182e-006 -4.912629e-007
    outer loop
      vertex -3.967244e+001  8.659682e+000 -4.999998e+000
      vertex -3.967246e+001  7.129923e-001 -7.587542e+000
      vertex -3.967245e+001  7.070496e+000 -7.071065e+000
    endloop
  endfacet
  facet normal -1.717729e-006 -9.876884e-001  1.564346e-001
    outer loop
      vertex -5.067247e+001 -7.000552e+000  2.963327e-006
      vertex -4.767247e+001 -7.000557e+000  2.787887e-006
      vertex -5.067247e+001 -6.657947e+000  2.163122e+000
    endloop
  endfacet
  facet normal -1.871434e-006 -9.876884e-001  1.564344e-001
    outer loop
      vertex -5.067247e+001 -6.657947e+000  2.163122e+000
      vertex -4.767247e+001 -7.000557e+000  2.787887e-006
      vertex -4.767247e+001 -6.657953e+000  2.163122e+000
    endloop
  endfacet
  facet normal -1.663380e-006 -8.910065e-001  4.539905e-001
    outer loop
      vertex -5.067247e+001 -6.657947e+000  2.163122e+000
      vertex -4.767247e+001 -6.657953e+000  2.163122e+000
      vertex -5.067247e+001 -5.663671e+000  4.114500e+000
    endloop
  endfacet
  facet normal -1.699460e-006 -8.910065e-001  4.539904e-001
    outer loop
      vertex -5.067247e+001 -5.663671e+000  4.114500e+000
      vertex -4.767247e+001 -6.657953e+000  2.163122e+000
      vertex -4.767247e+001 -5.663676e+000  4.114500e+000
    endloop
  endfacet
  facet normal -1.348699e-006 -7.071068e-001  7.071068e-001
    outer loop
      vertex -5.067247e+001 -5.663671e+000  4.114500e+000
      vertex -4.767247e+001 -5.663676e+000  4.114500e+000
      vertex -5.067247e+001 -4.115048e+000  5.663122e+000
    endloop
  endfacet
  facet normal -1.348699e-006 -7.071068e-001  7.071068e-001
    outer loop
      vertex -5.067247e+001 -4.115048e+000  5.663122e+000
      vertex -4.767247e+001 -5.663676e+000  4.114500e+000
      vertex -4.767247e+001 -4.115054e+000  5.663122e+000
    endloop
  endfacet
  facet normal -8.659184e-007 -4.539906e-001  8.910065e-001
    outer loop
      vertex -5.067247e+001 -4.115048e+000  5.663122e+000
      vertex -4.767247e+001 -4.115054e+000  5.663122e+000
      vertex -5.067246e+001 -2.163671e+000  6.657399e+000
    endloop
  endfacet
  facet normal -6.882163e-007 -4.539904e-001  8.910066e-001
    outer loop
      vertex -5.067246e+001 -2.163671e+000  6.657399e+000
      vertex -4.767247e+001 -4.115054e+000  5.663122e+000
      vertex -4.767246e+001 -2.163676e+000  6.657398e+000
    endloop
  endfacet
  facet normal -1.289537e-007 -1.564343e-001  9.876883e-001
    outer loop
      vertex -5.067246e+001 -2.163671e+000  6.657399e+000
      vertex -4.767246e+001 -2.163676e+000  6.657398e+000
      vertex -5.067246e+001 -5.515809e-004  7.000003e+000
    endloop
  endfacet
  facet normal -2.918526e-007 -1.564346e-001  9.876884e-001
    outer loop
      vertex -5.067246e+001 -5.515809e-004  7.000003e+000
      vertex -4.767246e+001 -2.163676e+000  6.657398e+000
      vertex -4.767246e+001 -5.571778e-004  7.000003e+000
    endloop
  endfacet
  facet normal  2.918522e-007  1.564344e-001  9.876884e-001
    outer loop
      vertex -5.067246e+001 -5.515809e-004  7.000003e+000
      vertex -4.767246e+001 -5.571778e-004  7.000003e+000
      vertex -5.067245e+001  2.162567e+000  6.657399e+000
    endloop
  endfacet
  facet normal  4.429318e-007  1.564346e-001  9.876883e-001
    outer loop
      vertex -5.067245e+001  2.162567e+000  6.657399e+000
      vertex -4.767246e+001 -5.571778e-004  7.000003e+000
      vertex -4.767245e+001  2.162562e+000  6.657398e+000
    endloop
  endfacet
  facet normal  9.714602e-007  4.539906e-001  8.910065e-001
    outer loop
      vertex -5.067245e+001  2.162567e+000  6.657399e+000
      vertex -4.767245e+001  2.162562e+000  6.657398e+000
      vertex -5.067245e+001  4.113945e+000  5.663122e+000
    endloop
  endfacet
  facet normal  7.937583e-007  4.539904e-001  8.910065e-001
    outer loop
      vertex -5.067245e+001  4.113945e+000  5.663122e+000
      vertex -4.767245e+001  2.162562e+000  6.657398e+000
      vertex -4.767245e+001  4.113940e+000  5.663122e+000
    endloop
  endfacet
  facet normal  1.236307e-006  7.071066e-001  7.071069e-001
    outer loop
      vertex -5.067245e+001  4.113945e+000  5.663122e+000
      vertex -4.767245e+001  4.113940e+000  5.663122e+000
      vertex -5.067245e+001  5.662568e+000  4.114500e+000
    endloop
  endfacet
  facet normal  1.348699e-006  7.071068e-001  7.071068e-001
    outer loop
      vertex -5.067245e+001  5.662568e+000  4.114500e+000
      vertex -4.767245e+001  4.113940e+000  5.663122e+000
      vertex -4.767245e+001  5.662562e+000  4.114500e+000
    endloop
  endfacet
  facet normal  1.699460e-006  8.910065e-001  4.539905e-001
    outer loop
      vertex -5.067245e+001  5.662568e+000  4.114500e+000
      vertex -4.767245e+001  5.662562e+000  4.114500e+000
      vertex -5.067245e+001  6.656844e+000  2.163122e+000
    endloop
  endfacet
  facet normal  1.735540e-006  8.910065e-001  4.539904e-001
    outer loop
      vertex -5.067245e+001  6.656844e+000  2.163122e+000
      vertex -4.767245e+001  5.662562e+000  4.114500e+000
      vertex -4.767245e+001  6.656838e+000  2.163122e+000
    endloop
  endfacet
  facet normal  1.896298e-006  9.876884e-001  1.564344e-001
    outer loop
      vertex -5.067245e+001  6.656844e+000  2.163122e+000
      vertex -4.767245e+001  6.656838e+000  2.163122e+000
      vertex -5.067245e+001  6.999448e+000  2.963327e-006
    endloop
  endfacet
  facet normal  1.736026e-006  9.876884e-001  1.564346e-001
    outer loop
      vertex -5.067245e+001  6.999448e+000  2.963327e-006
      vertex -4.767245e+001  6.656838e+000  2.163122e+000
      vertex -4.767245e+001  6.999443e+000  2.787887e-006
    endloop
  endfacet
  facet normal -3.257384e-007 -1.443696e-001 -9.895238e-001
    outer loop
      vertex -5.867246e+001 -2.000537e+000 -6.708200e+000
      vertex -5.867246e+001 -5.366557e-004 -6.999997e+000
      vertex -5.067246e+001 -2.000551e+000 -6.708201e+000
    endloop
  endfacet
  facet normal -8.392712e-003  4.348442e-001 -9.004666e-001
    outer loop
      vertex -5.067245e+001  1.999448e+000 -6.708201e+000
      vertex -5.067245e+001  4.009594e+000 -5.737482e+000
      vertex -4.767245e+001  2.162562e+000 -6.657393e+000
    endloop
  endfacet
  facet normal  8.221680e-003  1.564291e-001 -9.876550e-001
    outer loop
      vertex -5.067245e+001  1.999448e+000 -6.708201e+000
      vertex -4.767245e+001  2.162562e+000 -6.657393e+000
      vertex -4.767246e+001 -5.571778e-004 -6.999997e+000
    endloop
  endfacet
  facet normal  2.264485e-007  1.443696e-001 -9.895238e-001
    outer loop
      vertex -5.067245e+001  1.999448e+000 -6.708201e+000
      vertex -4.767246e+001 -5.571778e-004 -6.999997e+000
      vertex -5.867246e+001 -5.366557e-004 -6.999997e+000
    endloop
  endfacet
  facet normal  2.099292e-007  1.443696e-001 -9.895238e-001
    outer loop
      vertex -5.067245e+001  1.999448e+000 -6.708201e+000
      vertex -5.867246e+001 -5.366557e-004 -6.999997e+000
      vertex -5.867245e+001  1.999463e+000 -6.708200e+000
    endloop
  endfacet
  facet normal  1.716710e-006  9.872065e-001 -1.594472e-001
    outer loop
      vertex -5.067245e+001  6.999448e+000  2.963327e-006
      vertex -4.767245e+001  6.999443e+000  2.787887e-006
      vertex -5.067245e+001  6.643521e+000 -2.203698e+000
    endloop
  endfacet
  facet normal -2.268396e-003  9.876857e-001 -1.564342e-001
    outer loop
      vertex -5.067245e+001  6.643521e+000 -2.203698e+000
      vertex -4.767245e+001  6.999443e+000  2.787887e-006
      vertex -4.767245e+001  6.656838e+000 -2.163116e+000
    endloop
  endfacet
  facet normal  2.314583e-003  8.868117e-001 -4.621252e-001
    outer loop
      vertex -5.067245e+001  6.643521e+000 -2.203698e+000
      vertex -4.767245e+001  6.656838e+000 -2.163116e+000
      vertex -5.067245e+001  5.611935e+000 -4.183297e+000
    endloop
  endfacet
  facet normal -4.624333e-003  8.909970e-001 -4.539856e-001
    outer loop
      vertex -5.067245e+001  5.611935e+000 -4.183297e+000
      vertex -4.767245e+001  6.656838e+000 -2.163116e+000
      vertex -4.767245e+001  5.662562e+000 -4.114494e+000
    endloop
  endfacet
  facet normal  4.712998e-003  6.962304e-001 -7.178029e-001
    outer loop
      vertex -5.067245e+001  5.611935e+000 -4.183297e+000
      vertex -4.767245e+001  5.662562e+000 -4.114494e+000
      vertex -5.067245e+001  4.009594e+000 -5.737482e+000
    endloop
  endfacet
  facet normal -7.066108e-003  7.070891e-001 -7.070891e-001
    outer loop
      vertex -5.067245e+001  4.009594e+000 -5.737482e+000
      vertex -4.767245e+001  5.662562e+000 -4.114494e+000
      vertex -4.767245e+001  4.113940e+000 -5.663116e+000
    endloop
  endfacet
  facet normal  6.296025e-003  4.539816e-001 -8.909888e-001
    outer loop
      vertex -5.067245e+001  4.009594e+000 -5.737482e+000
      vertex -4.767245e+001  4.113940e+000 -5.663116e+000
      vertex -4.767245e+001  2.162562e+000 -6.657393e+000
    endloop
  endfacet
  facet normal -3.122379e-007 -1.443696e-001 -9.895238e-001
    outer loop
      vertex -5.867246e+001 -5.366557e-004 -6.999997e+000
      vertex -4.767246e+001 -5.571778e-004 -6.999997e+000
      vertex -5.067246e+001 -2.000551e+000 -6.708201e+000
    endloop
  endfacet
  facet normal  8.221100e-003 -1.564291e-001 -9.876550e-001
    outer loop
      vertex -5.067246e+001 -2.000551e+000 -6.708201e+000
      vertex -4.767246e+001 -5.571778e-004 -6.999997e+000
      vertex -4.767246e+001 -2.163676e+000 -6.657393e+000
    endloop
  endfacet
  facet normal -8.394302e-003 -4.348442e-001 -9.004666e-001
    outer loop
      vertex -5.067246e+001 -2.000551e+000 -6.708201e+000
      vertex -4.767246e+001 -2.163676e+000 -6.657393e+000
      vertex -5.067247e+001 -4.010697e+000 -5.737482e+000
    endloop
  endfacet
  facet normal -1.736026e-006 -9.876884e-001 -1.564344e-001
    outer loop
      vertex -4.767247e+001 -7.000557e+000  2.787887e-006
      vertex -5.067247e+001 -7.000552e+000  2.963327e-006
      vertex -4.767247e+001 -6.657953e+000 -2.163116e+000
    endloop
  endfacet
  facet normal -2.229114e-003 -9.872040e-001 -1.594468e-001
    outer loop
      vertex -4.767247e+001 -6.657953e+000 -2.163116e+000
      vertex -5.067247e+001 -7.000552e+000  2.963327e-006
      vertex -5.067247e+001 -6.644624e+000 -2.203698e+000
    endloop
  endfacet
  facet normal  2.182658e-003 -8.910044e-001 -4.539894e-001
    outer loop
      vertex -4.767247e+001 -6.657953e+000 -2.163116e+000
      vertex -5.067247e+001 -6.644624e+000 -2.203698e+000
      vertex -4.767247e+001 -5.663676e+000 -4.114494e+000
    endloop
  endfacet
  facet normal -4.370372e-003 -8.868055e-001 -4.621222e-001
    outer loop
      vertex -4.767247e+001 -5.663676e+000 -4.114494e+000
      vertex -5.067247e+001 -6.644624e+000 -2.203698e+000
      vertex -5.067247e+001 -5.613038e+000 -4.183297e+000
    endloop
  endfacet
  facet normal  4.281406e-003 -7.071004e-001 -7.071003e-001
    outer loop
      vertex -4.767247e+001 -5.663676e+000 -4.114494e+000
      vertex -5.067247e+001 -5.613038e+000 -4.183297e+000
      vertex -4.767247e+001 -4.115054e+000 -5.663116e+000
    endloop
  endfacet
  facet normal -6.425440e-003 -6.962238e-001 -7.177960e-001
    outer loop
      vertex -4.767247e+001 -4.115054e+000 -5.663116e+000
      vertex -5.067247e+001 -5.613038e+000 -4.183297e+000
      vertex -5.067247e+001 -4.010697e+000 -5.737482e+000
    endloop
  endfacet
  facet normal  6.294295e-003 -4.539816e-001 -8.909888e-001
    outer loop
      vertex -4.767247e+001 -4.115054e+000 -5.663116e+000
      vertex -5.067247e+001 -4.010697e+000 -5.737482e+000
      vertex -4.767246e+001 -2.163676e+000 -6.657393e+000
    endloop
  endfacet
  facet normal -1.883398e-006 -9.914448e-001  1.305260e-001
    outer loop
      vertex -4.767248e+001 -1.000056e+001  2.787887e-006
      vertex -3.967248e+001 -1.000057e+001  2.320047e-006
      vertex -4.767248e+001 -9.659816e+000  2.588193e+000
    endloop
  endfacet
  facet normal -1.765062e-006 -9.914448e-001  1.305263e-001
    outer loop
      vertex -4.767248e+001 -9.659816e+000  2.588193e+000
      vertex -3.967248e+001 -1.000057e+001  2.320047e-006
      vertex -3.967248e+001 -9.659830e+000  2.588193e+000
    endloop
  endfacet
  facet normal -1.629216e-006 -9.238796e-001  3.826835e-001
    outer loop
      vertex -4.767248e+001 -9.659816e+000  2.588193e+000
      vertex -3.967248e+001 -9.659830e+000  2.588193e+000
      vertex -4.767247e+001 -8.660811e+000  5.000003e+000
    endloop
  endfacet
  facet normal -1.629216e-006 -9.238796e-001  3.826835e-001
    outer loop
      vertex -4.767247e+001 -8.660811e+000  5.000003e+000
      vertex -3.967248e+001 -9.659830e+000  2.588193e+000
      vertex -3.967247e+001 -8.660826e+000  5.000002e+000
    endloop
  endfacet
  facet normal -1.382341e-006 -7.933533e-001  6.087615e-001
    outer loop
      vertex -4.767247e+001 -8.660811e+000  5.000003e+000
      vertex -3.967247e+001 -8.660826e+000  5.000002e+000
      vertex -4.767247e+001 -7.071625e+000  7.071071e+000
    endloop
  endfacet
  facet normal -1.476917e-006 -7.933534e-001  6.087613e-001
    outer loop
      vertex -4.767247e+001 -7.071625e+000  7.071071e+000
      vertex -3.967247e+001 -8.660826e+000  5.000002e+000
      vertex -3.967247e+001 -7.071640e+000  7.071070e+000
    endloop
  endfacet
  facet normal -1.113832e-006 -6.087613e-001  7.933534e-001
    outer loop
      vertex -4.767247e+001 -7.071625e+000  7.071071e+000
      vertex -3.967247e+001 -7.071640e+000  7.071070e+000
      vertex -4.767247e+001 -5.000557e+000  8.660256e+000
    endloop
  endfacet
  facet normal -1.161120e-006 -6.087614e-001  7.933534e-001
    outer loop
      vertex -4.767247e+001 -5.000557e+000  8.660256e+000
      vertex -3.967247e+001 -7.071640e+000  7.071070e+000
      vertex -3.967247e+001 -5.000572e+000  8.660256e+000
    endloop
  endfacet
  facet normal -7.299109e-007 -3.826835e-001  9.238795e-001
    outer loop
      vertex -4.767247e+001 -5.000557e+000  8.660256e+000
      vertex -3.967247e+001 -5.000572e+000  8.660256e+000
      vertex -4.767246e+001 -2.588748e+000  9.659261e+000
    endloop
  endfacet
  facet normal -7.071011e-007 -3.826835e-001  9.238796e-001
    outer loop
      vertex -4.767246e+001 -2.588748e+000  9.659261e+000
      vertex -3.967247e+001 -5.000572e+000  8.660256e+000
      vertex -3.967246e+001 -2.588763e+000  9.659261e+000
    endloop
  endfacet
  facet normal -2.411792e-007 -1.305263e-001  9.914449e-001
    outer loop
      vertex -4.767246e+001 -2.588748e+000  9.659261e+000
      vertex -3.967246e+001 -2.588763e+000  9.659261e+000
      vertex -4.767246e+001 -5.571778e-004  1.000000e+001
    endloop
  endfacet
  facet normal -1.253273e-007 -1.305260e-001  9.914448e-001
    outer loop
      vertex -4.767246e+001 -5.571778e-004  1.000000e+001
      vertex -3.967246e+001 -2.588763e+000  9.659261e+000
      vertex -3.967246e+001 -5.721031e-004  1.000000e+001
    endloop
  endfacet
  facet normal  3.617068e-007  1.305263e-001  9.914449e-001
    outer loop
      vertex -4.767246e+001 -5.571778e-004  1.000000e+001
      vertex -3.967246e+001 -5.721031e-004  1.000000e+001
      vertex -4.767245e+001  2.587633e+000  9.659261e+000
    endloop
  endfacet
  facet normal  2.450685e-007  1.305260e-001  9.914449e-001
    outer loop
      vertex -4.767245e+001  2.587633e+000  9.659261e+000
      vertex -3.967246e+001 -5.721031e-004  1.000000e+001
      vertex -3.967245e+001  2.587618e+000  9.659261e+000
    endloop
  endfacet
  facet normal  7.185059e-007  3.826835e-001  9.238796e-001
    outer loop
      vertex -4.767245e+001  2.587633e+000  9.659261e+000
      vertex -3.967245e+001  2.587618e+000  9.659261e+000
      vertex -4.767245e+001  4.999443e+000  8.660256e+000
    endloop
  endfacet
  facet normal  7.299109e-007  3.826835e-001  9.238795e-001
    outer loop
      vertex -4.767245e+001  4.999443e+000  8.660256e+000
      vertex -3.967245e+001  2.587618e+000  9.659261e+000
      vertex -3.967245e+001  4.999428e+000  8.660256e+000
    endloop
  endfacet
  facet normal  1.161120e-006  6.087613e-001  7.933534e-001
    outer loop
      vertex -4.767245e+001  4.999443e+000  8.660256e+000
      vertex -3.967245e+001  4.999428e+000  8.660256e+000
      vertex -4.767244e+001  7.070511e+000  7.071071e+000
    endloop
  endfacet
  facet normal  1.208408e-006  6.087614e-001  7.933534e-001
    outer loop
      vertex -4.767244e+001  7.070511e+000  7.071071e+000
      vertex -3.967245e+001  4.999428e+000  8.660256e+000
      vertex -3.967244e+001  7.070496e+000  7.071070e+000
    endloop
  endfacet
  facet normal  1.549487e-006  7.933534e-001  6.087613e-001
    outer loop
      vertex -4.767244e+001  7.070511e+000  7.071071e+000
      vertex -3.967244e+001  7.070496e+000  7.071070e+000
      vertex -4.767244e+001  8.659697e+000  5.000003e+000
    endloop
  endfacet
  facet normal  1.454911e-006  7.933533e-001  6.087615e-001
    outer loop
      vertex -4.767244e+001  8.659697e+000  5.000003e+000
      vertex -3.967244e+001  7.070496e+000  7.071070e+000
      vertex -3.967244e+001  8.659682e+000  5.000002e+000
    endloop
  endfacet
  facet normal  1.674835e-006  9.238796e-001  3.826835e-001
    outer loop
      vertex -4.767244e+001  8.659697e+000  5.000003e+000
      vertex -3.967244e+001  8.659682e+000  5.000002e+000
      vertex -4.767244e+001  9.658701e+000  2.588193e+000
    endloop
  endfacet
  facet normal  1.784970e-006  9.238796e-001  3.826831e-001
    outer loop
      vertex -4.767244e+001  9.658701e+000  2.588193e+000
      vertex -3.967244e+001  8.659682e+000  5.000002e+000
      vertex -3.967244e+001  9.658686e+000  2.588193e+000
    endloop
  endfacet
  facet normal  1.898811e-006  9.914448e-001  1.305263e-001
    outer loop
      vertex -4.767244e+001  9.658701e+000  2.588193e+000
      vertex -3.967244e+001  9.658686e+000  2.588193e+000
      vertex -4.767244e+001  9.999443e+000  2.787887e-006
    endloop
  endfacet
  facet normal  1.898664e-006  9.914448e-001  1.305263e-001
    outer loop
      vertex -4.767244e+001  9.999443e+000  2.787887e-006
      vertex -3.967244e+001  9.658686e+000  2.588193e+000
      vertex -3.967244e+001  9.999428e+000  2.320047e-006
    endloop
  endfacet
  facet normal  1.883398e-006  9.914449e-001 -1.305263e-001
    outer loop
      vertex -4.767244e+001  9.999443e+000  2.787887e-006
      vertex -3.967244e+001  9.999428e+000  2.320047e-006
      vertex -4.767244e+001  9.658701e+000 -2.588188e+000
    endloop
  endfacet
  facet normal  1.883251e-006  9.914449e-001 -1.305263e-001
    outer loop
      vertex -4.767244e+001  9.658701e+000 -2.588188e+000
      vertex -3.967244e+001  9.999428e+000  2.320047e-006
      vertex -3.967244e+001  9.658686e+000 -2.588188e+000
    endloop
  endfacet
  facet normal  1.739351e-006  9.238795e-001 -3.826835e-001
    outer loop
      vertex -4.767244e+001  9.658701e+000 -2.588188e+000
      vertex -3.967244e+001  9.658686e+000 -2.588188e+000
      vertex -4.767244e+001  8.659697e+000 -4.999997e+000
    endloop
  endfacet
  facet normal  1.629216e-006  9.238796e-001 -3.826832e-001
    outer loop
      vertex -4.767244e+001  8.659697e+000 -4.999997e+000
      vertex -3.967244e+001  9.658686e+000 -2.588188e+000
      vertex -3.967244e+001  8.659682e+000 -4.999998e+000
    endloop
  endfacet
  facet normal  1.382341e-006  7.933534e-001 -6.087613e-001
    outer loop
      vertex -4.767244e+001  8.659697e+000 -4.999997e+000
      vertex -3.967244e+001  8.659682e+000 -4.999998e+000
      vertex -4.767245e+001  7.070511e+000 -7.071065e+000
    endloop
  endfacet
  facet normal  1.476916e-006  7.933533e-001 -6.087615e-001
    outer loop
      vertex -4.767245e+001  7.070511e+000 -7.071065e+000
      vertex -3.967244e+001  8.659682e+000 -4.999998e+000
      vertex -3.967245e+001  7.070496e+000 -7.071065e+000
    endloop
  endfacet
  facet normal  1.113833e-006  6.087615e-001 -7.933533e-001
    outer loop
      vertex -4.767245e+001  7.070511e+000 -7.071065e+000
      vertex -3.967245e+001  7.070496e+000 -7.071065e+000
      vertex -4.767245e+001  4.999443e+000 -8.660252e+000
    endloop
  endfacet
  facet normal  1.161120e-006  6.087614e-001 -7.933534e-001
    outer loop
      vertex -4.767245e+001  4.999443e+000 -8.660252e+000
      vertex -3.967245e+001  7.070496e+000 -7.071065e+000
      vertex -3.967245e+001  4.999428e+000 -8.660252e+000
    endloop
  endfacet
  facet normal  7.299101e-007  3.826831e-001 -9.238796e-001
    outer loop
      vertex -4.767245e+001  4.999443e+000 -8.660252e+000
      vertex -3.967245e+001  4.999428e+000 -8.660252e+000
      vertex -4.767245e+001  2.587633e+000 -9.659255e+000
    endloop
  endfacet
  facet normal  6.083710e-007  3.826835e-001 -9.238795e-001
    outer loop
      vertex -4.767245e+001  2.587633e+000 -9.659255e+000
      vertex -3.967245e+001  4.999428e+000 -8.660252e+000
      vertex -3.967245e+001  2.587618e+000 -9.659256e+000
    endloop
  endfacet
  facet normal  1.268798e-007  1.305263e-001 -9.914449e-001
    outer loop
      vertex -4.767245e+001  2.587633e+000 -9.659255e+000
      vertex -3.967245e+001  2.587618e+000 -9.659256e+000
      vertex -4.767246e+001 -5.571778e-004 -9.999997e+000
    endloop
  endfacet
  facet normal  1.253280e-007  1.305263e-001 -9.914449e-001
    outer loop
      vertex -4.767246e+001 -5.571778e-004 -9.999997e+000
      vertex -3.967245e+001  2.587618e+000 -9.659256e+000
      vertex -3.967246e+001 -5.721031e-004 -9.999998e+000
    endloop
  endfacet
  facet normal -3.617068e-007 -1.305263e-001 -9.914449e-001
    outer loop
      vertex -4.767246e+001 -5.571778e-004 -9.999997e+000
      vertex -3.967246e+001 -5.721031e-004 -9.999998e+000
      vertex -4.767246e+001 -2.588748e+000 -9.659255e+000
    endloop
  endfacet
  facet normal -3.593687e-007 -1.305263e-001 -9.914448e-001
    outer loop
      vertex -4.767246e+001 -2.588748e+000 -9.659255e+000
      vertex -3.967246e+001 -5.721031e-004 -9.999998e+000
      vertex -3.967246e+001 -2.588763e+000 -9.659256e+000
    endloop
  endfacet
  facet normal -8.172356e-007 -3.826832e-001 -9.238796e-001
    outer loop
      vertex -4.767246e+001 -2.588748e+000 -9.659255e+000
      vertex -3.967246e+001 -2.588763e+000 -9.659256e+000
      vertex -4.767247e+001 -5.000557e+000 -8.660252e+000
    endloop
  endfacet
  facet normal -7.299108e-007 -3.826835e-001 -9.238796e-001
    outer loop
      vertex -4.767247e+001 -5.000557e+000 -8.660252e+000
      vertex -3.967246e+001 -2.588763e+000 -9.659256e+000
      vertex -3.967247e+001 -5.000572e+000 -8.660252e+000
    endloop
  endfacet
  facet normal -1.161121e-006 -6.087615e-001 -7.933533e-001
    outer loop
      vertex -4.767247e+001 -5.000557e+000 -8.660252e+000
      vertex -3.967247e+001 -5.000572e+000 -8.660252e+000
      vertex -4.767247e+001 -7.071625e+000 -7.071065e+000
    endloop
  endfacet
  facet normal -1.208408e-006 -6.087614e-001 -7.933534e-001
    outer loop
      vertex -4.767247e+001 -7.071625e+000 -7.071065e+000
      vertex -3.967247e+001 -5.000572e+000 -8.660252e+000
      vertex -3.967247e+001 -7.071640e+000 -7.071065e+000
    endloop
  endfacet
  facet normal -1.549486e-006 -7.933533e-001 -6.087615e-001
    outer loop
      vertex -4.767247e+001 -7.071625e+000 -7.071065e+000
      vertex -3.967247e+001 -7.071640e+000 -7.071065e+000
      vertex -4.767247e+001 -8.660811e+000 -4.999997e+000
    endloop
  endfacet
  facet normal -1.454912e-006 -7.933534e-001 -6.087613e-001
    outer loop
      vertex -4.767247e+001 -8.660811e+000 -4.999997e+000
      vertex -3.967247e+001 -7.071640e+000 -7.071065e+000
      vertex -3.967247e+001 -8.660826e+000 -4.999998e+000
    endloop
  endfacet
  facet normal -1.674835e-006 -9.238795e-001 -3.826835e-001
    outer loop
      vertex -4.767247e+001 -8.660811e+000 -4.999997e+000
      vertex -3.967247e+001 -8.660826e+000 -4.999998e+000
      vertex -4.767248e+001 -9.659816e+000 -2.588188e+000
    endloop
  endfacet
  facet normal -1.674835e-006 -9.238795e-001 -3.826835e-001
    outer loop
      vertex -4.767248e+001 -9.659816e+000 -2.588188e+000
      vertex -3.967247e+001 -8.660826e+000 -4.999998e+000
      vertex -3.967248e+001 -9.659830e+000 -2.588188e+000
    endloop
  endfacet
  facet normal -1.780622e-006 -9.914449e-001 -1.305260e-001
    outer loop
      vertex -4.767248e+001 -9.659816e+000 -2.588188e+000
      vertex -3.967248e+001 -9.659830e+000 -2.588188e+000
      vertex -4.767248e+001 -1.000056e+001  2.787887e-006
    endloop
  endfacet
  facet normal -1.898664e-006 -9.914449e-001 -1.305263e-001
    outer loop
      vertex -4.767248e+001 -1.000056e+001  2.787887e-006
      vertex -3.967248e+001 -9.659830e+000 -2.588188e+000
      vertex -3.967248e+001 -1.000057e+001  2.320047e-006
    endloop
  endfacet
  facet normal -1.000000e+000  6.867191e-007 -5.979118e-006
    outer loop
      vertex -4.767246e+001 -2.588748e+000 -9.659255e+000
      vertex -4.767247e+001 -5.000557e+000 -8.660252e+000
      vertex -4.767246e+001 -5.571778e-004 -9.999997e+000
    endloop
  endfacet
  facet normal -1.000000e+000  1.889901e-006  1.450172e-006
    outer loop
      vertex -4.767247e+001 -7.071625e+000 -7.071065e+000
      vertex -4.767247e+001 -8.660811e+000 -4.999997e+000
      vertex -4.767247e+001 -4.115054e+000 -5.663116e+000
    endloop
  endfacet
  facet normal -1.000000e+000  2.278253e-006  6.346675e-007
    outer loop
      vertex -4.767247e+001 -7.071625e+000 -7.071065e+000
      vertex -4.767247e+001 -4.115054e+000 -5.663116e+000
      vertex -4.767246e+001 -2.163676e+000 -6.657393e+000
    endloop
  endfacet
  facet normal -1.000000e+000  2.134385e-006  2.341568e-006
    outer loop
      vertex -4.767247e+001 -7.071625e+000 -7.071065e+000
      vertex -4.767246e+001 -2.163676e+000 -6.657393e+000
      vertex -4.767246e+001 -5.571778e-004 -6.999997e+000
    endloop
  endfacet
  facet normal -1.000000e+000  2.157919e-006  0.000000e+000
    outer loop
      vertex -4.767247e+001 -7.071625e+000 -7.071065e+000
      vertex -4.767246e+001 -5.571778e-004 -6.999997e+000
      vertex -4.767246e+001 -5.571778e-004 -9.999997e+000
    endloop
  endfacet
  facet normal -1.000000e+000  2.528620e-006  8.949523e-007
    outer loop
      vertex -4.767247e+001 -7.071625e+000 -7.071065e+000
      vertex -4.767246e+001 -5.571778e-004 -9.999997e+000
      vertex -4.767247e+001 -5.000557e+000 -8.660252e+000
    endloop
  endfacet
  facet normal -1.000000e+000  1.627096e-006  8.613296e-007
    outer loop
      vertex -4.767246e+001 -5.571778e-004  7.000003e+000
      vertex -4.767246e+001 -2.163676e+000  6.657398e+000
      vertex -4.767247e+001 -7.071625e+000  7.071071e+000
    endloop
  endfacet
  facet normal -1.000000e+000  1.621328e-006  2.874535e-007
    outer loop
      vertex -4.767246e+001 -5.571778e-004  7.000003e+000
      vertex -4.767247e+001 -7.071625e+000  7.071071e+000
      vertex -4.767247e+001 -5.000557e+000  8.660256e+000
    endloop
  endfacet
  facet normal -1.000000e+000  1.550705e-006  7.476661e-008
    outer loop
      vertex -4.767246e+001 -5.571778e-004  7.000003e+000
      vertex -4.767247e+001 -5.000557e+000  8.660256e+000
      vertex -4.767246e+001 -2.588748e+000  9.659261e+000
    endloop
  endfacet
  facet normal -1.000000e+000  1.473886e-006  0.000000e+000
    outer loop
      vertex -4.767246e+001 -5.571778e-004  7.000003e+000
      vertex -4.767246e+001 -2.588748e+000  9.659261e+000
      vertex -4.767246e+001 -5.571778e-004  1.000000e+001
    endloop
  endfacet
  facet normal -1.000000e+000  1.473886e-006  0.000000e+000
    outer loop
      vertex -4.767246e+001 -5.571778e-004  7.000003e+000
      vertex -4.767246e+001 -5.571778e-004  1.000000e+001
      vertex -4.767245e+001  2.587633e+000  9.659261e+000
    endloop
  endfacet
  facet normal -1.000000e+000  2.677941e-006 -1.171877e-006
    outer loop
      vertex -4.767246e+001 -5.571778e-004  7.000003e+000
      vertex -4.767245e+001  2.587633e+000  9.659261e+000
      vertex -4.767245e+001  4.999443e+000  8.660256e+000
    endloop
  endfacet
  facet normal -1.000000e+000  2.153833e-006  4.065206e-007
    outer loop
      vertex -4.767246e+001 -5.571778e-004  7.000003e+000
      vertex -4.767245e+001  4.999443e+000  8.660256e+000
      vertex -4.767244e+001  7.070511e+000  7.071071e+000
    endloop
  endfacet
  facet normal -1.000000e+000  2.134385e-006  2.341564e-006
    outer loop
      vertex -4.767246e+001 -5.571778e-004  7.000003e+000
      vertex -4.767244e+001  7.070511e+000  7.071071e+000
      vertex -4.767245e+001  2.162562e+000  6.657398e+000
    endloop
  endfacet
  facet normal -1.000000e+000  1.618439e-006  0.000000e+000
    outer loop
      vertex -4.767246e+001 -5.571778e-004 -9.999997e+000
      vertex -4.767246e+001 -5.571778e-004 -6.999997e+000
      vertex -4.767245e+001  7.070511e+000 -7.071065e+000
    endloop
  endfacet
  facet normal -1.000000e+000  1.356314e-006  6.328269e-007
    outer loop
      vertex -4.767246e+001 -5.571778e-004 -9.999997e+000
      vertex -4.767245e+001  7.070511e+000 -7.071065e+000
      vertex -4.767245e+001  4.999443e+000 -8.660252e+000
    endloop
  endfacet
  facet normal -1.000000e+000  1.423664e-006  3.814698e-007
    outer loop
      vertex -4.767246e+001 -5.571778e-004 -9.999997e+000
      vertex -4.767245e+001  4.999443e+000 -8.660252e+000
      vertex -4.767245e+001  2.587633e+000 -9.659255e+000
    endloop
  endfacet
  facet normal -1.000000e+000  2.370520e-006 -1.207840e-006
    outer loop
      vertex -4.767247e+001 -6.657953e+000  2.163122e+000
      vertex -4.767248e+001 -9.659816e+000  2.588193e+000
      vertex -4.767247e+001 -5.663676e+000  4.114500e+000
    endloop
  endfacet
  facet normal -1.000000e+000  1.550355e-006  9.394961e-007
    outer loop
      vertex -4.767247e+001 -5.663676e+000  4.114500e+000
      vertex -4.767248e+001 -9.659816e+000  2.588193e+000
      vertex -4.767247e+001 -8.660811e+000  5.000003e+000
    endloop
  endfacet
  facet normal -1.000000e+000  1.544296e-006  9.189886e-007
    outer loop
      vertex -4.767247e+001 -5.663676e+000  4.114500e+000
      vertex -4.767247e+001 -8.660811e+000  5.000003e+000
      vertex -4.767247e+001 -4.115054e+000  5.663122e+000
    endloop
  endfacet
  facet normal -1.000000e+000  1.587345e-006  6.238860e-007
    outer loop
      vertex -4.767247e+001 -4.115054e+000  5.663122e+000
      vertex -4.767247e+001 -8.660811e+000  5.000003e+000
      vertex -4.767247e+001 -7.071625e+000  7.071071e+000
    endloop
  endfacet
  facet normal -1.000000e+000  1.611327e-006  6.742476e-007
    outer loop
      vertex -4.767247e+001 -4.115054e+000  5.663122e+000
      vertex -4.767247e+001 -7.071625e+000  7.071071e+000
      vertex -4.767246e+001 -2.163676e+000  6.657398e+000
    endloop
  endfacet
  facet normal -1.000000e+000  1.544296e-006 -9.189886e-007
    outer loop
      vertex -4.767247e+001 -4.115054e+000 -5.663116e+000
      vertex -4.767247e+001 -8.660811e+000 -4.999997e+000
      vertex -4.767247e+001 -5.663676e+000 -4.114494e+000
    endloop
  endfacet
  facet normal -1.000000e+000  1.550355e-006 -9.394962e-007
    outer loop
      vertex -4.767247e+001 -5.663676e+000 -4.114494e+000
      vertex -4.767247e+001 -8.660811e+000 -4.999997e+000
      vertex -4.767248e+001 -9.659816e+000 -2.588188e+000
    endloop
  endfacet
  facet normal -9.999999e-001  2.370520e-006  1.207840e-006
    outer loop
      vertex -4.767247e+001 -5.663676e+000 -4.114494e+000
      vertex -4.767248e+001 -9.659816e+000 -2.588188e+000
      vertex -4.767247e+001 -6.657953e+000 -2.163116e+000
    endloop
  endfacet
  facet normal -1.000000e+000  2.495040e-006  3.284777e-007
    outer loop
      vertex -4.767247e+001 -6.657953e+000 -2.163116e+000
      vertex -4.767248e+001 -9.659816e+000 -2.588188e+000
      vertex -4.767248e+001 -1.000056e+001  2.787887e-006
    endloop
  endfacet
  facet normal -9.999999e-001  2.543132e-006  4.027922e-007
    outer loop
      vertex -4.767247e+001 -6.657953e+000 -2.163116e+000
      vertex -4.767248e+001 -1.000056e+001  2.787887e-006
      vertex -4.767247e+001 -7.000557e+000  2.787887e-006
    endloop
  endfacet
  facet normal -1.000000e+000  2.543131e-006 -3.348090e-007
    outer loop
      vertex -4.767247e+001 -7.000557e+000  2.787887e-006
      vertex -4.767248e+001 -1.000056e+001  2.787887e-006
      vertex -4.767248e+001 -9.659816e+000  2.588193e+000
    endloop
  endfacet
  facet normal -1.000000e+000  2.485802e-006 -3.937122e-007
    outer loop
      vertex -4.767247e+001 -7.000557e+000  2.787887e-006
      vertex -4.767248e+001 -9.659816e+000  2.588193e+000
      vertex -4.767247e+001 -6.657953e+000  2.163122e+000
    endloop
  endfacet
  facet normal -1.000000e+000  2.370520e-006  1.207840e-006
    outer loop
      vertex -4.767245e+001  6.656838e+000  2.163122e+000
      vertex -4.767245e+001  5.662562e+000  4.114500e+000
      vertex -4.767244e+001  9.658701e+000  2.588193e+000
    endloop
  endfacet
  facet normal -9.999999e-001  1.566773e-006 -8.965117e-007
    outer loop
      vertex -4.767244e+001  9.658701e+000  2.588193e+000
      vertex -4.767245e+001  5.662562e+000  4.114500e+000
      vertex -4.767245e+001  4.113940e+000  5.663122e+000
    endloop
  endfacet
  facet normal -1.000000e+000  1.540723e-006 -9.434859e-007
    outer loop
      vertex -4.767244e+001  9.658701e+000  2.588193e+000
      vertex -4.767245e+001  4.113940e+000  5.663122e+000
      vertex -4.767244e+001  8.659697e+000  5.000003e+000
    endloop
  endfacet
  facet normal -1.000000e+000  1.567431e-006 -7.603996e-007
    outer loop
      vertex -4.767244e+001  8.659697e+000  5.000003e+000
      vertex -4.767245e+001  4.113940e+000  5.663122e+000
      vertex -4.767245e+001  2.162562e+000  6.657398e+000
    endloop
  endfacet
  facet normal -9.999999e-001  2.190101e-006  1.680523e-006
    outer loop
      vertex -4.767244e+001  8.659697e+000  5.000003e+000
      vertex -4.767245e+001  2.162562e+000  6.657398e+000
      vertex -4.767244e+001  7.070511e+000  7.071071e+000
    endloop
  endfacet
  facet normal -9.999999e-001  1.544296e-006  9.189882e-007
    outer loop
      vertex -4.767245e+001  4.113940e+000 -5.663116e+000
      vertex -4.767245e+001  5.662562e+000 -4.114494e+000
      vertex -4.767244e+001  8.659697e+000 -4.999997e+000
    endloop
  endfacet
  facet normal -1.000000e+000  1.106248e-006 -5.636613e-007
    outer loop
      vertex -4.767244e+001  8.659697e+000 -4.999997e+000
      vertex -4.767245e+001  5.662562e+000 -4.114494e+000
      vertex -4.767245e+001  6.656838e+000 -2.163116e+000
    endloop
  endfacet
  facet normal -9.999999e-001  2.612302e-006  4.996235e-007
    outer loop
      vertex -4.767244e+001  8.659697e+000 -4.999997e+000
      vertex -4.767245e+001  6.656838e+000 -2.163116e+000
      vertex -4.767244e+001  9.658701e+000 -2.588188e+000
    endloop
  endfacet
  facet normal -1.000000e+000  2.485803e-006 -3.937128e-007
    outer loop
      vertex -4.767244e+001  9.658701e+000 -2.588188e+000
      vertex -4.767245e+001  6.656838e+000 -2.163116e+000
      vertex -4.767245e+001  6.999443e+000  2.787887e-006
    endloop
  endfacet
  facet normal -1.000000e+000  2.543132e-006 -3.348100e-007
    outer loop
      vertex -4.767244e+001  9.658701e+000 -2.588188e+000
      vertex -4.767245e+001  6.999443e+000  2.787887e-006
      vertex -4.767244e+001  9.999443e+000  2.787887e-006
    endloop
  endfacet
  facet normal -1.000000e+000  2.543131e-006  4.027928e-007
    outer loop
      vertex -4.767244e+001  9.999443e+000  2.787887e-006
      vertex -4.767245e+001  6.999443e+000  2.787887e-006
      vertex -4.767245e+001  6.656838e+000  2.163122e+000
    endloop
  endfacet
  facet normal -1.000000e+000  2.495040e-006  3.284786e-007
    outer loop
      vertex -4.767244e+001  9.999443e+000  2.787887e-006
      vertex -4.767245e+001  6.656838e+000  2.163122e+000
      vertex -4.767244e+001  9.658701e+000  2.588193e+000
    endloop
  endfacet
  facet normal -1.000000e+000  1.627096e-006  8.613306e-007
    outer loop
      vertex -4.767246e+001 -5.571778e-004 -6.999997e+000
      vertex -4.767245e+001  2.162562e+000 -6.657393e+000
      vertex -4.767245e+001  7.070511e+000 -7.071065e+000
    endloop
  endfacet
  facet normal -1.000000e+000  1.611327e-006  6.742477e-007
    outer loop
      vertex -4.767245e+001  7.070511e+000 -7.071065e+000
      vertex -4.767245e+001  2.162562e+000 -6.657393e+000
      vertex -4.767245e+001  4.113940e+000 -5.663116e+000
    endloop
  endfacet
  facet normal -1.000000e+000  1.587345e-006  6.238866e-007
    outer loop
      vertex -4.767245e+001  7.070511e+000 -7.071065e+000
      vertex -4.767245e+001  4.113940e+000 -5.663116e+000
      vertex -4.767244e+001  8.659697e+000 -4.999997e+000
    endloop
  endfacet
endsolid CATIA STL
