solid CATIA STL
  facet normal -1.000000e+000  0.000000e+000  0.000000e+000
    outer loop
      vertex -3.616000e+001  6.750000e+000  9.500000e+000
      vertex -3.616000e+001  6.750000e+000 -9.500000e+000
      vertex -3.616000e+001  3.934366e+000  1.154446e+000
    endloop
  endfacet
  facet normal -1.000000e+000  0.000000e+000  0.000000e+000
    outer loop
      vertex -3.616000e+001  6.750000e+000  9.500000e+000
      vertex -3.616000e+001  3.934366e+000  1.154446e+000
      vertex -3.616000e+001  3.193160e+000  2.572115e+000
    endloop
  endfacet
  facet normal -9.999999e-001  0.000000e+000  0.000000e+000
    outer loop
      vertex -3.616000e+001  6.750000e+000  9.500000e+000
      vertex -3.616000e+001  3.193160e+000  2.572115e+000
      vertex -3.616000e+001  1.965857e+000  3.598223e+000
    endloop
  endfacet
  facet normal -1.000000e+000  0.000000e+000  0.000000e+000
    outer loop
      vertex -3.616000e+001  6.750000e+000  9.500000e+000
      vertex -3.616000e+001  1.965857e+000  3.598223e+000
      vertex -3.616000e+001  4.393020e-001  4.076554e+000
    endloop
  endfacet
  facet normal -9.999999e-001  0.000000e+000  0.000000e+000
    outer loop
      vertex -3.616000e+001  6.750000e+000  9.500000e+000
      vertex -3.616000e+001  4.393020e-001  4.076554e+000
      vertex -3.616000e+001  2.500000e+000  9.500000e+000
    endloop
  endfacet
  facet normal -1.000000e+000  0.000000e+000  -0.000000e+000
    outer loop
      vertex -3.616000e+001 -6.750000e+000 -9.500000e+000
      vertex -3.616000e+001 -4.076208e+000  4.392242e-001
      vertex -3.616000e+001 -3.933942e+000 -1.154178e+000
    endloop
  endfacet
  facet normal -9.999999e-001  0.000000e+000  -0.000000e+000
    outer loop
      vertex -3.616000e+001 -6.750000e+000 -9.500000e+000
      vertex -3.616000e+001 -3.933942e+000 -1.154178e+000
      vertex -3.616000e+001 -3.192736e+000 -2.571846e+000
    endloop
  endfacet
  facet normal -1.000000e+000  0.000000e+000  -0.000000e+000
    outer loop
      vertex -3.616000e+001 -6.750000e+000 -9.500000e+000
      vertex -3.616000e+001 -3.192736e+000 -2.571846e+000
      vertex -3.616000e+001 -1.965433e+000 -3.597954e+000
    endloop
  endfacet
  facet normal -1.000000e+000  0.000000e+000  -0.000000e+000
    outer loop
      vertex -3.616000e+001 -6.750000e+000 -9.500000e+000
      vertex -3.616000e+001 -1.965433e+000 -3.597954e+000
      vertex -3.616000e+001 -4.388781e-001 -4.076286e+000
    endloop
  endfacet
  facet normal -1.000000e+000  0.000000e+000  0.000000e+000
    outer loop
      vertex -3.616000e+001 -6.750000e+000 -9.500000e+000
      vertex -3.616000e+001 -4.388781e-001 -4.076286e+000
      vertex -3.616000e+001 -2.500000e+000 -9.500000e+000
    endloop
  endfacet
  facet normal -1.000000e+000  -0.000000e+000  -0.000000e+000
    outer loop
      vertex -3.616000e+001 -6.750000e+000  9.500000e+000
      vertex -3.616000e+001 -2.500000e+000  9.500000e+000
      vertex -3.616000e+001 -1.154100e+000  3.934288e+000
    endloop
  endfacet
  facet normal -1.000000e+000  -0.000000e+000  0.000000e+000
    outer loop
      vertex -3.616000e+001 -6.750000e+000  9.500000e+000
      vertex -3.616000e+001 -1.154100e+000  3.934288e+000
      vertex -3.616000e+001 -2.571769e+000  3.193082e+000
    endloop
  endfacet
  facet normal -1.000000e+000  -0.000000e+000  0.000000e+000
    outer loop
      vertex -3.616000e+001 -6.750000e+000  9.500000e+000
      vertex -3.616000e+001 -2.571769e+000  3.193082e+000
      vertex -3.616000e+001 -3.597877e+000  1.965779e+000
    endloop
  endfacet
  facet normal -1.000000e+000  -0.000000e+000  0.000000e+000
    outer loop
      vertex -3.616000e+001 -6.750000e+000  9.500000e+000
      vertex -3.616000e+001 -3.597877e+000  1.965779e+000
      vertex -3.616000e+001 -4.076208e+000  4.392242e-001
    endloop
  endfacet
  facet normal -1.000000e+000  -0.000000e+000  0.000000e+000
    outer loop
      vertex -3.616000e+001 -6.750000e+000  9.500000e+000
      vertex -3.616000e+001 -4.076208e+000  4.392242e-001
      vertex -3.616000e+001 -6.750000e+000 -9.500000e+000
    endloop
  endfacet
  facet normal -1.000000e+000  0.000000e+000  0.000000e+000
    outer loop
      vertex -3.616000e+001  6.750000e+000 -9.500000e+000
      vertex -3.616000e+001  2.500000e+000 -9.500000e+000
      vertex -3.616000e+001  1.154524e+000 -3.934019e+000
    endloop
  endfacet
  facet normal -1.000000e+000  0.000000e+000  0.000000e+000
    outer loop
      vertex -3.616000e+001  6.750000e+000 -9.500000e+000
      vertex -3.616000e+001  1.154524e+000 -3.934019e+000
      vertex -3.616000e+001  2.572193e+000 -3.192814e+000
    endloop
  endfacet
  facet normal -1.000000e+000  0.000000e+000  0.000000e+000
    outer loop
      vertex -3.616000e+001  6.750000e+000 -9.500000e+000
      vertex -3.616000e+001  2.572193e+000 -3.192814e+000
      vertex -3.616000e+001  3.598300e+000 -1.965511e+000
    endloop
  endfacet
  facet normal -1.000000e+000  0.000000e+000  0.000000e+000
    outer loop
      vertex -3.616000e+001  6.750000e+000 -9.500000e+000
      vertex -3.616000e+001  3.598300e+000 -1.965511e+000
      vertex -3.616000e+001  4.076632e+000 -4.389559e-001
    endloop
  endfacet
  facet normal -9.999999e-001  0.000000e+000  0.000000e+000
    outer loop
      vertex -3.616000e+001  6.750000e+000 -9.500000e+000
      vertex -3.616000e+001  4.076632e+000 -4.389559e-001
      vertex -3.616000e+001  3.934366e+000  1.154446e+000
    endloop
  endfacet
  facet normal -1.000000e+000  0.000000e+000  0.000000e+000
    outer loop
      vertex -3.616000e+001  2.500000e+000 -1.350000e+001
      vertex -3.616000e+001 -2.500000e+000 -1.350000e+001
      vertex -3.616000e+001  2.500000e+000 -9.500000e+000
    endloop
  endfacet
  facet normal -1.000000e+000  -0.000000e+000  0.000000e+000
    outer loop
      vertex -3.616000e+001  2.500000e+000 -9.500000e+000
      vertex -3.616000e+001 -2.500000e+000 -1.350000e+001
      vertex -3.616000e+001  1.154524e+000 -3.934019e+000
    endloop
  endfacet
  facet normal -9.999999e-001  0.000000e+000  0.000000e+000
    outer loop
      vertex -3.616000e+001 -2.500000e+000 -1.350000e+001
      vertex -3.616000e+001 -2.500000e+000 -9.500000e+000
      vertex -3.616000e+001  1.154524e+000 -3.934019e+000
    endloop
  endfacet
  facet normal -1.000000e+000  0.000000e+000  0.000000e+000
    outer loop
      vertex -3.616000e+001  1.154524e+000 -3.934019e+000
      vertex -3.616000e+001 -2.500000e+000 -9.500000e+000
      vertex -3.616000e+001 -4.388781e-001 -4.076286e+000
    endloop
  endfacet
  facet normal -1.000000e+000  0.000000e+000  0.000000e+000
    outer loop
      vertex -3.616000e+001  2.500000e+000  9.500000e+000
      vertex -3.616000e+001  4.393020e-001  4.076554e+000
      vertex -3.616000e+001  2.500000e+000  1.350000e+001
    endloop
  endfacet
  facet normal -1.000000e+000  -0.000000e+000  0.000000e+000
    outer loop
      vertex -3.616000e+001  2.500000e+000  1.350000e+001
      vertex -3.616000e+001  4.393020e-001  4.076554e+000
      vertex -3.616000e+001 -2.500000e+000  1.350000e+001
    endloop
  endfacet
  facet normal -9.999999e-001  0.000000e+000  0.000000e+000
    outer loop
      vertex -3.616000e+001  4.393020e-001  4.076554e+000
      vertex -3.616000e+001 -1.154100e+000  3.934288e+000
      vertex -3.616000e+001 -2.500000e+000  1.350000e+001
    endloop
  endfacet
  facet normal -1.000000e+000  0.000000e+000  0.000000e+000
    outer loop
      vertex -3.616000e+001 -2.500000e+000  1.350000e+001
      vertex -3.616000e+001 -1.154100e+000  3.934288e+000
      vertex -3.616000e+001 -2.500000e+000  9.500000e+000
    endloop
  endfacet
  facet normal  9.999999e-001  -0.000000e+000  0.000000e+000
    outer loop
      vertex -2.396000e+001  6.750000e+000  9.500000e+000
      vertex -2.396000e+001  2.500000e+000  9.500000e+000
      vertex -2.396000e+001  4.393020e-001  4.076554e+000
    endloop
  endfacet
  facet normal  1.000000e+000  -0.000000e+000  0.000000e+000
    outer loop
      vertex -2.396000e+001  6.750000e+000  9.500000e+000
      vertex -2.396000e+001  4.393020e-001  4.076554e+000
      vertex -2.396000e+001  1.965857e+000  3.598223e+000
    endloop
  endfacet
  facet normal  9.999999e-001  -0.000000e+000  0.000000e+000
    outer loop
      vertex -2.396000e+001  6.750000e+000  9.500000e+000
      vertex -2.396000e+001  1.965857e+000  3.598223e+000
      vertex -2.396000e+001  3.193160e+000  2.572115e+000
    endloop
  endfacet
  facet normal  1.000000e+000  -0.000000e+000  0.000000e+000
    outer loop
      vertex -2.396000e+001  6.750000e+000  9.500000e+000
      vertex -2.396000e+001  3.193160e+000  2.572115e+000
      vertex -2.396000e+001  3.934366e+000  1.154446e+000
    endloop
  endfacet
  facet normal  1.000000e+000  -0.000000e+000  0.000000e+000
    outer loop
      vertex -2.396000e+001  6.750000e+000  9.500000e+000
      vertex -2.396000e+001  3.934366e+000  1.154446e+000
      vertex -2.396000e+001  6.750000e+000 -9.500000e+000
    endloop
  endfacet
  facet normal  1.000000e+000  0.000000e+000  -0.000000e+000
    outer loop
      vertex -2.396000e+001 -6.750000e+000 -9.500000e+000
      vertex -2.396000e+001 -2.500000e+000 -9.500000e+000
      vertex -2.396000e+001 -4.388781e-001 -4.076286e+000
    endloop
  endfacet
  facet normal  1.000000e+000  0.000000e+000  0.000000e+000
    outer loop
      vertex -2.396000e+001 -6.750000e+000 -9.500000e+000
      vertex -2.396000e+001 -4.388781e-001 -4.076286e+000
      vertex -2.396000e+001 -1.965433e+000 -3.597954e+000
    endloop
  endfacet
  facet normal  1.000000e+000  0.000000e+000  0.000000e+000
    outer loop
      vertex -2.396000e+001 -6.750000e+000 -9.500000e+000
      vertex -2.396000e+001 -1.965433e+000 -3.597954e+000
      vertex -2.396000e+001 -3.192736e+000 -2.571846e+000
    endloop
  endfacet
  facet normal  9.999999e-001  0.000000e+000  0.000000e+000
    outer loop
      vertex -2.396000e+001 -6.750000e+000 -9.500000e+000
      vertex -2.396000e+001 -3.192736e+000 -2.571846e+000
      vertex -2.396000e+001 -3.933942e+000 -1.154178e+000
    endloop
  endfacet
  facet normal  1.000000e+000  0.000000e+000  0.000000e+000
    outer loop
      vertex -2.396000e+001 -6.750000e+000 -9.500000e+000
      vertex -2.396000e+001 -3.933942e+000 -1.154178e+000
      vertex -2.396000e+001 -4.076208e+000  4.392242e-001
    endloop
  endfacet
  facet normal  1.000000e+000  0.000000e+000  0.000000e+000
    outer loop
      vertex -2.396000e+001 -6.750000e+000  9.500000e+000
      vertex -2.396000e+001 -6.750000e+000 -9.500000e+000
      vertex -2.396000e+001 -4.076208e+000  4.392242e-001
    endloop
  endfacet
  facet normal  1.000000e+000  0.000000e+000  -0.000000e+000
    outer loop
      vertex -2.396000e+001 -6.750000e+000  9.500000e+000
      vertex -2.396000e+001 -4.076208e+000  4.392242e-001
      vertex -2.396000e+001 -3.597877e+000  1.965779e+000
    endloop
  endfacet
  facet normal  1.000000e+000  0.000000e+000  -0.000000e+000
    outer loop
      vertex -2.396000e+001 -6.750000e+000  9.500000e+000
      vertex -2.396000e+001 -3.597877e+000  1.965779e+000
      vertex -2.396000e+001 -2.571769e+000  3.193082e+000
    endloop
  endfacet
  facet normal  1.000000e+000  0.000000e+000  -0.000000e+000
    outer loop
      vertex -2.396000e+001 -6.750000e+000  9.500000e+000
      vertex -2.396000e+001 -2.571769e+000  3.193082e+000
      vertex -2.396000e+001 -1.154100e+000  3.934288e+000
    endloop
  endfacet
  facet normal  1.000000e+000  0.000000e+000  0.000000e+000
    outer loop
      vertex -2.396000e+001 -6.750000e+000  9.500000e+000
      vertex -2.396000e+001 -1.154100e+000  3.934288e+000
      vertex -2.396000e+001 -2.500000e+000  9.500000e+000
    endloop
  endfacet
  facet normal  9.999999e-001  0.000000e+000  0.000000e+000
    outer loop
      vertex -2.396000e+001  6.750000e+000 -9.500000e+000
      vertex -2.396000e+001  3.934366e+000  1.154446e+000
      vertex -2.396000e+001  4.076632e+000 -4.389559e-001
    endloop
  endfacet
  facet normal  1.000000e+000  0.000000e+000  0.000000e+000
    outer loop
      vertex -2.396000e+001  6.750000e+000 -9.500000e+000
      vertex -2.396000e+001  4.076632e+000 -4.389559e-001
      vertex -2.396000e+001  3.598300e+000 -1.965511e+000
    endloop
  endfacet
  facet normal  1.000000e+000  0.000000e+000  0.000000e+000
    outer loop
      vertex -2.396000e+001  6.750000e+000 -9.500000e+000
      vertex -2.396000e+001  3.598300e+000 -1.965511e+000
      vertex -2.396000e+001  2.572193e+000 -3.192814e+000
    endloop
  endfacet
  facet normal  1.000000e+000  0.000000e+000  0.000000e+000
    outer loop
      vertex -2.396000e+001  6.750000e+000 -9.500000e+000
      vertex -2.396000e+001  2.572193e+000 -3.192814e+000
      vertex -2.396000e+001  1.154524e+000 -3.934019e+000
    endloop
  endfacet
  facet normal  1.000000e+000  0.000000e+000  0.000000e+000
    outer loop
      vertex -2.396000e+001  6.750000e+000 -9.500000e+000
      vertex -2.396000e+001  1.154524e+000 -3.934019e+000
      vertex -2.396000e+001  2.500000e+000 -9.500000e+000
    endloop
  endfacet
  facet normal  1.000000e+000  0.000000e+000  0.000000e+000
    outer loop
      vertex -2.396000e+001  2.500000e+000 -1.350000e+001
      vertex -2.396000e+001  2.500000e+000 -9.500000e+000
      vertex -2.396000e+001 -2.500000e+000 -1.350000e+001
    endloop
  endfacet
  facet normal  1.000000e+000  0.000000e+000  0.000000e+000
    outer loop
      vertex -2.396000e+001 -2.500000e+000 -1.350000e+001
      vertex -2.396000e+001  2.500000e+000 -9.500000e+000
      vertex -2.396000e+001  1.154524e+000 -3.934019e+000
    endloop
  endfacet
  facet normal  9.999999e-001  0.000000e+000  0.000000e+000
    outer loop
      vertex -2.396000e+001 -2.500000e+000 -1.350000e+001
      vertex -2.396000e+001  1.154524e+000 -3.934019e+000
      vertex -2.396000e+001 -2.500000e+000 -9.500000e+000
    endloop
  endfacet
  facet normal  1.000000e+000  0.000000e+000  0.000000e+000
    outer loop
      vertex -2.396000e+001 -2.500000e+000 -9.500000e+000
      vertex -2.396000e+001  1.154524e+000 -3.934019e+000
      vertex -2.396000e+001 -4.388781e-001 -4.076286e+000
    endloop
  endfacet
  facet normal  1.000000e+000  0.000000e+000  0.000000e+000
    outer loop
      vertex -2.396000e+001  2.500000e+000  9.500000e+000
      vertex -2.396000e+001  2.500000e+000  1.350000e+001
      vertex -2.396000e+001  4.393020e-001  4.076554e+000
    endloop
  endfacet
  facet normal  1.000000e+000  0.000000e+000  -0.000000e+000
    outer loop
      vertex -2.396000e+001  4.393020e-001  4.076554e+000
      vertex -2.396000e+001  2.500000e+000  1.350000e+001
      vertex -2.396000e+001 -2.500000e+000  1.350000e+001
    endloop
  endfacet
  facet normal  1.000000e+000  0.000000e+000  0.000000e+000
    outer loop
      vertex -2.396000e+001  4.393020e-001  4.076554e+000
      vertex -2.396000e+001 -2.500000e+000  1.350000e+001
      vertex -2.396000e+001 -1.154100e+000  3.934288e+000
    endloop
  endfacet
  facet normal  1.000000e+000  0.000000e+000  0.000000e+000
    outer loop
      vertex -2.396000e+001 -1.154100e+000  3.934288e+000
      vertex -2.396000e+001 -2.500000e+000  1.350000e+001
      vertex -2.396000e+001 -2.500000e+000  9.500000e+000
    endloop
  endfacet
  facet normal  0.000000e+000  0.000000e+000 -1.000000e+000
    outer loop
      vertex -2.696000e+001  6.750000e+000  6.600000e+000
      vertex -2.696000e+001 -6.750000e+000  6.600000e+000
      vertex -3.316000e+001  6.750000e+000  6.600000e+000
    endloop
  endfacet
  facet normal  0.000000e+000  0.000000e+000 -1.000000e+000
    outer loop
      vertex -3.316000e+001  6.750000e+000  6.600000e+000
      vertex -2.696000e+001 -6.750000e+000  6.600000e+000
      vertex -3.316000e+001 -6.750000e+000  6.600000e+000
    endloop
  endfacet
  facet normal -1.000000e+000  -0.000000e+000  0.000000e+000
    outer loop
      vertex -2.696000e+001 -6.750000e+000  6.600000e+000
      vertex -2.696000e+001  6.750000e+000  6.600000e+000
      vertex -2.696000e+001 -1.154100e+000  3.934288e+000
    endloop
  endfacet
  facet normal -1.000000e+000  -0.000000e+000  0.000000e+000
    outer loop
      vertex -2.696000e+001 -6.750000e+000  6.600000e+000
      vertex -2.696000e+001 -1.154100e+000  3.934288e+000
      vertex -2.696000e+001 -2.571769e+000  3.193082e+000
    endloop
  endfacet
  facet normal -1.000000e+000  -0.000000e+000  0.000000e+000
    outer loop
      vertex -2.696000e+001 -6.750000e+000  6.600000e+000
      vertex -2.696000e+001 -2.571769e+000  3.193082e+000
      vertex -2.696000e+001 -3.597877e+000  1.965779e+000
    endloop
  endfacet
  facet normal -1.000000e+000  -0.000000e+000  0.000000e+000
    outer loop
      vertex -2.696000e+001 -6.750000e+000  6.600000e+000
      vertex -2.696000e+001 -3.597877e+000  1.965779e+000
      vertex -2.696000e+001 -4.076208e+000  4.392242e-001
    endloop
  endfacet
  facet normal -9.999999e-001  -0.000000e+000  -0.000000e+000
    outer loop
      vertex -2.696000e+001 -6.750000e+000  6.600000e+000
      vertex -2.696000e+001 -4.076208e+000  4.392242e-001
      vertex -2.696000e+001 -3.933942e+000 -1.154178e+000
    endloop
  endfacet
  facet normal -1.000000e+000  -0.000000e+000  0.000000e+000
    outer loop
      vertex -2.696000e+001 -6.750000e+000  6.600000e+000
      vertex -2.696000e+001 -3.933942e+000 -1.154178e+000
      vertex -2.696000e+001 -6.750000e+000 -6.600000e+000
    endloop
  endfacet
  facet normal -1.000000e+000  0.000000e+000  0.000000e+000
    outer loop
      vertex -2.696000e+001  6.750000e+000  6.600000e+000
      vertex -2.696000e+001  6.750000e+000 -6.600000e+000
      vertex -2.696000e+001  4.076632e+000 -4.389559e-001
    endloop
  endfacet
  facet normal -1.000000e+000  0.000000e+000  0.000000e+000
    outer loop
      vertex -2.696000e+001  6.750000e+000  6.600000e+000
      vertex -2.696000e+001  4.076632e+000 -4.389559e-001
      vertex -2.696000e+001  3.934366e+000  1.154446e+000
    endloop
  endfacet
  facet normal -1.000000e+000  0.000000e+000  0.000000e+000
    outer loop
      vertex -2.696000e+001  6.750000e+000  6.600000e+000
      vertex -2.696000e+001  3.934366e+000  1.154446e+000
      vertex -2.696000e+001  3.193160e+000  2.572115e+000
    endloop
  endfacet
  facet normal -1.000000e+000  0.000000e+000  0.000000e+000
    outer loop
      vertex -2.696000e+001  6.750000e+000  6.600000e+000
      vertex -2.696000e+001  3.193160e+000  2.572115e+000
      vertex -2.696000e+001  1.965857e+000  3.598223e+000
    endloop
  endfacet
  facet normal -1.000000e+000  0.000000e+000  0.000000e+000
    outer loop
      vertex -2.696000e+001  6.750000e+000  6.600000e+000
      vertex -2.696000e+001  1.965857e+000  3.598223e+000
      vertex -2.696000e+001  4.393020e-001  4.076554e+000
    endloop
  endfacet
  facet normal -1.000000e+000  -0.000000e+000  0.000000e+000
    outer loop
      vertex -2.696000e+001  6.750000e+000  6.600000e+000
      vertex -2.696000e+001  4.393020e-001  4.076554e+000
      vertex -2.696000e+001 -1.154100e+000  3.934288e+000
    endloop
  endfacet
  facet normal -9.999999e-001  0.000000e+000  0.000000e+000
    outer loop
      vertex -2.696000e+001  6.750000e+000 -6.600000e+000
      vertex -2.696000e+001 -1.965433e+000 -3.597954e+000
      vertex -2.696000e+001 -4.388781e-001 -4.076286e+000
    endloop
  endfacet
  facet normal -1.000000e+000  0.000000e+000  0.000000e+000
    outer loop
      vertex -2.696000e+001  6.750000e+000 -6.600000e+000
      vertex -2.696000e+001 -4.388781e-001 -4.076286e+000
      vertex -2.696000e+001  1.154524e+000 -3.934019e+000
    endloop
  endfacet
  facet normal -9.999999e-001  0.000000e+000  0.000000e+000
    outer loop
      vertex -2.696000e+001  6.750000e+000 -6.600000e+000
      vertex -2.696000e+001  1.154524e+000 -3.934019e+000
      vertex -2.696000e+001  2.572193e+000 -3.192814e+000
    endloop
  endfacet
  facet normal -1.000000e+000  0.000000e+000  0.000000e+000
    outer loop
      vertex -2.696000e+001  6.750000e+000 -6.600000e+000
      vertex -2.696000e+001  2.572193e+000 -3.192814e+000
      vertex -2.696000e+001  3.598300e+000 -1.965511e+000
    endloop
  endfacet
  facet normal -1.000000e+000  0.000000e+000  0.000000e+000
    outer loop
      vertex -2.696000e+001  6.750000e+000 -6.600000e+000
      vertex -2.696000e+001  3.598300e+000 -1.965511e+000
      vertex -2.696000e+001  4.076632e+000 -4.389559e-001
    endloop
  endfacet
  facet normal -1.000000e+000  0.000000e+000  -0.000000e+000
    outer loop
      vertex -2.696000e+001 -6.750000e+000 -6.600000e+000
      vertex -2.696000e+001 -3.933942e+000 -1.154178e+000
      vertex -2.696000e+001 -3.192736e+000 -2.571846e+000
    endloop
  endfacet
  facet normal -1.000000e+000  0.000000e+000  -0.000000e+000
    outer loop
      vertex -2.696000e+001 -6.750000e+000 -6.600000e+000
      vertex -2.696000e+001 -3.192736e+000 -2.571846e+000
      vertex -2.696000e+001 -1.965433e+000 -3.597954e+000
    endloop
  endfacet
  facet normal -1.000000e+000  0.000000e+000  -0.000000e+000
    outer loop
      vertex -2.696000e+001 -6.750000e+000 -6.600000e+000
      vertex -2.696000e+001 -1.965433e+000 -3.597954e+000
      vertex -2.696000e+001  6.750000e+000 -6.600000e+000
    endloop
  endfacet
  facet normal  0.000000e+000  0.000000e+000  1.000000e+000
    outer loop
      vertex -3.316000e+001  6.750000e+000 -6.600000e+000
      vertex -3.316000e+001 -6.750000e+000 -6.600000e+000
      vertex -2.696000e+001  6.750000e+000 -6.600000e+000
    endloop
  endfacet
  facet normal  0.000000e+000  0.000000e+000  1.000000e+000
    outer loop
      vertex -2.696000e+001  6.750000e+000 -6.600000e+000
      vertex -3.316000e+001 -6.750000e+000 -6.600000e+000
      vertex -2.696000e+001 -6.750000e+000 -6.600000e+000
    endloop
  endfacet
  facet normal  1.000000e+000  0.000000e+000  0.000000e+000
    outer loop
      vertex -3.316000e+001 -6.750000e+000 -6.600000e+000
      vertex -3.316000e+001  6.750000e+000 -6.600000e+000
      vertex -3.316000e+001 -1.965433e+000 -3.597954e+000
    endloop
  endfacet
  facet normal  1.000000e+000  0.000000e+000  0.000000e+000
    outer loop
      vertex -3.316000e+001 -6.750000e+000 -6.600000e+000
      vertex -3.316000e+001 -1.965433e+000 -3.597954e+000
      vertex -3.316000e+001 -3.192736e+000 -2.571846e+000
    endloop
  endfacet
  facet normal  1.000000e+000  0.000000e+000  0.000000e+000
    outer loop
      vertex -3.316000e+001 -6.750000e+000 -6.600000e+000
      vertex -3.316000e+001 -3.192736e+000 -2.571846e+000
      vertex -3.316000e+001 -3.933942e+000 -1.154178e+000
    endloop
  endfacet
  facet normal  1.000000e+000  0.000000e+000  0.000000e+000
    outer loop
      vertex -3.316000e+001 -6.750000e+000 -6.600000e+000
      vertex -3.316000e+001 -3.933942e+000 -1.154178e+000
      vertex -3.316000e+001 -4.076208e+000  4.392242e-001
    endloop
  endfacet
  facet normal  1.000000e+000  0.000000e+000  0.000000e+000
    outer loop
      vertex -3.316000e+001 -6.750000e+000 -6.600000e+000
      vertex -3.316000e+001 -4.076208e+000  4.392242e-001
      vertex -3.316000e+001 -6.750000e+000  6.600000e+000
    endloop
  endfacet
  facet normal  1.000000e+000  0.000000e+000  0.000000e+000
    outer loop
      vertex -3.316000e+001  6.750000e+000 -6.600000e+000
      vertex -3.316000e+001  6.750000e+000  6.600000e+000
      vertex -3.316000e+001  3.934366e+000  1.154446e+000
    endloop
  endfacet
  facet normal  1.000000e+000  0.000000e+000  0.000000e+000
    outer loop
      vertex -3.316000e+001  6.750000e+000 -6.600000e+000
      vertex -3.316000e+001  3.934366e+000  1.154446e+000
      vertex -3.316000e+001  4.076632e+000 -4.389559e-001
    endloop
  endfacet
  facet normal  1.000000e+000  0.000000e+000  0.000000e+000
    outer loop
      vertex -3.316000e+001  6.750000e+000 -6.600000e+000
      vertex -3.316000e+001  4.076632e+000 -4.389559e-001
      vertex -3.316000e+001  3.598300e+000 -1.965511e+000
    endloop
  endfacet
  facet normal  1.000000e+000  0.000000e+000  0.000000e+000
    outer loop
      vertex -3.316000e+001  6.750000e+000 -6.600000e+000
      vertex -3.316000e+001  3.598300e+000 -1.965511e+000
      vertex -3.316000e+001  2.572193e+000 -3.192814e+000
    endloop
  endfacet
  facet normal  9.999999e-001  0.000000e+000  0.000000e+000
    outer loop
      vertex -3.316000e+001  6.750000e+000 -6.600000e+000
      vertex -3.316000e+001  2.572193e+000 -3.192814e+000
      vertex -3.316000e+001  1.154524e+000 -3.934019e+000
    endloop
  endfacet
  facet normal  1.000000e+000  0.000000e+000  0.000000e+000
    outer loop
      vertex -3.316000e+001  6.750000e+000 -6.600000e+000
      vertex -3.316000e+001  1.154524e+000 -3.934019e+000
      vertex -3.316000e+001 -4.388781e-001 -4.076286e+000
    endloop
  endfacet
  facet normal  1.000000e+000  0.000000e+000  0.000000e+000
    outer loop
      vertex -3.316000e+001  6.750000e+000 -6.600000e+000
      vertex -3.316000e+001 -4.388781e-001 -4.076286e+000
      vertex -3.316000e+001 -1.965433e+000 -3.597954e+000
    endloop
  endfacet
  facet normal  1.000000e+000  0.000000e+000  0.000000e+000
    outer loop
      vertex -3.316000e+001  6.750000e+000  6.600000e+000
      vertex -3.316000e+001 -1.154100e+000  3.934288e+000
      vertex -3.316000e+001  4.393020e-001  4.076554e+000
    endloop
  endfacet
  facet normal  1.000000e+000  -0.000000e+000  0.000000e+000
    outer loop
      vertex -3.316000e+001  6.750000e+000  6.600000e+000
      vertex -3.316000e+001  4.393020e-001  4.076554e+000
      vertex -3.316000e+001  1.965857e+000  3.598223e+000
    endloop
  endfacet
  facet normal  1.000000e+000  -0.000000e+000  0.000000e+000
    outer loop
      vertex -3.316000e+001  6.750000e+000  6.600000e+000
      vertex -3.316000e+001  1.965857e+000  3.598223e+000
      vertex -3.316000e+001  3.193160e+000  2.572115e+000
    endloop
  endfacet
  facet normal  1.000000e+000  -0.000000e+000  0.000000e+000
    outer loop
      vertex -3.316000e+001  6.750000e+000  6.600000e+000
      vertex -3.316000e+001  3.193160e+000  2.572115e+000
      vertex -3.316000e+001  3.934366e+000  1.154446e+000
    endloop
  endfacet
  facet normal  1.000000e+000  0.000000e+000  -0.000000e+000
    outer loop
      vertex -3.316000e+001 -6.750000e+000  6.600000e+000
      vertex -3.316000e+001 -4.076208e+000  4.392242e-001
      vertex -3.316000e+001 -3.597877e+000  1.965779e+000
    endloop
  endfacet
  facet normal  1.000000e+000  0.000000e+000  -0.000000e+000
    outer loop
      vertex -3.316000e+001 -6.750000e+000  6.600000e+000
      vertex -3.316000e+001 -3.597877e+000  1.965779e+000
      vertex -3.316000e+001 -2.571769e+000  3.193082e+000
    endloop
  endfacet
  facet normal  1.000000e+000  0.000000e+000  -0.000000e+000
    outer loop
      vertex -3.316000e+001 -6.750000e+000  6.600000e+000
      vertex -3.316000e+001 -2.571769e+000  3.193082e+000
      vertex -3.316000e+001 -1.154100e+000  3.934288e+000
    endloop
  endfacet
  facet normal  1.000000e+000  0.000000e+000  -0.000000e+000
    outer loop
      vertex -3.316000e+001 -6.750000e+000  6.600000e+000
      vertex -3.316000e+001 -1.154100e+000  3.934288e+000
      vertex -3.316000e+001  6.750000e+000  6.600000e+000
    endloop
  endfacet
  facet normal  -0.000000e+000  6.414213e-001  7.671888e-001
    outer loop
      vertex -2.396000e+001 -1.965433e+000 -3.597954e+000
      vertex -2.696000e+001 -3.192736e+000 -2.571846e+000
      vertex -2.396000e+001 -3.192736e+000 -2.571846e+000
    endloop
  endfacet
  facet normal  0.000000e+000  8.861865e-001  4.633287e-001
    outer loop
      vertex -2.396000e+001 -3.192736e+000 -2.571846e+000
      vertex -2.696000e+001 -3.192736e+000 -2.571846e+000
      vertex -2.696000e+001 -3.933942e+000 -1.154178e+000
    endloop
  endfacet
  facet normal  -0.000000e+000  8.861865e-001  4.633287e-001
    outer loop
      vertex -2.396000e+001 -3.192736e+000 -2.571846e+000
      vertex -2.696000e+001 -3.933942e+000 -1.154178e+000
      vertex -2.396000e+001 -3.933942e+000 -1.154178e+000
    endloop
  endfacet
  facet normal  0.000000e+000  9.960378e-001  8.893099e-002
    outer loop
      vertex -2.396000e+001 -3.933942e+000 -1.154178e+000
      vertex -2.696000e+001 -3.933942e+000 -1.154178e+000
      vertex -2.696000e+001 -4.076208e+000  4.392242e-001
    endloop
  endfacet
  facet normal  -0.000000e+000  9.960378e-001  8.893099e-002
    outer loop
      vertex -2.396000e+001 -3.933942e+000 -1.154178e+000
      vertex -2.696000e+001 -4.076208e+000  4.392242e-001
      vertex -2.396000e+001 -4.076208e+000  4.392242e-001
    endloop
  endfacet
  facet normal  0.000000e+000  9.542513e-001 -2.990057e-001
    outer loop
      vertex -2.396000e+001 -4.076208e+000  4.392242e-001
      vertex -2.696000e+001 -4.076208e+000  4.392242e-001
      vertex -2.696000e+001 -3.597877e+000  1.965779e+000
    endloop
  endfacet
  facet normal  0.000000e+000  9.542513e-001 -2.990057e-001
    outer loop
      vertex -2.396000e+001 -4.076208e+000  4.392242e-001
      vertex -2.696000e+001 -3.597877e+000  1.965779e+000
      vertex -2.396000e+001 -3.597877e+000  1.965779e+000
    endloop
  endfacet
  facet normal  0.000000e+000  6.414213e-001  7.671888e-001
    outer loop
      vertex -2.696000e+001 -3.192736e+000 -2.571846e+000
      vertex -2.396000e+001 -1.965433e+000 -3.597954e+000
      vertex -2.696000e+001 -1.965433e+000 -3.597954e+000
    endloop
  endfacet
  facet normal  -0.000000e+000  2.990057e-001  9.542513e-001
    outer loop
      vertex -2.696000e+001 -1.965433e+000 -3.597954e+000
      vertex -2.396000e+001 -1.965433e+000 -3.597954e+000
      vertex -2.396000e+001 -4.388781e-001 -4.076286e+000
    endloop
  endfacet
  facet normal  0.000000e+000  2.990057e-001  9.542513e-001
    outer loop
      vertex -2.696000e+001 -1.965433e+000 -3.597954e+000
      vertex -2.396000e+001 -4.388781e-001 -4.076286e+000
      vertex -2.696000e+001 -4.388781e-001 -4.076286e+000
    endloop
  endfacet
  facet normal  0.000000e+000 -8.893099e-002  9.960378e-001
    outer loop
      vertex -2.696000e+001 -4.388781e-001 -4.076286e+000
      vertex -2.396000e+001 -4.388781e-001 -4.076286e+000
      vertex -2.396000e+001  1.154524e+000 -3.934019e+000
    endloop
  endfacet
  facet normal  0.000000e+000 -8.893099e-002  9.960378e-001
    outer loop
      vertex -2.696000e+001 -4.388781e-001 -4.076286e+000
      vertex -2.396000e+001  1.154524e+000 -3.934019e+000
      vertex -2.696000e+001  1.154524e+000 -3.934019e+000
    endloop
  endfacet
  facet normal  0.000000e+000 -4.633287e-001  8.861865e-001
    outer loop
      vertex -2.696000e+001  1.154524e+000 -3.934019e+000
      vertex -2.396000e+001  1.154524e+000 -3.934019e+000
      vertex -2.396000e+001  2.572193e+000 -3.192814e+000
    endloop
  endfacet
  facet normal  0.000000e+000 -4.633287e-001  8.861865e-001
    outer loop
      vertex -2.696000e+001  1.154524e+000 -3.934019e+000
      vertex -2.396000e+001  2.572193e+000 -3.192814e+000
      vertex -2.696000e+001  2.572193e+000 -3.192814e+000
    endloop
  endfacet
  facet normal  0.000000e+000 -7.671887e-001  6.414213e-001
    outer loop
      vertex -2.696000e+001  2.572193e+000 -3.192814e+000
      vertex -2.396000e+001  2.572193e+000 -3.192814e+000
      vertex -2.396000e+001  3.598300e+000 -1.965511e+000
    endloop
  endfacet
  facet normal  0.000000e+000 -7.671887e-001  6.414213e-001
    outer loop
      vertex -2.696000e+001  2.572193e+000 -3.192814e+000
      vertex -2.396000e+001  3.598300e+000 -1.965511e+000
      vertex -2.696000e+001  3.598300e+000 -1.965511e+000
    endloop
  endfacet
  facet normal  0.000000e+000 -6.414214e-001 -7.671887e-001
    outer loop
      vertex -2.396000e+001  1.965857e+000  3.598223e+000
      vertex -2.696000e+001  3.193160e+000  2.572115e+000
      vertex -2.396000e+001  3.193160e+000  2.572115e+000
    endloop
  endfacet
  facet normal  -0.000000e+000 -8.861865e-001 -4.633287e-001
    outer loop
      vertex -2.396000e+001  3.193160e+000  2.572115e+000
      vertex -2.696000e+001  3.193160e+000  2.572115e+000
      vertex -2.696000e+001  3.934366e+000  1.154446e+000
    endloop
  endfacet
  facet normal  0.000000e+000 -8.861865e-001 -4.633287e-001
    outer loop
      vertex -2.396000e+001  3.193160e+000  2.572115e+000
      vertex -2.696000e+001  3.934366e+000  1.154446e+000
      vertex -2.396000e+001  3.934366e+000  1.154446e+000
    endloop
  endfacet
  facet normal  -0.000000e+000 -9.960378e-001 -8.893099e-002
    outer loop
      vertex -2.396000e+001  3.934366e+000  1.154446e+000
      vertex -2.696000e+001  3.934366e+000  1.154446e+000
      vertex -2.696000e+001  4.076632e+000 -4.389559e-001
    endloop
  endfacet
  facet normal  0.000000e+000 -9.960378e-001 -8.893099e-002
    outer loop
      vertex -2.396000e+001  3.934366e+000  1.154446e+000
      vertex -2.696000e+001  4.076632e+000 -4.389559e-001
      vertex -2.396000e+001  4.076632e+000 -4.389559e-001
    endloop
  endfacet
  facet normal  0.000000e+000 -9.542514e-001  2.990057e-001
    outer loop
      vertex -2.396000e+001  4.076632e+000 -4.389559e-001
      vertex -2.696000e+001  4.076632e+000 -4.389559e-001
      vertex -2.696000e+001  3.598300e+000 -1.965511e+000
    endloop
  endfacet
  facet normal  0.000000e+000 -9.542514e-001  2.990057e-001
    outer loop
      vertex -2.396000e+001  4.076632e+000 -4.389559e-001
      vertex -2.696000e+001  3.598300e+000 -1.965511e+000
      vertex -2.396000e+001  3.598300e+000 -1.965511e+000
    endloop
  endfacet
  facet normal  -0.000000e+000 -6.414214e-001 -7.671887e-001
    outer loop
      vertex -2.696000e+001  3.193160e+000  2.572115e+000
      vertex -2.396000e+001  1.965857e+000  3.598223e+000
      vertex -2.696000e+001  1.965857e+000  3.598223e+000
    endloop
  endfacet
  facet normal  0.000000e+000 -2.990057e-001 -9.542514e-001
    outer loop
      vertex -2.696000e+001  1.965857e+000  3.598223e+000
      vertex -2.396000e+001  1.965857e+000  3.598223e+000
      vertex -2.396000e+001  4.393020e-001  4.076554e+000
    endloop
  endfacet
  facet normal  -0.000000e+000 -2.990057e-001 -9.542514e-001
    outer loop
      vertex -2.696000e+001  1.965857e+000  3.598223e+000
      vertex -2.396000e+001  4.393020e-001  4.076554e+000
      vertex -2.696000e+001  4.393020e-001  4.076554e+000
    endloop
  endfacet
  facet normal  0.000000e+000  8.893114e-002 -9.960378e-001
    outer loop
      vertex -2.696000e+001  4.393020e-001  4.076554e+000
      vertex -2.396000e+001  4.393020e-001  4.076554e+000
      vertex -2.396000e+001 -1.154100e+000  3.934288e+000
    endloop
  endfacet
  facet normal  0.000000e+000  8.893114e-002 -9.960378e-001
    outer loop
      vertex -2.696000e+001  4.393020e-001  4.076554e+000
      vertex -2.396000e+001 -1.154100e+000  3.934288e+000
      vertex -2.696000e+001 -1.154100e+000  3.934288e+000
    endloop
  endfacet
  facet normal  0.000000e+000  4.633287e-001 -8.861865e-001
    outer loop
      vertex -2.696000e+001 -1.154100e+000  3.934288e+000
      vertex -2.396000e+001 -1.154100e+000  3.934288e+000
      vertex -2.396000e+001 -2.571769e+000  3.193082e+000
    endloop
  endfacet
  facet normal  0.000000e+000  4.633287e-001 -8.861865e-001
    outer loop
      vertex -2.696000e+001 -1.154100e+000  3.934288e+000
      vertex -2.396000e+001 -2.571769e+000  3.193082e+000
      vertex -2.696000e+001 -2.571769e+000  3.193082e+000
    endloop
  endfacet
  facet normal  0.000000e+000  7.671887e-001 -6.414213e-001
    outer loop
      vertex -2.696000e+001 -2.571769e+000  3.193082e+000
      vertex -2.396000e+001 -2.571769e+000  3.193082e+000
      vertex -2.396000e+001 -3.597877e+000  1.965779e+000
    endloop
  endfacet
  facet normal  0.000000e+000  7.671887e-001 -6.414213e-001
    outer loop
      vertex -2.696000e+001 -2.571769e+000  3.193082e+000
      vertex -2.396000e+001 -3.597877e+000  1.965779e+000
      vertex -2.696000e+001 -3.597877e+000  1.965779e+000
    endloop
  endfacet
  facet normal  0.000000e+000 -6.414214e-001 -7.671887e-001
    outer loop
      vertex -3.316000e+001  1.965857e+000  3.598223e+000
      vertex -3.616000e+001  3.193160e+000  2.572115e+000
      vertex -3.316000e+001  3.193160e+000  2.572115e+000
    endloop
  endfacet
  facet normal  -0.000000e+000 -8.861865e-001 -4.633287e-001
    outer loop
      vertex -3.316000e+001  3.193160e+000  2.572115e+000
      vertex -3.616000e+001  3.193160e+000  2.572115e+000
      vertex -3.616000e+001  3.934366e+000  1.154446e+000
    endloop
  endfacet
  facet normal  0.000000e+000 -8.861865e-001 -4.633287e-001
    outer loop
      vertex -3.316000e+001  3.193160e+000  2.572115e+000
      vertex -3.616000e+001  3.934366e+000  1.154446e+000
      vertex -3.316000e+001  3.934366e+000  1.154446e+000
    endloop
  endfacet
  facet normal  -0.000000e+000 -9.960378e-001 -8.893099e-002
    outer loop
      vertex -3.316000e+001  3.934366e+000  1.154446e+000
      vertex -3.616000e+001  3.934366e+000  1.154446e+000
      vertex -3.616000e+001  4.076632e+000 -4.389559e-001
    endloop
  endfacet
  facet normal  0.000000e+000 -9.960378e-001 -8.893099e-002
    outer loop
      vertex -3.316000e+001  3.934366e+000  1.154446e+000
      vertex -3.616000e+001  4.076632e+000 -4.389559e-001
      vertex -3.316000e+001  4.076632e+000 -4.389559e-001
    endloop
  endfacet
  facet normal  0.000000e+000 -9.542514e-001  2.990057e-001
    outer loop
      vertex -3.316000e+001  4.076632e+000 -4.389559e-001
      vertex -3.616000e+001  4.076632e+000 -4.389559e-001
      vertex -3.616000e+001  3.598300e+000 -1.965511e+000
    endloop
  endfacet
  facet normal  0.000000e+000 -9.542514e-001  2.990057e-001
    outer loop
      vertex -3.316000e+001  4.076632e+000 -4.389559e-001
      vertex -3.616000e+001  3.598300e+000 -1.965511e+000
      vertex -3.316000e+001  3.598300e+000 -1.965511e+000
    endloop
  endfacet
  facet normal  -0.000000e+000 -6.414214e-001 -7.671887e-001
    outer loop
      vertex -3.616000e+001  3.193160e+000  2.572115e+000
      vertex -3.316000e+001  1.965857e+000  3.598223e+000
      vertex -3.616000e+001  1.965857e+000  3.598223e+000
    endloop
  endfacet
  facet normal  0.000000e+000 -2.990057e-001 -9.542514e-001
    outer loop
      vertex -3.616000e+001  1.965857e+000  3.598223e+000
      vertex -3.316000e+001  1.965857e+000  3.598223e+000
      vertex -3.316000e+001  4.393020e-001  4.076554e+000
    endloop
  endfacet
  facet normal  -0.000000e+000 -2.990057e-001 -9.542514e-001
    outer loop
      vertex -3.616000e+001  1.965857e+000  3.598223e+000
      vertex -3.316000e+001  4.393020e-001  4.076554e+000
      vertex -3.616000e+001  4.393020e-001  4.076554e+000
    endloop
  endfacet
  facet normal  0.000000e+000  8.893114e-002 -9.960378e-001
    outer loop
      vertex -3.616000e+001  4.393020e-001  4.076554e+000
      vertex -3.316000e+001  4.393020e-001  4.076554e+000
      vertex -3.316000e+001 -1.154100e+000  3.934288e+000
    endloop
  endfacet
  facet normal  0.000000e+000  8.893114e-002 -9.960378e-001
    outer loop
      vertex -3.616000e+001  4.393020e-001  4.076554e+000
      vertex -3.316000e+001 -1.154100e+000  3.934288e+000
      vertex -3.616000e+001 -1.154100e+000  3.934288e+000
    endloop
  endfacet
  facet normal  0.000000e+000  4.633287e-001 -8.861865e-001
    outer loop
      vertex -3.616000e+001 -1.154100e+000  3.934288e+000
      vertex -3.316000e+001 -1.154100e+000  3.934288e+000
      vertex -3.316000e+001 -2.571769e+000  3.193082e+000
    endloop
  endfacet
  facet normal  0.000000e+000  4.633287e-001 -8.861865e-001
    outer loop
      vertex -3.616000e+001 -1.154100e+000  3.934288e+000
      vertex -3.316000e+001 -2.571769e+000  3.193082e+000
      vertex -3.616000e+001 -2.571769e+000  3.193082e+000
    endloop
  endfacet
  facet normal  0.000000e+000  7.671887e-001 -6.414213e-001
    outer loop
      vertex -3.616000e+001 -2.571769e+000  3.193082e+000
      vertex -3.316000e+001 -2.571769e+000  3.193082e+000
      vertex -3.316000e+001 -3.597877e+000  1.965779e+000
    endloop
  endfacet
  facet normal  0.000000e+000  7.671887e-001 -6.414213e-001
    outer loop
      vertex -3.616000e+001 -2.571769e+000  3.193082e+000
      vertex -3.316000e+001 -3.597877e+000  1.965779e+000
      vertex -3.616000e+001 -3.597877e+000  1.965779e+000
    endloop
  endfacet
  facet normal  -0.000000e+000  6.414213e-001  7.671888e-001
    outer loop
      vertex -3.316000e+001 -1.965433e+000 -3.597954e+000
      vertex -3.616000e+001 -3.192736e+000 -2.571846e+000
      vertex -3.316000e+001 -3.192736e+000 -2.571846e+000
    endloop
  endfacet
  facet normal  0.000000e+000  8.861865e-001  4.633287e-001
    outer loop
      vertex -3.316000e+001 -3.192736e+000 -2.571846e+000
      vertex -3.616000e+001 -3.192736e+000 -2.571846e+000
      vertex -3.616000e+001 -3.933942e+000 -1.154178e+000
    endloop
  endfacet
  facet normal  -0.000000e+000  8.861865e-001  4.633287e-001
    outer loop
      vertex -3.316000e+001 -3.192736e+000 -2.571846e+000
      vertex -3.616000e+001 -3.933942e+000 -1.154178e+000
      vertex -3.316000e+001 -3.933942e+000 -1.154178e+000
    endloop
  endfacet
  facet normal  0.000000e+000  9.960378e-001  8.893099e-002
    outer loop
      vertex -3.316000e+001 -3.933942e+000 -1.154178e+000
      vertex -3.616000e+001 -3.933942e+000 -1.154178e+000
      vertex -3.616000e+001 -4.076208e+000  4.392242e-001
    endloop
  endfacet
  facet normal  -0.000000e+000  9.960378e-001  8.893099e-002
    outer loop
      vertex -3.316000e+001 -3.933942e+000 -1.154178e+000
      vertex -3.616000e+001 -4.076208e+000  4.392242e-001
      vertex -3.316000e+001 -4.076208e+000  4.392242e-001
    endloop
  endfacet
  facet normal  0.000000e+000  9.542513e-001 -2.990057e-001
    outer loop
      vertex -3.316000e+001 -4.076208e+000  4.392242e-001
      vertex -3.616000e+001 -4.076208e+000  4.392242e-001
      vertex -3.616000e+001 -3.597877e+000  1.965779e+000
    endloop
  endfacet
  facet normal  0.000000e+000  9.542513e-001 -2.990057e-001
    outer loop
      vertex -3.316000e+001 -4.076208e+000  4.392242e-001
      vertex -3.616000e+001 -3.597877e+000  1.965779e+000
      vertex -3.316000e+001 -3.597877e+000  1.965779e+000
    endloop
  endfacet
  facet normal  0.000000e+000  6.414213e-001  7.671888e-001
    outer loop
      vertex -3.616000e+001 -3.192736e+000 -2.571846e+000
      vertex -3.316000e+001 -1.965433e+000 -3.597954e+000
      vertex -3.616000e+001 -1.965433e+000 -3.597954e+000
    endloop
  endfacet
  facet normal  -0.000000e+000  2.990057e-001  9.542513e-001
    outer loop
      vertex -3.616000e+001 -1.965433e+000 -3.597954e+000
      vertex -3.316000e+001 -1.965433e+000 -3.597954e+000
      vertex -3.316000e+001 -4.388781e-001 -4.076286e+000
    endloop
  endfacet
  facet normal  0.000000e+000  2.990057e-001  9.542513e-001
    outer loop
      vertex -3.616000e+001 -1.965433e+000 -3.597954e+000
      vertex -3.316000e+001 -4.388781e-001 -4.076286e+000
      vertex -3.616000e+001 -4.388781e-001 -4.076286e+000
    endloop
  endfacet
  facet normal  0.000000e+000 -8.893099e-002  9.960378e-001
    outer loop
      vertex -3.616000e+001 -4.388781e-001 -4.076286e+000
      vertex -3.316000e+001 -4.388781e-001 -4.076286e+000
      vertex -3.316000e+001  1.154524e+000 -3.934019e+000
    endloop
  endfacet
  facet normal  0.000000e+000 -8.893099e-002  9.960378e-001
    outer loop
      vertex -3.616000e+001 -4.388781e-001 -4.076286e+000
      vertex -3.316000e+001  1.154524e+000 -3.934019e+000
      vertex -3.616000e+001  1.154524e+000 -3.934019e+000
    endloop
  endfacet
  facet normal  0.000000e+000 -4.633287e-001  8.861865e-001
    outer loop
      vertex -3.616000e+001  1.154524e+000 -3.934019e+000
      vertex -3.316000e+001  1.154524e+000 -3.934019e+000
      vertex -3.316000e+001  2.572193e+000 -3.192814e+000
    endloop
  endfacet
  facet normal  0.000000e+000 -4.633287e-001  8.861865e-001
    outer loop
      vertex -3.616000e+001  1.154524e+000 -3.934019e+000
      vertex -3.316000e+001  2.572193e+000 -3.192814e+000
      vertex -3.616000e+001  2.572193e+000 -3.192814e+000
    endloop
  endfacet
  facet normal  0.000000e+000 -7.671887e-001  6.414213e-001
    outer loop
      vertex -3.616000e+001  2.572193e+000 -3.192814e+000
      vertex -3.316000e+001  2.572193e+000 -3.192814e+000
      vertex -3.316000e+001  3.598300e+000 -1.965511e+000
    endloop
  endfacet
  facet normal  0.000000e+000 -7.671887e-001  6.414213e-001
    outer loop
      vertex -3.616000e+001  2.572193e+000 -3.192814e+000
      vertex -3.316000e+001  3.598300e+000 -1.965511e+000
      vertex -3.616000e+001  3.598300e+000 -1.965511e+000
    endloop
  endfacet
  facet normal  -0.000000e+000  1.000000e+000  0.000000e+000
    outer loop
      vertex -2.396000e+001  6.750000e+000 -9.500000e+000
      vertex -2.696000e+001  6.750000e+000  6.600000e+000
      vertex -2.396000e+001  6.750000e+000  9.500000e+000
    endloop
  endfacet
  facet normal  0.000000e+000  1.000000e+000  0.000000e+000
    outer loop
      vertex -2.396000e+001  6.750000e+000  9.500000e+000
      vertex -2.696000e+001  6.750000e+000  6.600000e+000
      vertex -3.316000e+001  6.750000e+000  6.600000e+000
    endloop
  endfacet
  facet normal  0.000000e+000  1.000000e+000  -0.000000e+000
    outer loop
      vertex -2.396000e+001  6.750000e+000  9.500000e+000
      vertex -3.316000e+001  6.750000e+000  6.600000e+000
      vertex -3.616000e+001  6.750000e+000  9.500000e+000
    endloop
  endfacet
  facet normal  0.000000e+000  9.999999e-001  0.000000e+000
    outer loop
      vertex -2.696000e+001  6.750000e+000  6.600000e+000
      vertex -2.396000e+001  6.750000e+000 -9.500000e+000
      vertex -2.696000e+001  6.750000e+000 -6.600000e+000
    endloop
  endfacet
  facet normal  0.000000e+000  1.000000e+000  0.000000e+000
    outer loop
      vertex -2.696000e+001  6.750000e+000 -6.600000e+000
      vertex -2.396000e+001  6.750000e+000 -9.500000e+000
      vertex -3.616000e+001  6.750000e+000 -9.500000e+000
    endloop
  endfacet
  facet normal  0.000000e+000  1.000000e+000  0.000000e+000
    outer loop
      vertex -2.696000e+001  6.750000e+000 -6.600000e+000
      vertex -3.616000e+001  6.750000e+000 -9.500000e+000
      vertex -3.316000e+001  6.750000e+000 -6.600000e+000
    endloop
  endfacet
  facet normal  0.000000e+000  1.000000e+000  0.000000e+000
    outer loop
      vertex -3.316000e+001  6.750000e+000 -6.600000e+000
      vertex -3.616000e+001  6.750000e+000 -9.500000e+000
      vertex -3.616000e+001  6.750000e+000  9.500000e+000
    endloop
  endfacet
  facet normal  0.000000e+000  9.999999e-001  0.000000e+000
    outer loop
      vertex -3.316000e+001  6.750000e+000 -6.600000e+000
      vertex -3.616000e+001  6.750000e+000  9.500000e+000
      vertex -3.316000e+001  6.750000e+000  6.600000e+000
    endloop
  endfacet
  facet normal  -0.000000e+000  0.000000e+000 -9.999999e-001
    outer loop
      vertex -3.616000e+001  6.750000e+000 -9.500000e+000
      vertex -2.396000e+001  6.750000e+000 -9.500000e+000
      vertex -3.616000e+001  2.500000e+000 -9.500000e+000
    endloop
  endfacet
  facet normal  0.000000e+000  0.000000e+000 -9.999999e-001
    outer loop
      vertex -3.616000e+001  2.500000e+000 -9.500000e+000
      vertex -2.396000e+001  6.750000e+000 -9.500000e+000
      vertex -2.396000e+001  2.500000e+000 -9.500000e+000
    endloop
  endfacet
  facet normal  -0.000000e+000  0.000000e+000 -9.999999e-001
    outer loop
      vertex -3.616000e+001 -2.500000e+000 -9.500000e+000
      vertex -2.396000e+001 -2.500000e+000 -9.500000e+000
      vertex -3.616000e+001 -6.750000e+000 -9.500000e+000
    endloop
  endfacet
  facet normal  0.000000e+000  0.000000e+000 -9.999999e-001
    outer loop
      vertex -3.616000e+001 -6.750000e+000 -9.500000e+000
      vertex -2.396000e+001 -2.500000e+000 -9.500000e+000
      vertex -2.396000e+001 -6.750000e+000 -9.500000e+000
    endloop
  endfacet
  facet normal  0.000000e+000 -1.000000e+000  0.000000e+000
    outer loop
      vertex -2.396000e+001 -6.750000e+000  9.500000e+000
      vertex -2.696000e+001 -6.750000e+000 -6.600000e+000
      vertex -2.396000e+001 -6.750000e+000 -9.500000e+000
    endloop
  endfacet
  facet normal  0.000000e+000 -1.000000e+000  0.000000e+000
    outer loop
      vertex -2.396000e+001 -6.750000e+000 -9.500000e+000
      vertex -2.696000e+001 -6.750000e+000 -6.600000e+000
      vertex -3.316000e+001 -6.750000e+000 -6.600000e+000
    endloop
  endfacet
  facet normal  0.000000e+000 -1.000000e+000  -0.000000e+000
    outer loop
      vertex -2.396000e+001 -6.750000e+000 -9.500000e+000
      vertex -3.316000e+001 -6.750000e+000 -6.600000e+000
      vertex -3.616000e+001 -6.750000e+000 -9.500000e+000
    endloop
  endfacet
  facet normal  0.000000e+000 -9.999999e-001  0.000000e+000
    outer loop
      vertex -2.696000e+001 -6.750000e+000 -6.600000e+000
      vertex -2.396000e+001 -6.750000e+000  9.500000e+000
      vertex -2.696000e+001 -6.750000e+000  6.600000e+000
    endloop
  endfacet
  facet normal  0.000000e+000 -1.000000e+000  0.000000e+000
    outer loop
      vertex -2.696000e+001 -6.750000e+000  6.600000e+000
      vertex -2.396000e+001 -6.750000e+000  9.500000e+000
      vertex -3.616000e+001 -6.750000e+000  9.500000e+000
    endloop
  endfacet
  facet normal  0.000000e+000 -1.000000e+000  0.000000e+000
    outer loop
      vertex -2.696000e+001 -6.750000e+000  6.600000e+000
      vertex -3.616000e+001 -6.750000e+000  9.500000e+000
      vertex -3.316000e+001 -6.750000e+000  6.600000e+000
    endloop
  endfacet
  facet normal  -0.000000e+000 -1.000000e+000  0.000000e+000
    outer loop
      vertex -3.316000e+001 -6.750000e+000  6.600000e+000
      vertex -3.616000e+001 -6.750000e+000  9.500000e+000
      vertex -3.616000e+001 -6.750000e+000 -9.500000e+000
    endloop
  endfacet
  facet normal  0.000000e+000 -9.999999e-001  0.000000e+000
    outer loop
      vertex -3.316000e+001 -6.750000e+000  6.600000e+000
      vertex -3.616000e+001 -6.750000e+000 -9.500000e+000
      vertex -3.316000e+001 -6.750000e+000 -6.600000e+000
    endloop
  endfacet
  facet normal  0.000000e+000  0.000000e+000  9.999999e-001
    outer loop
      vertex -3.616000e+001 -6.750000e+000  9.500000e+000
      vertex -2.396000e+001 -6.750000e+000  9.500000e+000
      vertex -3.616000e+001 -2.500000e+000  9.500000e+000
    endloop
  endfacet
  facet normal  -0.000000e+000  0.000000e+000  9.999999e-001
    outer loop
      vertex -3.616000e+001 -2.500000e+000  9.500000e+000
      vertex -2.396000e+001 -6.750000e+000  9.500000e+000
      vertex -2.396000e+001 -2.500000e+000  9.500000e+000
    endloop
  endfacet
  facet normal  0.000000e+000 -9.999999e-001  -0.000000e+000
    outer loop
      vertex -2.396000e+001 -2.500000e+000  9.500000e+000
      vertex -2.396000e+001 -2.500000e+000  1.350000e+001
      vertex -3.616000e+001 -2.500000e+000  9.500000e+000
    endloop
  endfacet
  facet normal  0.000000e+000 -9.999999e-001  0.000000e+000
    outer loop
      vertex -3.616000e+001 -2.500000e+000  9.500000e+000
      vertex -2.396000e+001 -2.500000e+000  1.350000e+001
      vertex -3.616000e+001 -2.500000e+000  1.350000e+001
    endloop
  endfacet
  facet normal  0.000000e+000  0.000000e+000  9.999999e-001
    outer loop
      vertex -3.616000e+001  2.500000e+000  9.500000e+000
      vertex -2.396000e+001  2.500000e+000  9.500000e+000
      vertex -3.616000e+001  6.750000e+000  9.500000e+000
    endloop
  endfacet
  facet normal  -0.000000e+000  0.000000e+000  9.999999e-001
    outer loop
      vertex -3.616000e+001  6.750000e+000  9.500000e+000
      vertex -2.396000e+001  2.500000e+000  9.500000e+000
      vertex -2.396000e+001  6.750000e+000  9.500000e+000
    endloop
  endfacet
  facet normal  0.000000e+000  0.000000e+000  1.000000e+000
    outer loop
      vertex -3.616000e+001 -2.500000e+000  1.350000e+001
      vertex -2.396000e+001 -2.500000e+000  1.350000e+001
      vertex -3.616000e+001  2.500000e+000  1.350000e+001
    endloop
  endfacet
  facet normal  -0.000000e+000  0.000000e+000  1.000000e+000
    outer loop
      vertex -3.616000e+001  2.500000e+000  1.350000e+001
      vertex -2.396000e+001 -2.500000e+000  1.350000e+001
      vertex -2.396000e+001  2.500000e+000  1.350000e+001
    endloop
  endfacet
  facet normal  0.000000e+000  9.999999e-001  0.000000e+000
    outer loop
      vertex -3.616000e+001  2.500000e+000  9.500000e+000
      vertex -3.616000e+001  2.500000e+000  1.350000e+001
      vertex -2.396000e+001  2.500000e+000  9.500000e+000
    endloop
  endfacet
  facet normal  0.000000e+000  9.999999e-001  -0.000000e+000
    outer loop
      vertex -2.396000e+001  2.500000e+000  9.500000e+000
      vertex -3.616000e+001  2.500000e+000  1.350000e+001
      vertex -2.396000e+001  2.500000e+000  1.350000e+001
    endloop
  endfacet
  facet normal  -0.000000e+000  0.000000e+000 -1.000000e+000
    outer loop
      vertex -3.616000e+001  2.500000e+000 -1.350000e+001
      vertex -2.396000e+001  2.500000e+000 -1.350000e+001
      vertex -3.616000e+001 -2.500000e+000 -1.350000e+001
    endloop
  endfacet
  facet normal  0.000000e+000  0.000000e+000 -1.000000e+000
    outer loop
      vertex -3.616000e+001 -2.500000e+000 -1.350000e+001
      vertex -2.396000e+001  2.500000e+000 -1.350000e+001
      vertex -2.396000e+001 -2.500000e+000 -1.350000e+001
    endloop
  endfacet
  facet normal  0.000000e+000  9.999999e-001  0.000000e+000
    outer loop
      vertex -3.616000e+001  2.500000e+000 -1.350000e+001
      vertex -3.616000e+001  2.500000e+000 -9.500000e+000
      vertex -2.396000e+001  2.500000e+000 -1.350000e+001
    endloop
  endfacet
  facet normal  0.000000e+000  9.999999e-001  -0.000000e+000
    outer loop
      vertex -2.396000e+001  2.500000e+000 -1.350000e+001
      vertex -3.616000e+001  2.500000e+000 -9.500000e+000
      vertex -2.396000e+001  2.500000e+000 -9.500000e+000
    endloop
  endfacet
  facet normal  0.000000e+000 -9.999999e-001  -0.000000e+000
    outer loop
      vertex -2.396000e+001 -2.500000e+000 -1.350000e+001
      vertex -2.396000e+001 -2.500000e+000 -9.500000e+000
      vertex -3.616000e+001 -2.500000e+000 -1.350000e+001
    endloop
  endfacet
  facet normal  0.000000e+000 -9.999999e-001  0.000000e+000
    outer loop
      vertex -3.616000e+001 -2.500000e+000 -1.350000e+001
      vertex -2.396000e+001 -2.500000e+000 -9.500000e+000
      vertex -3.616000e+001 -2.500000e+000 -9.500000e+000
    endloop
  endfacet
endsolid CATIA STL
